<svg version="1.1" id="Layer_1" xmlns="http://www.w3.org/2000/svg" xmlns:xlink="http://www.w3.org/1999/xlink" x="0px" y="0px"
	 width="100%" viewBox="0 0 352 352" enable-background="new 0 0 352 352" xml:space="preserve">
<path fill="#000000" opacity="1.000000" stroke="none" 
	d="
M34.000000,1.000000 
	C140.298340,1.000000 246.596680,1.000000 352.947510,1.000000 
	C352.947510,118.259705 352.947510,235.519440 352.947510,352.889587 
	C235.778976,352.889587 118.557808,352.889587 1.000000,352.889587 
	C1.000000,254.311584 1.000000,155.622772 1.179586,56.679783 
	C1.910311,57.167896 1.923233,58.448490 3.628973,58.361855 
	C5.509212,53.983822 9.252333,53.404968 13.481981,54.451908 
	C17.855268,55.534405 20.821671,53.885487 23.165033,50.259499 
	C26.952877,44.398411 30.791281,38.564426 34.793339,32.848534 
	C42.394871,21.991730 38.932709,11.497736 34.000000,1.000000 
M157.039032,95.528610 
	C154.561676,96.806480 151.379669,97.194107 149.983047,99.925354 
	C145.632950,108.432396 139.819733,116.469437 141.313446,126.923317 
	C141.708694,129.689545 141.218384,132.512833 140.619949,135.329071 
	C138.923523,143.312500 140.913742,149.995590 146.824661,156.130646 
	C149.707092,159.122375 152.774719,161.653824 155.905579,164.268173 
	C159.200027,167.019119 159.287857,170.984390 156.083740,171.927048 
	C151.293671,173.336304 148.328491,176.838043 144.949203,179.957016 
	C141.315247,183.311020 136.887619,185.178406 132.200043,186.285492 
	C129.717300,186.871826 126.927925,187.418182 128.003479,190.355743 
	C128.959808,192.967697 128.582199,197.338516 133.842499,196.924240 
	C139.970581,196.441620 146.158691,196.604950 152.318314,196.682327 
	C155.947632,196.727905 160.555405,197.841309 160.838470,201.338501 
	C161.484604,209.321152 162.795212,217.476181 159.678894,225.465958 
	C156.784897,232.885727 150.120605,238.071579 147.699310,245.461105 
	C144.726807,254.532867 138.293488,259.815613 130.670593,264.320129 
	C122.670822,269.047363 114.504906,273.601837 107.510735,279.734436 
	C103.357521,283.376068 98.490105,287.152191 96.827866,292.421509 
	C94.958710,298.346802 94.778931,304.878235 95.532936,311.203674 
	C95.827347,313.673523 96.526512,316.456604 99.781502,316.501495 
	C105.934349,316.586395 112.147911,316.881348 118.231781,316.181274 
	C125.733116,315.318054 133.203476,315.397186 140.649185,315.858704 
	C157.357147,316.894379 174.024368,318.625702 190.737747,319.522156 
	C203.020554,320.180969 215.325485,319.220581 227.622284,318.722900 
	C239.265778,318.251678 250.943634,318.663391 262.605652,318.582031 
	C264.553345,318.568481 267.189850,319.306854 266.979279,315.571381 
	C266.679810,310.257782 266.785797,304.922729 266.593842,299.601318 
	C266.414032,294.617493 265.007690,290.136108 261.003021,286.750916 
	C258.971069,285.033264 256.764862,283.243866 256.117004,280.561737 
	C254.852982,275.328888 251.048889,272.660309 246.730347,270.277100 
	C241.982330,267.656891 236.768616,265.506104 232.757889,262.005096 
	C225.258591,255.458832 220.096985,246.760620 213.768005,239.117004 
	C209.031219,233.396301 208.979889,225.418106 204.399246,219.568741 
	C201.919495,216.402130 202.234222,212.334061 201.728012,208.606491 
	C201.288422,205.369247 202.980499,203.570908 206.376343,203.649460 
	C207.874115,203.684097 209.375748,203.816437 210.868744,203.750076 
	C218.955826,203.390518 227.834854,204.572418 230.753113,193.831558 
	C230.794998,193.677399 230.889465,193.505753 231.012207,193.409912 
	C235.247131,190.103882 232.888840,187.584412 230.112854,184.970367 
	C228.322189,183.284180 226.416168,182.345673 223.884964,182.352814 
	C219.821228,182.364304 216.486801,180.764053 214.207504,177.234528 
	C211.957840,173.750870 209.494324,170.394989 207.418793,166.812607 
	C205.932938,164.248001 206.524628,161.048248 209.562561,160.992004 
	C216.686096,160.860123 217.637253,155.290314 219.385712,150.753357 
	C222.571579,142.486694 221.696548,132.878647 227.627060,125.443382 
	C228.036911,124.929558 228.022125,123.732544 227.731079,123.057510 
	C224.843796,116.361275 222.751175,108.976669 216.608124,104.455063 
	C209.276093,99.058296 201.464706,94.307709 193.801743,89.369118 
	C191.832397,88.099922 189.721558,87.651283 187.171234,88.097313 
	C177.198883,89.841393 167.348785,91.991005 157.039032,95.528610 
M109.583595,22.115677 
	C115.377823,22.215658 120.729240,20.221048 125.972275,18.202969 
	C130.215958,16.569540 130.897263,12.785966 128.159485,9.315082 
	C123.338448,3.203089 110.941109,-0.388055 103.707024,2.310465 
	C102.831573,2.637033 101.875008,3.282229 101.399010,4.053231 
	C98.996262,7.945196 96.893982,12.094204 98.757675,16.742792 
	C100.495758,21.078075 104.582458,21.785431 109.583595,22.115677 
z"/>
<path fill="#000000" opacity="1.000000" stroke="none" 
	d="
M157.844635,140.252808 
	C161.230942,135.076157 163.279053,134.730057 167.664597,137.365479 
	C174.262680,141.330505 181.236832,140.440552 188.044189,137.946564 
	C190.968277,136.875305 193.613586,135.052673 196.407455,133.613937 
	C199.771439,131.881638 202.639267,132.620361 204.515411,135.834976 
	C206.337662,138.957260 205.268570,141.868027 202.365997,143.545471 
	C195.446121,147.544556 188.980362,152.834671 180.023773,151.449692 
	C176.618759,150.923172 173.057968,151.502594 169.585129,151.294708 
	C163.399094,150.924438 158.631149,146.520996 157.844635,140.252808 
z"/>
<path fill="#000000" opacity="1.000000" stroke="none" 
	d="
M199.109070,123.944992 
	C194.667786,127.091667 191.578644,126.820908 189.599777,123.328262 
	C187.806534,120.163208 188.747055,117.504112 191.630814,115.585709 
	C193.800644,114.142242 196.163193,114.332191 198.114441,116.013977 
	C200.557648,118.119812 201.035294,120.736717 199.109070,123.944992 
z"/>
<path fill="#000000" opacity="1.000000" stroke="none" 
	d="
M164.790466,121.099678 
	C165.628342,117.306999 167.762253,115.510078 171.248779,115.841255 
	C173.792908,116.082932 175.501190,117.732552 176.100006,120.196663 
	C176.765137,122.933800 175.660553,125.089691 173.258011,126.495331 
	C169.562500,128.657425 166.289795,126.711937 164.790466,121.099678 
z"/>
</svg>