<?xml version="1.0" standalone="no"?>
<!DOCTYPE svg PUBLIC "-//W3C//DTD SVG 20010904//EN"
 "http://www.w3.org/TR/2001/REC-SVG-20010904/DTD/svg10.dtd">
<svg version="1.0" xmlns="http://www.w3.org/2000/svg"
 width="360.000000pt" height="360.000000pt" viewBox="0 0 360.000000 360.000000"
 preserveAspectRatio="xMidYMid meet">

<g transform="translate(0.000000,360.000000) scale(0.100000,-0.100000)"
fill="#000000" stroke="none">
<path d="M1655 2773 c-11 -3 -27 -10 -35 -17 -8 -6 -41 -25 -74 -41 -54 -28
-94 -72 -113 -123 -4 -9 -17 -30 -30 -46 -13 -16 -35 -50 -47 -75 -22 -42 -24
-59 -24 -211 -1 -91 3 -181 8 -200 7 -26 27 -50 70 -85 l60 -50 -27 -23 c-16
-13 -63 -41 -105 -63 -43 -21 -82 -49 -89 -61 -7 -13 -10 -49 -7 -96 5 -70 7
-76 44 -113 39 -38 40 -38 137 -45 53 -4 97 -11 97 -16 0 -42 -52 -165 -100
-238 -16 -25 -46 -77 -65 -115 -43 -85 -84 -131 -128 -143 -34 -10 -84 -40
-155 -94 -43 -33 -59 -58 -84 -133 -7 -22 -26 -60 -43 -85 -31 -46 -55 -103
-55 -130 0 -8 -10 -21 -21 -28 -19 -12 -21 -20 -16 -73 3 -33 11 -66 17 -74
38 -46 163 -54 920 -61 681 -6 875 1 919 33 25 20 26 23 26 134 -1 105 -3 118
-29 169 -41 80 -121 168 -348 383 -54 51 -108 113 -122 138 -13 25 -32 51 -40
58 -9 8 -16 20 -16 28 0 8 -10 24 -22 36 -36 36 -48 73 -48 147 l0 70 61 0
c33 0 69 -5 80 -11 48 -25 99 33 99 113 0 25 5 69 12 97 13 58 5 75 -40 84
-27 6 -162 120 -162 138 0 5 15 26 33 46 57 64 69 127 65 320 -3 166 -4 169
-35 229 -65 125 -162 200 -288 223 -58 11 -241 13 -280 4z m-225 -714 c0 -6
-4 -7 -10 -4 -5 3 -10 11 -10 16 0 6 5 7 10 4 6 -3 10 -11 10 -16z m850 -459
c0 -5 -5 -10 -11 -10 -5 0 -7 5 -4 10 3 6 8 10 11 10 2 0 4 -4 4 -10z"/>
</g>
</svg>
