<?xml version="1.0" encoding="UTF-8"?>
<svg version="1.1" xmlns="http://www.w3.org/2000/svg" width="360" height="360">
<path d="M0 0 C1.06927734 -0.01611328 2.13855469 -0.03222656 3.24023438 -0.04882812 C14.6006751 -0.05569244 24.32421362 2.17067815 33.9375 8.3125 C33.9375 8.9725 33.9375 9.6325 33.9375 10.3125 C35.4225 10.8075 35.4225 10.8075 36.9375 11.3125 C44.48410405 19.38233527 48.07565543 28.0992376 48.140625 39.0078125 C48.14632507 39.75529755 48.15202515 40.50278259 48.15789795 41.2729187 C48.16732938 42.85478307 48.17387454 44.43666692 48.17773438 46.01855469 C48.18738318 48.40856491 48.21839925 50.79769345 48.25 53.1875 C48.37052844 70.26459475 48.37052844 70.26459475 44.9375 76.3125 C43.9475 76.6425 42.9575 76.9725 41.9375 77.3125 C40.46974975 79.44073787 39.84847841 80.6400446 40.19140625 83.23046875 C42.26592105 89.01955979 48.86339069 93.33421845 53.9375 96.3125 C55.58369113 97.02823527 57.24478055 97.7150696 58.9375 98.3125 C59.02425995 103.42466333 58.73414039 108.36292889 58.125 113.4375 C58.01961914 114.47197266 58.01961914 114.47197266 57.91210938 115.52734375 C57.40475034 119.77292418 56.62868326 122.94533231 53.9375 126.3125 C47.90220588 127.79485294 47.90220588 127.79485294 44.9375 126.3125 C43.06370395 126.24216231 41.18748898 126.2281978 39.3125 126.25 C37.80816406 126.26353516 37.80816406 126.26353516 36.2734375 126.27734375 C35.50257813 126.28894531 34.73171875 126.30054688 33.9375 126.3125 C33.883152 128.3747048 33.84455039 130.43732816 33.8125 132.5 C33.78929687 133.64855469 33.76609375 134.79710937 33.7421875 135.98046875 C34.00210479 140.41465764 34.79434863 143.20398958 38 146.3125 C40.25623885 148.64152075 40.58512415 150.14111733 40.9375 153.3125 C41.9275 153.6425 42.9175 153.9725 43.9375 154.3125 C45.2890625 156.2734375 45.2890625 156.2734375 46.5625 158.6875 C47.20058594 159.87472656 47.20058594 159.87472656 47.8515625 161.0859375 C48.9375 163.3125 48.9375 163.3125 49.9375 166.3125 C52.44197516 167.53119929 52.44197516 167.53119929 54.9375 168.3125 C54.9375 168.9725 54.9375 169.6325 54.9375 170.3125 C55.53046875 170.5703125 56.1234375 170.828125 56.734375 171.09375 C59.11410965 172.41019895 60.44728792 173.73830782 62.1875 175.8125 C62.70828125 176.4209375 63.2290625 177.029375 63.765625 177.65625 C64.9375 179.3125 64.9375 179.3125 64.9375 181.3125 C65.865625 181.580625 66.79375 181.84875 67.75 182.125 C70.69531025 183.22227245 72.08767877 183.84607169 73.9375 186.3125 C73.9375 186.9725 73.9375 187.6325 73.9375 188.3125 C74.9275 188.6425 75.9175 188.9725 76.9375 189.3125 C78.1484375 191.01953125 78.1484375 191.01953125 79.3125 193.125 C81.40777482 196.68505661 83.60029906 198.83343644 86.9375 201.3125 C86.9375 201.9725 86.9375 202.6325 86.9375 203.3125 C87.9275 203.6425 88.9175 203.9725 89.9375 204.3125 C91.2890625 206.45703125 91.2890625 206.45703125 92.5625 209.125 C92.98789062 209.99769531 93.41328125 210.87039063 93.8515625 211.76953125 C96.25690568 217.40218739 96.18843096 222.76231597 96.25 228.8125 C96.27900391 229.76253906 96.30800781 230.71257812 96.33789062 231.69140625 C96.40134739 238.63260007 96.40134739 238.63260007 94.16796875 241.90625 C82.18543268 249.46091372 58.10958396 245.47657947 44.59375 245.48046875 C42.60999368 245.48287417 40.62623734 245.48528214 38.64248133 245.48792917 C32.40732155 245.49602088 26.17217615 245.49851868 19.93701172 245.49780273 C14.29928727 245.49727208 8.66163252 245.50429081 3.02392578 245.51831055 C-50.97548719 245.64907084 -50.97548719 245.64907084 -70.40625 244.55078125 C-71.61768677 244.48980759 -72.82912354 244.42883392 -74.07727051 244.36601257 C-80.35949511 243.92487218 -86.87793227 243.22010007 -92.0625 239.3125 C-93.2635146 236.08453464 -93.16574055 232.98470588 -93.125 229.5625 C-93.11597656 228.57765625 -93.10695313 227.5928125 -93.09765625 226.578125 C-93.08605469 225.83046875 -93.07445313 225.0828125 -93.0625 224.3125 C-91.7425 223.9825 -90.4225 223.6525 -89.0625 223.3125 C-89.124375 222.466875 -89.18625 221.62125 -89.25 220.75 C-88.95265094 215.29860053 -86.86163574 211.2460176 -83.5625 207 C-80.88391373 203.44726433 -79.89692757 199.84947296 -78.72265625 195.6015625 C-76.80838501 188.96391192 -72.54928387 186.04587718 -67.0625 182.3125 C-66.39605469 181.85488281 -65.72960937 181.39726562 -65.04296875 180.92578125 C-61.68328993 178.7191283 -58.48862905 177.01172005 -54.6875 175.6875 C-50.85906663 174.63702466 -50.85906663 174.63702466 -49.0625 171.3125 C-48.4025 171.3125 -47.7425 171.3125 -47.0625 171.3125 C-46.78664062 170.6009375 -46.51078125 169.889375 -46.2265625 169.15625 C-43.17346074 161.69766584 -39.39913559 154.74423244 -35 148 C-30.65589998 141.12948481 -28.29249629 134.06388133 -26.0625 126.3125 C-26.908125 126.32410156 -27.75375 126.33570313 -28.625 126.34765625 C-34.87810618 126.39739687 -40.88255931 126.28190246 -47.0625 125.3125 C-47.3925 124.3225 -47.7225 123.3325 -48.0625 122.3125 C-48.701875 122.02375 -49.34125 121.735 -50 121.4375 C-52.89456801 119.85864472 -53.0970365 118.44498636 -54.0625 115.3125 C-54.3984375 111.68359375 -54.3984375 111.68359375 -54.4375 107.75 C-54.46585938 106.44933594 -54.49421875 105.14867187 -54.5234375 103.80859375 C-54.0625 100.3125 -54.0625 100.3125 -52.44140625 98.07421875 C-49.61673595 95.98238574 -46.73799638 94.32137324 -43.625 92.6875 C-42.51253906 92.09710938 -41.40007812 91.50671875 -40.25390625 90.8984375 C-37.55538159 89.55743259 -34.87931185 88.37604391 -32.0625 87.3125 C-32.7225 86.69375 -33.3825 86.075 -34.0625 85.4375 C-36.0625 83.3125 -36.0625 83.3125 -36.0625 81.3125 C-36.92875 80.94125 -36.92875 80.94125 -37.8125 80.5625 C-40.81559749 78.8941125 -43.4430724 77.00886092 -44.65649414 73.68579102 C-45.65808827 67.83101261 -45.41108819 61.73548171 -45.4675293 55.80688477 C-45.48901993 54.11461875 -45.52301615 52.42246116 -45.57006836 50.73071289 C-46.10039665 31.44827827 -46.10039665 31.44827827 -39.0625 23.3125 C-38.0725 22.9825 -37.0825 22.6525 -36.0625 22.3125 C-35.35344062 20.32713373 -34.69555821 18.32339078 -34.0625 16.3125 C-30.7196221 7.55734361 -22.82611305 4.94199898 -14.70898438 1.23876953 C-9.93918259 -0.43066109 -5.00516748 -0.01471243 0 0 Z " fill="#555251" transform="translate(178.0625,81.6875)"/>
<path d="M0 0 C2.89810896 2.81028748 5.62088684 5.68576554 8.25 8.75 C16.74466052 18.46599584 25.61090148 26.22096437 36.859375 32.62890625 C39 34 39 34 39.5 36.0625 C39.665 36.701875 39.83 37.34125 40 38 C41.64991582 38.70710678 43.3207762 39.36562656 45 40 C46.42856625 41.23376176 47.85656769 42.46821266 49.27734375 43.7109375 C51.86249276 45.64540275 54.6935909 46.74400604 57.6640625 47.97265625 C59.96069733 48.98271471 62.03463487 50.15298382 64.1875 51.4375 C71.49937685 55.5736405 79.76668807 58.93814748 88.1875 59.625 C92 60 92 60 93.5859375 61.21875 C95.256494 63.32309741 96.30786498 65.43795134 97.4375 67.875 C99.28169686 71.68486777 101.22704007 74.77978847 104 78 C108.96087705 84.85768299 110.6864636 90.61875832 110 99 C109 102 109 102 107 103 C92.94016924 104.57900733 78.65317502 104.16375832 64.53125 104.16796875 C61.96276838 104.17119242 59.39428693 104.17455727 56.82580566 104.17805481 C51.45336403 104.18401654 46.08094037 104.18594142 40.70849609 104.18530273 C35.26478102 104.18477223 29.82113812 104.19178271 24.37744141 104.20581055 C-28.00780684 104.33765311 -28.00780684 104.33765311 -47.53125 103.11328125 C-49.42260681 102.99668404 -49.42260681 102.99668404 -51.35217285 102.87773132 C-60.12988786 102.22537102 -60.12988786 102.22537102 -64 100 C-62.39969723 90.24205628 -60.73010849 81.03869181 -54.4609375 73.03515625 C-52.8522168 70.79413089 -52.03910145 68.72169528 -51.125 66.125 C-48.09004581 58.3550609 -43.51802849 53.66981729 -36 50 C-34.17056696 49.4453031 -32.33696791 48.90420959 -30.5 48.375 C-23.59050981 45.99836537 -20.45996566 41.21634979 -17 35 C-15.91679628 32.5235722 -14.97291113 30.03646145 -14.0625 27.4921875 C-11.92039182 22.46768376 -8.5388585 17.20609549 -4.390625 13.6015625 C-2.34421204 11.24473858 -1.99377565 8.82957788 -1.3125 5.8125 C-0.93544922 4.18248047 -0.93544922 4.18248047 -0.55078125 2.51953125 C-0.36902344 1.68808594 -0.18726563 0.85664063 0 0 Z " fill="#555251" transform="translate(157,216)"/>
<path d="M0 0 C1.06927734 -0.01611328 2.13855469 -0.03222656 3.24023438 -0.04882812 C14.6006751 -0.05569244 24.32421362 2.17067815 33.9375 8.3125 C33.9375 8.9725 33.9375 9.6325 33.9375 10.3125 C35.4225 10.8075 35.4225 10.8075 36.9375 11.3125 C44.48410405 19.38233527 48.07565543 28.0992376 48.140625 39.0078125 C48.14632507 39.75529755 48.15202515 40.50278259 48.15789795 41.2729187 C48.16732938 42.85478307 48.17387454 44.43666692 48.17773438 46.01855469 C48.18738318 48.40856491 48.21839925 50.79769345 48.25 53.1875 C48.37052844 70.26459475 48.37052844 70.26459475 44.9375 76.3125 C43.9475 76.6425 42.9575 76.9725 41.9375 77.3125 C40.46974975 79.44073787 39.84847841 80.6400446 40.19140625 83.23046875 C42.26592105 89.01955979 48.86339069 93.33421845 53.9375 96.3125 C55.58369113 97.02823527 57.24478055 97.7150696 58.9375 98.3125 C59.02425995 103.42466333 58.73414039 108.36292889 58.125 113.4375 C58.01961914 114.47197266 58.01961914 114.47197266 57.91210938 115.52734375 C57.40475034 119.77292418 56.62868326 122.94533231 53.9375 126.3125 C47.90220588 127.79485294 47.90220588 127.79485294 44.9375 126.3125 C43.06370395 126.24216231 41.18748898 126.2281978 39.3125 126.25 C37.80816406 126.26353516 37.80816406 126.26353516 36.2734375 126.27734375 C35.50257813 126.28894531 34.73171875 126.30054688 33.9375 126.3125 C33.883152 128.3747048 33.84455039 130.43732816 33.8125 132.5 C33.78929687 133.64855469 33.76609375 134.79710937 33.7421875 135.98046875 C34.00210479 140.41465764 34.79434863 143.20398958 38 146.3125 C40.25623885 148.64152075 40.58512415 150.14111733 40.9375 153.3125 C41.9275 153.6425 42.9175 153.9725 43.9375 154.3125 C45.2890625 156.2734375 45.2890625 156.2734375 46.5625 158.6875 C47.20058594 159.87472656 47.20058594 159.87472656 47.8515625 161.0859375 C48.9375 163.3125 48.9375 163.3125 49.9375 166.3125 C52.44197516 167.53119929 52.44197516 167.53119929 54.9375 168.3125 C54.9375 168.9725 54.9375 169.6325 54.9375 170.3125 C55.53046875 170.5703125 56.1234375 170.828125 56.734375 171.09375 C59.11410965 172.41019895 60.44728792 173.73830782 62.1875 175.8125 C62.70828125 176.4209375 63.2290625 177.029375 63.765625 177.65625 C64.9375 179.3125 64.9375 179.3125 64.9375 181.3125 C65.865625 181.580625 66.79375 181.84875 67.75 182.125 C70.69531025 183.22227245 72.08767877 183.84607169 73.9375 186.3125 C73.9375 186.9725 73.9375 187.6325 73.9375 188.3125 C74.9275 188.6425 75.9175 188.9725 76.9375 189.3125 C78.1484375 191.01953125 78.1484375 191.01953125 79.3125 193.125 C81.40777482 196.68505661 83.60029906 198.83343644 86.9375 201.3125 C86.9375 201.9725 86.9375 202.6325 86.9375 203.3125 C87.9275 203.6425 88.9175 203.9725 89.9375 204.3125 C91.2890625 206.45703125 91.2890625 206.45703125 92.5625 209.125 C92.98789062 209.99769531 93.41328125 210.87039063 93.8515625 211.76953125 C96.25690568 217.40218739 96.18843096 222.76231597 96.25 228.8125 C96.27900391 229.76253906 96.30800781 230.71257812 96.33789062 231.69140625 C96.40134739 238.63260007 96.40134739 238.63260007 94.16796875 241.90625 C82.18543268 249.46091372 58.10958396 245.47657947 44.59375 245.48046875 C42.60999368 245.48287417 40.62623734 245.48528214 38.64248133 245.48792917 C32.40732155 245.49602088 26.17217615 245.49851868 19.93701172 245.49780273 C14.29928727 245.49727208 8.66163252 245.50429081 3.02392578 245.51831055 C-50.97548719 245.64907084 -50.97548719 245.64907084 -70.40625 244.55078125 C-71.61768677 244.48980759 -72.82912354 244.42883392 -74.07727051 244.36601257 C-80.35949511 243.92487218 -86.87793227 243.22010007 -92.0625 239.3125 C-93.2635146 236.08453464 -93.16574055 232.98470588 -93.125 229.5625 C-93.11597656 228.57765625 -93.10695313 227.5928125 -93.09765625 226.578125 C-93.08605469 225.83046875 -93.07445313 225.0828125 -93.0625 224.3125 C-91.7425 223.9825 -90.4225 223.6525 -89.0625 223.3125 C-89.124375 222.466875 -89.18625 221.62125 -89.25 220.75 C-88.95265094 215.29860053 -86.86163574 211.2460176 -83.5625 207 C-80.88391373 203.44726433 -79.89692757 199.84947296 -78.72265625 195.6015625 C-76.80838501 188.96391192 -72.54928387 186.04587718 -67.0625 182.3125 C-66.39605469 181.85488281 -65.72960937 181.39726562 -65.04296875 180.92578125 C-61.68328993 178.7191283 -58.48862905 177.01172005 -54.6875 175.6875 C-50.85906663 174.63702466 -50.85906663 174.63702466 -49.0625 171.3125 C-48.4025 171.3125 -47.7425 171.3125 -47.0625 171.3125 C-46.78664062 170.6009375 -46.51078125 169.889375 -46.2265625 169.15625 C-43.17346074 161.69766584 -39.39913559 154.74423244 -35 148 C-30.65589998 141.12948481 -28.29249629 134.06388133 -26.0625 126.3125 C-26.908125 126.32410156 -27.75375 126.33570313 -28.625 126.34765625 C-34.87810618 126.39739687 -40.88255931 126.28190246 -47.0625 125.3125 C-47.3925 124.3225 -47.7225 123.3325 -48.0625 122.3125 C-48.701875 122.02375 -49.34125 121.735 -50 121.4375 C-52.89456801 119.85864472 -53.0970365 118.44498636 -54.0625 115.3125 C-54.3984375 111.68359375 -54.3984375 111.68359375 -54.4375 107.75 C-54.46585938 106.44933594 -54.49421875 105.14867187 -54.5234375 103.80859375 C-54.0625 100.3125 -54.0625 100.3125 -52.44140625 98.07421875 C-49.61673595 95.98238574 -46.73799638 94.32137324 -43.625 92.6875 C-42.51253906 92.09710938 -41.40007812 91.50671875 -40.25390625 90.8984375 C-37.55538159 89.55743259 -34.87931185 88.37604391 -32.0625 87.3125 C-32.7225 86.69375 -33.3825 86.075 -34.0625 85.4375 C-36.0625 83.3125 -36.0625 83.3125 -36.0625 81.3125 C-36.92875 80.94125 -36.92875 80.94125 -37.8125 80.5625 C-40.81559749 78.8941125 -43.4430724 77.00886092 -44.65649414 73.68579102 C-45.65808827 67.83101261 -45.41108819 61.73548171 -45.4675293 55.80688477 C-45.48901993 54.11461875 -45.52301615 52.42246116 -45.57006836 50.73071289 C-46.10039665 31.44827827 -46.10039665 31.44827827 -39.0625 23.3125 C-38.0725 22.9825 -37.0825 22.6525 -36.0625 22.3125 C-35.35344062 20.32713373 -34.69555821 18.32339078 -34.0625 16.3125 C-30.7196221 7.55734361 -22.82611305 4.94199898 -14.70898438 1.23876953 C-9.93918259 -0.43066109 -5.00516748 -0.01471243 0 0 Z M-25.8125 16.2421875 C-27.07723645 18.2104336 -28.05465805 20.20306336 -29.0625 22.3125 C-30.08355733 23.86789303 -31.12603348 25.40939844 -32.1875 26.9375 C-36.29300132 32.90712084 -38.44407223 37.414947 -38.390625 44.79296875 C-38.38875183 45.48763748 -38.38687866 46.18230621 -38.38494873 46.89802551 C-38.37826479 48.35613863 -38.36442372 49.81423493 -38.34375 51.2722168 C-38.31244511 53.50391302 -38.30275808 55.73490222 -38.296875 57.96679688 C-38.44309307 65.24613664 -38.44309307 65.24613664 -37.0625 72.3125 C-34.00741974 75.34527199 -34.00741974 75.34527199 -30.0625 76.3125 C-29.7325 77.3025 -29.4025 78.2925 -29.0625 79.3125 C-28.4025 79.93125 -27.7425 80.55 -27.0625 81.1875 C-24.79189356 83.60001935 -24.42241425 85.07327175 -24.0625 88.3125 C-29.00135448 92.73147506 -34.32675089 96.01557334 -40.0625 99.3125 C-40.78824219 99.73144531 -41.51398438 100.15039062 -42.26171875 100.58203125 C-43.85834271 101.4985517 -45.45980876 102.40663104 -47.0625 103.3125 C-47.08958567 104.91657328 -47.10893483 106.5207785 -47.125 108.125 C-47.13660156 109.01832031 -47.14820313 109.91164063 -47.16015625 110.83203125 C-47.17259967 113.44663791 -47.17259967 113.44663791 -46.0625 116.3125 C-40.19014355 120.2274043 -33.41940596 119.38622571 -26.6328125 119.18554688 C-24.77579474 119.1559876 -22.9177942 119.22722302 -21.0625 119.3125 C-19.0625 121.3125 -19.0625 121.3125 -18.9453125 123.16796875 C-19.95029442 132.84497205 -21.1851321 144.42595638 -28.41015625 151.50390625 C-33.23546433 156.78550824 -36.43062285 163.7222796 -39.0625 170.3125 C-43.04663021 177.94676148 -46.98257292 181.29909237 -55.0546875 184.171875 C-61.37704316 186.56944364 -67.53828444 190.4388074 -71.0625 196.3125 C-72.09474766 199.05520761 -73.04482529 201.81931825 -73.98828125 204.59375 C-75.47807362 208.36427905 -77.61508443 211.09221635 -80.0625 214.3125 C-81.77686122 217.97640556 -82.52997058 221.44730273 -83.125 225.4375 C-83.59489429 228.55200595 -84.06519636 231.32058907 -85.0625 234.3125 C-79.91634273 237.27161562 -74.40658777 237.06743496 -68.59375 237.42578125 C-67.92413742 237.4677746 -67.25452484 237.50976795 -66.56462097 237.55303383 C-42.63927008 238.99518684 -18.61880275 238.5748315 5.33815861 238.51309693 C10.78982438 238.49971085 16.24145002 238.497398 21.69313002 238.4980461 C27.6807091 238.49866101 33.66826334 238.49340766 39.65583801 238.48525429 C42.16575502 238.48210412 44.67567378 238.48010891 47.18559265 238.47936058 C68.03061368 239.99567738 68.03061368 239.99567738 87.9375 236.3125 C90.16987262 229.61538215 89.27545055 223.75193088 86.203125 217.48828125 C84.53377248 214.61843757 82.57024777 212.07664983 80.5078125 209.48046875 C78.71813987 207.00965205 77.34702936 204.45467282 75.9375 201.75 C72.21082961 194.76128307 68.86086949 190.16495992 61.71875 186.53125 C58.70192745 184.46710826 56.8802072 181.46145444 54.75390625 178.53125 C52.95158668 176.32970695 51.29502773 175.00010027 48.9375 173.4375 C44.56486083 170.39860019 42.29863872 166.59232182 39.6015625 162.06640625 C36.90280037 157.60014498 33.73890189 153.46417448 30.390625 149.46484375 C26.84466255 144.21262518 26.38903992 138.33847707 25.9375 132.1875 C25.84855469 131.38957031 25.75960937 130.59164062 25.66796875 129.76953125 C25.50358062 127.47956634 25.4701202 125.56078263 25.9375 123.3125 C29.10644574 120.0222549 31.76683993 119.1109921 36.20703125 118.95703125 C37.72197356 118.99250692 39.23655562 119.0488762 40.75 119.125 C43.48091376 119.21807354 46.20467942 119.27993117 48.9375 119.3125 C51.64190299 116.60809701 51.25881416 110.83404877 51.3828125 107.1171875 C51.26183535 103.30486342 51.26183535 103.30486342 49.0546875 100.8203125 C46.51170759 98.82767228 46.51170759 98.82767228 43.703125 97.09375 C40.88317295 95.2775097 38.97686153 93.36487668 36.75 90.875 C34.22277606 88.24483415 32.58638248 86.83167967 28.9375 86.3125 C27.9475 86.3125 26.9575 86.3125 25.9375 86.3125 C25.25 84.5 25.25 84.5 24.9375 82.3125 C26.59070081 79.78407524 27.7933926 79.34452387 30.75 78.6875 C35.51788646 76.63076466 37.57434726 72.82327363 39.9375 68.3125 C41.70777032 62.88593465 41.20069482 56.9658494 41.23266602 51.31542969 C41.24413534 49.90744944 41.26450676 48.49951093 41.29418945 47.09179688 C41.54854218 35.00791084 40.17819154 25.96940931 31.65625 16.99609375 C22.1306292 7.66531519 10.94728156 6.89603086 -1.87109375 6.7890625 C-11.07207499 6.96772233 -19.38873071 9.15883476 -25.8125 16.2421875 Z " fill="#000000" transform="translate(178.0625,81.6875)"/>
<path d="M0 0 C31.32040447 -0.41277905 31.32040447 -0.41277905 45 2 C45.05607422 3.93552734 45.05607422 3.93552734 45.11328125 5.91015625 C45.17897702 7.62763149 45.2454231 9.34507815 45.3125 11.0625 C45.34633789 12.33383789 45.34633789 12.33383789 45.38085938 13.63085938 C45.71959017 21.60642997 47.83814464 26.84494061 52.75 33.25 C55.56204611 36.97890632 58.06714366 40.72757712 60.4375 44.75 C63.31588288 49.37901666 66.38052972 52.13418616 70.8046875 55.24609375 C73.21864456 57.17468222 74.81457649 59.19106399 76.625 61.6875 C78.79663545 64.67413151 80.5334353 66.59521663 83.8125 68.3125 C86.98045393 69.98965208 87.92831651 70.66587358 89 74 C82.16145597 76.3003798 74.43784484 71.96318663 68.21875 69.10546875 C65.1377671 67.57040156 62.1686481 65.85692811 59.18359375 64.14453125 C57.13760418 63.07212527 55.1929726 62.33283076 53 61.625 C46.88752598 59.49359623 41.25886231 54.83656288 37 50 C37 49.34 37 48.68 37 48 C36.41605469 47.88914063 35.83210938 47.77828125 35.23046875 47.6640625 C32.76036731 46.92865577 31.33406952 45.96004612 29.3125 44.375 C28.61125 43.82714844 27.91 43.27929688 27.1875 42.71484375 C26.465625 42.14894531 25.74375 41.58304688 25 41 C24.319375 40.50628906 23.63875 40.01257813 22.9375 39.50390625 C14.73913871 33.4606289 0.91460461 23.22286693 -2 13 C-1.82689367 10.79907668 -1.39083074 9.02036091 -0.61328125 6.95703125 C0.13304317 4.57544824 0.04003038 2.48315871 0 0 Z " fill="#444141" transform="translate(159,202)"/>
<path d="M0 0 C0.86355975 12.31372241 -0.25659777 21.82508442 -7.60546875 32.28515625 C-12.37747319 37.62390706 -18.75603312 39.89033894 -25.5546875 41.66796875 C-31.71443024 45.02335577 -33.48299545 53.73812115 -35.5625 60 C-37.50670788 65.77658217 -39.51158713 71.43321619 -42 77 C-43.2375 77.04125 -44.475 77.0825 -45.75 77.125 C-46.44609375 77.14820313 -47.1421875 77.17140625 -47.859375 77.1953125 C-50.30155975 76.97248542 -51.88636771 76.20915 -54 75 C-52.39969723 65.24205628 -50.73010849 56.03869181 -44.4609375 48.03515625 C-42.8522168 45.79413089 -42.03910145 43.72169528 -41.125 41.125 C-38.09004581 33.3550609 -33.51802849 28.66981729 -26 25 C-24.17056696 24.4453031 -22.33696791 23.90420959 -20.5 23.375 C-13.61146094 21.02141582 -10.45408688 16.18324194 -7 10 C-5.85754891 7.36259433 -4.93950335 4.71961497 -4 2 C-1 0 -1 0 0 0 Z " fill="#747171" transform="translate(147,241)"/>
<path d="M0 0 C7.64863338 3.94020508 12.93652544 10.01190773 16 18 C17.73328284 23.49137684 17.2245228 29.40494101 17.24023438 35.10693359 C17.24990542 37.22924518 17.28093753 39.35057302 17.3125 41.47265625 C17.38116884 50.19045093 17.0257482 57.16991086 11.6875 64.375 C8.77582572 67.21896093 6.78815819 67.76473102 3 69 C2.525625 69.86625 2.05125 70.7325 1.5625 71.625 C0.7890625 72.800625 0.7890625 72.800625 0 74 C-4.41693823 74.57256607 -8.12413815 74.27991874 -12 72 C-12.83984375 70.15625 -12.83984375 70.15625 -13 68 C-11.63671875 66.078125 -11.63671875 66.078125 -9.6875 64.25 C-8.73423828 63.32960938 -8.73423828 63.32960938 -7.76171875 62.390625 C-6 61 -6 61 -4 61 C-3.773125 60.443125 -3.54625 59.88625 -3.3125 59.3125 C-2 57 -2 57 0.375 54.875 C7.97045872 46.55616426 8.60901586 35.16426525 8.421875 24.4453125 C8.09102948 18.7034646 5.81472499 15.18357881 2 11 C-0.43182828 7.43331852 -1.48380732 5.35426589 -1 1 C-0.67 0.67 -0.34 0.34 0 0 Z " fill="#434040" transform="translate(202,93)"/>
<path d="M0 0 C1.8125 1.25 1.8125 1.25 3 3 C3 4.32 3 5.64 3 7 C3.763125 7.28875 4.52625 7.5775 5.3125 7.875 C8 9 8 9 11 11 C17.16306043 11.81679114 21.56285345 11.03468644 27 8 C29.96841562 7.58580247 31.30161612 7.54243815 33.8125 9.1875 C35 11 35 11 35.5625 13.375 C34.87597043 16.57880464 33.40348594 17.85219528 30.8984375 19.88671875 C24.11868934 23.86249699 16.61309939 23.92035348 9 23 C2.08506946 20.69766951 -4.36611652 17.48907765 -8 11 C-8.68617822 7.39756436 -8.74196059 4.24961783 -6.8125 1 C-4.33474158 -0.36703913 -2.78844081 -0.41826612 0 0 Z " fill="#000000" transform="translate(164,130)"/>
<path d="M0 0 C4.76724656 0.29692193 6.71200118 2.3343655 9.875 5.75 C12.85935589 8.94017354 15.26442623 11.29278902 19.1875 13.1875 C22 16 22 16 22.203125 19.6328125 C22.03504847 23.45870559 21.56665271 27.21437892 21 31 C17.44512332 32.18495889 14.25474663 32.07080051 10.5625 32 C6.47856763 31.93612618 2.93370484 31.91750628 -1 33 C-1.33 32.67 -1.66 32.34 -2 32 C-1.78959276 30.00113126 -1.57189619 28.0028872 -1.328125 26.0078125 C-0.92161473 22.28146834 -0.63161942 18.55150496 -0.375 14.8125 C-0.3229541 14.13566162 -0.2709082 13.45882324 -0.21728516 12.76147461 C0.05315002 8.6602096 -0.27807833 5.03174897 -1 1 C-0.67 0.67 -0.34 0.34 0 0 Z " fill="#434040" transform="translate(207,169)"/>
<path d="M0 0 C-1.16369126 3.49107379 -1.88973538 3.85222763 -4.9375 5.6875 C-6.00291016 6.34298828 -6.00291016 6.34298828 -7.08984375 7.01171875 C-9 8 -9 8 -11 8 C-11.433125 8.8971875 -11.433125 8.8971875 -11.875 9.8125 C-13 12 -13 12 -15 15 C-15.66 15 -16.32 15 -17 15 C-17.99 17.475 -17.99 17.475 -19 20 C-19.66 20 -20.32 20 -21 20 C-21.28875 20.763125 -21.5775 21.52625 -21.875 22.3125 C-23 25 -23 25 -25 28 C-25.33761992 31.00011625 -25.44142504 33.97603823 -25.55859375 36.9921875 C-26.05233006 40.35658537 -26.9423538 42.30733858 -29 45 C-31.6875 45.3125 -31.6875 45.3125 -34 45 C-35.91633895 33.50196628 -34.20468413 26.93778198 -27.5078125 17.296875 C-25.98359302 15.08747467 -25.98359302 15.08747467 -24.9921875 12.890625 C-20.57501476 3.91715596 -9.61026485 -0.58988838 0 0 Z " fill="#737070" transform="translate(175,89)"/>
<path d="M0 0 C1.67542976 0.28604898 3.34385343 0.61781233 5 1 C6.42258812 4.82320557 7.24042276 7.91281305 7 12 C2.37183267 14.35582065 -1.75534135 14.23521469 -6.8125 14.125 C-7.99489258 14.11146484 -7.99489258 14.11146484 -9.20117188 14.09765625 C-11.13424666 14.07422504 -13.0671638 14.03835838 -15 14 C-15 12.35 -15 10.7 -15 9 C-13.50146484 8.15115234 -13.50146484 8.15115234 -11.97265625 7.28515625 C-10.66922254 6.5443558 -9.36583975 5.80346575 -8.0625 5.0625 C-7.40314453 4.68931641 -6.74378906 4.31613281 -6.06445312 3.93164062 C-2.84167167 2.23037187 -2.84167167 2.23037187 0 0 Z " fill="#737070" transform="translate(146,176)"/>
<path d="M0 0 C1.875 1.0625 1.875 1.0625 3 3 C2.6875 6.6875 2.6875 6.6875 2 10 C-4.42548263 11.33359073 -4.42548263 11.33359073 -6.9375 9.875 C-8.36066991 7.36352369 -8.42674516 5.84496772 -8 3 C-5.85607122 -0.27231235 -3.76836426 -0.56525464 0 0 Z " fill="#020202" transform="translate(195,111)"/>
<path d="M0 0 C1.875 1.0625 1.875 1.0625 3 3 C2.6875 6.6875 2.6875 6.6875 2 10 C-4.42548263 11.33359073 -4.42548263 11.33359073 -6.9375 9.875 C-8.36066991 7.36352369 -8.42674516 5.84496772 -8 3 C-5.85607122 -0.27231235 -3.76836426 -0.56525464 0 0 Z " fill="#020202" transform="translate(172,111)"/>
</svg>
