<?xml version="1.0" standalone="no"?>
<!DOCTYPE svg PUBLIC "-//W3C//DTD SVG 20010904//EN"
 "http://www.w3.org/TR/2001/REC-SVG-20010904/DTD/svg10.dtd">
<svg version="1.0" xmlns="http://www.w3.org/2000/svg"
 width="360.000000pt" height="360.000000pt" viewBox="0 0 360.000000 360.000000"
 preserveAspectRatio="xMidYMid meet">

<g transform="translate(0.000000,360.000000) scale(0.100000,-0.100000)"
fill="#000000" stroke="none">
<path d="M1613 3329 c-6 -8 -13 -64 -15 -131 -1 -64 -7 -120 -11 -124 -5 -5
-55 -10 -112 -12 -66 -3 -108 -9 -115 -16 -6 -9 -5 -36 6 -87 12 -55 14 -101
9 -180 -7 -104 -6 -107 16 -123 17 -12 46 -16 110 -16 l87 0 -13 -51 c-19 -73
-26 -77 -81 -51 -60 29 -145 39 -399 47 -191 5 -216 4 -272 -14 -97 -31 -133
-54 -208 -133 -56 -59 -81 -97 -128 -193 -50 -101 -60 -132 -69 -206 -6 -48
-7 -95 -3 -105 4 -11 7 -47 6 -80 -2 -36 4 -81 13 -108 9 -26 21 -78 26 -116
6 -44 19 -82 35 -105 34 -51 177 -189 264 -255 156 -120 173 -140 211 -259 19
-60 18 -71 -8 -71 -29 0 -78 -36 -110 -82 -66 -92 -81 -130 -88 -229 -4 -52
-13 -112 -20 -134 -18 -54 -18 -110 2 -126 12 -10 192 -13 907 -16 779 -2 902
-4 975 -19 93 -18 151 -14 200 16 l32 20 0 111 c0 60 -4 118 -9 128 -5 9 -14
58 -20 109 -15 133 -25 145 -199 218 l-33 14 17 32 c30 58 73 105 132 144 76
50 160 130 182 174 16 31 36 54 110 125 45 43 107 123 117 151 57 155 65 326
23 454 -37 112 -84 216 -123 272 -68 99 -115 139 -207 173 -25 9 -63 24 -85
32 -22 8 -74 18 -116 22 -47 4 -86 13 -104 25 -41 27 -136 33 -185 11 -21 -10
-46 -15 -56 -11 -9 3 -57 -8 -106 -25 -92 -31 -107 -30 -108 9 0 7 -11 35 -25
62 l-25 50 100 0 c137 0 136 -2 132 220 -2 117 -7 171 -16 185 -16 24 -140 50
-201 43 l-36 -4 6 96 c6 83 5 98 -10 110 -11 9 -61 16 -158 22 -78 4 -162 10
-187 14 -33 4 -49 2 -57 -7z m-68 -1330 c11 -17 2 -18 -19 -3 -17 12 -17 14
-4 14 9 0 20 -5 23 -11z m910 -25 c73 -34 95 -68 95 -149 0 -58 -2 -62 -54
-120 -29 -33 -67 -88 -84 -121 -26 -51 -40 -67 -88 -95 -107 -64 -98 -61 -156
-46 l-53 13 -3 219 c-3 254 -4 248 90 294 85 41 170 43 253 5z m-1025 -9 c8
-7 24 -15 35 -17 31 -5 45 -76 52 -254 4 -112 2 -176 -7 -212 l-12 -52 -64 0
c-63 0 -65 1 -78 33 -7 17 -21 48 -29 68 -21 48 -131 166 -176 187 -45 22 -68
62 -76 134 -7 57 -7 58 25 75 18 10 46 28 64 40 29 21 38 22 141 17 70 -3 115
-10 125 -19z m-747 -519 c26 -24 47 -50 47 -56 0 -14 -102 70 -108 88 -7 23
16 11 61 -32z"/>
</g>
</svg>
