<?xml version="1.0" encoding="UTF-8"?>
<svg version="1.1" xmlns="http://www.w3.org/2000/svg" width="360" height="360">
<path d="M0 0 C0.76957031 0.00257812 1.53914063 0.00515625 2.33203125 0.0078125 C3.08871094 0.00523438 3.84539062 0.00265625 4.625 0 C7.14453125 0.1328125 7.14453125 0.1328125 9.75390625 0.61328125 C15.5198658 1.49677505 21.35260219 1.49336865 27.17773438 1.65039062 C28.60182617 1.70163086 28.60182617 1.70163086 30.0546875 1.75390625 C31.34064819 1.79149048 31.34064819 1.79149048 32.65258789 1.82983398 C35.41610139 2.16583087 37.61237829 2.99976118 40.14453125 4.1328125 C40.3290415 17.7660699 40.3290415 17.7660699 39.14453125 24.1328125 C40.37816406 24.09800781 40.37816406 24.09800781 41.63671875 24.0625 C56.07123282 23.82914758 56.07123282 23.82914758 62.14453125 26.1328125 C64.64072199 29.87709861 64.59744713 33.02953702 64.76953125 37.3828125 C64.80530273 38.18114502 64.84107422 38.97947754 64.87792969 39.80200195 C64.97978477 42.24531127 65.06390755 44.68871993 65.14453125 47.1328125 C65.18755371 48.22118408 65.18755371 48.22118408 65.23144531 49.33154297 C65.30551352 51.32716547 65.35065181 53.32379807 65.39453125 55.3203125 C65.43320312 57.04314453 65.43320312 57.04314453 65.47265625 58.80078125 C65.14453125 62.1328125 65.14453125 62.1328125 62.14453125 69.1328125 C55.54453125 69.1328125 48.94453125 69.1328125 42.14453125 69.1328125 C44.12453125 73.0928125 44.12453125 73.0928125 46.14453125 77.1328125 C46.85359063 79.11817877 47.53874872 81.11353739 48.14453125 83.1328125 C49.14613281 82.771875 50.14773437 82.4109375 51.1796875 82.0390625 C52.52193695 81.56974451 53.86439626 81.1010264 55.20703125 80.6328125 C55.86380859 80.39433594 56.52058594 80.15585938 57.19726562 79.91015625 C61.68730962 78.36186522 65.35609172 78.08682509 70.14453125 78.1328125 C71.48848257 77.48781865 72.82246537 76.82155341 74.14453125 76.1328125 C81.40818071 75.40170007 87.71772434 75.56236422 94.14453125 79.1328125 C96.49874486 80.3099193 98.60377042 80.397752 101.19702148 80.62597656 C113.341258 81.76472226 128.19988638 85.25786616 137.14453125 94.1328125 C137.48133416 95.46527364 137.81510749 96.79850786 138.14453125 98.1328125 C139.13453125 98.4628125 140.12453125 98.7928125 141.14453125 99.1328125 C153.70236215 116.79567466 160.32284693 138.55751028 158.14453125 160.1328125 C156.76136236 167.92586147 154.88545527 176.65058394 150.14453125 183.1328125 C149.48453125 183.1328125 148.82453125 183.1328125 148.14453125 183.1328125 C147.81453125 184.1228125 147.48453125 185.1128125 147.14453125 186.1328125 C146.48453125 186.1328125 145.82453125 186.1328125 145.14453125 186.1328125 C144.97953125 186.9990625 144.81453125 187.8653125 144.64453125 188.7578125 C143.07894201 192.2803883 142.49642156 192.80385046 139.45703125 194.8203125 C134.75234293 198.0167583 132.38572796 202.06095777 129.58984375 206.9375 C129.11289062 207.66195312 128.6359375 208.38640625 128.14453125 209.1328125 C127.48453125 209.1328125 126.82453125 209.1328125 126.14453125 209.1328125 C125.87640625 209.7721875 125.60828125 210.4115625 125.33203125 211.0703125 C124.14453125 213.1328125 124.14453125 213.1328125 121.14453125 214.1328125 C120.81453125 215.1228125 120.48453125 216.1128125 120.14453125 217.1328125 C117.4921875 219.17578125 117.4921875 219.17578125 114.20703125 221.3203125 C113.12550781 222.03574219 112.04398438 222.75117188 110.9296875 223.48828125 C108.14453125 225.1328125 108.14453125 225.1328125 106.14453125 225.1328125 C105.86867188 225.70773438 105.5928125 226.28265625 105.30859375 226.875 C103.78750744 229.82529493 101.98103544 232.55088412 100.16796875 235.328125 C98.98009872 237.07698507 98.98009872 237.07698507 99.14453125 239.1328125 C100.253125 239.58011719 101.36171875 240.02742187 102.50390625 240.48828125 C103.96775629 241.09821877 105.43128111 241.70893722 106.89453125 242.3203125 C107.62414062 242.61228516 108.35375 242.90425781 109.10546875 243.20507812 C113.61277991 245.11044148 116.70828584 246.69130367 119.14453125 251.1328125 C119.99087175 254.50092473 120.43107731 257.87407651 120.83203125 261.3203125 C121.0624372 263.12664427 121.29538579 264.93265409 121.53125 266.73828125 C121.62623779 267.53387451 121.72122559 268.32946777 121.8190918 269.14916992 C122.05503818 271.20091683 122.05503818 271.20091683 123.14453125 273.1328125 C123.46718054 277.27211701 123.46888947 281.41998879 123.51953125 285.5703125 C123.55691406 286.72853516 123.59429687 287.88675781 123.6328125 289.08007812 C123.64441406 290.18931641 123.65601563 291.29855469 123.66796875 292.44140625 C123.68778809 293.46032959 123.70760742 294.47925293 123.72802734 295.52905273 C123.14453125 298.1328125 123.14453125 298.1328125 120.73632812 299.94628906 C116.71117327 301.78900313 113.4390014 302.28810062 109.01953125 302.3203125 C108.15070313 302.33449219 107.281875 302.34867187 106.38671875 302.36328125 C103.69170386 302.1717079 101.47338184 301.76135112 98.8671875 301.14428711 C92.05735724 299.76391195 85.26330316 299.77606594 78.33984375 299.71875 C76.85641617 299.69986714 75.37299737 299.68028412 73.8895874 299.6600647 C69.85914443 299.60796027 65.8286672 299.56855827 61.79805756 299.53192139 C59.26069407 299.50772824 56.72340394 299.47963281 54.18609619 299.45019531 C32.77127838 299.20240368 11.3576137 299.10313135 -10.05859375 299.109375 C-11.10220692 299.10965069 -12.14582008 299.10992638 -13.22105789 299.11021042 C-23.50702348 299.11415888 -33.79291236 299.12697316 -44.0788269 299.1602993 C-47.91505228 299.17213856 -51.75128129 299.18033833 -55.58751678 299.1881218 C-58.21220463 299.19507775 -60.83682256 299.20772349 -63.46148682 299.22061157 C-81.31892613 299.27660818 -81.31892613 299.27660818 -88.85546875 298.1328125 C-90.55882876 296.42945249 -90.02729373 294.26835024 -90.04296875 291.9453125 C-90.05714844 291.00300781 -90.07132813 290.06070312 -90.0859375 289.08984375 C-89.85546875 286.1328125 -89.85546875 286.1328125 -88.89453125 283.3828125 C-87.5087233 279.04825529 -87.35119347 274.84038183 -87.04296875 270.3203125 C-86.45134444 263.0169949 -85.61076245 257.01340471 -80.85546875 251.1328125 C-80.19546875 251.1328125 -79.53546875 251.1328125 -78.85546875 251.1328125 C-78.62859375 250.2253125 -78.40171875 249.3178125 -78.16796875 248.3828125 C-76.62794474 244.56941972 -75.29695368 243.32284836 -71.85546875 241.1328125 C-68.54296875 239.8828125 -68.54296875 239.8828125 -65.85546875 239.1328125 C-66.37663611 234.18172257 -67.99439731 230.04019436 -69.91796875 225.5 C-70.85546875 223.1328125 -70.85546875 223.1328125 -71.35546875 220.89453125 C-71.60296875 220.02248047 -71.60296875 220.02248047 -71.85546875 219.1328125 C-73.17193994 218.43343718 -74.50569026 217.76552117 -75.85546875 217.1328125 C-76.18546875 216.1428125 -76.51546875 215.1528125 -76.85546875 214.1328125 C-77.84546875 213.8028125 -78.83546875 213.4728125 -79.85546875 213.1328125 C-80.84546875 212.8028125 -81.83546875 212.4728125 -82.85546875 212.1328125 C-83.18546875 211.1428125 -83.51546875 210.1528125 -83.85546875 209.1328125 C-86.35994391 207.91411321 -86.35994391 207.91411321 -88.85546875 207.1328125 C-88.85546875 206.4728125 -88.85546875 205.8128125 -88.85546875 205.1328125 C-89.69078125 204.730625 -89.69078125 204.730625 -90.54296875 204.3203125 C-93.06772209 203.02381754 -95.49261359 201.70804927 -97.85546875 200.1328125 C-97.85546875 199.4728125 -97.85546875 198.8128125 -97.85546875 198.1328125 C-98.44328125 197.88273438 -99.03109375 197.63265625 -99.63671875 197.375 C-102.14887977 195.96854365 -103.52192227 194.46640258 -105.35546875 192.2578125 C-107.22313419 190.04694358 -109.05733393 187.93094732 -111.10546875 185.8828125 C-114.36386088 182.62442037 -116.1612817 180.00843551 -116.98828125 175.4375 C-117.23771484 174.11685547 -117.23771484 174.11685547 -117.4921875 172.76953125 C-117.65332031 171.85816406 -117.81445312 170.94679687 -117.98046875 170.0078125 C-118.31403933 168.19227186 -118.64986744 166.37714411 -118.98828125 164.5625 C-119.13152832 163.76054199 -119.27477539 162.95858398 -119.42236328 162.13232422 C-119.78187239 160.07356294 -119.78187239 160.07356294 -120.85546875 158.1328125 C-121.09308841 155.6480736 -121.27963855 153.18582658 -121.41796875 150.6953125 C-121.4794812 149.6110498 -121.4794812 149.6110498 -121.54223633 148.50488281 C-122.34514641 133.55047482 -121.6114527 121.17850188 -114.48046875 107.6953125 C-113.75730469 106.26541992 -113.75730469 106.26541992 -113.01953125 104.80664062 C-108.8716706 96.74198221 -104.17375827 89.29195726 -95.85546875 85.1328125 C-95.36046875 83.6478125 -95.36046875 83.6478125 -94.85546875 82.1328125 C-92.18301756 80.57793181 -89.68725871 79.32614205 -86.85546875 78.1328125 C-86.16710937 77.82859375 -85.47875 77.524375 -84.76953125 77.2109375 C-76.13370012 73.99901434 -66.90181403 74.87685169 -57.85546875 75.1328125 C-56.66518066 75.15891602 -55.47489258 75.18501953 -54.24853516 75.21191406 C-50.30460953 75.29841892 -46.36137755 75.40039695 -42.41796875 75.5078125 C-41.16274414 75.53842773 -39.90751953 75.56904297 -38.61425781 75.60058594 C-27.61553992 75.95256818 -17.52022051 76.55699418 -7.85546875 82.1328125 C-6.86546875 78.1728125 -5.87546875 74.2128125 -4.85546875 70.1328125 C-6.12003906 70.15601562 -7.38460937 70.17921875 -8.6875 70.203125 C-10.34765035 70.22188376 -12.00780708 70.24008385 -13.66796875 70.2578125 C-14.50134766 70.27457031 -15.33472656 70.29132813 -16.19335938 70.30859375 C-16.99580078 70.31503906 -17.79824219 70.32148437 -18.625 70.328125 C-19.36339111 70.33859863 -20.10178223 70.34907227 -20.86254883 70.35986328 C-22.85546875 70.1328125 -22.85546875 70.1328125 -25.85546875 68.1328125 C-26.16430664 65.86132813 -26.16430664 65.86132813 -26.078125 63.0390625 C-26.05943359 62.0078125 -26.04074219 60.9765625 -26.02148438 59.9140625 C-25.98732422 58.83125 -25.95316406 57.7484375 -25.91796875 56.6328125 C-25.71628343 49.62961165 -25.73579495 43.20245062 -27.41577148 36.36914062 C-27.90257977 33.89320287 -27.99379414 31.65017279 -27.85546875 29.1328125 C-26.17246206 27.44980581 -24.03538148 27.90472173 -21.7265625 27.81640625 C-20.69208984 27.77451172 -19.65761719 27.73261719 -18.59179688 27.68945312 C-17.50318359 27.65013672 -16.41457031 27.61082031 -15.29296875 27.5703125 C-13.65424805 27.50553711 -13.65424805 27.50553711 -11.98242188 27.43945312 C-9.27357311 27.33299182 -6.56462883 27.23097734 -3.85546875 27.1328125 C-3.81788452 25.95924194 -3.81788452 25.95924194 -3.77954102 24.76196289 C-3.66397087 21.23956301 -3.54106926 17.7174569 -3.41796875 14.1953125 C-3.37865234 12.96361328 -3.33933594 11.73191406 -3.29882812 10.46289062 C-3.25693359 9.29306641 -3.21503906 8.12324219 -3.171875 6.91796875 C-3.13521729 5.83394775 -3.09855957 4.74992676 -3.06079102 3.63305664 C-2.77877518 0.1989018 -2.77877518 0.1989018 0 0 Z M50.14453125 141.1328125 C48.33943725 144.0017726 47.89770692 146.1726764 47.91748047 149.53417969 C47.91763153 150.3947699 47.91778259 151.25536011 47.91793823 152.14202881 C47.9282608 153.06195618 47.93858337 153.98188354 47.94921875 154.9296875 C47.95204865 155.87845764 47.95487854 156.82722778 47.95779419 157.80474854 C47.96897677 160.83089889 47.99407795 163.8567518 48.01953125 166.8828125 C48.02956353 168.93619364 48.03868895 170.98957942 48.046875 173.04296875 C48.06890984 178.07303104 48.10342663 183.10287136 48.14453125 188.1328125 C49.8908829 188.66575085 51.64180777 189.18371913 53.39453125 189.6953125 C54.3690625 189.98535156 55.34359375 190.27539062 56.34765625 190.57421875 C59.13826551 191.1315611 60.53492693 191.18131423 63.14453125 190.1328125 C63.72203125 189.5346875 64.29953125 188.9365625 64.89453125 188.3203125 C67.14453125 186.1328125 67.14453125 186.1328125 70.89453125 184.8203125 C76.08013572 182.42992233 77.87742422 177.64617802 80.27319336 172.78295898 C82.99106779 167.26836278 85.93969786 162.74387629 90.7890625 158.79296875 C92.69602493 156.45735194 92.54427047 154.80138839 92.51953125 151.8203125 C92.52726562 150.89605469 92.535 149.97179687 92.54296875 149.01953125 C91.89325359 144.31228119 90.47902502 141.16227912 86.68359375 138.234375 C73.34731059 131.47684815 62.29465816 132.79548692 50.14453125 141.1328125 Z M-50.85546875 140.1328125 C-51.86609375 140.6896875 -52.87671875 141.2465625 -53.91796875 141.8203125 C-56.26597746 144.62277451 -56.10500188 145.45594734 -55.85546875 149.0078125 C-55.16832448 153.21734498 -54.42749202 156.64813581 -51.85546875 160.1328125 C-49.87967846 161.28886001 -47.8721768 162.21545093 -45.77734375 163.13671875 C-43.0296021 164.56085314 -41.65130483 166.65579722 -39.85546875 169.1328125 C-39.05109375 169.7309375 -38.24671875 170.3290625 -37.41796875 170.9453125 C-32.82093732 174.86960762 -30.20697915 179.87235662 -28.16796875 185.5078125 C-27.14933388 189.12170748 -27.14933388 189.12170748 -24.85546875 191.1328125 C-22.18597466 191.37596906 -22.18597466 191.37596906 -19.23046875 191.2578125 C-18.22757813 191.23976562 -17.2246875 191.22171875 -16.19140625 191.203125 C-15.03511719 191.16832031 -15.03511719 191.16832031 -13.85546875 191.1328125 C-10.7360794 184.30143213 -10.42113889 178.46076814 -10.54296875 171.0078125 C-10.55207275 169.90284424 -10.56117676 168.79787598 -10.57055664 167.65942383 C-10.69169542 159.68357639 -11.22838023 151.95946455 -12.85546875 144.1328125 C-12.97019531 143.3903125 -13.08492187 142.6478125 -13.203125 141.8828125 C-13.80128243 139.66119146 -13.80128243 139.66119146 -17.35546875 138.4453125 C-18.51046875 138.0121875 -19.66546875 137.5790625 -20.85546875 137.1328125 C-21.35046875 136.6378125 -21.35046875 136.6378125 -21.85546875 136.1328125 C-25.1666314 135.58095206 -28.50925687 135.37247362 -31.85546875 135.1328125 C-32.78875 135.05417969 -33.72203125 134.97554687 -34.68359375 134.89453125 C-41.62140585 134.55539239 -45.41694067 135.92194313 -50.85546875 140.1328125 Z M-97.85546875 188.1328125 C-96.86546875 189.4528125 -95.87546875 190.7728125 -94.85546875 192.1328125 C-94.19546875 191.8028125 -93.53546875 191.4728125 -92.85546875 191.1328125 C-94.23032407 189.59114608 -94.23032407 189.59114608 -95.85546875 188.1328125 C-96.51546875 188.1328125 -97.17546875 188.1328125 -97.85546875 188.1328125 Z M-91.85546875 193.1328125 C-90.85546875 195.1328125 -90.85546875 195.1328125 -90.85546875 195.1328125 Z " fill="#545251" transform="translate(162.85546875,25.8671875)"/>
<path d="M0 0 C0.76957031 0.00257812 1.53914063 0.00515625 2.33203125 0.0078125 C3.08871094 0.00523438 3.84539062 0.00265625 4.625 0 C7.14453125 0.1328125 7.14453125 0.1328125 9.75390625 0.61328125 C15.5198658 1.49677505 21.35260219 1.49336865 27.17773438 1.65039062 C28.60182617 1.70163086 28.60182617 1.70163086 30.0546875 1.75390625 C31.34064819 1.79149048 31.34064819 1.79149048 32.65258789 1.82983398 C35.41610139 2.16583087 37.61237829 2.99976118 40.14453125 4.1328125 C40.3290415 17.7660699 40.3290415 17.7660699 39.14453125 24.1328125 C40.37816406 24.09800781 40.37816406 24.09800781 41.63671875 24.0625 C56.07123282 23.82914758 56.07123282 23.82914758 62.14453125 26.1328125 C64.64072199 29.87709861 64.59744713 33.02953702 64.76953125 37.3828125 C64.80530273 38.18114502 64.84107422 38.97947754 64.87792969 39.80200195 C64.97978477 42.24531127 65.06390755 44.68871993 65.14453125 47.1328125 C65.18755371 48.22118408 65.18755371 48.22118408 65.23144531 49.33154297 C65.30551352 51.32716547 65.35065181 53.32379807 65.39453125 55.3203125 C65.43320312 57.04314453 65.43320312 57.04314453 65.47265625 58.80078125 C65.14453125 62.1328125 65.14453125 62.1328125 62.14453125 69.1328125 C55.54453125 69.1328125 48.94453125 69.1328125 42.14453125 69.1328125 C44.12453125 73.0928125 44.12453125 73.0928125 46.14453125 77.1328125 C46.85359063 79.11817877 47.53874872 81.11353739 48.14453125 83.1328125 C49.14613281 82.771875 50.14773437 82.4109375 51.1796875 82.0390625 C52.52193695 81.56974451 53.86439626 81.1010264 55.20703125 80.6328125 C55.86380859 80.39433594 56.52058594 80.15585938 57.19726562 79.91015625 C61.68730962 78.36186522 65.35609172 78.08682509 70.14453125 78.1328125 C71.48848257 77.48781865 72.82246537 76.82155341 74.14453125 76.1328125 C81.40818071 75.40170007 87.71772434 75.56236422 94.14453125 79.1328125 C96.49874486 80.3099193 98.60377042 80.397752 101.19702148 80.62597656 C113.341258 81.76472226 128.19988638 85.25786616 137.14453125 94.1328125 C137.48133416 95.46527364 137.81510749 96.79850786 138.14453125 98.1328125 C139.13453125 98.4628125 140.12453125 98.7928125 141.14453125 99.1328125 C153.70236215 116.79567466 160.32284693 138.55751028 158.14453125 160.1328125 C156.76136236 167.92586147 154.88545527 176.65058394 150.14453125 183.1328125 C149.48453125 183.1328125 148.82453125 183.1328125 148.14453125 183.1328125 C147.81453125 184.1228125 147.48453125 185.1128125 147.14453125 186.1328125 C146.48453125 186.1328125 145.82453125 186.1328125 145.14453125 186.1328125 C144.97953125 186.9990625 144.81453125 187.8653125 144.64453125 188.7578125 C143.07894201 192.2803883 142.49642156 192.80385046 139.45703125 194.8203125 C134.75234293 198.0167583 132.38572796 202.06095777 129.58984375 206.9375 C129.11289062 207.66195312 128.6359375 208.38640625 128.14453125 209.1328125 C127.48453125 209.1328125 126.82453125 209.1328125 126.14453125 209.1328125 C125.87640625 209.7721875 125.60828125 210.4115625 125.33203125 211.0703125 C124.14453125 213.1328125 124.14453125 213.1328125 121.14453125 214.1328125 C120.81453125 215.1228125 120.48453125 216.1128125 120.14453125 217.1328125 C117.4921875 219.17578125 117.4921875 219.17578125 114.20703125 221.3203125 C113.12550781 222.03574219 112.04398438 222.75117188 110.9296875 223.48828125 C108.14453125 225.1328125 108.14453125 225.1328125 106.14453125 225.1328125 C105.86867188 225.70773438 105.5928125 226.28265625 105.30859375 226.875 C103.78750744 229.82529493 101.98103544 232.55088412 100.16796875 235.328125 C98.98009872 237.07698507 98.98009872 237.07698507 99.14453125 239.1328125 C100.253125 239.58011719 101.36171875 240.02742187 102.50390625 240.48828125 C103.96775629 241.09821877 105.43128111 241.70893722 106.89453125 242.3203125 C107.62414062 242.61228516 108.35375 242.90425781 109.10546875 243.20507812 C113.61277991 245.11044148 116.70828584 246.69130367 119.14453125 251.1328125 C119.99087175 254.50092473 120.43107731 257.87407651 120.83203125 261.3203125 C121.0624372 263.12664427 121.29538579 264.93265409 121.53125 266.73828125 C121.62623779 267.53387451 121.72122559 268.32946777 121.8190918 269.14916992 C122.05503818 271.20091683 122.05503818 271.20091683 123.14453125 273.1328125 C123.46718054 277.27211701 123.46888947 281.41998879 123.51953125 285.5703125 C123.55691406 286.72853516 123.59429687 287.88675781 123.6328125 289.08007812 C123.64441406 290.18931641 123.65601563 291.29855469 123.66796875 292.44140625 C123.68778809 293.46032959 123.70760742 294.47925293 123.72802734 295.52905273 C123.14453125 298.1328125 123.14453125 298.1328125 120.73632812 299.94628906 C116.71117327 301.78900313 113.4390014 302.28810062 109.01953125 302.3203125 C108.15070313 302.33449219 107.281875 302.34867187 106.38671875 302.36328125 C103.69170386 302.1717079 101.47338184 301.76135112 98.8671875 301.14428711 C92.05735724 299.76391195 85.26330316 299.77606594 78.33984375 299.71875 C76.85641617 299.69986714 75.37299737 299.68028412 73.8895874 299.6600647 C69.85914443 299.60796027 65.8286672 299.56855827 61.79805756 299.53192139 C59.26069407 299.50772824 56.72340394 299.47963281 54.18609619 299.45019531 C32.77127838 299.20240368 11.3576137 299.10313135 -10.05859375 299.109375 C-11.10220692 299.10965069 -12.14582008 299.10992638 -13.22105789 299.11021042 C-23.50702348 299.11415888 -33.79291236 299.12697316 -44.0788269 299.1602993 C-47.91505228 299.17213856 -51.75128129 299.18033833 -55.58751678 299.1881218 C-58.21220463 299.19507775 -60.83682256 299.20772349 -63.46148682 299.22061157 C-81.31892613 299.27660818 -81.31892613 299.27660818 -88.85546875 298.1328125 C-90.55882876 296.42945249 -90.02729373 294.26835024 -90.04296875 291.9453125 C-90.05714844 291.00300781 -90.07132813 290.06070312 -90.0859375 289.08984375 C-89.85546875 286.1328125 -89.85546875 286.1328125 -88.89453125 283.3828125 C-87.5087233 279.04825529 -87.35119347 274.84038183 -87.04296875 270.3203125 C-86.45134444 263.0169949 -85.61076245 257.01340471 -80.85546875 251.1328125 C-80.19546875 251.1328125 -79.53546875 251.1328125 -78.85546875 251.1328125 C-78.62859375 250.2253125 -78.40171875 249.3178125 -78.16796875 248.3828125 C-76.62794474 244.56941972 -75.29695368 243.32284836 -71.85546875 241.1328125 C-68.54296875 239.8828125 -68.54296875 239.8828125 -65.85546875 239.1328125 C-66.37663611 234.18172257 -67.99439731 230.04019436 -69.91796875 225.5 C-70.85546875 223.1328125 -70.85546875 223.1328125 -71.35546875 220.89453125 C-71.60296875 220.02248047 -71.60296875 220.02248047 -71.85546875 219.1328125 C-73.17193994 218.43343718 -74.50569026 217.76552117 -75.85546875 217.1328125 C-76.18546875 216.1428125 -76.51546875 215.1528125 -76.85546875 214.1328125 C-77.84546875 213.8028125 -78.83546875 213.4728125 -79.85546875 213.1328125 C-80.84546875 212.8028125 -81.83546875 212.4728125 -82.85546875 212.1328125 C-83.18546875 211.1428125 -83.51546875 210.1528125 -83.85546875 209.1328125 C-86.35994391 207.91411321 -86.35994391 207.91411321 -88.85546875 207.1328125 C-88.85546875 206.4728125 -88.85546875 205.8128125 -88.85546875 205.1328125 C-89.69078125 204.730625 -89.69078125 204.730625 -90.54296875 204.3203125 C-93.06772209 203.02381754 -95.49261359 201.70804927 -97.85546875 200.1328125 C-97.85546875 199.4728125 -97.85546875 198.8128125 -97.85546875 198.1328125 C-98.44328125 197.88273438 -99.03109375 197.63265625 -99.63671875 197.375 C-102.14887977 195.96854365 -103.52192227 194.46640258 -105.35546875 192.2578125 C-107.22313419 190.04694358 -109.05733393 187.93094732 -111.10546875 185.8828125 C-114.36386088 182.62442037 -116.1612817 180.00843551 -116.98828125 175.4375 C-117.23771484 174.11685547 -117.23771484 174.11685547 -117.4921875 172.76953125 C-117.65332031 171.85816406 -117.81445312 170.94679687 -117.98046875 170.0078125 C-118.31403933 168.19227186 -118.64986744 166.37714411 -118.98828125 164.5625 C-119.13152832 163.76054199 -119.27477539 162.95858398 -119.42236328 162.13232422 C-119.78187239 160.07356294 -119.78187239 160.07356294 -120.85546875 158.1328125 C-121.09308841 155.6480736 -121.27963855 153.18582658 -121.41796875 150.6953125 C-121.4794812 149.6110498 -121.4794812 149.6110498 -121.54223633 148.50488281 C-122.34514641 133.55047482 -121.6114527 121.17850188 -114.48046875 107.6953125 C-113.75730469 106.26541992 -113.75730469 106.26541992 -113.01953125 104.80664062 C-108.8716706 96.74198221 -104.17375827 89.29195726 -95.85546875 85.1328125 C-95.36046875 83.6478125 -95.36046875 83.6478125 -94.85546875 82.1328125 C-92.18301756 80.57793181 -89.68725871 79.32614205 -86.85546875 78.1328125 C-86.16710937 77.82859375 -85.47875 77.524375 -84.76953125 77.2109375 C-76.13370012 73.99901434 -66.90181403 74.87685169 -57.85546875 75.1328125 C-56.66518066 75.15891602 -55.47489258 75.18501953 -54.24853516 75.21191406 C-50.30460953 75.29841892 -46.36137755 75.40039695 -42.41796875 75.5078125 C-41.16274414 75.53842773 -39.90751953 75.56904297 -38.61425781 75.60058594 C-27.61553992 75.95256818 -17.52022051 76.55699418 -7.85546875 82.1328125 C-6.86546875 78.1728125 -5.87546875 74.2128125 -4.85546875 70.1328125 C-6.12003906 70.15601562 -7.38460937 70.17921875 -8.6875 70.203125 C-10.34765035 70.22188376 -12.00780708 70.24008385 -13.66796875 70.2578125 C-14.50134766 70.27457031 -15.33472656 70.29132813 -16.19335938 70.30859375 C-16.99580078 70.31503906 -17.79824219 70.32148437 -18.625 70.328125 C-19.36339111 70.33859863 -20.10178223 70.34907227 -20.86254883 70.35986328 C-22.85546875 70.1328125 -22.85546875 70.1328125 -25.85546875 68.1328125 C-26.16430664 65.86132813 -26.16430664 65.86132813 -26.078125 63.0390625 C-26.05943359 62.0078125 -26.04074219 60.9765625 -26.02148438 59.9140625 C-25.98732422 58.83125 -25.95316406 57.7484375 -25.91796875 56.6328125 C-25.71628343 49.62961165 -25.73579495 43.20245062 -27.41577148 36.36914062 C-27.90257977 33.89320287 -27.99379414 31.65017279 -27.85546875 29.1328125 C-26.17246206 27.44980581 -24.03538148 27.90472173 -21.7265625 27.81640625 C-20.69208984 27.77451172 -19.65761719 27.73261719 -18.59179688 27.68945312 C-17.50318359 27.65013672 -16.41457031 27.61082031 -15.29296875 27.5703125 C-13.65424805 27.50553711 -13.65424805 27.50553711 -11.98242188 27.43945312 C-9.27357311 27.33299182 -6.56462883 27.23097734 -3.85546875 27.1328125 C-3.81788452 25.95924194 -3.81788452 25.95924194 -3.77954102 24.76196289 C-3.66397087 21.23956301 -3.54106926 17.7174569 -3.41796875 14.1953125 C-3.37865234 12.96361328 -3.33933594 11.73191406 -3.29882812 10.46289062 C-3.25693359 9.29306641 -3.21503906 8.12324219 -3.171875 6.91796875 C-3.13521729 5.83394775 -3.09855957 4.74992676 -3.06079102 3.63305664 C-2.77877518 0.1989018 -2.77877518 0.1989018 0 0 Z M4.14453125 7.1328125 C4.07105469 8.96005859 4.07105469 8.96005859 3.99609375 10.82421875 C3.92100852 12.44793687 3.84546323 14.07163376 3.76953125 15.6953125 C3.73859375 16.49517578 3.70765625 17.29503906 3.67578125 18.11914062 C3.08441188 30.19293187 3.08441188 30.19293187 -0.85546875 34.1328125 C-2.82666016 34.45166016 -2.82666016 34.45166016 -5.20703125 34.546875 C-6.48320312 34.60488281 -6.48320312 34.60488281 -7.78515625 34.6640625 C-8.67460937 34.695 -9.5640625 34.7259375 -10.48046875 34.7578125 C-11.37765625 34.79648437 -12.27484375 34.83515625 -13.19921875 34.875 C-15.41776145 34.96940607 -17.63629278 35.05497998 -19.85546875 35.1328125 C-19.69175781 36.06222656 -19.52804688 36.99164063 -19.359375 37.94921875 C-18.64067699 42.98010479 -18.74790562 47.99897759 -18.79296875 53.0703125 C-18.79748047 54.04033203 -18.80199219 55.01035156 -18.80664062 56.00976562 C-18.81833725 58.3841801 -18.83472789 60.75846271 -18.85546875 63.1328125 C-17.95453491 63.17039673 -17.95453491 63.17039673 -17.03540039 63.20874023 C-14.32935438 63.3243653 -11.62368592 63.44724186 -8.91796875 63.5703125 C-7.97244141 63.60962891 -7.02691406 63.64894531 -6.05273438 63.68945312 C-4.70405273 63.75229492 -4.70405273 63.75229492 -3.328125 63.81640625 C-2.49547119 63.85306396 -1.66281738 63.88972168 -0.80493164 63.92749023 C1.14453125 64.1328125 1.14453125 64.1328125 2.14453125 65.1328125 C2.59879207 70.47037719 1.52401035 74.56184147 -0.125 79.625 C-1.14005033 83.10982519 -1.46249622 86.53056435 -1.85546875 90.1328125 C-2.85546875 91.1328125 -2.85546875 91.1328125 -4.91796875 91.5078125 C-8.65471278 91.03078135 -10.78334069 89.42586546 -13.8828125 87.375 C-22.60662982 81.88158632 -34.51601865 82.87067001 -44.41796875 82.5703125 C-45.68705078 82.52712891 -46.95613281 82.48394531 -48.26367188 82.43945312 C-52.12743335 82.31582846 -55.99063148 82.21611998 -59.85546875 82.1328125 C-60.52722137 82.11814941 -61.198974 82.10348633 -61.89108276 82.08837891 C-63.89986686 82.04955082 -65.90893736 82.02657793 -67.91796875 82.00390625 C-69.09617188 81.98900146 -70.274375 81.97409668 -71.48828125 81.95874023 C-82.51756813 82.52891726 -91.0142546 87.73089732 -98.25390625 95.734375 C-101.99034484 100.0618746 -104.60414628 104.67054272 -107.16796875 109.7578125 C-107.59658203 110.57765625 -108.02519531 111.3975 -108.46679688 112.2421875 C-111.61159224 118.3453473 -113.95719404 123.98059355 -114.60546875 130.8828125 C-114.7034375 131.82640625 -114.80140625 132.77 -114.90234375 133.7421875 C-115.12801931 136.32233441 -115.12801931 136.32233441 -112.85546875 138.1328125 C-113.06104306 139.74314459 -113.27851296 141.35271874 -113.55078125 142.953125 C-114.57021012 150.24596233 -114.02657444 156.65124347 -111.6328125 163.58984375 C-110.79354601 166.33538387 -110.41926736 168.97673644 -110.04296875 171.8203125 C-109.15997038 177.1333967 -107.09711855 180.75562938 -102.85546875 184.1328125 C-102.19546875 184.1328125 -101.53546875 184.1328125 -100.85546875 184.1328125 C-100.64921875 184.6896875 -100.44296875 185.2465625 -100.23046875 185.8203125 C-98.71982863 188.36093451 -96.916887 189.89788747 -94.5859375 191.69140625 C-92.85546875 193.1328125 -92.85546875 193.1328125 -90.55078125 195.48828125 C-87.72175667 198.26400537 -84.71037631 200.6428771 -81.54296875 203.0078125 C-80.38830939 203.89190704 -79.23466125 204.77732384 -78.08203125 205.6640625 C-76.21350226 207.09888406 -74.33730817 208.51514458 -72.44140625 209.9140625 C-64.40033168 216.24757297 -60.94317703 225.59952103 -58.3984375 235.26953125 C-58.01825004 237.13037933 -58.01825004 237.13037933 -56.85546875 238.1328125 C-54.73315357 237.90356034 -52.61128231 237.66901722 -50.49258423 237.40844727 C-46.02104707 236.94107634 -41.54716445 236.91594989 -37.0546875 236.8515625 C-36.05589066 236.83315308 -35.05709381 236.81474365 -34.0280304 236.79577637 C-29.79084123 236.71768945 -25.55351388 236.64917451 -21.31616211 236.58056641 C-18.20809149 236.52882457 -15.10015493 236.47162299 -11.9921875 236.4140625 C-11.03487228 236.40048706 -10.07755707 236.38691162 -9.0912323 236.3729248 C-7.75382744 236.34784851 -7.75382744 236.34784851 -6.3894043 236.32226562 C-5.60824753 236.30973755 -4.82709076 236.29720947 -4.02226257 236.28430176 C-1.85303836 236.13264258 0.04245478 235.66770601 2.14453125 235.1328125 C5.01984797 235.01284101 7.87010752 234.94516676 10.74609375 234.9296875 C12.03204689 234.91950592 12.03204689 234.91950592 13.34397888 234.90911865 C16.15253278 234.89203187 18.96092855 234.8859023 21.76953125 234.8828125 C23.20448441 234.87930786 23.20448441 234.87930786 24.66842651 234.87573242 C40.64873879 234.86105092 56.35939766 235.79628746 72.2421875 237.4765625 C80.68490028 238.44644839 80.68490028 238.44644839 89.14453125 238.1328125 C91.59447683 236.24138266 91.59447683 236.24138266 93.14453125 233.1328125 C98.36620826 224.99876353 103.48081651 219.39654475 111.546875 213.9765625 C117.29558585 209.8962745 121.16387272 206.09238423 125.01953125 200.2578125 C128.40265116 195.31078543 131.75793864 191.34097974 136.46875 187.57421875 C138.93428286 185.45351566 140.44681334 182.88428635 142.14453125 180.1328125 C142.95921875 179.235625 143.77390625 178.3384375 144.61328125 177.4140625 C151.09478961 169.70193301 151.84337794 156.5671435 151.51953125 146.90234375 C149.79353752 129.55251093 142.97518473 110.34618368 130.14453125 98.1328125 C125.55446426 94.62468987 120.94699633 92.71827294 115.51953125 90.9453125 C114.72554932 90.68121582 113.93156738 90.41711914 113.11352539 90.14501953 C107.6155827 88.39757254 102.52402672 87.60912088 96.74609375 87.41015625 C93.91248433 87.10807477 91.99873868 86.33243183 89.45703125 85.0703125 C84.36116867 82.54997613 79.58974148 82.03087628 74.1171875 83.78125 C72.79189043 84.31136883 71.47280075 84.8572525 70.16015625 85.41796875 C67.99741901 86.18498603 66.17954275 86.37219131 63.89453125 86.5078125 C58.72411321 86.90346188 54.48939114 88.97354547 49.84375 91.171875 C46.90039636 92.21972593 45.98150452 92.26652584 43.14453125 91.1328125 C41.92317 88.54376555 40.9695702 86.14620597 40.08203125 83.4453125 C39.5943417 82.02363926 39.1034959 80.6030445 38.609375 79.18359375 C38.25383545 78.15262573 38.25383545 78.15262573 37.89111328 77.10083008 C37.08173532 74.86107955 37.08173532 74.86107955 35.4453125 71.7890625 C34.14453125 69.1328125 34.14453125 69.1328125 34.39453125 66.3203125 C35.14453125 64.1328125 35.14453125 64.1328125 36.14453125 63.1328125 C37.70401667 62.97595001 39.26995793 62.88204611 40.8359375 62.81640625 C41.78017578 62.77451172 42.72441406 62.73261719 43.69726562 62.68945312 C44.69048828 62.65013672 45.68371094 62.61082031 46.70703125 62.5703125 C47.70412109 62.52712891 48.70121094 62.48394531 49.72851562 62.43945312 C52.20037275 62.33300952 54.67233435 62.23099322 57.14453125 62.1328125 C60.88450369 54.65286761 57.72673888 41.41887464 57.14453125 33.1328125 C53.19585916 31.92079622 49.60240872 30.85304318 45.45703125 30.8828125 C44.73128906 30.87765625 44.00554687 30.8725 43.2578125 30.8671875 C41.07911614 31.0132187 41.07911614 31.0132187 39.125 32.2109375 C37.14453125 33.1328125 37.14453125 33.1328125 33.14453125 32.1328125 C33.14453125 24.5428125 33.14453125 16.9528125 33.14453125 9.1328125 C26.21976229 8.844866 26.21976229 8.844866 19.29467773 8.56469727 C14.17930812 8.34212622 9.19600786 7.97590607 4.14453125 7.1328125 Z " fill="#000000" transform="translate(162.85546875,25.8671875)"/>
<path d="M0 0 C1.15326782 -0.01469078 1.15326782 -0.01469078 2.32983398 -0.02967834 C20.51267936 -0.210799 38.60866533 0.28779092 56.74578857 1.62271118 C58.90802828 1.7814134 61.07084677 1.93244152 63.23419189 2.07528687 C90.73489061 3.9349576 90.73489061 3.9349576 100.22509766 11.74072266 C103.37014588 15.75481459 103.09582664 21.61274574 103.6484375 26.52148438 C104.0575208 30.50543846 104.0575208 30.50543846 105.3984375 34.23828125 C105.48185909 35.68676707 105.50576611 37.13898994 105.49609375 38.58984375 C105.49287109 39.440625 105.48964844 40.29140625 105.48632812 41.16796875 C105.47794922 42.05742187 105.46957031 42.946875 105.4609375 43.86328125 C105.45642578 44.76046875 105.45191406 45.65765625 105.44726562 46.58203125 C105.43546341 48.80084773 105.41899905 51.01953143 105.3984375 53.23828125 C100.11135928 54.66876778 95.38862591 54.5248265 90.08154297 53.25244141 C83.28621112 51.8631509 76.50439655 51.88142675 69.59375 51.82421875 C68.11013932 51.80533573 66.62653741 51.7857527 65.14294434 51.76553345 C61.11241487 51.7134333 57.08185111 51.67403205 53.05115509 51.63739014 C50.51540377 51.61320463 47.97972614 51.58510874 45.44403076 51.55566406 C23.9809936 51.30708401 2.51911843 51.20862149 -18.9453125 51.21484375 C-19.99389561 51.21511944 -21.04247871 51.21539513 -22.12283707 51.21567917 C-32.46641576 51.21963265 -42.80991799 51.23255145 -53.1534462 51.26576805 C-57.00666614 51.27756791 -60.85988964 51.28578948 -64.71311951 51.29359055 C-67.36236532 51.30058294 -70.01154384 51.31322495 -72.6607666 51.32608032 C-74.26912372 51.32966269 -75.87748149 51.3329648 -77.48583984 51.3359375 C-78.19497465 51.34110067 -78.90410946 51.34626385 -79.6347332 51.35158348 C-84.38201572 51.35210356 -88.91179884 50.90143959 -93.6015625 50.23828125 C-93.45768097 49.64713531 -93.31379944 49.05598938 -93.16555786 48.44692993 C-91.62035572 42.01672064 -90.97283674 35.66235402 -90.47851562 29.08007812 C-90.03548585 24.1428904 -89.15939084 20.58909711 -86.6015625 16.23828125 C-86.18777344 15.43003906 -85.77398437 14.62179687 -85.34765625 13.7890625 C-82.76444794 9.37061964 -80.76684337 6.80736435 -75.7890625 5.23828125 C-71.76892299 4.32874742 -67.7180296 3.76760158 -63.609375 3.44921875 C-61.61051786 3.29370161 -61.61051786 3.29370161 -59.7644043 2.73693848 C-57.44617859 2.20245648 -55.3658425 2.08623688 -52.98828125 2.04882812 C-52.08053955 2.0321106 -51.17279785 2.01539307 -50.23754883 1.99816895 C-48.7780481 1.97780579 -48.7780481 1.97780579 -47.2890625 1.95703125 C-46.28319092 1.93862183 -45.27731934 1.9202124 -44.2409668 1.90124512 C-39.93972264 1.82266758 -35.63832332 1.75487314 -31.33691406 1.68603516 C-28.1958867 1.63423909 -25.05499006 1.57701639 -21.9140625 1.51953125 C-20.45456177 1.49916809 -20.45456177 1.49916809 -18.96557617 1.47839355 C-18.05783447 1.46167603 -17.15009277 1.4449585 -16.21484375 1.42773438 C-15.41860596 1.4152063 -14.62236816 1.40267822 -13.80200195 1.38977051 C-9.14052236 1.06885094 -4.74968533 0.05017038 0 0 Z " fill="#545251" transform="translate(173.6015625,266.76171875)"/>
<path d="M0 0 C1.15326782 -0.01469078 1.15326782 -0.01469078 2.32983398 -0.02967834 C20.51267936 -0.210799 38.60866533 0.28779092 56.74578857 1.62271118 C58.90802828 1.7814134 61.07084677 1.93244152 63.23419189 2.07528687 C90.57900631 3.92441629 90.57900631 3.92441629 100.24462891 11.72900391 C102.00267908 14.02867936 102.08509285 16.41817938 102.3984375 19.23828125 C92.56172526 19.61341011 82.27651274 19.07364606 72.72428894 16.52470398 C61.17855812 13.55448307 49.75370854 13.8023319 37.90625 13.83984375 C35.62962756 13.83781689 33.35300575 13.83490039 31.0763855 13.83114624 C26.31746201 13.82674273 21.5587083 13.83308412 16.79980469 13.84716797 C10.77143691 13.8641604 4.74347294 13.85446907 -1.28487968 13.83645058 C-5.986795 13.82547507 -10.68861879 13.82912286 -15.39053726 13.83683395 C-17.60915299 13.83880333 -19.82777766 13.83649485 -22.0463829 13.82939529 C-34.61337018 13.79802511 -46.83273695 14.33749546 -59.27708244 16.19137001 C-66.09401199 17.1853901 -72.71582732 17.39831689 -79.6015625 17.23828125 C-79.9315625 18.22828125 -80.2615625 19.21828125 -80.6015625 20.23828125 C-83.31035585 21.59267793 -85.61089518 21.30329576 -88.6015625 21.23828125 C-83.92667304 8.98833943 -83.92667304 8.98833943 -78.30078125 6.02734375 C-73.50885872 4.52194974 -68.60876018 3.83662498 -63.609375 3.44921875 C-61.61051786 3.29370161 -61.61051786 3.29370161 -59.7644043 2.73693848 C-57.44617859 2.20245648 -55.3658425 2.08623688 -52.98828125 2.04882812 C-52.08053955 2.0321106 -51.17279785 2.01539307 -50.23754883 1.99816895 C-48.7780481 1.97780579 -48.7780481 1.97780579 -47.2890625 1.95703125 C-46.28319092 1.93862183 -45.27731934 1.9202124 -44.2409668 1.90124512 C-39.93972264 1.82266758 -35.63832332 1.75487314 -31.33691406 1.68603516 C-28.1958867 1.63423909 -25.05499006 1.57701639 -21.9140625 1.51953125 C-20.45456177 1.49916809 -20.45456177 1.49916809 -18.96557617 1.47839355 C-18.05783447 1.46167603 -17.15009277 1.4449585 -16.21484375 1.42773438 C-15.41860596 1.4152063 -14.62236816 1.40267822 -13.80200195 1.38977051 C-9.14052236 1.06885094 -4.74968533 0.05017038 0 0 Z " fill="#757372" transform="translate(173.6015625,266.76171875)"/>
<path d="M0 0 C0.91136719 0.01160156 1.82273438 0.02320313 2.76171875 0.03515625 C9.84570258 0.29752602 16.42340849 2.58375517 22 7 C24.00337932 10.59032585 24.57520189 13.94192864 25 18 C25.08338623 18.64155029 25.16677246 19.28310059 25.25268555 19.9440918 C26.20009584 27.88986556 26.32549149 35.86744784 26.4050293 43.8605957 C26.42679778 45.50436162 26.46111767 47.1480061 26.50756836 48.79125977 C26.57446636 51.19077926 26.60197905 53.58796237 26.62109375 55.98828125 C26.64892441 56.71856033 26.67675507 57.44883942 26.70542908 58.20124817 C26.69388227 61.06491959 26.56581362 63.31961595 24.69241333 65.57235718 C19.71962339 69.80101903 15.9980306 70.25901698 9.6875 70.375 C8.54764648 70.43107422 8.54764648 70.43107422 7.38476562 70.48828125 C3.25031451 70.55293817 1.49617732 70.36584808 -1.9296875 67.83984375 C-4.08471621 64.88379494 -4.94758193 62.71655072 -5.8125 59.1875 C-8.09660577 51.59565665 -12.5168826 47.32207827 -19 43 C-19 42.34 -19 41.68 -19 41 C-19.556875 40.9175 -20.11375 40.835 -20.6875 40.75 C-25.38507437 39.22646237 -27.996864 36.39452944 -30.25 32.125 C-31.79845089 28.73464181 -32.6943577 25.74411814 -33 22 C-33.16435547 20.948125 -33.16435547 20.948125 -33.33203125 19.875 C-33.68435914 16.33977774 -33.74142034 13.9939477 -31.56640625 11.078125 C-29.48171314 9.1821868 -27.32169614 7.59592861 -25 6 C-24.26394531 5.41734375 -23.52789062 4.8346875 -22.76953125 4.234375 C-15.47582691 -0.99461237 -8.69533055 -0.61234722 0 0 Z M-21 12 C-22.010625 12.556875 -23.02125 13.11375 -24.0625 13.6875 C-26.41050871 16.48996201 -26.24953313 17.32313484 -26 20.875 C-25.31285573 25.08453248 -24.57202327 28.51532331 -22 32 C-20.02420971 33.15604751 -18.01670805 34.08263843 -15.921875 35.00390625 C-13.17413335 36.42804064 -11.79583608 38.52298472 -10 41 C-9.195625 41.598125 -8.39125 42.19625 -7.5625 42.8125 C-2.96546857 46.73679512 -0.3515104 51.73954412 1.6875 57.375 C2.70613487 60.98889498 2.70613487 60.98889498 5 63 C7.66949409 63.24315656 7.66949409 63.24315656 10.625 63.125 C11.62789062 63.10695312 12.63078125 63.08890625 13.6640625 63.0703125 C14.82035156 63.03550781 14.82035156 63.03550781 16 63 C19.11938935 56.16861963 19.43432986 50.32795564 19.3125 42.875 C19.303396 41.77003174 19.29429199 40.66506348 19.28491211 39.52661133 C19.16377333 31.55076389 18.62708852 23.82665205 17 16 C16.88527344 15.2575 16.77054688 14.515 16.65234375 13.75 C16.05418632 11.52837896 16.05418632 11.52837896 12.5 10.3125 C11.345 9.879375 10.19 9.44625 9 9 C8.505 8.505 8.505 8.505 8 8 C4.68883735 7.44813956 1.34621188 7.23966112 -2 7 C-2.93328125 6.92136719 -3.8665625 6.84273437 -4.828125 6.76171875 C-11.7659371 6.42257989 -15.56147192 7.78913063 -21 12 Z " fill="#000000" transform="translate(133,154)"/>
<path d="M0 0 C0.969375 0.598125 1.93875 1.19625 2.9375 1.8125 C9.10505466 8.35384585 9.45840887 14.58207553 9.53125 23.4140625 C8.713563 28.93344974 5.94311797 32.42627257 1.75 35.9375 C-1.86332154 39.3663115 -3.72151545 43.15323771 -5.875 47.5625 C-9.14873295 54.16119301 -12.35568443 57.59074444 -19 61 C-19.99 61.763125 -20.98 62.52625 -22 63.3125 C-28.85086331 67.16611061 -35.8766228 65.98086354 -43.3984375 64.86328125 C-46.58056662 63.80734951 -47.28164553 62.83226225 -49 60 C-49.39440918 57.71258545 -49.39440918 57.71258545 -49.41992188 55.17480469 C-49.43583374 54.2199115 -49.45174561 53.26501831 -49.46813965 52.28118896 C-49.46834106 51.25511536 -49.46854248 50.22904175 -49.46875 49.171875 C-49.47636353 48.10890198 -49.48397705 47.04592896 -49.49182129 45.95074463 C-49.50262415 43.7013992 -49.50547465 41.45200359 -49.50097656 39.20263672 C-49.5000074 35.77615561 -49.54156363 32.35193725 -49.5859375 28.92578125 C-49.59114711 26.73698382 -49.59383265 24.54817863 -49.59375 22.359375 C-49.61014526 21.34139832 -49.62654053 20.32342163 -49.64343262 19.27459717 C-49.57906127 12.58178867 -48.30819823 8.19254463 -44 3 C-41.57333223 0.80582735 -38.92111987 -0.54495161 -36 -2 C-34.2984375 -2.8971875 -34.2984375 -2.8971875 -32.5625 -3.8125 C-21.79925411 -7.49242399 -9.50497925 -5.90850061 0 0 Z M-40 9 C-41.805094 11.8689601 -42.24682433 14.0398639 -42.22705078 17.40136719 C-42.22689972 18.2619574 -42.22674866 19.12254761 -42.22659302 20.00921631 C-42.21627045 20.92914368 -42.20594788 21.84907104 -42.1953125 22.796875 C-42.1924826 23.74564514 -42.18965271 24.69441528 -42.18673706 25.67193604 C-42.17555448 28.69808639 -42.1504533 31.7239393 -42.125 34.75 C-42.11496772 36.80338114 -42.1058423 38.85676692 -42.09765625 40.91015625 C-42.07562141 45.94021854 -42.04110462 50.97005886 -42 56 C-40.25364835 56.53293835 -38.50272348 57.05090663 -36.75 57.5625 C-35.77546875 57.85253906 -34.8009375 58.14257812 -33.796875 58.44140625 C-31.00626574 58.9987486 -29.60960432 59.04850173 -27 58 C-26.4225 57.401875 -25.845 56.80375 -25.25 56.1875 C-23 54 -23 54 -19.25 52.6875 C-14.06439553 50.29710983 -12.26710703 45.51336552 -9.87133789 40.65014648 C-7.15346346 35.13555028 -4.20483339 30.61106379 0.64453125 26.66015625 C2.55149368 24.32453944 2.39973922 22.66857589 2.375 19.6875 C2.38273437 18.76324219 2.39046875 17.83898437 2.3984375 16.88671875 C1.74872234 12.17946869 0.33449377 9.02946662 -3.4609375 6.1015625 C-16.79722066 -0.65596435 -27.84987309 0.66267442 -40 9 Z " fill="#000000" transform="translate(253,158)"/>
<path d="M0 0 C6.50963454 8.1646075 7.76750775 20.93092296 7.4453125 31.05859375 C6.17534755 42.29889755 3.89068117 53.36762869 -5 61 C-5.804375 61.804375 -6.60875 62.60875 -7.4375 63.4375 C-8.283125 64.283125 -9.12875 65.12875 -10 66 C-14.44565798 70.7848849 -18.40202753 75.54100729 -22 81 C-26.94566168 86.34666127 -32.26923523 90.98822875 -38.5 94.75 C-43.78594055 98.17190359 -46.71136807 102.72964702 -50 108 C-50.78779441 109.19007241 -51.57872896 110.37808251 -52.375 111.5625 C-52.91125 112.366875 -53.4475 113.17125 -54 114 C-55 115 -55 115 -57.28515625 115.09765625 C-58.20167969 115.08605469 -59.11820313 115.07445312 -60.0625 115.0625 C-61.44115234 115.04896484 -61.44115234 115.04896484 -62.84765625 115.03515625 C-63.55792969 115.02355469 -64.26820313 115.01195312 -65 115 C-65.33 114.34 -65.66 113.68 -66 113 C-64.85948256 110.62366582 -63.67099144 108.43691559 -62.3125 106.1875 C-61.7093396 105.18795288 -61.7093396 105.18795288 -61.09399414 104.16821289 C-55.34412313 94.98649309 -48.03290258 86.78337993 -39.125 80.56640625 C-23.82430377 69.28776804 -13.04090085 53.55983707 -6 36 C-5.56558594 35.04480469 -5.13117188 34.08960938 -4.68359375 33.10546875 C-0.17804768 22.28445639 -0.08028804 11.58981533 0 0 Z " fill="#403E3D" transform="translate(307,149)"/>
<path d="M0 0 C1.875 1.0625 1.875 1.0625 3 3 C3 7.39443596 2.42079012 9.46548282 -0.3125 12.9375 C-3 15 -3 15 -7 15 C-7 15.66 -7 16.32 -7 17 C-9.55582627 18.27791314 -11.92685587 18.55054422 -14.75 19 C-16.28914063 19.2475 -16.28914063 19.2475 -17.859375 19.5 C-19.41398437 19.7475 -19.41398437 19.7475 -21 20 C-21.93199219 20.18304688 -22.86398438 20.36609375 -23.82421875 20.5546875 C-27.9236676 21.12951797 -31.92823347 21.14893032 -36.0625 21.125 C-36.92431885 21.12089111 -37.7861377 21.11678223 -38.67407227 21.11254883 C-45.26419349 21.05730942 -51.8513538 20.92253343 -58.4375 20.6875 C-59.31865479 20.66510254 -60.19980957 20.64270508 -61.10766602 20.61962891 C-66.29367453 20.3969756 -70.15026213 19.84973787 -74 16 C-74.28857227 13.25856342 -74.44774779 11.63126773 -72.82299805 9.34057617 C-70.28977604 7.47772335 -68.69660072 7.74114339 -65.58203125 7.92578125 C-64.50034668 7.98088867 -63.41866211 8.03599609 -62.30419922 8.09277344 C-60.57580811 8.20153809 -60.57580811 8.20153809 -58.8125 8.3125 C-56.43628497 8.43015693 -54.05998183 8.54604789 -51.68359375 8.66015625 C-50.53101074 8.71961426 -49.37842773 8.77907227 -48.19091797 8.84033203 C-36.17676886 9.44149909 -24.65961964 9.16932304 -13 6 C-12.34 5.34 -11.68 4.68 -11 4 C-10.01 4 -9.02 4 -8 4 C-7.67 3.01 -7.34 2.02 -7 1 C-4.45132831 -0.27433584 -2.82594567 -0.27570202 0 0 Z " fill="#000000" transform="translate(216,294)"/>
<path d="M0 0 C0.29296875 2.30859375 0.29296875 2.30859375 0 5 C-2.01171875 6.66015625 -2.01171875 6.66015625 -4.6875 8.0625 C-8.44596908 10.11982324 -11.66916394 12.2936957 -15 15 C-15.66 15 -16.32 15 -17 15 C-17.33 15.99 -17.66 16.98 -18 18 C-18.66 18.33 -19.32 18.66 -20 19 C-21.03755118 20.98077953 -22.02995879 22.98529902 -23 25 C-23.680625 26.0725 -24.36125 27.145 -25.0625 28.25 C-29.29291829 35.62350974 -29.28916616 44.32019023 -29.1953125 52.6015625 C-29.1924826 53.564039 -29.18965271 54.5265155 -29.18673706 55.51815796 C-29.17565578 58.55390535 -29.1505746 61.5893437 -29.125 64.625 C-29.11495459 66.69921445 -29.10583149 68.77343359 -29.09765625 70.84765625 C-29.07575609 75.89855426 -29.04131123 80.94922497 -29 86 C-31.475 86.495 -31.475 86.495 -34 87 C-36.96855118 76.43778889 -39.20379572 66.95542976 -37.375 55.9375 C-37.25125 54.968125 -37.1275 53.99875 -37 53 C-37.66 52.34 -38.32 51.68 -39 51 C-39.3675057 41.68110535 -36.38875435 33.72404863 -32.3125 25.5 C-31.90290039 24.6642041 -31.49330078 23.8284082 -31.07128906 22.96728516 C-28.13818016 17.34342646 -24.6581129 13.26375644 -20 9 C-19.154375 8.113125 -18.30875 7.22625 -17.4375 6.3125 C-11.8685991 1.02918376 -7.57703877 -1.89425969 0 0 Z " fill="#72706F" transform="translate(87,111)"/>
<path d="M0 0 C0.91910156 0.15339844 1.83820313 0.30679688 2.78515625 0.46484375 C7.97896901 1.206817 13.20025636 1.35464583 18.4375 1.5625 C19.45521484 1.60568359 20.47292969 1.64886719 21.52148438 1.69335938 C24.01421028 1.79868582 26.50702338 1.90081672 29 2 C29 3.32 29 4.64 29 6 C20.75 5.67 12.5 5.34 4 5 C4.0790305 12.7634463 4.0790305 12.7634463 4.18017578 20.52661133 C4.1851709 21.4936499 4.19016602 22.46068848 4.1953125 23.45703125 C4.20578613 24.44678955 4.21625977 25.43654785 4.22705078 26.45629883 C4 29 4 29 2 32 C-0.06298828 32.43237305 -0.06298828 32.43237305 -2.5703125 32.51171875 C-3.46621094 32.54716797 -4.36210937 32.58261719 -5.28515625 32.61914062 C-6.69087891 32.65297852 -6.69087891 32.65297852 -8.125 32.6875 C-9.06988281 32.72166016 -10.01476562 32.75582031 -10.98828125 32.79101562 C-13.32540253 32.87364112 -15.66214191 32.94273988 -18 33 C-17.67 33.66 -17.34 34.32 -17 35 C-16.91599471 36.59447464 -16.89272533 38.19240545 -16.90234375 39.7890625 C-16.90717773 41.20058594 -16.90717773 41.20058594 -16.91210938 42.640625 C-16.92048828 43.62546875 -16.92886719 44.6103125 -16.9375 45.625 C-16.94201172 46.61757812 -16.94652344 47.61015625 -16.95117188 48.6328125 C-16.96297855 51.0886016 -16.979446 53.54427104 -17 56 C-18.98 56 -20.96 56 -23 56 C-22.99476318 55.40050537 -22.98952637 54.80101074 -22.98413086 54.18334961 C-22.96318557 51.43474398 -22.95028444 48.68615522 -22.9375 45.9375 C-22.92912109 44.99455078 -22.92074219 44.05160156 -22.91210938 43.08007812 C-22.89418897 37.9369232 -23.10740389 33.06741573 -24 28 C-23.44014404 27.98541748 -22.88028809 27.97083496 -22.3034668 27.95581055 C-19.76411863 27.88128648 -17.22607922 27.78464419 -14.6875 27.6875 C-13.80642578 27.66494141 -12.92535156 27.64238281 -12.01757812 27.61914062 C-11.17001953 27.58369141 -10.32246094 27.54824219 -9.44921875 27.51171875 C-8.66893311 27.48553467 -7.88864746 27.45935059 -7.0847168 27.43237305 C-4.50162327 26.896636 -3.59995128 26.06613972 -2 24 C-0.74406219 18.99128993 -0.68765283 13.76748595 -0.4375 8.625 C-0.39431641 7.79355469 -0.35113281 6.96210937 -0.30664062 6.10546875 C-0.20138195 4.07046772 -0.10026928 2.03525297 0 0 Z " fill="#747270" transform="translate(167,33)"/>
<path d="M0 0 C0 1.32 0 2.64 0 4 C-1.46759766 4.09087891 -1.46759766 4.09087891 -2.96484375 4.18359375 C-9.99968883 4.63321512 -17.00116259 5.14049365 -24 6 C-24.33 4.35 -24.66 2.7 -25 1 C-16.17616678 -2.50450114 -9.0137814 -3.06852133 0 0 Z " fill="#737170" transform="translate(220,59)"/>
<path d="M0 0 C1.875 1.0625 1.875 1.0625 3 3 C2.6875 6.6875 2.6875 6.6875 2 10 C-4.36 11.32 -4.36 11.32 -7 10 C-8.58777289 6.82445422 -7.80754931 4.3544356 -7 1 C-4.45132831 -0.27433584 -2.82594567 -0.27570202 0 0 Z " fill="#020202" transform="translate(160,286)"/>
<path d="M0 0 C1.875 1.0625 1.875 1.0625 3 3 C2.6875 6.6875 2.6875 6.6875 2 10 C-4.42548263 11.33359073 -4.42548263 11.33359073 -6.9375 9.875 C-8.36066991 7.36352369 -8.42674516 5.84496772 -8 3 C-5.85607122 -0.27231235 -3.76836426 -0.56525464 0 0 Z " fill="#020202" transform="translate(204,282)"/>
</svg>
