<?xml version="1.0" standalone="no"?>
<!DOCTYPE svg PUBLIC "-//W3C//DTD SVG 20010904//EN"
 "http://www.w3.org/TR/2001/REC-SVG-20010904/DTD/svg10.dtd">
<svg version="1.0" xmlns="http://www.w3.org/2000/svg"
 width="360.000000pt" height="360.000000pt" viewBox="0 0 360.000000 360.000000"
 preserveAspectRatio="xMidYMid meet">

<g transform="translate(0.000000,360.000000) scale(0.100000,-0.100000)"
fill="#000000" stroke="none">
<path d="M1359 3181 c-55 -30 -69 -60 -76 -157 -5 -72 -10 -91 -35 -125 -15
-21 -28 -42 -28 -46 0 -10 -51 -62 -107 -109 -24 -20 -43 -41 -43 -47 0 -5
-11 -25 -25 -43 -14 -18 -25 -39 -25 -48 0 -8 -5 -18 -11 -21 -18 -12 -67
-126 -88 -205 -30 -116 -42 -140 -103 -217 -32 -40 -58 -79 -58 -89 0 -9 -38
-55 -85 -102 -47 -47 -85 -89 -85 -93 0 -5 -11 -18 -24 -31 -13 -13 -29 -44
-35 -71 -10 -43 -9 -51 12 -92 30 -55 142 -156 227 -204 45 -26 124 -41 213
-41 l88 0 49 46 c28 26 62 65 77 88 16 23 46 58 68 77 40 36 40 36 154 42
l115 5 47 53 c27 30 76 84 111 121 61 65 63 66 75 45 22 -40 9 -164 -20 -193
-4 -4 -7 -18 -7 -31 0 -40 -121 -153 -215 -201 -104 -54 -193 -124 -201 -159
-8 -32 -90 -201 -109 -223 -7 -8 -24 -37 -39 -65 -34 -66 -50 -85 -70 -85 -38
0 -158 -75 -171 -108 -4 -9 -13 -53 -20 -97 -8 -44 -21 -111 -30 -150 -25
-104 -37 -215 -25 -230 14 -17 513 -27 1343 -26 453 0 684 4 697 11 11 6 26
23 34 38 21 41 31 176 16 226 -71 247 -84 268 -180 316 -25 12 -47 24 -49 26
-2 2 7 21 21 41 19 28 27 57 32 111 3 41 13 86 21 100 9 15 23 41 33 57 33 57
41 101 58 317 15 201 15 224 0 298 -9 44 -16 97 -16 118 -1 20 -8 55 -16 77
-8 22 -20 54 -25 71 -5 18 -16 37 -24 44 -8 7 -15 19 -15 28 0 8 -27 63 -61
122 -54 97 -70 116 -160 194 -54 48 -99 90 -99 95 0 4 -27 29 -60 54 -33 26
-60 53 -60 61 0 36 -135 107 -240 125 -299 52 -359 74 -437 161 -24 27 -75 71
-112 100 -84 61 -142 73 -202 41z m171 -1396 c-7 -8 -20 -15 -28 -15 -13 0
-12 3 4 15 25 19 40 19 24 0z"/>
</g>
</svg>
