<?xml version="1.0" encoding="UTF-8"?>
<svg version="1.1" xmlns="http://www.w3.org/2000/svg" width="360" height="360">
<path d="M0 0 C6.60874596 3.23439802 13.40424792 8.43153984 16.625 15.0625 C18.11 15.5575 18.11 15.5575 19.625 16.0625 C20.24375 16.805 20.8625 17.5475 21.5 18.3125 C29.55737338 26.63444385 45.20172362 28.18801123 56.125 29.69921875 C67.15768988 31.26330611 75.79142621 33.87193228 84.625 41.0625 C85.2128125 42.17625 85.2128125 42.17625 85.8125 43.3125 C87.65832238 46.11305809 89.21103043 47.39617996 91.875 49.375 C95.82771353 52.31221964 98.92570272 55.4460836 102.01953125 59.265625 C103.60352682 61.16402939 103.60352682 61.16402939 105.82421875 62.671875 C106.41847656 63.13078125 107.01273438 63.5896875 107.625 64.0625 C107.625 64.7225 107.625 65.3825 107.625 66.0625 C108.223125 66.35125 108.82125 66.64 109.4375 66.9375 C111.625 68.0625 111.625 68.0625 114.625 70.0625 C114.625 70.7225 114.625 71.3825 114.625 72.0625 C115.615 72.3925 116.605 72.7225 117.625 73.0625 C119.07664058 75.46238966 120.37256365 77.81233571 121.625 80.3125 C122.3113399 81.65163688 122.9988187 82.99019073 123.6875 84.328125 C124.01484131 84.9684668 124.34218262 85.60880859 124.67944336 86.26855469 C125.90286947 88.58968432 127.26406065 90.81999696 128.625 93.0625 C129.31540574 94.71947379 129.9780635 96.3880761 130.625 98.0625 C131.61409894 100.27463414 132.61604587 102.48044781 133.625 104.68359375 C135.91641263 110.13464957 137.06184082 115.32262526 137.6875 121.1875 C138.14564561 126.08335639 138.14564561 126.08335639 139.14526367 130.87963867 C141.42103408 141.23468358 139.42030952 153.53496092 138.56298828 164.02563477 C138.37386192 166.38922304 138.20831687 168.7537846 138.04296875 171.11914062 C137.30644947 180.76191455 136.09249574 189.1027427 130.4375 197.19140625 C128.19949338 200.7365245 127.88749081 203.91981199 127.625 208 C127.23122073 214.08620602 125.96205938 217.90216826 122.625 223.0625 C123.511875 223.330625 124.39875 223.59875 125.3125 223.875 C128.4159666 224.9875635 130.93610685 226.16445778 133.625 228.0625 C133.625 228.7225 133.625 229.3825 133.625 230.0625 C134.615 230.3925 135.605 230.7225 136.625 231.0625 C144.76492691 245.63271399 147.41946844 261.65398347 144.453125 277.94140625 C143.31429493 280.85831536 142.10683804 282.12479273 139.625 284.0625 C136.88825205 284.47196515 134.54612199 284.63709353 131.80810547 284.62426758 C131.01778679 284.63618322 130.22746811 284.64809887 129.41320038 284.6603756 C126.77268655 284.69509197 124.1329115 284.70122644 121.4921875 284.70703125 C119.61461884 284.72505395 117.73706467 284.74464503 115.85952759 284.76570129 C110.79329449 284.81682915 105.72724023 284.84191727 100.66079712 284.86103058 C96.44178638 284.87967687 92.22292753 284.91242005 88.00400162 284.94455338 C49.53576795 285.23049294 11.08456503 284.86794262 -27.375 284.0625 C-29.61213877 284.01774534 -31.84928053 283.97314008 -34.08642578 283.92871094 C-39.53709656 283.818598 -44.98735486 283.69601346 -50.4375 283.5625 C-51.19546875 283.54471497 -51.9534375 283.52692993 -52.734375 283.50860596 C-54.75144915 283.45934681 -56.76831852 283.40188895 -58.78515625 283.34375 C-59.85902588 283.31345703 -60.93289551 283.28316406 -62.03930664 283.25195312 C-64.375 283.0625 -64.375 283.0625 -65.375 282.0625 C-65.43110157 272.71597779 -64.38292309 263.8983071 -61.89013672 254.89892578 C-60.35796669 249.31893756 -59.56587132 243.79768535 -58.96484375 238.05078125 C-58.08384316 233.5874339 -56.65075753 230.9970906 -52.96484375 228.296875 C-52.08957031 227.80703125 -51.21429688 227.3171875 -50.3125 226.8125 C-49.43464844 226.31234375 -48.55679688 225.8121875 -47.65234375 225.296875 C-43.89536685 223.2605033 -41.68771163 222.9687454 -37.375 223.0625 C-37.27445313 222.5159375 -37.17390625 221.969375 -37.0703125 221.40625 C-36.20136428 218.47721105 -34.82115478 216.18343981 -33.25 213.5625 C-32.30640625 211.96728516 -32.30640625 211.96728516 -31.34375 210.33984375 C-30.08366561 208.24220327 -28.81372703 206.15043142 -27.53125 204.06640625 C-24.40628251 198.90609809 -21.98374872 194.12508596 -20.125 188.375 C-16.24789074 177.92799821 -7.58561511 173.43367773 2 168.875 C2.67780518 168.57811279 3.35561035 168.28122559 4.05395508 167.9753418 C8.94918215 165.75498282 11.3532994 163.32027064 14.625 159.0625 C15.76498337 158.19302116 16.92861067 157.35256843 18.125 156.5625 C23.92612223 151.75150366 26.03255312 143.49350896 27 136.2578125 C27.1020136 132.36854384 26.80894012 130.33841019 24.625 127.0625 C22.868468 128.76451893 21.11992913 130.47365103 19.375 132.1875 C18.88386719 132.661875 18.39273438 133.13625 17.88671875 133.625 C14.61986633 136.84829439 12.1026792 140.17286824 9.625 144.0625 C6.01345173 148.33933348 4.1097163 149.43532392 -1.375 150.0625 C-4.83124576 150.30814875 -8.28844606 150.47439031 -11.75 150.625 C-12.67683594 150.66818359 -13.60367188 150.71136719 -14.55859375 150.75585938 C-16.83060294 150.86126186 -19.10270925 150.96338606 -21.375 151.0625 C-21.79845703 151.98095703 -21.79845703 151.98095703 -22.23046875 152.91796875 C-23.78476459 155.83028416 -26.04298085 157.73048085 -28.375 160.0625 C-29.29106982 161.31882432 -30.1869216 162.59012756 -31.0625 163.875 C-32.2071875 165.4528125 -32.2071875 165.4528125 -33.375 167.0625 C-34.035 167.0625 -34.695 167.0625 -35.375 167.0625 C-35.601875 167.64 -35.82875 168.2175 -36.0625 168.8125 C-37.84914324 171.87531698 -39.32658513 173.17965552 -42.375 175.0625 C-45.78157992 175.63095167 -49.11689915 175.57527387 -52.5625 175.5 C-53.45775391 175.50708984 -54.35300781 175.51417969 -55.27539062 175.52148438 C-63.40883963 175.44514153 -71.39194655 174.01546468 -78.125 169.1875 C-78.85074219 168.66929687 -79.57648438 168.15109375 -80.32421875 167.6171875 C-81.00097656 167.10414063 -81.67773438 166.59109375 -82.375 166.0625 C-83.00019531 165.59070313 -83.62539062 165.11890625 -84.26953125 164.6328125 C-85.69153709 163.50719664 -87.04236722 162.29262257 -88.375 161.0625 C-88.375 160.4025 -88.375 159.7425 -88.375 159.0625 C-89.096875 158.918125 -89.81875 158.77375 -90.5625 158.625 C-94.90437571 156.21284683 -96.75559618 152.69039626 -98.375 148.0625 C-98.69794847 143.18676577 -97.66408812 138.38633312 -95.375 134.0625 C-94.92769531 133.6190625 -94.48039062 133.175625 -94.01953125 132.71875 C-91.40665053 130.08725018 -89.36128077 127.02339825 -87.19140625 124.0234375 C-85.17076158 121.84201035 -84.17301184 121.69220118 -81.375 121.0625 C-80.88 119.5775 -80.88 119.5775 -80.375 118.0625 C-79.715 118.0625 -79.055 118.0625 -78.375 118.0625 C-76.50948574 114.47497258 -74.94964072 110.78437807 -73.375 107.0625 C-72.715 107.0625 -72.055 107.0625 -71.375 107.0625 C-71.16875 106.381875 -70.9625 105.70125 -70.75 105 C-69.46768304 102.26050468 -68.33098095 100.80321685 -66.3125 98.625 C-63.54153258 95.55064199 -62.58125177 93.29066139 -62.375 89.0625 C-61.715 89.0625 -61.055 89.0625 -60.375 89.0625 C-60.04628906 87.30486328 -60.04628906 87.30486328 -59.7109375 85.51171875 C-57.84140438 76.06035798 -55.55821716 68.30248626 -50.375 60.0625 C-49.88 59.03125 -49.385 58 -48.875 56.9375 C-45.60019676 50.66079379 -42.18614567 45.23460458 -36.375 41.0625 C-27.1530251 32.8112593 -23.20788129 24.85987173 -22.4765625 12.80273438 C-22.10189857 8.56695045 -21.75006941 6.53762987 -19.046875 3.11328125 C-12.85257741 -1.64111383 -7.50161461 -2.08378184 0 0 Z " fill="#555251" transform="translate(150.375,40.9375)"/>
<path d="M0 0 C0.8505899 0.00188324 1.70117981 0.00376648 2.57754517 0.00570679 C32.14054242 0.08172366 61.44900733 1.17057633 90.875 4.125 C91.64007874 4.20014832 92.40515747 4.27529663 93.19342041 4.35272217 C95.51951932 4.58520613 97.84375619 4.83145084 100.16796875 5.08203125 C101.23278221 5.18770668 101.23278221 5.18770668 102.31910706 5.29551697 C106.89880759 5.81121515 110.40229146 6.50988089 113.58984375 9.9609375 C116.58140784 14.99840409 118.23175711 20.53412281 119.875 26.125 C120.24625 27.29869141 120.24625 27.29869141 120.625 28.49609375 C122.78972637 35.96740628 122.09255199 43.54912093 120.875 51.125 C118.96645335 53.03354665 115.45882968 52.31910129 112.85766602 52.34619141 C112.11655327 52.35766897 111.37544052 52.36914654 110.61186981 52.38097191 C108.11759205 52.41799715 105.62328872 52.44750062 103.12890625 52.4765625 C101.35916365 52.50019717 99.5894239 52.52404611 97.81968689 52.5480957 C93.02472218 52.61104704 88.22969815 52.66575797 83.43460083 52.71753693 C80.44320358 52.74993822 77.45182727 52.78393123 74.46044922 52.8180542 C46.75994731 53.12722747 19.07432784 53.15845945 -8.625 52.75 C-9.74177691 52.73393078 -9.74177691 52.73393078 -10.88111496 52.71753693 C-31.97006413 52.41203175 -53.04618438 51.84236849 -74.125 51.125 C-74.14691028 49.70604343 -74.16241695 48.28698722 -74.17529297 46.86791992 C-74.18929642 45.68258919 -74.18929642 45.68258919 -74.20358276 44.47331238 C-74.08624241 40.96679526 -73.19823727 37.80478053 -72.25 34.4375 C-70.77140089 29.07519032 -69.8083026 23.97400075 -69.25 18.4375 C-68.37276489 11.5527709 -68.37276489 11.5527709 -65.25 8.875 C-64.21875 8.2975 -63.1875 7.72 -62.125 7.125 C-61.54878906 6.77050781 -60.97257812 6.41601562 -60.37890625 6.05078125 C-57.23568994 4.75972013 -54.32083202 4.72728405 -50.9375 4.5625 C-46.71093883 4.72875086 -46.71093883 4.72875086 -43.125 3.125 C-41.19664017 2.74231774 -39.25618658 2.42012679 -37.3125 2.125 C-35.72501953 1.8775 -35.72501953 1.8775 -34.10546875 1.625 C-22.73551403 0.1163749 -11.4465035 -0.03844533 0 0 Z " fill="#555251" transform="translate(167.125,265.875)"/>
<path d="M0 0 C6.60874596 3.23439802 13.40424792 8.43153984 16.625 15.0625 C18.11 15.5575 18.11 15.5575 19.625 16.0625 C20.24375 16.805 20.8625 17.5475 21.5 18.3125 C29.55737338 26.63444385 45.20172362 28.18801123 56.125 29.69921875 C67.15768988 31.26330611 75.79142621 33.87193228 84.625 41.0625 C85.2128125 42.17625 85.2128125 42.17625 85.8125 43.3125 C87.65832238 46.11305809 89.21103043 47.39617996 91.875 49.375 C95.82771353 52.31221964 98.92570272 55.4460836 102.01953125 59.265625 C103.60352682 61.16402939 103.60352682 61.16402939 105.82421875 62.671875 C106.41847656 63.13078125 107.01273438 63.5896875 107.625 64.0625 C107.625 64.7225 107.625 65.3825 107.625 66.0625 C108.223125 66.35125 108.82125 66.64 109.4375 66.9375 C111.625 68.0625 111.625 68.0625 114.625 70.0625 C114.625 70.7225 114.625 71.3825 114.625 72.0625 C115.615 72.3925 116.605 72.7225 117.625 73.0625 C119.07664058 75.46238966 120.37256365 77.81233571 121.625 80.3125 C122.3113399 81.65163688 122.9988187 82.99019073 123.6875 84.328125 C124.01484131 84.9684668 124.34218262 85.60880859 124.67944336 86.26855469 C125.90286947 88.58968432 127.26406065 90.81999696 128.625 93.0625 C129.31540574 94.71947379 129.9780635 96.3880761 130.625 98.0625 C131.61409894 100.27463414 132.61604587 102.48044781 133.625 104.68359375 C135.91641263 110.13464957 137.06184082 115.32262526 137.6875 121.1875 C138.14564561 126.08335639 138.14564561 126.08335639 139.14526367 130.87963867 C141.42103408 141.23468358 139.42030952 153.53496092 138.56298828 164.02563477 C138.37386192 166.38922304 138.20831687 168.7537846 138.04296875 171.11914062 C137.30644947 180.76191455 136.09249574 189.1027427 130.4375 197.19140625 C128.19949338 200.7365245 127.88749081 203.91981199 127.625 208 C127.23122073 214.08620602 125.96205938 217.90216826 122.625 223.0625 C123.511875 223.330625 124.39875 223.59875 125.3125 223.875 C128.4159666 224.9875635 130.93610685 226.16445778 133.625 228.0625 C133.625 228.7225 133.625 229.3825 133.625 230.0625 C134.615 230.3925 135.605 230.7225 136.625 231.0625 C144.76492691 245.63271399 147.41946844 261.65398347 144.453125 277.94140625 C143.31429493 280.85831536 142.10683804 282.12479273 139.625 284.0625 C136.88825205 284.47196515 134.54612199 284.63709353 131.80810547 284.62426758 C131.01778679 284.63618322 130.22746811 284.64809887 129.41320038 284.6603756 C126.77268655 284.69509197 124.1329115 284.70122644 121.4921875 284.70703125 C119.61461884 284.72505395 117.73706467 284.74464503 115.85952759 284.76570129 C110.79329449 284.81682915 105.72724023 284.84191727 100.66079712 284.86103058 C96.44178638 284.87967687 92.22292753 284.91242005 88.00400162 284.94455338 C49.53576795 285.23049294 11.08456503 284.86794262 -27.375 284.0625 C-29.61213877 284.01774534 -31.84928053 283.97314008 -34.08642578 283.92871094 C-39.53709656 283.818598 -44.98735486 283.69601346 -50.4375 283.5625 C-51.19546875 283.54471497 -51.9534375 283.52692993 -52.734375 283.50860596 C-54.75144915 283.45934681 -56.76831852 283.40188895 -58.78515625 283.34375 C-59.85902588 283.31345703 -60.93289551 283.28316406 -62.03930664 283.25195312 C-64.375 283.0625 -64.375 283.0625 -65.375 282.0625 C-65.43110157 272.71597779 -64.38292309 263.8983071 -61.89013672 254.89892578 C-60.35796669 249.31893756 -59.56587132 243.79768535 -58.96484375 238.05078125 C-58.08384316 233.5874339 -56.65075753 230.9970906 -52.96484375 228.296875 C-52.08957031 227.80703125 -51.21429688 227.3171875 -50.3125 226.8125 C-49.43464844 226.31234375 -48.55679688 225.8121875 -47.65234375 225.296875 C-43.89536685 223.2605033 -41.68771163 222.9687454 -37.375 223.0625 C-37.27445313 222.5159375 -37.17390625 221.969375 -37.0703125 221.40625 C-36.20136428 218.47721105 -34.82115478 216.18343981 -33.25 213.5625 C-32.30640625 211.96728516 -32.30640625 211.96728516 -31.34375 210.33984375 C-30.08366561 208.24220327 -28.81372703 206.15043142 -27.53125 204.06640625 C-24.40628251 198.90609809 -21.98374872 194.12508596 -20.125 188.375 C-16.24789074 177.92799821 -7.58561511 173.43367773 2 168.875 C2.67780518 168.57811279 3.35561035 168.28122559 4.05395508 167.9753418 C8.94918215 165.75498282 11.3532994 163.32027064 14.625 159.0625 C15.76498337 158.19302116 16.92861067 157.35256843 18.125 156.5625 C23.92612223 151.75150366 26.03255312 143.49350896 27 136.2578125 C27.1020136 132.36854384 26.80894012 130.33841019 24.625 127.0625 C22.868468 128.76451893 21.11992913 130.47365103 19.375 132.1875 C18.88386719 132.661875 18.39273438 133.13625 17.88671875 133.625 C14.61986633 136.84829439 12.1026792 140.17286824 9.625 144.0625 C6.01345173 148.33933348 4.1097163 149.43532392 -1.375 150.0625 C-4.83124576 150.30814875 -8.28844606 150.47439031 -11.75 150.625 C-12.67683594 150.66818359 -13.60367188 150.71136719 -14.55859375 150.75585938 C-16.83060294 150.86126186 -19.10270925 150.96338606 -21.375 151.0625 C-21.79845703 151.98095703 -21.79845703 151.98095703 -22.23046875 152.91796875 C-23.78476459 155.83028416 -26.04298085 157.73048085 -28.375 160.0625 C-29.29106982 161.31882432 -30.1869216 162.59012756 -31.0625 163.875 C-32.2071875 165.4528125 -32.2071875 165.4528125 -33.375 167.0625 C-34.035 167.0625 -34.695 167.0625 -35.375 167.0625 C-35.601875 167.64 -35.82875 168.2175 -36.0625 168.8125 C-37.84914324 171.87531698 -39.32658513 173.17965552 -42.375 175.0625 C-45.78157992 175.63095167 -49.11689915 175.57527387 -52.5625 175.5 C-53.45775391 175.50708984 -54.35300781 175.51417969 -55.27539062 175.52148438 C-63.40883963 175.44514153 -71.39194655 174.01546468 -78.125 169.1875 C-78.85074219 168.66929687 -79.57648438 168.15109375 -80.32421875 167.6171875 C-81.00097656 167.10414063 -81.67773438 166.59109375 -82.375 166.0625 C-83.00019531 165.59070313 -83.62539062 165.11890625 -84.26953125 164.6328125 C-85.69153709 163.50719664 -87.04236722 162.29262257 -88.375 161.0625 C-88.375 160.4025 -88.375 159.7425 -88.375 159.0625 C-89.096875 158.918125 -89.81875 158.77375 -90.5625 158.625 C-94.90437571 156.21284683 -96.75559618 152.69039626 -98.375 148.0625 C-98.69794847 143.18676577 -97.66408812 138.38633312 -95.375 134.0625 C-94.92769531 133.6190625 -94.48039062 133.175625 -94.01953125 132.71875 C-91.40665053 130.08725018 -89.36128077 127.02339825 -87.19140625 124.0234375 C-85.17076158 121.84201035 -84.17301184 121.69220118 -81.375 121.0625 C-80.88 119.5775 -80.88 119.5775 -80.375 118.0625 C-79.715 118.0625 -79.055 118.0625 -78.375 118.0625 C-76.50948574 114.47497258 -74.94964072 110.78437807 -73.375 107.0625 C-72.715 107.0625 -72.055 107.0625 -71.375 107.0625 C-71.16875 106.381875 -70.9625 105.70125 -70.75 105 C-69.46768304 102.26050468 -68.33098095 100.80321685 -66.3125 98.625 C-63.54153258 95.55064199 -62.58125177 93.29066139 -62.375 89.0625 C-61.715 89.0625 -61.055 89.0625 -60.375 89.0625 C-60.04628906 87.30486328 -60.04628906 87.30486328 -59.7109375 85.51171875 C-57.84140438 76.06035798 -55.55821716 68.30248626 -50.375 60.0625 C-49.88 59.03125 -49.385 58 -48.875 56.9375 C-45.60019676 50.66079379 -42.18614567 45.23460458 -36.375 41.0625 C-27.1530251 32.8112593 -23.20788129 24.85987173 -22.4765625 12.80273438 C-22.10189857 8.56695045 -21.75006941 6.53762987 -19.046875 3.11328125 C-12.85257741 -1.64111383 -7.50161461 -2.08378184 0 0 Z M-14.375 10.0625 C-15.20330617 13.35804511 -15.53253475 16.68608203 -15.875 20.0625 C-16.81970394 29.37648249 -16.81970394 29.37648249 -19.3828125 32.54296875 C-20.04023438 33.04441406 -20.69765625 33.54585937 -21.375 34.0625 C-22.055625 35.2071875 -22.055625 35.2071875 -22.75 36.375 C-25.62028355 41.12200741 -28.80684112 45.05887831 -33.5 48.0625 C-36.41124654 50.08771499 -37.66181809 51.78011439 -39.25 54.91015625 C-40.375 57.0625 -40.375 57.0625 -42 59.62109375 C-46.75632217 67.17585547 -49.33891108 74.57300959 -51.79101562 83.05761719 C-56.36658466 98.76605069 -56.36658466 98.76605069 -62.55078125 105.00390625 C-64.78206025 107.52185921 -66.29488606 110.19150182 -67.9375 113.125 C-71.70852473 119.79552374 -75.63437253 124.67528312 -81.5625 129.5 C-85.50145344 132.89564951 -87.55589704 135.88725857 -88.375 141.0625 C-88.71134775 146.41042922 -88.185424 150.63828407 -84.75 154.875 C-81.61100231 158.07421827 -78.13724642 160.64646024 -74.375 163.0625 C-73.570625 163.619375 -72.76625 164.17625 -71.9375 164.75 C-64.14552192 168.74101316 -52.94059398 170.17062363 -44.375 168.0625 C-40.37619718 165.32980889 -37.95757351 162.11908953 -35.375 158.0625 C-34.611875 156.99 -33.84875 155.9175 -33.0625 154.8125 C-31.84597774 152.83001927 -30.66234156 150.82722538 -29.5 148.8125 C-26.87590493 145.41661226 -25.50503828 145.09618421 -21.375 144.0625 C-17.5650469 143.66977629 -13.74649373 143.60230064 -9.91992188 143.49609375 C-4.34001323 143.2809422 -0.30894822 142.79287472 4 138.9375 C6.66856318 136.01478794 9.27025343 133.04324657 11.85546875 130.046875 C13.46640735 128.24034782 15.13220618 126.55292557 16.875 124.875 C19.33998325 122.35399441 20.86751022 120.07533962 22.625 117.0625 C25.625 115.0625 25.625 115.0625 27.671875 115.11328125 C29.625 116.0625 29.625 116.0625 30.890625 118.29296875 C33.76037251 126.91359918 36.0530941 137.20281484 32.3125 145.9375 C31.755625 146.96875 31.19875 148 30.625 149.0625 C30.22925781 150.3 29.83351563 151.5375 29.42578125 152.8125 C27.64837421 157.6112243 24.77073135 160.68044365 21.125 164.1875 C20.50496094 164.7956958 19.88492188 165.4038916 19.24609375 166.03051758 C14.21093962 170.81947128 9.00401087 174.26431204 2.625 177.0625 C-6.58719244 181.18435027 -6.58719244 181.18435027 -12.59765625 188.83984375 C-13.24760249 190.92651327 -13.86953489 193.02209078 -14.46484375 195.125 C-15.49816635 198.46001544 -16.9293653 200.910403 -18.87109375 203.77734375 C-20.95157067 206.93858791 -22.81271724 210.21376185 -24.6875 213.5 C-25.0494043 214.12825684 -25.41130859 214.75651367 -25.78417969 215.40380859 C-27.59094698 218.07233836 -27.59094698 218.07233836 -28.375 221.0625 C-22.83225567 221.16081144 -17.58162045 220.79808346 -12.09375 220.07421875 C-2.3355283 218.89871356 7.30796938 218.79338892 17.125 218.875 C18.92602427 218.88393579 20.72704971 218.89263914 22.52807617 218.90112305 C27.89404062 218.93276505 33.25941346 218.99243065 38.625 219.0625 C39.79461273 219.07700195 39.79461273 219.07700195 40.987854 219.09179688 C59.7408962 219.33524408 78.35015664 220.34326992 97.02856445 222.04614258 C97.76035416 222.11258972 98.49214386 222.17903687 99.24610901 222.24749756 C101.22398362 222.42898303 103.20136832 222.6157857 105.17871094 222.80297852 C108.34473039 223.0413944 111.451783 223.11088334 114.625 223.0625 C114.90214844 222.49660156 115.17929687 221.93070313 115.46484375 221.34765625 C115.82707031 220.61417969 116.18929687 219.88070312 116.5625 219.125 C116.92214844 218.39410156 117.28179687 217.66320312 117.65234375 216.91015625 C118.625 215.0625 118.625 215.0625 119.625 214.0625 C119.93089302 210.40590189 120.2036258 206.75166264 120.44140625 203.08984375 C121.05696453 199.16472011 122.5786189 196.12323866 124.48631287 192.6572876 C129.77763522 183.0250484 131.08922742 174.62390354 131.625 163.75 C131.73001548 162.18143294 131.83808137 160.61306707 131.94921875 159.04492188 C133.10440771 143.33605961 133.10440771 143.33605961 131.1875 127.796875 C130.29462766 123.45652333 129.86571419 119.05496871 129.3828125 114.65234375 C127.70215365 106.6908722 123.4053723 99.51761251 119.625 92.375 C119.19960938 91.55966797 118.77421875 90.74433594 118.3359375 89.90429688 C114.08727922 81.84357557 109.55780411 75.74746901 102.8125 69.625 C101.42990621 68.3566487 100.04838829 67.08712357 98.66796875 65.81640625 C97.65512817 64.88538086 97.65512817 64.88538086 96.62182617 63.93554688 C94.07239678 61.54415156 91.61767936 59.06669309 89.15893555 56.58276367 C87.3292719 54.7694077 85.41236821 53.09068865 83.4375 51.4375 C81.11578603 49.45381335 79.41054593 47.77656124 77.5625 45.3125 C70.7617476 37.41485205 55.05117041 36.75832866 45.40429688 35.00585938 C29.89036257 32.11220864 20.22753363 28.52963026 9.75390625 16.3984375 C5.11301528 11.30623053 -1.09940885 6.77509853 -8 5.625 C-11.41133337 6.25340352 -12.28402552 7.27033528 -14.375 10.0625 Z M-19.375 227.0625 C-20.68017578 227.22854736 -21.98535156 227.39459473 -23.33007812 227.56567383 C-26.2440331 227.73686363 -26.2440331 227.73686363 -27.375 229.0625 C-29.56147981 229.16930227 -31.74937763 229.24752924 -33.9375 229.3125 C-41.54190342 229.78535281 -46.04932236 231.73682236 -51.375 237.0625 C-51.93772614 239.86139967 -52.40595828 242.61574001 -52.8125 245.4375 C-53.78871962 251.82252111 -54.98282661 257.98733118 -56.82421875 264.19140625 C-57.33009882 266.82844065 -57.43071268 269.06996564 -57.40942383 271.74194336 C-57.40445389 272.55134872 -57.39948395 273.36075409 -57.3943634 274.19468689 C-57.38797348 274.81106522 -57.38158356 275.42744354 -57.375 276.0625 C-33.10720869 276.93025219 -8.84363075 277.40199909 15.4375 277.6875 C16.82469112 277.70429432 16.82469112 277.70429432 18.23990631 277.72142792 C46.17010154 278.05797255 74.08631707 278.1031288 102.01623154 277.72142792 C104.49897743 277.68751397 106.98174085 277.65517452 109.46450806 277.62286377 C113.32486414 277.57143234 117.18506152 277.51338221 121.04522514 277.4491272 C122.4559757 277.42595155 123.86674971 277.40415774 125.27754402 277.38381958 C127.18755105 277.35540799 129.09744666 277.31977205 131.00732422 277.28369141 C132.60892899 277.25585068 132.60892899 277.25585068 134.2428894 277.22744751 C136.57873257 277.32762461 136.57873257 277.32762461 137.625 276.0625 C139.17385717 266.42516651 138.86374739 258.29810715 136 248.9375 C135.64615234 247.65552734 135.64615234 247.65552734 135.28515625 246.34765625 C133.53545338 240.50634051 131.13527962 236.2240058 126.625 232.0625 C99.51545155 218.50772577 50.12658086 225.02515408 19.64907837 224.88726807 C18.00141634 224.87925975 16.3537653 224.86828608 14.70614624 224.85394287 C3.210658 224.76384981 -7.98175688 225.53561981 -19.375 227.0625 Z " fill="#000000" transform="translate(150.375,40.9375)"/>
<path d="M0 0 C6.11360304 1.7160991 8.9539096 3.65575783 12.890625 8.55859375 C15.53501636 11.61923189 18.44349482 14.28676257 21.4375 17 C25.80583376 20.96952359 30.06117571 24.99509911 34.17578125 29.23046875 C36.02254988 31.02187387 37.97216762 32.54431054 40 34.125 C45.59350022 38.92727818 48.65676447 45.55798056 52 52 C52.72896484 53.3921875 52.72896484 53.3921875 53.47265625 54.8125 C54.68918936 57.19348223 55.86786431 59.57767072 57 62 C57.31356445 62.61939453 57.62712891 63.23878906 57.95019531 63.87695312 C60.93880088 70.06545172 62.20667699 76.11050406 63.25 82.875 C63.42273438 83.88691406 63.59546875 84.89882812 63.7734375 85.94140625 C65.68174753 97.76989937 65.00117621 109.43057199 64.15771484 121.33178711 C64.05322817 122.89245566 63.96222901 124.45409028 63.88525391 126.01635742 C63.389464 135.94575323 61.9249413 143.81581726 56.85375977 152.48478699 C53.45402415 158.35586964 52.90024766 163.77607313 52.546875 170.4765625 C51.91220954 174.56562141 50.43540752 176.70559216 48 180 C47.67 180.99 47.34 181.98 47 183 C46.16049805 182.93941406 45.32099609 182.87882813 44.45605469 182.81640625 C38.16419726 182.36438002 31.87209916 181.92160592 25.578125 181.5 C23.13541667 181.33333333 20.69270833 181.16666667 18.25 181 C16.99445313 180.9175 15.73890625 180.835 14.4453125 180.75 C13.25164062 180.6675 12.05796875 180.585 10.828125 180.5 C9.7546582 180.4278125 8.68119141 180.355625 7.57519531 180.28125 C5 180 5 180 3 179 C3.52199844 170.64802499 8.07157548 165.14123333 12.8984375 158.58203125 C14.12250805 156.9050725 14.12250805 156.9050725 15.25 154.5 C17.08530636 151.87813378 18.6397108 150.7989831 21.25 149 C26.31815133 145.23579051 28.5453784 140.86170332 31.31640625 135.28125 C34.93838612 128.22217089 39.9087252 121.98101379 44.8359375 115.7890625 C51.01518964 106.29209109 47.89549419 85.97641982 45.87207031 75.38012695 C42.9805378 62.62528732 38.97218264 51.56258449 28.5625 43.125 C19.72735313 35.60938806 12.9801248 25.42300456 8 15 C8 14.34 8 13.68 8 13 C7.443125 12.773125 6.88625 12.54625 6.3125 12.3125 C3.27337436 10.58759086 1.24246655 8.67850171 -1 6 C-1.375 3.25 -1.375 3.25 -1 1 C-0.67 0.67 -0.34 0.34 0 0 Z " fill="#444141" transform="translate(218,81)"/>
<path d="M0 0 C0.8505899 0.00188324 1.70117981 0.00376648 2.57754517 0.00570679 C31.41299455 0.07985288 60.02817126 1.04984461 88.73388672 3.91162109 C90.21942807 4.05966706 91.70529588 4.20445918 93.19140625 4.34667969 C95.5156948 4.57219901 97.83788188 4.81328011 100.16015625 5.05859375 C101.22339867 5.15955605 101.22339867 5.15955605 102.30812073 5.26255798 C107.09386468 5.79309205 110.41932612 6.76310862 113.71484375 10.33984375 C116.31207308 14.33625386 117.875 18.29463273 117.875 23.125 C117.194375 22.83625 116.51375 22.5475 115.8125 22.25 C109.22642197 19.72767224 103.71754092 18.82637548 96.70703125 18.78125 C95.39468758 18.7593158 95.39468758 18.7593158 94.05583191 18.73693848 C91.26643469 18.69074036 88.47709968 18.6564662 85.6875 18.625 C75.31144584 18.50498158 65.0550086 18.3534981 54.74609375 17.10546875 C40.08679189 15.41016516 25.25806966 15.86677262 10.52416992 15.92938232 C7.33953704 15.94015764 4.15494668 15.93978973 0.97029877 15.93942451 C-8.72900882 15.93954167 -18.42648122 16.00261621 -28.125 16.125 C-29.36918701 16.13932068 -30.61337402 16.15364136 -31.89526367 16.168396 C-35.20732929 16.21708935 -38.51701199 16.29476157 -41.828125 16.38671875 C-43.22318268 16.40675713 -43.22318268 16.40675713 -44.64642334 16.42720032 C-50.60370625 16.64290986 -57.69036315 17.69036315 -62.125 22.125 C-64.45797433 22.16592937 -66.79205225 22.16741723 -69.125 22.125 C-69.09124182 13.43226834 -69.09124182 13.43226834 -66.86328125 10.41796875 C-61.69161626 6.10607678 -57.57809904 4.88592814 -50.9375 4.5625 C-46.71093883 4.72875086 -46.71093883 4.72875086 -43.125 3.125 C-41.19664017 2.74231774 -39.25618658 2.42012679 -37.3125 2.125 C-35.72501953 1.8775 -35.72501953 1.8775 -34.10546875 1.625 C-22.73551403 0.1163749 -11.4465035 -0.03844533 0 0 Z " fill="#6E6B6B" transform="translate(167.125,265.875)"/>
<path d="M0 0 C0.11693501 3.85390817 0.1874962 7.70735512 0.25 11.5625 C0.28351563 12.64853516 0.31703125 13.73457031 0.3515625 14.85351562 C0.43241454 21.50359588 -0.04945441 25.57966482 -4 31 C-4.66 31 -5.32 31 -6 31 C-6.23783203 31.88751953 -6.23783203 31.88751953 -6.48046875 32.79296875 C-9.37576187 42.59857474 -16.45591661 47.74587976 -25 53 C-26.66153246 53.35804855 -28.32741504 53.69776096 -30 54 C-31.22772827 56.23259665 -31.22772827 56.23259665 -32 59 C-32.50402344 59.91652344 -33.00804687 60.83304688 -33.52734375 61.77734375 C-35.11883394 65.26004774 -35.36074788 67.57351282 -35.4375 71.375 C-35.7239875 76.99134879 -36.54905096 82.13783273 -37.9375 87.5625 C-38.10757568 88.22878418 -38.27765137 88.89506836 -38.45288086 89.58154297 C-39.40728955 93.16524064 -40.54081296 96.59086794 -42 100 C-42.66 100 -43.32 100 -44 100 C-44.268125 100.94875 -44.53625 101.8975 -44.8125 102.875 C-46 106 -46 106 -49 108 C-49.99 108 -50.98 108 -52 108 C-52.33 108.99 -52.66 109.98 -53 111 C-53.66 111 -54.32 111 -55 111 C-55.33 111.99 -55.66 112.98 -56 114 C-56.66 114 -57.32 114 -58 114 C-58.226875 114.515625 -58.45375 115.03125 -58.6875 115.5625 C-59.80829883 117.64398355 -60.98421567 119.41247463 -62.375 121.3125 C-64.87507845 124.73990725 -66.95334413 128.2856986 -69 132 C-69.66 132 -70.32 132 -71 132 C-71.33 132.99 -71.66 133.98 -72 135 C-72.66 135 -73.32 135 -74 135 C-74.33 135.99 -74.66 136.98 -75 138 C-75.66 138 -76.32 138 -77 138 C-77.33 138.99 -77.66 139.98 -78 141 C-79.32 140.67 -80.64 140.34 -82 140 C-81.72869686 133.89567941 -81.09223381 129.79090788 -77 125 C-75.42464941 123.63655498 -73.84028228 122.28349929 -72.25 120.9375 C-67.24113087 116.57588562 -64.17369092 111.86489735 -60.87890625 106.140625 C-59.17237167 103.2881223 -57.35863124 100.81080058 -55.25 98.25 C-49.99636116 91.64135024 -47.8326029 84.57611103 -45.5625 76.5625 C-43.68682701 69.94428919 -41.47497496 63.97325577 -38 58 C-37.50242188 57.13761719 -37.00484375 56.27523437 -36.4921875 55.38671875 C-35.02752629 52.90268278 -33.52142538 50.44953725 -32 48 C-31.34 46.88625 -30.68 45.7725 -30 44.625 C-27.67612119 41.57490907 -25.1898883 40.10532628 -22 38 C-18.38476267 34.35850187 -15.5447538 30.45331915 -13 26 C-12.34 25.34 -11.68 24.68 -11 24 C-10.51158983 21.94148177 -10.51158983 21.94148177 -10.2890625 19.5703125 C-10.17820312 18.69246094 -10.06734375 17.81460938 -9.953125 16.91015625 C-9.73538828 15.06198627 -9.52438441 13.21300993 -9.3203125 11.36328125 C-8.45495376 4.64691737 -8.45495376 4.64691737 -6.1484375 1.3671875 C-4 0 -4 0 0 0 Z " fill="#6B6868" transform="translate(144,47)"/>
<path d="M0 0 C2.00332182 2.00332182 1.16398323 6.02426437 1.16796875 8.76953125 C1.17129715 9.56090988 1.17462555 10.35228851 1.17805481 11.16764832 C1.18313328 12.8532147 1.18546285 14.5387912 1.18530273 16.22436523 C1.18745856 18.76368759 1.20551732 21.30255331 1.22460938 23.84179688 C1.31608908 47.57362096 1.31608908 47.57362096 -3.625 52.75 C-4.40875 53.1625 -5.1925 53.575 -6 54 C-6.02578125 53.20078125 -6.0515625 52.4015625 -6.078125 51.578125 C-6.49711222 43.46500883 -8.06873595 36.56675139 -11 29 C-12.65 28.67 -14.3 28.34 -16 28 C-15.69835937 27.31550781 -15.39671875 26.63101563 -15.0859375 25.92578125 C-13.88715948 22.69598003 -13.25942274 19.57233193 -12.625 16.1875 C-11.44669565 10.49335917 -10.01808556 5.96523753 -7 1 C-4.51588385 -0.24205807 -2.74800896 -0.14092354 0 0 Z " fill="#444141" transform="translate(191,128)"/>
<path d="M0 0 C0.76892578 -0.01160156 1.53785156 -0.02320313 2.33007812 -0.03515625 C8.48307765 -0.00400182 14.65279991 0.84029991 19.1875 5.375 C18.8125 7.5 18.8125 7.5 18.1875 9.375 C16.36025391 9.43107422 16.36025391 9.43107422 14.49609375 9.48828125 C12.8723671 9.55398117 11.24867051 9.62042709 9.625 9.6875 C8.82513672 9.71005859 8.02527344 9.73261719 7.20117188 9.75585938 C1.85906151 9.99570923 -2.06816721 10.86111977 -6.8125 13.375 C-8.47707328 15.59192394 -8.47707328 15.59192394 -9.8125 18.375 C-10.83125839 19.82882497 -11.87476964 21.26550145 -12.9375 22.6875 C-13.45570312 23.38488281 -13.97390625 24.08226562 -14.5078125 24.80078125 C-15.15363281 25.58001953 -15.15363281 25.58001953 -15.8125 26.375 C-16.1425 26.375 -16.4725 26.375 -16.8125 26.375 C-16.59873618 24.62926215 -16.38047319 22.8840283 -16.1484375 21.140625 C-15.88453374 18.96802196 -15.67103624 16.78928994 -15.4765625 14.609375 C-15.33896596 13.26037332 -15.20094172 11.9114152 -15.0625 10.5625 C-14.88460937 8.63470703 -14.88460937 8.63470703 -14.703125 6.66796875 C-13.8125 3.375 -13.8125 3.375 -11.78515625 1.44921875 C-7.7759132 0.00041213 -4.23110136 -0.06289003 0 0 Z " fill="#434040" transform="translate(128.8125,174.625)"/>
<path d="M0 0 C1.7421875 1.25390625 1.7421875 1.25390625 3 3 C3.1796875 5.375 3.1796875 5.375 2.875 8 C2.78992188 8.86625 2.70484375 9.7325 2.6171875 10.625 C1.66390307 14.29333503 -0.36815727 15.55105912 -3.375 17.6875 C-6.26715042 19.13357521 -7.81758612 19.5024864 -11 19 C-13.5048111 17.12139167 -13.98700625 16.03898126 -15 13 C-15.87906198 6.29715243 -15.87906198 6.29715243 -13.71875 3.109375 C-9.14004721 -1.34445408 -6.06144285 -1.71740881 0 0 Z " fill="#010101" transform="translate(147,108)"/>
</svg>
