<?xml version="1.0" encoding="UTF-8"?>
<svg version="1.1" xmlns="http://www.w3.org/2000/svg" width="360" height="360">
<path d="M0 0 C1.55951278 0.53028659 3.11429435 1.07468829 4.6640625 1.6328125 C5.45683594 1.90222656 6.24960938 2.17164063 7.06640625 2.44921875 C10.50983458 3.64363974 13.22849503 4.71743419 16.2890625 6.7578125 C16.2890625 7.4178125 16.2890625 8.0778125 16.2890625 8.7578125 C16.8665625 8.9434375 17.4440625 9.1290625 18.0390625 9.3203125 C21.42885276 11.48601183 23.0510701 14.01857014 24.2890625 17.7578125 C25.36931313 26.05413736 24.44064155 33.4431256 20.2890625 40.7578125 C18.1640625 43.1953125 18.1640625 43.1953125 16.2890625 44.7578125 C15.6290625 45.7478125 14.9690625 46.7378125 14.2890625 47.7578125 C13.6290625 47.7578125 12.9690625 47.7578125 12.2890625 47.7578125 C12.1859375 48.9128125 12.0828125 50.0678125 11.9765625 51.2578125 C11.2951248 56.68052092 9.73135572 61.57295248 6.7109375 66.1484375 C5.08928689 69.12443367 4.95979924 70.95866244 4.9140625 74.3203125 C4.57302652 80.21950935 2.90969606 84.68052158 0.48046875 90.0234375 C-0.51768498 92.31428212 -1.19422013 94.32974254 -1.7109375 96.7578125 C-3.03154318 102.80212313 -5.5131124 109.21673226 -8.77709961 114.47558594 C-10.10140023 117.71207278 -9.91647332 120.51988225 -9.87109375 124.0078125 C-9.86589218 124.70293945 -9.86069061 125.39806641 -9.85533142 126.11425781 C-9.83757041 128.32899203 -9.80641512 130.54325672 -9.7734375 132.7578125 C-9.74575613 134.97232236 -9.72104072 137.18676351 -9.70225525 139.40136719 C-9.68445253 141.41087618 -9.65704475 143.42029325 -9.62915039 145.4296875 C-9.7109375 148.7578125 -9.7109375 148.7578125 -10.7109375 152.7578125 C-0.8109375 153.2528125 -0.8109375 153.2528125 9.2890625 153.7578125 C10.39948929 145.98482497 11.35748485 138.26586489 11.99267578 130.43945312 C13.70521182 109.43139103 13.70521182 109.43139103 17.26953125 102.984375 C18.83870638 99.5574408 19.3687772 95.94081203 20.1015625 92.2578125 C22.45237426 81.12691426 26.56120156 71.57700268 32.2890625 61.7578125 C35.2590625 61.7578125 38.2290625 61.7578125 41.2890625 61.7578125 C41.8871875 63.0984375 42.4853125 64.4390625 43.1015625 65.8203125 C43.47023437 66.64144531 43.83890625 67.46257812 44.21875 68.30859375 C44.85839157 69.7722991 45.47601862 71.24640401 46.046875 72.73828125 C48.83768012 80.00399803 54.42793352 83.74252837 60.49609375 88.20703125 C61.08777344 88.71878906 61.67945313 89.23054688 62.2890625 89.7578125 C62.2890625 90.4178125 62.2890625 91.0778125 62.2890625 91.7578125 C63.2790625 92.0878125 64.2690625 92.4178125 65.2890625 92.7578125 C65.62239583 94.09114583 65.95572917 95.42447917 66.2890625 96.7578125 C67.2790625 97.0878125 68.2690625 97.4178125 69.2890625 97.7578125 C73.38130558 103.65436276 76.6718327 110.08387652 79.2890625 116.7578125 C79.76472656 117.83933594 80.24039063 118.92085938 80.73046875 120.03515625 C86.83427287 134.32165057 86.8106391 148.1810253 86.37451172 163.49755859 C86.29749685 166.43600609 86.27085861 169.3693235 86.26171875 172.30859375 C86.11905359 182.97790934 85.27572376 198.77115124 77.2890625 206.7578125 C76.66196265 208.2400485 76.0852269 209.7438831 75.5390625 211.2578125 C73.40709506 216.74343659 70.85595342 222.04951649 67.2890625 226.7578125 C66.2990625 227.0878125 65.3090625 227.4178125 64.2890625 227.7578125 C63.9590625 228.7478125 63.6290625 229.7378125 63.2890625 230.7578125 C65.238125 230.726875 65.238125 230.726875 67.2265625 230.6953125 C74.98614343 231.43695576 81.61311764 235.68268659 88.22363281 239.55664062 C89.57869302 240.34468982 90.9533236 241.10018913 92.34667969 241.81835938 C98.36881195 245.11791956 102.62946858 249.36275629 105.2890625 255.7578125 C106.24517528 260.85551652 106.0911725 266.02807869 105.92700195 271.19116211 C105.85115191 273.5832615 105.82449465 275.97206116 105.80664062 278.36523438 C105.7840633 279.89848151 105.75876944 281.43169158 105.73046875 282.96484375 C105.71883194 283.67324905 105.70719513 284.38165436 105.69520569 285.11152649 C105.56240812 289.06461547 105.01323503 292.18869312 103.2890625 295.7578125 C102.4326416 295.78286865 101.5762207 295.8079248 100.69384766 295.83374023 C97.4694722 295.92975304 94.24521249 296.02892343 91.02099609 296.13012695 C89.63431501 296.17302891 88.2475961 296.21472799 86.86083984 296.25512695 C77.49038584 296.50773521 77.49038584 296.50773521 68.15234375 297.28125 C62.05987555 297.95755707 55.97564634 297.94189313 49.8515625 297.9453125 C48.70107422 297.95755859 47.55058594 297.96980469 46.36523438 297.98242188 C45.22763672 297.98435547 44.09003906 297.98628906 42.91796875 297.98828125 C41.90806885 297.99239014 40.89816895 297.99649902 39.85766602 298.00073242 C36.89605155 297.79913111 34.35391755 297.36309657 31.47119141 296.74194336 C23.6016511 295.2498655 15.7132673 295.62075141 7.74609375 295.78125 C6.0298107 295.80772753 4.31351133 295.83316539 2.59719849 295.8576355 C-1.02940709 295.91105544 -4.65583384 295.9706663 -8.28225708 296.03527832 C-13.9183931 296.13505101 -19.55469214 296.21754961 -25.19116211 296.29589844 C-26.12253903 296.30890488 -27.05391596 296.32191132 -28.01351643 296.33531189 C-29.88810678 296.36148254 -31.76269765 296.38761589 -33.63728905 296.41371155 C-36.43181663 296.45304501 -39.22632415 296.49357948 -42.02082825 296.5345459 C-55.92648231 296.73817061 -69.83173288 296.93453277 -83.73892212 296.99200439 C-85.7539138 297.00250136 -87.76888425 297.01869104 -89.78378296 297.04071045 C-92.50053897 297.06986775 -95.21670265 297.0807418 -97.93359375 297.0859375 C-98.70967987 297.09825409 -99.48576599 297.11057068 -100.28536987 297.1232605 C-102.39477539 297.11425781 -102.39477539 297.11425781 -105.7109375 296.7578125 C-110.32698544 289.83374059 -109.50049222 279.50675189 -108.1796875 271.5625 C-105.08576081 258.41331157 -99.85797631 246.71087576 -88.1953125 239.2578125 C-87.37546875 238.7628125 -86.555625 238.2678125 -85.7109375 237.7578125 C-84.79054688 237.1390625 -84.79054688 237.1390625 -83.8515625 236.5078125 C-77.2524059 232.53663862 -69.21260666 232.44971402 -61.7109375 231.7578125 C-62.68675781 230.97921875 -63.66257813 230.200625 -64.66796875 229.3984375 C-67.29371698 227.30338872 -68.11266694 226.10812762 -68.7109375 222.7578125 C-69.7009375 222.4278125 -70.6909375 222.0978125 -71.7109375 221.7578125 C-75.61158894 217.07703077 -77.39126187 211.66119401 -79.48828125 205.9921875 C-80.4939902 203.3317178 -81.57461643 200.77160248 -82.7734375 198.1953125 C-83.42335019 196.71793366 -84.06860481 195.23850269 -84.7109375 193.7578125 C-85.05777588 193.00234131 -85.40461426 192.24687012 -85.76196289 191.46850586 C-89.51579689 182.06859729 -89.25162762 172.76730058 -89.12255859 162.81054688 C-89.08575398 159.86814076 -89.08154228 156.92698883 -89.08203125 153.984375 C-89.07220808 152.0989475 -89.06055459 150.21352846 -89.046875 148.328125 C-89.04464935 147.45616486 -89.04242371 146.58420471 -89.04013062 145.68582153 C-88.96679938 140.96339412 -88.43065527 137.21719261 -86.7109375 132.7578125 C-86.44635194 130.57431345 -86.21890582 128.3860808 -86.0234375 126.1953125 C-84.70104176 116.20857985 -79.98294299 108.46377551 -73.7109375 100.7578125 C-72.6709756 99.24999488 -71.64902275 97.72954321 -70.6484375 96.1953125 C-66.6486304 90.07359182 -66.6486304 90.07359182 -64.7109375 87.7578125 C-64.0509375 87.7578125 -63.3909375 87.7578125 -62.7109375 87.7578125 C-62.2159375 86.2728125 -62.2159375 86.2728125 -61.7109375 84.7578125 C-61.0509375 84.7578125 -60.3909375 84.7578125 -59.7109375 84.7578125 C-59.2159375 83.2728125 -59.2159375 83.2728125 -58.7109375 81.7578125 C-57.0712654 80.39141908 -55.39983622 79.0628706 -53.7109375 77.7578125 C-50.19439158 74.42160227 -47.08438015 70.87692755 -44.04296875 67.11328125 C-43.38361328 66.44232422 -43.38361328 66.44232422 -42.7109375 65.7578125 C-42.0509375 65.7578125 -41.3909375 65.7578125 -40.7109375 65.7578125 C-40.4428125 65.2009375 -40.1746875 64.6440625 -39.8984375 64.0703125 C-37.37475208 59.15576721 -34.67767865 55.62780387 -30.7109375 51.7578125 C-29.35538457 50.10916705 -28.01462097 48.44777255 -26.7109375 46.7578125 C-27.3503125 46.1803125 -27.9896875 45.6028125 -28.6484375 45.0078125 C-32.71381233 40.57285814 -31.98146291 35.03869869 -31.9296875 29.28515625 C-31.25306113 18.37455598 -28.17985198 10.79987903 -20.0859375 3.4453125 C-13.68605459 -2.13598073 -8.13499465 -2.46463482 0 0 Z " fill="#555251" transform="translate(175.7109375,32.2421875)"/>
<path d="M0 0 C0.95736557 -0.00350464 1.91473114 -0.00700928 2.90110779 -0.01062012 C6.05019501 -0.01938374 9.1990552 -0.01360251 12.34814453 -0.00683594 C14.55803469 -0.00818523 16.76792457 -0.01012797 18.97781372 -0.01263428 C23.6094241 -0.01557923 28.24095722 -0.01131218 32.87255859 -0.00195312 C38.76036768 0.00937406 44.64799304 0.00292084 50.53579521 -0.00909805 C55.1036411 -0.016391 59.67144485 -0.01399381 64.23929214 -0.00884247 C66.40704496 -0.00752293 68.5748018 -0.00909306 70.7425499 -0.01380157 C80.95087651 -0.03109393 91.09024136 0.05300792 101.25097656 1.12304688 C101.9751219 1.1968243 102.69926723 1.27060173 103.44535637 1.34661484 C109.25000754 2.04684413 113.38547721 3.94914928 118.10595703 7.25878906 C119.11658203 7.73316406 120.12720703 8.20753906 121.16845703 8.69628906 C127.62501645 12.13062918 132.43510488 15.82891351 136.10595703 22.25878906 C136.56005859 25.69384766 136.56005859 25.69384766 136.49658203 29.40722656 C136.49092224 30.06461823 136.48526245 30.72200989 136.47943115 31.39932251 C136.45721978 33.47825098 136.40706124 35.55539069 136.35595703 37.63378906 C136.33587193 39.05173274 136.31762468 40.46970371 136.30126953 41.88769531 C136.2574077 45.34529783 136.1884914 48.80186857 136.10595703 52.25878906 C135.34041504 52.28384521 134.57487305 52.30890137 133.78613281 52.3347168 C130.26761772 52.4518236 126.74929648 52.57402312 123.23095703 52.69628906 C122.02697266 52.73560547 120.82298828 52.77492188 119.58251953 52.81542969 C114.34666881 53.00039181 109.14684928 53.20588077 103.93798828 53.78222656 C98.51236025 54.37416369 93.12254733 54.44264084 87.66845703 54.44628906 C86.70875 54.45853516 85.74904297 54.47078125 84.76025391 54.48339844 C83.803125 54.48533203 82.84599609 54.48726563 81.85986328 54.48925781 C81.0175415 54.4933667 80.17521973 54.49747559 79.30737305 54.50170898 C76.53537865 54.2913731 74.11718236 53.83289053 71.4128418 53.24291992 C63.13836308 51.68737432 54.82148485 52.12459817 46.44189453 52.28222656 C44.60528979 52.30852505 42.76866986 52.33378039 40.93203735 52.35806274 C36.09137857 52.42445206 31.25100185 52.50312709 26.4105835 52.58502197 C18.8022656 52.7116714 11.19364652 52.81979253 3.58506012 52.92890167 C1.7007302 52.95607816 -0.18359306 52.98372062 -2.06790924 53.01183319 C-22.34354116 53.31253519 -42.61665587 53.324867 -62.89404297 53.25878906 C-66.17753903 40.69962135 -61.78680413 27.94948413 -55.64404297 16.94628906 C-52.85348306 12.6919692 -49.30638049 10.61000006 -44.89404297 8.25878906 C-43.85892578 7.57558594 -42.82380859 6.89238281 -41.75732422 6.18847656 C-37.34096996 3.66080343 -32.95593713 3.44132869 -27.95654297 3.13378906 C-26.23866576 3.0121007 -24.5211921 2.88456411 -22.80419922 2.75097656 C-21.67703491 2.67919189 -21.67703491 2.67919189 -20.52709961 2.60595703 C-17.7108347 2.29923521 -17.7108347 2.29923521 -14.34785461 1.25326538 C-9.54202648 0.04038457 -4.93544519 -0.02251671 0 0 Z " fill="#555251" transform="translate(137.89404296875,268.7412109375)"/>
<path d="M0 0 C1.55951278 0.53028659 3.11429435 1.07468829 4.6640625 1.6328125 C5.45683594 1.90222656 6.24960938 2.17164063 7.06640625 2.44921875 C10.50983458 3.64363974 13.22849503 4.71743419 16.2890625 6.7578125 C16.2890625 7.4178125 16.2890625 8.0778125 16.2890625 8.7578125 C16.8665625 8.9434375 17.4440625 9.1290625 18.0390625 9.3203125 C21.42885276 11.48601183 23.0510701 14.01857014 24.2890625 17.7578125 C25.36931313 26.05413736 24.44064155 33.4431256 20.2890625 40.7578125 C18.1640625 43.1953125 18.1640625 43.1953125 16.2890625 44.7578125 C15.6290625 45.7478125 14.9690625 46.7378125 14.2890625 47.7578125 C13.6290625 47.7578125 12.9690625 47.7578125 12.2890625 47.7578125 C12.1859375 48.9128125 12.0828125 50.0678125 11.9765625 51.2578125 C11.2951248 56.68052092 9.73135572 61.57295248 6.7109375 66.1484375 C5.08928689 69.12443367 4.95979924 70.95866244 4.9140625 74.3203125 C4.57302652 80.21950935 2.90969606 84.68052158 0.48046875 90.0234375 C-0.51768498 92.31428212 -1.19422013 94.32974254 -1.7109375 96.7578125 C-3.03154318 102.80212313 -5.5131124 109.21673226 -8.77709961 114.47558594 C-10.10140023 117.71207278 -9.91647332 120.51988225 -9.87109375 124.0078125 C-9.86589218 124.70293945 -9.86069061 125.39806641 -9.85533142 126.11425781 C-9.83757041 128.32899203 -9.80641512 130.54325672 -9.7734375 132.7578125 C-9.74575613 134.97232236 -9.72104072 137.18676351 -9.70225525 139.40136719 C-9.68445253 141.41087618 -9.65704475 143.42029325 -9.62915039 145.4296875 C-9.7109375 148.7578125 -9.7109375 148.7578125 -10.7109375 152.7578125 C-0.8109375 153.2528125 -0.8109375 153.2528125 9.2890625 153.7578125 C10.39948929 145.98482497 11.35748485 138.26586489 11.99267578 130.43945312 C13.70521182 109.43139103 13.70521182 109.43139103 17.26953125 102.984375 C18.83870638 99.5574408 19.3687772 95.94081203 20.1015625 92.2578125 C22.45237426 81.12691426 26.56120156 71.57700268 32.2890625 61.7578125 C35.2590625 61.7578125 38.2290625 61.7578125 41.2890625 61.7578125 C41.8871875 63.0984375 42.4853125 64.4390625 43.1015625 65.8203125 C43.47023437 66.64144531 43.83890625 67.46257812 44.21875 68.30859375 C44.85839157 69.7722991 45.47601862 71.24640401 46.046875 72.73828125 C48.83768012 80.00399803 54.42793352 83.74252837 60.49609375 88.20703125 C61.08777344 88.71878906 61.67945313 89.23054688 62.2890625 89.7578125 C62.2890625 90.4178125 62.2890625 91.0778125 62.2890625 91.7578125 C63.2790625 92.0878125 64.2690625 92.4178125 65.2890625 92.7578125 C65.62239583 94.09114583 65.95572917 95.42447917 66.2890625 96.7578125 C67.2790625 97.0878125 68.2690625 97.4178125 69.2890625 97.7578125 C73.38130558 103.65436276 76.6718327 110.08387652 79.2890625 116.7578125 C79.76472656 117.83933594 80.24039063 118.92085938 80.73046875 120.03515625 C86.83427287 134.32165057 86.8106391 148.1810253 86.37451172 163.49755859 C86.29749685 166.43600609 86.27085861 169.3693235 86.26171875 172.30859375 C86.11905359 182.97790934 85.27572376 198.77115124 77.2890625 206.7578125 C76.66196265 208.2400485 76.0852269 209.7438831 75.5390625 211.2578125 C73.40709506 216.74343659 70.85595342 222.04951649 67.2890625 226.7578125 C66.2990625 227.0878125 65.3090625 227.4178125 64.2890625 227.7578125 C63.9590625 228.7478125 63.6290625 229.7378125 63.2890625 230.7578125 C65.238125 230.726875 65.238125 230.726875 67.2265625 230.6953125 C74.98614343 231.43695576 81.61311764 235.68268659 88.22363281 239.55664062 C89.57869302 240.34468982 90.9533236 241.10018913 92.34667969 241.81835938 C98.36881195 245.11791956 102.62946858 249.36275629 105.2890625 255.7578125 C106.24517528 260.85551652 106.0911725 266.02807869 105.92700195 271.19116211 C105.85115191 273.5832615 105.82449465 275.97206116 105.80664062 278.36523438 C105.7840633 279.89848151 105.75876944 281.43169158 105.73046875 282.96484375 C105.71883194 283.67324905 105.70719513 284.38165436 105.69520569 285.11152649 C105.56240812 289.06461547 105.01323503 292.18869312 103.2890625 295.7578125 C102.4326416 295.78286865 101.5762207 295.8079248 100.69384766 295.83374023 C97.4694722 295.92975304 94.24521249 296.02892343 91.02099609 296.13012695 C89.63431501 296.17302891 88.2475961 296.21472799 86.86083984 296.25512695 C77.49038584 296.50773521 77.49038584 296.50773521 68.15234375 297.28125 C62.05987555 297.95755707 55.97564634 297.94189313 49.8515625 297.9453125 C48.70107422 297.95755859 47.55058594 297.96980469 46.36523438 297.98242188 C45.22763672 297.98435547 44.09003906 297.98628906 42.91796875 297.98828125 C41.90806885 297.99239014 40.89816895 297.99649902 39.85766602 298.00073242 C36.89605155 297.79913111 34.35391755 297.36309657 31.47119141 296.74194336 C23.6016511 295.2498655 15.7132673 295.62075141 7.74609375 295.78125 C6.0298107 295.80772753 4.31351133 295.83316539 2.59719849 295.8576355 C-1.02940709 295.91105544 -4.65583384 295.9706663 -8.28225708 296.03527832 C-13.9183931 296.13505101 -19.55469214 296.21754961 -25.19116211 296.29589844 C-26.12253903 296.30890488 -27.05391596 296.32191132 -28.01351643 296.33531189 C-29.88810678 296.36148254 -31.76269765 296.38761589 -33.63728905 296.41371155 C-36.43181663 296.45304501 -39.22632415 296.49357948 -42.02082825 296.5345459 C-55.92648231 296.73817061 -69.83173288 296.93453277 -83.73892212 296.99200439 C-85.7539138 297.00250136 -87.76888425 297.01869104 -89.78378296 297.04071045 C-92.50053897 297.06986775 -95.21670265 297.0807418 -97.93359375 297.0859375 C-98.70967987 297.09825409 -99.48576599 297.11057068 -100.28536987 297.1232605 C-102.39477539 297.11425781 -102.39477539 297.11425781 -105.7109375 296.7578125 C-110.32698544 289.83374059 -109.50049222 279.50675189 -108.1796875 271.5625 C-105.08576081 258.41331157 -99.85797631 246.71087576 -88.1953125 239.2578125 C-87.37546875 238.7628125 -86.555625 238.2678125 -85.7109375 237.7578125 C-84.79054688 237.1390625 -84.79054688 237.1390625 -83.8515625 236.5078125 C-77.2524059 232.53663862 -69.21260666 232.44971402 -61.7109375 231.7578125 C-62.68675781 230.97921875 -63.66257813 230.200625 -64.66796875 229.3984375 C-67.29371698 227.30338872 -68.11266694 226.10812762 -68.7109375 222.7578125 C-69.7009375 222.4278125 -70.6909375 222.0978125 -71.7109375 221.7578125 C-75.61158894 217.07703077 -77.39126187 211.66119401 -79.48828125 205.9921875 C-80.4939902 203.3317178 -81.57461643 200.77160248 -82.7734375 198.1953125 C-83.42335019 196.71793366 -84.06860481 195.23850269 -84.7109375 193.7578125 C-85.05777588 193.00234131 -85.40461426 192.24687012 -85.76196289 191.46850586 C-89.51579689 182.06859729 -89.25162762 172.76730058 -89.12255859 162.81054688 C-89.08575398 159.86814076 -89.08154228 156.92698883 -89.08203125 153.984375 C-89.07220808 152.0989475 -89.06055459 150.21352846 -89.046875 148.328125 C-89.04464935 147.45616486 -89.04242371 146.58420471 -89.04013062 145.68582153 C-88.96679938 140.96339412 -88.43065527 137.21719261 -86.7109375 132.7578125 C-86.44635194 130.57431345 -86.21890582 128.3860808 -86.0234375 126.1953125 C-84.70104176 116.20857985 -79.98294299 108.46377551 -73.7109375 100.7578125 C-72.6709756 99.24999488 -71.64902275 97.72954321 -70.6484375 96.1953125 C-66.6486304 90.07359182 -66.6486304 90.07359182 -64.7109375 87.7578125 C-64.0509375 87.7578125 -63.3909375 87.7578125 -62.7109375 87.7578125 C-62.2159375 86.2728125 -62.2159375 86.2728125 -61.7109375 84.7578125 C-61.0509375 84.7578125 -60.3909375 84.7578125 -59.7109375 84.7578125 C-59.2159375 83.2728125 -59.2159375 83.2728125 -58.7109375 81.7578125 C-57.0712654 80.39141908 -55.39983622 79.0628706 -53.7109375 77.7578125 C-50.19439158 74.42160227 -47.08438015 70.87692755 -44.04296875 67.11328125 C-43.38361328 66.44232422 -43.38361328 66.44232422 -42.7109375 65.7578125 C-42.0509375 65.7578125 -41.3909375 65.7578125 -40.7109375 65.7578125 C-40.4428125 65.2009375 -40.1746875 64.6440625 -39.8984375 64.0703125 C-37.37475208 59.15576721 -34.67767865 55.62780387 -30.7109375 51.7578125 C-29.35538457 50.10916705 -28.01462097 48.44777255 -26.7109375 46.7578125 C-27.3503125 46.1803125 -27.9896875 45.6028125 -28.6484375 45.0078125 C-32.71381233 40.57285814 -31.98146291 35.03869869 -31.9296875 29.28515625 C-31.25306113 18.37455598 -28.17985198 10.79987903 -20.0859375 3.4453125 C-13.68605459 -2.13598073 -8.13499465 -2.46463482 0 0 Z M-16.3984375 9.5078125 C-17.16542969 10.20390625 -17.93242187 10.9 -18.72265625 11.6171875 C-23.80391173 17.08777296 -24.73437649 24.81625751 -25.0234375 32.0703125 C-24.69157953 35.98623656 -24.19958883 37.75426779 -21.7109375 40.7578125 C-19.14483084 42.56577353 -19.14483084 42.56577353 -16.7109375 43.7578125 C-17.30055863 46.92459986 -18.22661085 48.69065022 -20.37109375 51.078125 C-20.91830078 51.696875 -21.46550781 52.315625 -22.02929688 52.953125 C-22.60486328 53.58992188 -23.18042969 54.22671875 -23.7734375 54.8828125 C-24.8914517 56.13351699 -26.00730273 57.38615817 -27.12109375 58.640625 C-27.70689209 59.3001416 -28.29269043 59.9596582 -28.89624023 60.63916016 C-30.80157065 62.86362637 -32.58466443 65.15878174 -34.375 67.4765625 C-39.43252951 73.85315615 -45.21860328 79.44783696 -51.0234375 85.1328125 C-52.65275439 86.73435008 -54.28048445 88.3374269 -55.90531921 89.94351196 C-57.36493755 91.38548752 -58.82941794 92.82253673 -60.29418945 94.25927734 C-62.9784243 97.03435154 -65.23699813 99.40890815 -66.5234375 103.0703125 C-67.66470052 105.65317092 -68.71762786 107.01002116 -70.5859375 109.0703125 C-76.65985525 116.00346739 -78.22046888 122.24311026 -79.21875 131.390625 C-79.7109375 134.7578125 -79.7109375 134.7578125 -80.72070312 137.42480469 C-81.93901163 141.52548213 -82.03480941 145.20041555 -82.046875 149.453125 C-82.0535318 150.28182098 -82.0601886 151.11051697 -82.06704712 151.96432495 C-82.07713867 153.71414994 -82.08186523 155.46401313 -82.08154297 157.21386719 C-82.08589036 159.85418465 -82.12217391 162.49279306 -82.16015625 165.1328125 C-82.23995356 177.16920311 -80.55815673 186.81499659 -74.75390625 197.51171875 C-73.39083521 200.44717137 -72.54245836 203.47923981 -71.5859375 206.5703125 C-68.91308538 214.26713665 -64.62442366 219.27283983 -58.7109375 224.7578125 C-58.23726966 225.26337771 -57.76360182 225.76894293 -57.27558041 226.2898283 C-53.14143596 230.38708032 -50.10849776 231.45276838 -44.32888794 231.51863098 C-43.39414642 231.4987059 -42.45940491 231.47878082 -41.49633789 231.45825195 C-40.49379471 231.46061859 -39.49125153 231.46298523 -38.45832825 231.46542358 C-35.15749097 231.46465034 -31.85905063 231.41954557 -28.55859375 231.37109375 C-26.25606852 231.35521819 -23.95353119 231.34101709 -21.65098572 231.32841492 C-16.82979404 231.2948503 -12.00949807 231.23896174 -7.1887207 231.16772461 C-1.02057652 231.07865394 5.14623201 231.04811873 11.31494808 231.03475666 C16.06890215 231.01744184 20.82209091 230.96741406 25.5756855 230.90776634 C27.84930281 230.88344485 30.12305759 230.86958192 32.3968029 230.86651039 C35.58101913 230.85760307 38.7615611 230.80421056 41.94506836 230.73950195 C43.34414429 230.74908684 43.34414429 230.74908684 44.77148438 230.75886536 C51.97399468 230.53926123 55.4159722 227.88981122 60.2890625 222.7578125 C61.0728125 222.0565625 61.8565625 221.3553125 62.6640625 220.6328125 C64.55357051 218.45261095 65.30154325 216.45703179 66.2890625 213.7578125 C66.7634375 212.9740625 67.2378125 212.1903125 67.7265625 211.3828125 C70.75587468 206.29356804 72.6546783 200.87876771 74.4453125 195.26171875 C74.92821547 193.82865947 75.43881263 192.40284372 76.02661133 191.00952148 C78.16094945 185.83802854 78.82185456 181.26479828 78.9765625 175.6953125 C79.00709717 174.83969727 79.03763184 173.98408203 79.0690918 173.10253906 C79.12800147 171.27221395 79.17864815 169.44160708 79.22167969 167.61083984 C79.26706901 165.68902961 79.32261208 163.76743552 79.38769531 161.84619141 C79.9061915 146.05824436 79.23913951 132.00426238 71.4296875 117.84375 C70.2890625 115.7578125 70.2890625 115.7578125 68.9765625 112.3203125 C64.438792 102.74057478 57.04824048 93.48433943 48.1015625 87.6953125 C42.39896312 83.76685515 39.73770341 78.07272852 37.2890625 71.7578125 C29.71966813 78.09973752 28.90889621 87.24910977 26.84399414 96.45922852 C25.91863505 100.47264814 24.84611873 104.16850223 23.1640625 107.9453125 C19.00590371 117.64226875 19.03905753 129.06354279 18.04077148 139.47143555 C16.24736606 157.79950894 16.24736606 157.79950894 14.2890625 159.7578125 C11.30031135 159.85953176 8.3402344 159.89937413 5.3515625 159.8828125 C4.48797119 159.87870361 3.62437988 159.87459473 2.73461914 159.87036133 C-8.92349375 159.76831855 -8.92349375 159.76831855 -14.7109375 158.7578125 C-17.33147593 154.82700486 -17.05321827 151.41441819 -17.08203125 146.84765625 C-17.09105972 145.96557999 -17.1000882 145.08350372 -17.10939026 144.17469788 C-17.12390447 142.30440668 -17.1327824 140.43406457 -17.13647461 138.5637207 C-17.14829395 135.72973217 -17.19739971 132.89797699 -17.24804688 130.06445312 C-17.33336615 120.45564188 -17.2535171 112.97045254 -11.7109375 104.7578125 C-9.37195025 99.58388718 -8.14808709 94.45684711 -7.23828125 88.859375 C-6.7109375 86.7578125 -6.7109375 86.7578125 -4.7109375 84.7578125 C-2.93265977 80.78283874 -2.54197994 77.11162074 -2.2734375 72.8203125 C-1.8616874 66.90140485 -1.05408479 62.10095979 3.2890625 57.7578125 C4.34116893 54.3097326 5.20898313 50.83039488 6.09375 47.3359375 C7.59902383 42.8299544 9.47205269 39.04040766 13.4140625 36.2578125 C16.15971965 34.06128678 16.53070499 32.17042129 17.2890625 28.7578125 C17.71957154 24.47538046 17.79101007 20.94663569 16.1015625 16.9453125 C11.87967024 11.84992529 7.45773726 9.81744218 1.2890625 8.0078125 C0.59039062 7.78738281 -0.10828125 7.56695312 -0.828125 7.33984375 C-7.66270939 5.26367755 -11.01949471 4.50329527 -16.3984375 9.5078125 Z M-55.7109375 238.7578125 C-57.33014151 238.96278077 -58.95633685 239.12409501 -60.5859375 239.21484375 C-61.42640625 239.27607422 -62.266875 239.33730469 -63.1328125 239.40039062 C-64.85083309 239.5136238 -66.56966188 239.61520037 -68.2890625 239.70507812 C-74.66174612 240.19866788 -78.55778906 242.07391333 -83.7109375 245.7578125 C-85.10677083 246.5078125 -86.50260417 247.2578125 -87.8984375 248.0078125 C-96.16157839 253.2147232 -99.29237808 264.84714826 -101.4609375 273.8828125 C-101.93490155 279.33339904 -102.11066654 284.44662615 -100.7109375 289.7578125 C-79.49199758 289.82695868 -58.27946816 289.78529105 -37.0625 289.46875 C-35.17389028 289.44151178 -33.28527943 289.41435126 -31.39666748 289.38726807 C-23.75065424 289.27648159 -16.10470886 289.16353745 -8.45898438 289.03417969 C-3.67207575 288.95358382 1.11489031 288.88353178 5.90205765 288.82024002 C7.69048688 288.79463137 9.47886612 288.76518793 11.26716232 288.73154831 C19.74611577 288.57319259 27.80250517 288.47806387 36.13659668 290.29620361 C38.79204295 290.8656796 41.3309418 291.00151065 44.04296875 290.98828125 C45.47866211 290.98538086 45.47866211 290.98538086 46.94335938 290.98242188 C47.90306641 290.97017578 48.86277344 290.95792969 49.8515625 290.9453125 C51.29692383 290.9443457 51.29692383 290.9443457 52.77148438 290.94335938 C58.09298092 290.91106439 63.29048828 290.59444852 68.5769043 290.00952148 C74.17411395 289.4900577 79.79765202 289.37871777 85.4140625 289.1953125 C86.65671875 289.15212891 87.899375 289.10894531 89.1796875 289.06445312 C92.21605921 288.95934795 95.25249915 288.85719907 98.2890625 288.7578125 C98.43859752 284.63217952 98.546824 280.50761825 98.61865234 276.37988281 C98.64862527 274.97921233 98.68942058 273.57872634 98.74169922 272.17871094 C99.16398881 261.37926277 99.16398881 261.37926277 93.9362793 252.24365234 C89.67611942 248.40085807 85.65491885 245.80194825 80.2890625 243.7578125 C79.75925781 243.37625 79.22945312 242.9946875 78.68359375 242.6015625 C73.4616556 239.01604009 68.56948648 238.16954366 62.40722656 237.61816406 C61.53297657 237.53619907 60.65872658 237.45423409 59.75798416 237.36978531 C49.16796748 236.46198103 38.58204454 236.46850278 27.9609375 236.4921875 C25.78908241 236.49083577 23.61722761 236.48889104 21.44537354 236.48638916 C16.93767357 236.48346932 12.43005381 236.48763807 7.92236328 236.49707031 C2.15946563 236.5085459 -3.60324732 236.50183459 -9.36613846 236.48992538 C-13.83233021 236.48269156 -18.29847824 236.48500031 -22.76467133 236.49018097 C-24.89044975 236.49150898 -27.01623223 236.48989968 -29.14200592 236.48522186 C-32.10551998 236.48012236 -35.06873472 236.48791124 -38.03222656 236.49902344 C-39.33053658 236.49295074 -39.33053658 236.49295074 -40.65507507 236.48675537 C-46.00633736 236.52378078 -50.55965983 237.30371738 -55.7109375 238.7578125 Z " fill="#000000" transform="translate(175.7109375,32.2421875)"/>
<path d="M0 0 C9.93890923 5.12004415 18.89892006 16.60331698 22.75 27.0625 C22.93949219 27.67480469 23.12898438 28.28710938 23.32421875 28.91796875 C24.52555646 32.61919995 26.22941106 36.12995994 27.81640625 39.6796875 C30.66768687 47.6783295 31.30744571 55.43591073 31.1875 63.875 C31.1774292 64.87023682 31.1673584 65.86547363 31.15698242 66.89086914 C31.13050284 68.93629469 31.097406 70.98164553 31.05761719 73.02685547 C31.02064699 74.93458026 30.99192355 76.84249297 30.97363281 78.75048828 C30.83625999 91.50010747 30.21251597 105.57211869 22 116 C21.09840023 118.04683008 21.09840023 118.04683008 20.4375 120.125 C19.5305555 122.84070953 19.07808677 123.92191323 17 126 C16.7215625 126.76828125 16.443125 127.5365625 16.15625 128.328125 C14.76871554 131.53445462 13.00319785 133.32807481 10.5 135.75 C9.7059375 136.52859375 8.911875 137.3071875 8.09375 138.109375 C4.25692594 141.57396986 0.86515823 141.13043488 -4.0703125 141.09765625 C-5.26465408 141.09553383 -5.26465408 141.09553383 -6.48312378 141.09336853 C-9.0304538 141.08776345 -11.57769647 141.07521014 -14.125 141.0625 C-15.85025915 141.05748565 -17.57551967 141.05292263 -19.30078125 141.04882812 C-23.53388791 141.03779237 -27.76692914 141.02052436 -32 141 C-28.32814768 133.26317435 -21.6247745 127.26970699 -15 122 C-14.175 121.175 -13.35 120.35 -12.5 119.5 C-9.22552634 116.22552634 -5.66748599 113.32997881 -2.05078125 110.4453125 C10.4875092 100.08032573 13.06308071 88.62439674 14.73339844 73.13134766 C15.40606683 65.23057407 15.30297272 57.32001219 15.06933594 49.40087891 C15.0120594 47.41757806 14.98965877 45.43330326 14.9765625 43.44921875 C14.53419503 30.87577407 8.81333225 18.63644311 1 9 C-0.4783226 6.04335481 -0.06032783 3.25770263 0 0 Z " fill="#434140" transform="translate(224,121)"/>
<path d="M0 0 C0.95736557 -0.00350464 1.91473114 -0.00700928 2.90110779 -0.01062012 C6.05019501 -0.01938374 9.1990552 -0.01360251 12.34814453 -0.00683594 C14.55803469 -0.00818523 16.76792457 -0.01012797 18.97781372 -0.01263428 C23.6094241 -0.01557923 28.24095722 -0.01131218 32.87255859 -0.00195312 C38.76036768 0.00937406 44.64799304 0.00292084 50.53579521 -0.00909805 C55.1036411 -0.016391 59.67144485 -0.01399381 64.23929214 -0.00884247 C66.40704496 -0.00752293 68.5748018 -0.00909306 70.7425499 -0.01380157 C80.95087651 -0.03109393 91.09024136 0.05300792 101.25097656 1.12304688 C101.9751219 1.1968243 102.69926723 1.27060173 103.44535637 1.34661484 C109.25000754 2.04684413 113.38547721 3.94914928 118.10595703 7.25878906 C119.11658203 7.73316406 120.12720703 8.20753906 121.16845703 8.69628906 C127.53332297 12.08185605 132.62366252 15.87458246 136.10595703 22.25878906 C136.10595703 22.91878906 136.10595703 23.57878906 136.10595703 24.25878906 C129.38327243 22.89922175 123.05986024 21.00465415 116.60595703 18.69628906 C115.70103516 18.37982422 114.79611328 18.06335938 113.86376953 17.73730469 C107.24353325 15.39636528 107.24353325 15.39636528 106.10595703 14.25878906 C104.16697762 14.13483238 102.22350728 14.08078118 100.28076172 14.0534668 C99.02300934 14.03355179 97.76525696 14.01363678 96.46939087 13.99311829 C95.07220608 13.97608348 93.67501975 13.95917545 92.27783203 13.94238281 C90.83238183 13.9214916 89.3869371 13.90021868 87.9414978 13.87858582 C83.2464038 13.81032299 78.5512066 13.75266965 73.85595703 13.69628906 C72.2468871 13.67658305 70.63781728 13.65686869 69.02874756 13.637146 C62.58051611 13.55885359 56.13226944 13.48259199 49.68392944 13.41375732 C41.6705785 13.32779562 33.65844738 13.22303598 25.64593506 13.07540894 C3.94481508 12.68846507 -16.54597874 13.50916414 -37.88427734 17.71533203 C-40.63761073 18.21248649 -43.34365322 18.54234326 -46.12841797 18.79394531 C-49.91474464 18.86939109 -49.91474464 18.86939109 -51.89404297 21.25878906 C-53.21404297 21.25878906 -54.53404297 21.25878906 -55.89404297 21.25878906 C-55.47722424 16.39590386 -53.52420152 14.39392599 -49.89404297 11.25878906 C-47.51904297 9.69628906 -47.51904297 9.69628906 -44.89404297 8.25878906 C-43.88986328 7.59234375 -42.88568359 6.92589844 -41.85107422 6.23925781 C-37.38650112 3.68699076 -33.01064302 3.44469394 -27.95654297 3.13378906 C-26.23866576 3.0121007 -24.5211921 2.88456411 -22.80419922 2.75097656 C-21.67703491 2.67919189 -21.67703491 2.67919189 -20.52709961 2.60595703 C-17.7108347 2.29923521 -17.7108347 2.29923521 -14.34785461 1.25326538 C-9.54202648 0.04038457 -4.93544519 -0.02251671 0 0 Z " fill="#767373" transform="translate(137.89404296875,268.7412109375)"/>
<path d="M0 0 C1.29305907 3.87917722 1.72042229 7.97363984 1 12 C-1.15400351 14.75233782 -2.87514817 16.48870371 -6.0625 17.9375 C-9.66935816 19.91545448 -11.48647452 23.60614514 -12.875 27.375 C-14.78063701 31.82148637 -17.6927764 36.86329094 -22.1328125 39.05078125 C-24.35942558 39.9076548 -24.35942558 39.9076548 -25 43 C-25.66 43 -26.32 43 -27 43 C-27.33 43.99 -27.66 44.98 -28 46 C-29.63671875 47.61328125 -29.63671875 47.61328125 -31.6875 49.3125 C-34.38374342 51.58760665 -36.93223742 53.8922017 -39.375 56.4375 C-42 59 -42 59 -44 59 C-44.28875 59.721875 -44.5775 60.44375 -44.875 61.1875 C-46 64 -46 64 -47.046875 66.0703125 C-48.64966294 70.99691477 -48.35931012 76.1084753 -48.390625 81.25585938 C-48.54812292 87.00890835 -49.74347536 91.20706949 -52.04638672 96.45727539 C-53.67820065 100.80836143 -53.9432856 105.27677725 -54.375 109.875 C-55.36627124 118.7109226 -57.08183778 125.45563465 -62 133 C-63.32 132.67 -64.64 132.34 -66 132 C-66.04958399 126.55567744 -66.08580666 121.11148751 -66.10986328 115.66699219 C-66.11989631 113.81638294 -66.13352586 111.96578945 -66.15087891 110.11523438 C-66.17524608 107.4491791 -66.18651023 104.78333416 -66.1953125 102.1171875 C-66.20563507 101.29507782 -66.21595764 100.47296814 -66.22659302 99.62594604 C-66.22749133 94.98545404 -65.68886851 91.38642328 -64 87 C-63.71226591 84.77538922 -63.46387171 82.54542251 -63.25 80.3125 C-61.94656635 70.60345883 -58.08707893 63.69335232 -51 57 C-50.70593262 56.227771 -50.41186523 55.45554199 -50.10888672 54.65991211 C-46.03252909 44.88185918 -34.76462858 36.70544099 -27.28515625 29.41210938 C-22.66315852 24.85046031 -18.41618757 20.24329661 -14.53198242 15.03442383 C-10.24567299 9.34234152 -5.61455352 4.38209055 0 0 Z " fill="#757171" transform="translate(160,80)"/>
<path d="M0 0 C0.66 0.33 1.32 0.66 2 1 C1.67 1.66 1.34 2.32 1 3 C0.84483374 4.89360304 0.72498409 6.79018289 0.625 8.6875 C0.23532294 13.85845269 -0.65817428 17.41002159 -3 22 C-4.2570623 24.8838488 -5.10951393 27.48017647 -5.8125 30.5625 C-7.31661512 36.8797835 -9.888801 43.23115882 -13.0619812 48.89581299 C-14.11294608 51.25336345 -14.2421658 52.83181434 -14.22705078 55.40136719 C-14.22689972 56.2619574 -14.22674866 57.12254761 -14.22659302 58.00921631 C-14.21627045 58.92914368 -14.20594788 59.84907104 -14.1953125 60.796875 C-14.1924826 61.74564514 -14.18965271 62.69441528 -14.18673706 63.67193604 C-14.17555448 66.69808639 -14.1504533 69.7239393 -14.125 72.75 C-14.11496772 74.80338114 -14.1058423 76.85676692 -14.09765625 78.91015625 C-14.07562141 83.94021854 -14.04110462 88.97005886 -14 94 C-15.42937253 93.56727599 -16.85522609 93.12291931 -18.27954102 92.67382812 C-19.47112572 92.30457214 -19.47112572 92.30457214 -20.68678284 91.92785645 C-24.78791946 90.28284615 -27.18701101 88.02552097 -29 84 C-29.79338717 79.15889018 -29.71353477 74.38653558 -29.5625 69.5 C-29.53851604 68.11516646 -29.51533049 66.73031888 -29.49291992 65.34545898 C-29.31282156 56.88896328 -28.80063888 48.46482296 -27.8125 40.0625 C-27.66180054 38.69931641 -27.66180054 38.69931641 -27.50805664 37.30859375 C-26.64423053 31.16376758 -24.53993361 27.0352122 -21 22 C-20.525625 21.0925 -20.05125 20.185 -19.5625 19.25 C-17.50045881 16.28066069 -15.05113546 14.91443793 -12 13 C-6.99212016 9.11707867 -3.13716638 5.52738838 0 0 Z " fill="#434140" transform="translate(173,96)"/>
<path d="M0 0 C3.015625 1.53125 3.015625 1.53125 6.25 3.5 C11.72480764 6.53950469 15.77647636 8.49548627 22 7 C24.32807234 6.09441592 26.55050645 5.06838125 28.79296875 3.96875 C32.29384109 2.43208391 35.17381615 2.06596869 39 2 C41 3.125 41 3.125 42 5 C42.375 7.5 42.375 7.5 42 10 C39.68213236 12.99104372 37.08966909 13.88039584 33.5625 15.0625 C29.7055 16.34566177 29.7055 16.34566177 26.046875 18.08203125 C20.60547865 20.52235213 13.50432526 20.26264858 7.93066406 18.25439453 C-4.25629355 12.75623916 -4.25629355 12.75623916 -8 8 C-8.4334014 5.11065736 -8.42525784 3.64907776 -6.8125 1.1875 C-4.31309155 -0.45004347 -2.97123131 -0.31342102 0 0 Z " fill="#000000" transform="translate(154,226)"/>
<path d="M0 0 C3.86166125 3.69376293 3.86166125 3.69376293 4.203125 6.91796875 C4.31695931 12.42944654 3.70898902 16.16251962 1 21 C-0.31787285 22.02028865 -1.65210653 23.01971384 -3 24 C-6.65561312 29.2064793 -7.93686013 34.21538836 -9.19140625 40.42578125 C-10 43 -10 43 -13 45 C-12.79117188 43.78570312 -12.79117188 43.78570312 -12.578125 42.546875 C-12.15880851 39.97431165 -11.77589925 37.40945413 -11.421875 34.828125 C-10.30996461 27.06667012 -9.23938812 20.21055119 -5.2734375 13.32421875 C-2.9668319 9.11430976 -1.54288817 4.53385016 0 0 Z " fill="#413F3E" transform="translate(189,47)"/>
<path d="M0 0 C1.875 1.0625 1.875 1.0625 3 3 C2.6875 6.6875 2.6875 6.6875 2 10 C-4.42548263 11.33359073 -4.42548263 11.33359073 -6.9375 9.875 C-8.36066991 7.36352369 -8.42674516 5.84496772 -8 3 C-5.85607122 -0.27231235 -3.76836426 -0.56525464 0 0 Z " fill="#020202" transform="translate(186,208)"/>
<path d="M0 0 C1.8125 1.1875 1.8125 1.1875 3 3 C3.4334014 5.88934264 3.42525784 7.35092224 1.8125 9.8125 C-0.64907776 11.42525784 -2.11065736 11.4334014 -5 11 C-6.8125 9.8125 -6.8125 9.8125 -8 8 C-8.4334014 5.11065736 -8.42525784 3.64907776 -6.8125 1.1875 C-4.35092224 -0.42525784 -2.88934264 -0.4334014 0 0 Z " fill="#010101" transform="translate(162,207)"/>
<path d="M0 0 C0.33 1.32 0.66 2.64 1 4 C0.31292969 4.21914063 -0.37414062 4.43828125 -1.08203125 4.6640625 C-7.0393086 6.66668957 -7.0393086 6.66668957 -11.125 11.25 C-11.41375 12.1575 -11.7025 13.065 -12 14 C-13.32 14 -14.64 14 -16 14 C-14.9763459 8.15054803 -11.59228475 5.3519186 -7.38671875 1.5390625 C-4.65575342 -0.22198552 -3.18571211 -0.32702885 0 0 Z " fill="#6C6A69" transform="translate(169,38)"/>
</svg>
