<?xml version="1.0" standalone="no"?>
<!DOCTYPE svg PUBLIC "-//W3C//DTD SVG 20010904//EN"
 "http://www.w3.org/TR/2001/REC-SVG-20010904/DTD/svg10.dtd">
<svg version="1.0" xmlns="http://www.w3.org/2000/svg"
 width="360.000000pt" height="360.000000pt" viewBox="0 0 360.000000 360.000000"
 preserveAspectRatio="xMidYMid meet">

<g transform="translate(0.000000,360.000000) scale(0.100000,-0.100000)"
fill="#000000" stroke="none">
<path d="M1604 3268 c-53 -39 -105 -93 -122 -123 -21 -41 -35 -115 -36 -204
-1 -69 1 -75 28 -96 36 -29 31 -44 -39 -118 -30 -31 -55 -62 -55 -67 0 -5 -66
-76 -147 -157 -208 -209 -314 -366 -328 -488 -4 -33 -13 -79 -21 -103 -10 -31
-14 -97 -14 -233 0 -222 6 -249 97 -447 18 -40 33 -79 33 -86 0 -18 74 -115
121 -158 l40 -36 -78 -6 c-166 -13 -309 -122 -371 -283 -45 -120 -52 -286 -13
-334 l17 -21 649 9 c548 8 662 7 725 -5 54 -10 112 -12 205 -8 72 3 210 9 307
12 142 5 180 10 190 22 9 10 14 67 16 187 l4 172 -41 59 c-43 63 -74 85 -213
158 -71 37 -97 46 -139 46 l-51 0 42 47 c22 26 57 81 77 123 20 41 40 82 44
90 17 29 27 55 54 139 25 79 26 95 28 315 l2 231 -29 90 c-17 50 -38 101 -48
114 -10 13 -18 31 -18 40 0 17 -45 93 -97 165 -15 21 -55 60 -88 86 -80 65
-112 98 -118 124 -3 11 -14 46 -25 76 l-19 55 -44 0 -44 0 -42 -80 c-23 -44
-42 -90 -43 -102 0 -12 -4 -24 -9 -27 -4 -3 -11 -18 -14 -33 -24 -111 -38
-165 -56 -212 -11 -29 -25 -99 -31 -155 -16 -156 -32 -279 -37 -293 -6 -14
-65 -17 -148 -7 l-50 6 0 183 c0 175 1 184 26 241 51 114 59 135 59 157 0 12
7 36 16 52 29 55 44 109 44 159 0 35 8 63 29 100 15 28 34 73 40 99 12 49 40
98 74 127 24 21 57 117 57 168 0 83 -78 180 -162 202 -24 6 -68 20 -99 31 -71
25 -100 24 -135 -3z"/>
</g>
</svg>
