<?xml version="1.0" standalone="no"?>
<!DOCTYPE svg PUBLIC "-//W3C//DTD SVG 20010904//EN"
 "http://www.w3.org/TR/2001/REC-SVG-20010904/DTD/svg10.dtd">
<svg version="1.0" xmlns="http://www.w3.org/2000/svg"
 width="360.000000pt" height="360.000000pt" viewBox="0 0 360.000000 360.000000"
 preserveAspectRatio="xMidYMid meet">

<g transform="translate(0.000000,360.000000) scale(0.100000,-0.100000)"
fill="#000000" stroke="none">
<path d="M2088 3221 c-20 -4 -49 -16 -64 -26 -47 -31 -114 -97 -114 -113 0 -8
-7 -24 -17 -34 -11 -13 -18 -43 -21 -97 -6 -99 21 -191 78 -274 41 -58 48 -81
30 -92 -5 -3 -10 -17 -10 -30 0 -14 -11 -48 -24 -77 -14 -29 -30 -68 -37 -87
-7 -19 -29 -53 -50 -77 -34 -39 -37 -49 -44 -125 -8 -92 -14 -89 -40 21 -10
41 -22 82 -26 90 -4 8 -12 33 -17 55 -21 78 -43 170 -48 195 -3 14 -10 35 -16
47 -8 16 -6 45 7 110 20 99 15 297 -8 365 -16 45 -44 78 -67 78 -9 0 -25 9
-35 20 -24 27 -69 37 -198 45 -131 9 -153 1 -204 -69 -49 -67 -57 -83 -71
-138 -16 -62 -15 -104 4 -196 15 -74 18 -80 81 -144 l67 -67 -12 -38 c-7 -23
-15 -159 -20 -343 l-8 -305 -49 51 c-28 28 -61 70 -75 93 -14 23 -38 62 -53
86 -27 42 -28 47 -18 101 23 123 8 238 -38 287 -47 52 -135 88 -241 100 -192
21 -266 -18 -309 -164 -12 -41 -29 -95 -37 -121 -20 -66 -18 -141 6 -188 29
-57 109 -100 186 -100 49 -1 62 -4 75 -23 20 -28 59 -143 59 -176 0 -33 32
-150 60 -221 12 -30 25 -66 30 -80 10 -32 78 -167 100 -200 114 -169 159 -253
174 -330 l11 -55 -50 -24 c-27 -14 -75 -50 -106 -81 -51 -50 -59 -64 -83 -145
-15 -49 -32 -103 -38 -120 -6 -16 -13 -60 -15 -96 -6 -91 14 -114 116 -135 65
-13 108 -13 355 -2 155 7 499 13 766 13 419 0 500 -2 598 -18 63 -10 122 -23
132 -29 14 -9 24 -8 45 6 26 17 26 19 21 104 -19 286 -20 295 -47 337 -36 54
-90 99 -167 139 -32 17 -33 18 -26 64 4 26 15 70 26 97 20 50 53 152 83 255
17 60 49 120 64 120 15 0 80 103 102 162 11 29 27 71 35 93 9 22 19 56 24 75
5 19 15 60 24 90 9 30 16 74 16 98 l0 42 41 0 c49 0 103 38 147 104 92 136 58
350 -66 422 -40 23 -61 28 -148 32 -90 4 -105 2 -145 -18 -64 -33 -120 -85
-138 -127 -18 -45 -20 -207 -3 -239 9 -18 6 -31 -18 -76 -34 -62 -50 -78 -143
-142 l-67 -47 6 328 c6 261 10 330 21 336 14 9 63 99 63 117 0 6 10 32 23 58
28 60 32 189 6 218 -9 11 -19 28 -23 39 -8 26 -98 133 -124 149 -11 6 -31 19
-45 29 -20 15 -49 20 -124 22 -54 2 -114 1 -135 -4z m-908 -1366 c14 -16 10
-18 -14 -9 -9 3 -16 10 -16 15 0 14 16 11 30 -6z"/>
</g>
</svg>
