<?xml version="1.0" encoding="UTF-8"?>
<svg version="1.1" xmlns="http://www.w3.org/2000/svg" width="360" height="360">
<path d="M0 0 C1.07507813 -0.01836914 1.07507813 -0.01836914 2.171875 -0.03710938 C7.56201063 -0.05170361 14.11984647 0.04022555 18.375 3.6875 C18.99375 4.43 18.99375 4.43 19.625 5.1875 C20.615 5.6515625 20.615 5.6515625 21.625 6.125 C24.07473532 7.42642189 25.16528724 8.85195958 26.625 11.1875 C26.625 11.8475 26.625 12.5075 26.625 13.1875 C27.615 13.5175 28.605 13.8475 29.625 14.1875 C30.94140625 16.078125 30.94140625 16.078125 32.1875 18.4375 C32.80818359 19.58992188 32.80818359 19.58992188 33.44140625 20.765625 C37.40937967 28.88491054 38.20122383 36.59837957 35.421875 45.34765625 C29.20878221 62.89560889 29.20878221 62.89560889 24.625 65.1875 C24.47939547 70.94507491 24.33716851 76.70272109 24.19775391 82.46044922 C24.15012584 84.40936402 24.10165594 86.35825847 24.05224609 88.30712891 C23.71588357 101.6037456 23.55960386 114.88665137 23.625 128.1875 C24.57415283 127.55473145 25.52330566 126.92196289 26.5012207 126.27001953 C28.24134904 125.10993397 29.98235834 123.95110544 31.73120117 122.80419922 C37.52161648 118.8666806 42.25480868 113.90304207 44.625 107.1875 C44.45937071 105.10057101 44.277072 103.01206876 43.96875 100.94140625 C42.84627784 91.94887362 41.91221247 81.79923088 47.625 74.1875 C50.09620755 71.80567656 52.66885242 69.92331619 55.625 68.1875 C56.48480469 67.64609375 57.34460938 67.1046875 58.23046875 66.546875 C62.90347905 64.6755199 67.07722863 64.74961641 72.0625 64.8125 C72.97837891 64.80089844 73.89425781 64.78929688 74.83789062 64.77734375 C80.56092315 64.80199428 84.53992007 65.55250404 89.625 68.1875 C90.511875 68.620625 91.39875 69.05375 92.3125 69.5 C96.82685551 72.79425942 99.14935843 77.22559806 100.30859375 82.65625 C101.65574441 93.43345525 101.34656879 103.39150667 95.5625 112.75 C94.923125 113.554375 94.28375 114.35875 93.625 115.1875 C92.965 115.1875 92.305 115.1875 91.625 115.1875 C91.295 116.1775 90.965 117.1675 90.625 118.1875 C88.41015964 120.32751467 87.12993103 121.13012147 84.046875 121.48046875 C83.16515625 121.44566406 82.2834375 121.41085938 81.375 121.375 C80.03695312 121.33439453 80.03695312 121.33439453 78.671875 121.29296875 C77.99640625 121.25816406 77.3209375 121.22335938 76.625 121.1875 C76.68300781 121.77273437 76.74101562 122.35796875 76.80078125 122.9609375 C77.70268631 140.12290243 69.61895092 161.65465614 60.08203125 175.75390625 C58.32592635 177.48176281 56.97950714 177.63292601 54.625 178.1875 C53.45669965 180.85250695 53.45669965 180.85250695 52.625 184.1875 C52.150625 185.38375 51.67625 186.58 51.1875 187.8125 C49.94772732 191.0653689 49.09368685 194.29623002 48.3125 197.6875 C46.93067047 203.48677391 44.91444621 208.8970392 42.76000977 214.43945312 C40.88264645 219.32855619 39.54423018 224.03981101 38.625 229.1875 C39.40875 229.373125 40.1925 229.55875 41 229.75 C47.96084587 232.51033543 54.39745326 236.93073083 58.625 243.1875 C59.14239746 243.79835449 59.65979492 244.40920898 60.19287109 245.03857422 C61.85519927 247.53291664 62.02840567 248.91431067 62.1015625 251.8828125 C62.14796875 253.20345703 62.14796875 253.20345703 62.1953125 254.55078125 C62.21335937 255.46214844 62.23140625 256.37351562 62.25 257.3125 C62.30091764 259.12771383 62.35542875 260.94283152 62.4140625 262.7578125 C62.43162598 263.55977051 62.44918945 264.36172852 62.46728516 265.18798828 C62.50480689 267.26002867 62.50480689 267.26002867 63.625 269.1875 C63.88758862 272.34811213 63.85643294 275.51717368 63.875 278.6875 C63.9059375 280.00814453 63.9059375 280.00814453 63.9375 281.35546875 C63.94523437 282.61810547 63.94523437 282.61810547 63.953125 283.90625 C63.96714355 285.06543945 63.96714355 285.06543945 63.98144531 286.24804688 C63.86381836 286.88806641 63.74619141 287.52808594 63.625 288.1875 C60.30662771 290.39974819 59.46437792 290.54465143 55.625 290.1875 C54.786203 289.8854364 53.94740601 289.5833728 53.08319092 289.27215576 C38.06046377 284.56030267 21.51118576 284.75123469 5.921875 284.859375 C3.93703354 284.86244648 1.95218989 284.86431201 -0.03265381 284.86505127 C-4.14343839 284.86959769 -8.25402085 284.88381008 -12.36474609 284.90625 C-17.6094507 284.93475327 -22.85399918 284.94549108 -28.09877396 284.9499321 C-33.15441058 284.95509943 -38.21000904 284.96959815 -43.265625 284.984375 C-44.6871072 284.98719608 -44.6871072 284.98719608 -46.13730621 284.99007416 C-48.83670656 284.99700875 -51.5359896 285.01066832 -54.23535156 285.02636719 C-55.01575302 285.02748505 -55.79615448 285.02860291 -56.60020447 285.02975464 C-61.48802382 285.06708559 -66.28222554 285.41530169 -71.14053059 285.95436382 C-74.31868352 286.28596041 -77.49059771 286.40363617 -80.68359375 286.50390625 C-81.9986792 286.54612305 -83.31376465 286.58833984 -84.66870117 286.63183594 C-86.04994959 286.67184533 -87.43121647 286.71122175 -88.8125 286.75 C-89.51887604 286.77018188 -90.22525208 286.79036377 -90.95303345 286.81115723 C-94.48612848 286.91090486 -98.01930899 287.00501933 -101.55273438 287.09228516 C-103.86925625 287.14999105 -106.1856999 287.21117284 -108.50195312 287.27880859 C-133.16828498 287.97084113 -133.16828498 287.97084113 -139.19921875 282.546875 C-140.87046979 279.19326826 -140.73518982 276.41464305 -140.6875 272.6875 C-140.68363281 271.3778125 -140.67976563 270.068125 -140.67578125 268.71875 C-140.39432743 265.41440905 -139.95441036 263.97605602 -138.375 261.1875 C-137.87731767 259.32255852 -137.42240286 257.44591983 -137 255.5625 C-135.6446775 249.98377355 -134.23881552 244.20970589 -131.375 239.1875 C-130.385 238.8575 -129.395 238.5275 -128.375 238.1875 C-128.045 237.1975 -127.715 236.2075 -127.375 235.1875 C-126.715 235.1875 -126.055 235.1875 -125.375 235.1875 C-125.045 234.1975 -124.715 233.2075 -124.375 232.1875 C-122.1953125 230.58203125 -122.1953125 230.58203125 -119.5 229 C-118.61570313 228.47019531 -117.73140625 227.94039062 -116.8203125 227.39453125 C-114.375 226.1875 -114.375 226.1875 -111.375 226.1875 C-113.77152907 213.52013208 -119.74889819 203.50925112 -126.68359375 192.8046875 C-129.36043652 188.6626906 -131.91713889 184.46293907 -134.375 180.1875 C-134.78363281 179.47980469 -135.19226563 178.77210938 -135.61328125 178.04296875 C-142.42794865 165.36813133 -146.65381077 151.22598565 -148.95727539 137.07470703 C-150.14350779 130.11441027 -152.4489418 124.0765873 -156.375 118.1875 C-159.16045091 117.82690784 -159.16045091 117.82690784 -162.375 117.875 C-169.1374552 117.50014106 -174.33180038 115.83152745 -179.375 111.1875 C-183.88417691 103.942418 -183.55324249 95.77692828 -181.83740234 87.63720703 C-179.72520008 79.22999495 -177.5973244 71.20499842 -172.375 64.1875 C-171.9625 63.61 -171.55 63.0325 -171.125 62.4375 C-162.98746922 56.62497801 -149.41311922 58.62729729 -140.125 59.8125 C-132.45044968 61.26444195 -124.29102332 64.93652207 -119.375 71.1875 C-117.51551687 76.77181527 -117.08628344 81.83824814 -117.1875 87.6875 C-117.1884668 88.74904297 -117.1884668 88.74904297 -117.18945312 89.83203125 C-117.21913061 93.43949383 -117.45400323 96.86002309 -118.03515625 100.421875 C-118.39684183 104.42951757 -118.18637247 105.67529345 -116 108.9375 C-115.17048828 110.18660156 -115.17048828 110.18660156 -114.32421875 111.4609375 C-113.68097656 112.36070312 -113.03773437 113.26046875 -112.375 114.1875 C-111.63894531 115.23164063 -110.90289062 116.27578125 -110.14453125 117.3515625 C-106.53421525 122.32255036 -103.23674149 126.40977847 -98.375 130.1875 C-98.38023682 129.20281738 -98.38547363 128.21813477 -98.39086914 127.20361328 C-98.55089724 94.12919752 -98.55089724 94.12919752 -97.9375 78.125 C-97.89826416 77.06361816 -97.85902832 76.00223633 -97.81860352 74.90869141 C-97.5052735 67.65699587 -97.5052735 67.65699587 -96.76538086 64.99047852 C-96.63655518 64.39549561 -96.50772949 63.8005127 -96.375 63.1875 C-97.77088754 61.54155861 -97.77088754 61.54155861 -99.375 60.1875 C-99.375 59.5275 -99.375 58.8675 -99.375 58.1875 C-99.931875 57.960625 -100.48875 57.73375 -101.0625 57.5 C-105.16174718 55.17340025 -107.87197172 52.5472215 -109.51953125 48.09375 C-112.16070338 34.62531668 -112.70499262 23.54474646 -106.375 11.1875 C-105.715 11.1875 -105.055 11.1875 -104.375 11.1875 C-104.00375 10.07375 -104.00375 10.07375 -103.625 8.9375 C-101.98818348 5.33650366 -99.93091308 2.96545654 -96.375 1.1875 C-88.41807392 0.72885681 -80.52930118 1.11285701 -72.625 2.0625 C-71.94614746 2.14089111 -71.26729492 2.21928223 -70.56787109 2.30004883 C-67.14613928 2.75214742 -65.30436168 3.23459221 -62.375 5.1875 C-62.375 5.8475 -62.375 6.5075 -62.375 7.1875 C-61.26125 7.47625 -60.1475 7.765 -59 8.0625 C-55.375 9.1875 -55.375 9.1875 -53.375 11.1875 C-49.87569565 19.4211573 -50.19400426 28.88072726 -50.1875 37.6875 C-50.17525391 38.56019531 -50.16300781 39.43289062 -50.15039062 40.33203125 C-50.13835897 45.74627712 -50.71664455 50.62630805 -52.04174805 55.88085938 C-52.43394203 58.59547385 -52.03311093 60.53411051 -51.375 63.1875 C-51.13088379 64.34245972 -51.13088379 64.34245972 -50.88183594 65.52075195 C-48.5183033 76.40073328 -45.99355533 87.1067761 -42.48828125 97.6796875 C-41.27881802 101.49055761 -40.31027938 105.3011793 -39.375 109.1875 C-39.27703125 108.23488281 -39.1790625 107.28226562 -39.078125 106.30078125 C-38.92859375 105.04652344 -38.7790625 103.79226562 -38.625 102.5 C-38.48578125 101.25863281 -38.3465625 100.01726562 -38.203125 98.73828125 C-37.3020056 94.87451928 -36.16381729 92.97099512 -33.375 90.1875 C-32.715 90.1875 -32.055 90.1875 -31.375 90.1875 C-30.95541016 88.88232422 -30.95541016 88.88232422 -30.52734375 87.55078125 C-29.45449804 84.41952648 -28.24377883 81.41484512 -26.9375 78.375 C-24.82997788 73.37662895 -23.0003144 68.35995327 -21.375 63.1875 C-21.045 62.1975 -20.715 61.2075 -20.375 60.1875 C-21.365 59.8575 -22.355 59.5275 -23.375 59.1875 C-30.20619002 50.38166911 -32.60619365 41.29444321 -32.6875 30.375 C-32.69595947 29.28046509 -32.69595947 29.28046509 -32.70458984 28.16381836 C-32.64884109 24.05967103 -32.19071562 20.87137069 -30.375 17.1875 C-29.83875 16.094375 -29.3025 15.00125 -28.75 13.875 C-28.29625 12.988125 -27.8425 12.10125 -27.375 11.1875 C-26.715 11.1875 -26.055 11.1875 -25.375 11.1875 C-25.01148438 10.29611328 -25.01148438 10.29611328 -24.640625 9.38671875 C-23.13298925 6.76696898 -21.63627181 5.6613686 -19.125 4 C-18.00351562 3.23623047 -18.00351562 3.23623047 -16.859375 2.45703125 C-11.58333928 -0.23905618 -5.79519231 0.00515587 0 0 Z " fill="#555251" transform="translate(219.375,36.8125)"/>
<path d="M0 0 C1.07507813 -0.01836914 1.07507813 -0.01836914 2.171875 -0.03710938 C7.56201063 -0.05170361 14.11984647 0.04022555 18.375 3.6875 C18.99375 4.43 18.99375 4.43 19.625 5.1875 C20.615 5.6515625 20.615 5.6515625 21.625 6.125 C24.07473532 7.42642189 25.16528724 8.85195958 26.625 11.1875 C26.625 11.8475 26.625 12.5075 26.625 13.1875 C27.615 13.5175 28.605 13.8475 29.625 14.1875 C30.94140625 16.078125 30.94140625 16.078125 32.1875 18.4375 C32.80818359 19.58992188 32.80818359 19.58992188 33.44140625 20.765625 C37.40937967 28.88491054 38.20122383 36.59837957 35.421875 45.34765625 C29.20878221 62.89560889 29.20878221 62.89560889 24.625 65.1875 C24.47939547 70.94507491 24.33716851 76.70272109 24.19775391 82.46044922 C24.15012584 84.40936402 24.10165594 86.35825847 24.05224609 88.30712891 C23.71588357 101.6037456 23.55960386 114.88665137 23.625 128.1875 C24.57415283 127.55473145 25.52330566 126.92196289 26.5012207 126.27001953 C28.24134904 125.10993397 29.98235834 123.95110544 31.73120117 122.80419922 C37.52161648 118.8666806 42.25480868 113.90304207 44.625 107.1875 C44.45937071 105.10057101 44.277072 103.01206876 43.96875 100.94140625 C42.84627784 91.94887362 41.91221247 81.79923088 47.625 74.1875 C50.09620755 71.80567656 52.66885242 69.92331619 55.625 68.1875 C56.48480469 67.64609375 57.34460938 67.1046875 58.23046875 66.546875 C62.90347905 64.6755199 67.07722863 64.74961641 72.0625 64.8125 C72.97837891 64.80089844 73.89425781 64.78929688 74.83789062 64.77734375 C80.56092315 64.80199428 84.53992007 65.55250404 89.625 68.1875 C90.511875 68.620625 91.39875 69.05375 92.3125 69.5 C96.82685551 72.79425942 99.14935843 77.22559806 100.30859375 82.65625 C101.65574441 93.43345525 101.34656879 103.39150667 95.5625 112.75 C94.923125 113.554375 94.28375 114.35875 93.625 115.1875 C92.965 115.1875 92.305 115.1875 91.625 115.1875 C91.295 116.1775 90.965 117.1675 90.625 118.1875 C88.41015964 120.32751467 87.12993103 121.13012147 84.046875 121.48046875 C83.16515625 121.44566406 82.2834375 121.41085938 81.375 121.375 C80.03695312 121.33439453 80.03695312 121.33439453 78.671875 121.29296875 C77.99640625 121.25816406 77.3209375 121.22335938 76.625 121.1875 C76.68300781 121.77273437 76.74101562 122.35796875 76.80078125 122.9609375 C77.70268631 140.12290243 69.61895092 161.65465614 60.08203125 175.75390625 C58.32592635 177.48176281 56.97950714 177.63292601 54.625 178.1875 C53.45669965 180.85250695 53.45669965 180.85250695 52.625 184.1875 C52.150625 185.38375 51.67625 186.58 51.1875 187.8125 C49.94772732 191.0653689 49.09368685 194.29623002 48.3125 197.6875 C46.93067047 203.48677391 44.91444621 208.8970392 42.76000977 214.43945312 C40.88264645 219.32855619 39.54423018 224.03981101 38.625 229.1875 C39.40875 229.373125 40.1925 229.55875 41 229.75 C47.96084587 232.51033543 54.39745326 236.93073083 58.625 243.1875 C59.14239746 243.79835449 59.65979492 244.40920898 60.19287109 245.03857422 C61.85519927 247.53291664 62.02840567 248.91431067 62.1015625 251.8828125 C62.14796875 253.20345703 62.14796875 253.20345703 62.1953125 254.55078125 C62.21335937 255.46214844 62.23140625 256.37351562 62.25 257.3125 C62.30091764 259.12771383 62.35542875 260.94283152 62.4140625 262.7578125 C62.43162598 263.55977051 62.44918945 264.36172852 62.46728516 265.18798828 C62.50480689 267.26002867 62.50480689 267.26002867 63.625 269.1875 C63.88758862 272.34811213 63.85643294 275.51717368 63.875 278.6875 C63.9059375 280.00814453 63.9059375 280.00814453 63.9375 281.35546875 C63.94523437 282.61810547 63.94523437 282.61810547 63.953125 283.90625 C63.96714355 285.06543945 63.96714355 285.06543945 63.98144531 286.24804688 C63.86381836 286.88806641 63.74619141 287.52808594 63.625 288.1875 C60.30662771 290.39974819 59.46437792 290.54465143 55.625 290.1875 C54.786203 289.8854364 53.94740601 289.5833728 53.08319092 289.27215576 C38.06046377 284.56030267 21.51118576 284.75123469 5.921875 284.859375 C3.93703354 284.86244648 1.95218989 284.86431201 -0.03265381 284.86505127 C-4.14343839 284.86959769 -8.25402085 284.88381008 -12.36474609 284.90625 C-17.6094507 284.93475327 -22.85399918 284.94549108 -28.09877396 284.9499321 C-33.15441058 284.95509943 -38.21000904 284.96959815 -43.265625 284.984375 C-44.6871072 284.98719608 -44.6871072 284.98719608 -46.13730621 284.99007416 C-48.83670656 284.99700875 -51.5359896 285.01066832 -54.23535156 285.02636719 C-55.01575302 285.02748505 -55.79615448 285.02860291 -56.60020447 285.02975464 C-61.48802382 285.06708559 -66.28222554 285.41530169 -71.14053059 285.95436382 C-74.31868352 286.28596041 -77.49059771 286.40363617 -80.68359375 286.50390625 C-81.9986792 286.54612305 -83.31376465 286.58833984 -84.66870117 286.63183594 C-86.04994959 286.67184533 -87.43121647 286.71122175 -88.8125 286.75 C-89.51887604 286.77018188 -90.22525208 286.79036377 -90.95303345 286.81115723 C-94.48612848 286.91090486 -98.01930899 287.00501933 -101.55273438 287.09228516 C-103.86925625 287.14999105 -106.1856999 287.21117284 -108.50195312 287.27880859 C-133.16828498 287.97084113 -133.16828498 287.97084113 -139.19921875 282.546875 C-140.87046979 279.19326826 -140.73518982 276.41464305 -140.6875 272.6875 C-140.68363281 271.3778125 -140.67976563 270.068125 -140.67578125 268.71875 C-140.39432743 265.41440905 -139.95441036 263.97605602 -138.375 261.1875 C-137.87731767 259.32255852 -137.42240286 257.44591983 -137 255.5625 C-135.6446775 249.98377355 -134.23881552 244.20970589 -131.375 239.1875 C-130.385 238.8575 -129.395 238.5275 -128.375 238.1875 C-128.045 237.1975 -127.715 236.2075 -127.375 235.1875 C-126.715 235.1875 -126.055 235.1875 -125.375 235.1875 C-125.045 234.1975 -124.715 233.2075 -124.375 232.1875 C-122.1953125 230.58203125 -122.1953125 230.58203125 -119.5 229 C-118.61570313 228.47019531 -117.73140625 227.94039062 -116.8203125 227.39453125 C-114.375 226.1875 -114.375 226.1875 -111.375 226.1875 C-113.77152907 213.52013208 -119.74889819 203.50925112 -126.68359375 192.8046875 C-129.36043652 188.6626906 -131.91713889 184.46293907 -134.375 180.1875 C-134.78363281 179.47980469 -135.19226563 178.77210938 -135.61328125 178.04296875 C-142.42794865 165.36813133 -146.65381077 151.22598565 -148.95727539 137.07470703 C-150.14350779 130.11441027 -152.4489418 124.0765873 -156.375 118.1875 C-159.16045091 117.82690784 -159.16045091 117.82690784 -162.375 117.875 C-169.1374552 117.50014106 -174.33180038 115.83152745 -179.375 111.1875 C-183.88417691 103.942418 -183.55324249 95.77692828 -181.83740234 87.63720703 C-179.72520008 79.22999495 -177.5973244 71.20499842 -172.375 64.1875 C-171.9625 63.61 -171.55 63.0325 -171.125 62.4375 C-162.98746922 56.62497801 -149.41311922 58.62729729 -140.125 59.8125 C-132.45044968 61.26444195 -124.29102332 64.93652207 -119.375 71.1875 C-117.51551687 76.77181527 -117.08628344 81.83824814 -117.1875 87.6875 C-117.1884668 88.74904297 -117.1884668 88.74904297 -117.18945312 89.83203125 C-117.21913061 93.43949383 -117.45400323 96.86002309 -118.03515625 100.421875 C-118.39684183 104.42951757 -118.18637247 105.67529345 -116 108.9375 C-115.17048828 110.18660156 -115.17048828 110.18660156 -114.32421875 111.4609375 C-113.68097656 112.36070312 -113.03773437 113.26046875 -112.375 114.1875 C-111.63894531 115.23164063 -110.90289062 116.27578125 -110.14453125 117.3515625 C-106.53421525 122.32255036 -103.23674149 126.40977847 -98.375 130.1875 C-98.38023682 129.20281738 -98.38547363 128.21813477 -98.39086914 127.20361328 C-98.55089724 94.12919752 -98.55089724 94.12919752 -97.9375 78.125 C-97.89826416 77.06361816 -97.85902832 76.00223633 -97.81860352 74.90869141 C-97.5052735 67.65699587 -97.5052735 67.65699587 -96.76538086 64.99047852 C-96.63655518 64.39549561 -96.50772949 63.8005127 -96.375 63.1875 C-97.77088754 61.54155861 -97.77088754 61.54155861 -99.375 60.1875 C-99.375 59.5275 -99.375 58.8675 -99.375 58.1875 C-99.931875 57.960625 -100.48875 57.73375 -101.0625 57.5 C-105.16174718 55.17340025 -107.87197172 52.5472215 -109.51953125 48.09375 C-112.16070338 34.62531668 -112.70499262 23.54474646 -106.375 11.1875 C-105.715 11.1875 -105.055 11.1875 -104.375 11.1875 C-104.00375 10.07375 -104.00375 10.07375 -103.625 8.9375 C-101.98818348 5.33650366 -99.93091308 2.96545654 -96.375 1.1875 C-88.41807392 0.72885681 -80.52930118 1.11285701 -72.625 2.0625 C-71.94614746 2.14089111 -71.26729492 2.21928223 -70.56787109 2.30004883 C-67.14613928 2.75214742 -65.30436168 3.23459221 -62.375 5.1875 C-62.375 5.8475 -62.375 6.5075 -62.375 7.1875 C-61.26125 7.47625 -60.1475 7.765 -59 8.0625 C-55.375 9.1875 -55.375 9.1875 -53.375 11.1875 C-49.87569565 19.4211573 -50.19400426 28.88072726 -50.1875 37.6875 C-50.17525391 38.56019531 -50.16300781 39.43289062 -50.15039062 40.33203125 C-50.13835897 45.74627712 -50.71664455 50.62630805 -52.04174805 55.88085938 C-52.43394203 58.59547385 -52.03311093 60.53411051 -51.375 63.1875 C-51.13088379 64.34245972 -51.13088379 64.34245972 -50.88183594 65.52075195 C-48.5183033 76.40073328 -45.99355533 87.1067761 -42.48828125 97.6796875 C-41.27881802 101.49055761 -40.31027938 105.3011793 -39.375 109.1875 C-39.27703125 108.23488281 -39.1790625 107.28226562 -39.078125 106.30078125 C-38.92859375 105.04652344 -38.7790625 103.79226562 -38.625 102.5 C-38.48578125 101.25863281 -38.3465625 100.01726562 -38.203125 98.73828125 C-37.3020056 94.87451928 -36.16381729 92.97099512 -33.375 90.1875 C-32.715 90.1875 -32.055 90.1875 -31.375 90.1875 C-30.95541016 88.88232422 -30.95541016 88.88232422 -30.52734375 87.55078125 C-29.45449804 84.41952648 -28.24377883 81.41484512 -26.9375 78.375 C-24.82997788 73.37662895 -23.0003144 68.35995327 -21.375 63.1875 C-21.045 62.1975 -20.715 61.2075 -20.375 60.1875 C-21.365 59.8575 -22.355 59.5275 -23.375 59.1875 C-30.20619002 50.38166911 -32.60619365 41.29444321 -32.6875 30.375 C-32.69595947 29.28046509 -32.69595947 29.28046509 -32.70458984 28.16381836 C-32.64884109 24.05967103 -32.19071562 20.87137069 -30.375 17.1875 C-29.83875 16.094375 -29.3025 15.00125 -28.75 13.875 C-28.29625 12.988125 -27.8425 12.10125 -27.375 11.1875 C-26.715 11.1875 -26.055 11.1875 -25.375 11.1875 C-25.01148438 10.29611328 -25.01148438 10.29611328 -24.640625 9.38671875 C-23.13298925 6.76696898 -21.63627181 5.6613686 -19.125 4 C-18.00351562 3.23623047 -18.00351562 3.23623047 -16.859375 2.45703125 C-11.58333928 -0.23905618 -5.79519231 0.00515587 0 0 Z M-19.375 13.1875 C-25.00532734 20.92752039 -26.69472103 27.71257977 -25.375 37.1875 C-23.4564168 45.71453644 -20.80904981 52.23146679 -13.375 57.1875 C-13.76798192 65.04713846 -16.18936701 71.05097022 -19.375 78.1875 C-20.25423576 80.33160125 -21.12935047 82.47739783 -22 84.625 C-25.87779677 94.18936451 -25.87779677 94.18936451 -30.375 97.1875 C-31.01804035 99.34880109 -31.01804035 99.34880109 -31.21875 101.87890625 C-31.33089844 102.82443359 -31.44304687 103.76996094 -31.55859375 104.74414062 C-31.66300781 105.73607422 -31.76742187 106.72800781 -31.875 107.75 C-32.65150102 114.9254446 -33.77249611 121.43172837 -36.375 128.1875 C-38.24633789 127.89672852 -38.24633789 127.89672852 -40.375 127.1875 C-44.13149956 121.07873316 -45.76421373 114.67316556 -47.4375 107.75 C-49.41942932 99.63019088 -49.41942932 99.63019088 -51.89453125 91.65234375 C-53.64318172 86.58381639 -54.81626883 81.41199251 -56 76.1875 C-56.42642118 74.31175446 -56.85593585 72.43670854 -57.2890625 70.5625 C-57.4742041 69.74523437 -57.6593457 68.92796875 -57.85009766 68.0859375 C-58.20568553 66.19244893 -58.20568553 66.19244893 -59.375 65.1875 C-59.60107487 60.43992776 -59.49152218 56.30404207 -58.375 51.6875 C-56.15290851 41.60141096 -55.62178605 26.91993068 -59.109375 17.125 C-61.86347725 12.90884347 -66.83786201 11.01480121 -71.375 9.1875 C-75.40147955 8.37697489 -79.27913312 8.26255515 -83.375 8.1875 C-84.33921875 8.04570313 -85.3034375 7.90390625 -86.296875 7.7578125 C-89.33074976 7.41419685 -91.4350807 7.33658921 -94.375 8.1875 C-100.85026041 14.15572534 -104.26052873 21.58330955 -104.6875 30.3125 C-104.48576122 36.84659497 -104.02792771 44.9122806 -99.79296875 50.140625 C-98.04265992 51.58968242 -96.23551863 52.88472984 -94.375 54.1875 C-91.11028015 57.18355213 -89.45539522 59.38354776 -89 63.9375 C-89.375 67.1875 -89.375 67.1875 -90.375 69.1875 C-90.51441885 71.32532941 -90.59147287 73.46731849 -90.64038086 75.60913086 C-90.66504173 76.59720482 -90.66504173 76.59720482 -90.69020081 77.60523987 C-90.72547442 79.03697416 -90.75865008 80.46876131 -90.78999138 81.90058708 C-90.84014298 84.16585943 -90.89693652 86.4308739 -90.95570374 88.69593811 C-91.12182096 95.1365008 -91.27760654 101.57728259 -91.42456055 108.01831055 C-91.5148795 111.95656263 -91.61447461 115.89449146 -91.71982002 119.83236885 C-91.75808877 121.33419682 -91.79273537 122.83612156 -91.8237133 124.3381176 C-91.86719253 126.43789068 -91.92239513 128.53705479 -91.98022461 130.63647461 C-92.00829697 131.83179306 -92.03636932 133.02711151 -92.06529236 134.25865173 C-92.375 137.1875 -92.375 137.1875 -94.375 140.1875 C-96.685 139.8575 -98.995 139.5275 -101.375 139.1875 C-101.375 138.5275 -101.375 137.8675 -101.375 137.1875 C-101.99375 137.105 -102.6125 137.0225 -103.25 136.9375 C-106.07038641 135.9420695 -106.08391266 134.81679465 -107.375 132.1875 C-108.42400201 130.94924505 -109.51055747 129.74220268 -110.625 128.5625 C-113.92142937 124.88466558 -116.37794258 121.06343011 -118.81640625 116.78125 C-121.00746313 113.13497991 -123.56493529 109.78703234 -126.15234375 106.4140625 C-127.375 104.1875 -127.375 104.1875 -127.19140625 102.2734375 C-126.92199219 101.58507812 -126.65257812 100.89671875 -126.375 100.1875 C-123.51770464 92.37541907 -122.60159183 82.63643737 -126.15625 74.8359375 C-129.99110762 69.64904674 -136.18395739 68.01879217 -142.25 66.875 C-155.32799735 64.95950352 -155.32799735 64.95950352 -167.375 69.1875 C-169.39327487 71.97615739 -170.34890965 74.92141776 -171.375 78.1875 C-171.74625 79.28191406 -172.1175 80.37632813 -172.5 81.50390625 C-174.7314996 88.56257337 -176.86190274 95.76569486 -175.375 103.1875 C-172.83567911 106.64379788 -170.29980703 108.57017277 -166.375 110.1875 C-163.36249174 110.51485647 -160.37494542 110.62745157 -157.34765625 110.74609375 C-153.36894736 111.33688758 -150.55286467 112.60360124 -148.1171875 115.87890625 C-144.8172477 122.99904662 -142.70407209 130.03663362 -141.4050293 137.78466797 C-139.34315859 149.99129527 -135.23994478 161.07088528 -129.44921875 172.03125 C-128.43737814 174.06229007 -127.70479998 176.03465644 -127 178.1875 C-125.4862167 182.43285875 -122.98204445 185.72168474 -120.34375 189.34375 C-116.6209696 194.72109947 -113.52575541 200.46259801 -110.375 206.1875 C-109.93800781 206.95320312 -109.50101562 207.71890625 -109.05078125 208.5078125 C-106.32098343 213.52089846 -105.24992014 218.56959171 -104.375 224.1875 C-103.13886963 224.02596436 -101.90273926 223.86442871 -100.62915039 223.69799805 C-94.85347648 223.06002396 -89.11442602 223.02550625 -83.30859375 223.01953125 C-81.58190208 223.01453865 -81.58190208 223.01453865 -79.82032776 223.00944519 C-77.38551225 223.0043994 -74.95068987 223.00203614 -72.51586914 223.00219727 C-68.87568995 223.00003749 -65.23582774 222.98193074 -61.59570312 222.96289062 C-43.64344107 222.91991268 -25.92173009 223.85503394 -8.125 226.25 C5.02181864 227.98921455 18.372787 228.42991853 31.625 228.1875 C31.98851562 226.62902344 31.98851562 226.62902344 32.359375 225.0390625 C34.00793833 218.1239088 35.7249986 211.53803824 38.56640625 205.00390625 C40.01138596 201.15951374 40.97007632 197.22221451 42 193.25 C44.60589023 183.42857683 48.00782626 175.20331792 55.625 168.1875 C58.71620499 163.96942148 60.84519287 159.70318471 62.625 154.8125 C63.00628052 153.77464355 63.00628052 153.77464355 63.39526367 152.71582031 C67.14158278 142.23796351 69.95078896 131.71838479 70.3515625 120.54296875 C70.625 118.1875 70.625 118.1875 72.625 115.1875 C74.9453125 114.9921875 74.9453125 114.9921875 77.75 115.0625 C82.6716355 114.75206833 84.84276729 113.69567754 88.1875 110.0625 C93.62626996 102.98876238 94.45164298 95.90482594 93.625 87.1875 C92.55131098 82.77507939 90.93224081 78.37662507 87.625 75.1875 C82.35106901 72.49371776 78.08204784 71.63475237 72.1875 71.6875 C71.06263184 71.69716797 71.06263184 71.69716797 69.91503906 71.70703125 C64.05770334 71.90116885 59.78354683 72.79315928 55.625 77.1875 C51.79862548 81.37378104 50.32134405 85.00306445 50.1875 90.6875 C50.40417706 95.42813142 51.36687238 99.62678739 52.625 104.1875 C53.56498278 109.55883017 50.56746541 112.96161882 47.625 117.1875 C47.2021875 117.86296875 46.779375 118.5384375 46.34375 119.234375 C42.73963529 124.64054707 38.42680823 127.52779661 32.8203125 130.7421875 C32.09585938 131.21914062 31.37140625 131.69609375 30.625 132.1875 C30.625 132.8475 30.625 133.5075 30.625 134.1875 C29.92375 134.435 29.2225 134.6825 28.5 134.9375 C25.47493874 136.13390669 25.47493874 136.13390669 22.5625 138.375 C19.625 140.1875 19.625 140.1875 17.44140625 139.80078125 C16.84199219 139.59839844 16.24257812 139.39601562 15.625 139.1875 C15.65005615 138.41825195 15.6751123 137.64900391 15.70092773 136.85644531 C15.8004177 133.76932369 15.89732747 130.68212853 15.9937439 127.59490967 C16.06307514 125.41945329 16.13654052 123.24416118 16.21020508 121.06884766 C16.46773114 113.19338177 16.65049473 105.32484777 16.68797302 97.44494629 C16.70807741 93.46488492 16.74940645 89.48513582 16.79104614 85.50524902 C16.80529615 83.55062635 16.80901626 81.59589727 16.80197144 79.64123535 C16.79302689 76.87190847 16.82074062 74.10501397 16.85546875 71.3359375 C16.84320251 70.51425079 16.83093628 69.69256409 16.81829834 68.84597778 C16.93478427 63.33309835 18.28681003 60.59838626 22.20375061 56.70649719 C24.33852386 54.42490285 25.03047176 51.96736512 25.875 49 C27.51085608 43.41082506 27.51085608 43.41082506 28.703125 41.078125 C30.45060349 37.49431319 30.30191258 34.06061722 29.625 30.1875 C25.95878006 21.33462108 20.43283822 13.7645273 12.625 8.1875 C2.55050311 5.93306713 -11.8017997 5.01641546 -19.375 13.1875 Z " fill="#000000" transform="translate(219.375,36.8125)"/>
<path d="M0 0 C0.96000916 -0.00637985 1.92001831 -0.0127597 2.90911865 -0.01933289 C3.94232239 -0.02044571 4.97552612 -0.02155853 6.04003906 -0.02270508 C7.12786682 -0.02603348 8.21569458 -0.02936188 9.33648682 -0.03279114 C11.64977599 -0.03785536 13.96307247 -0.04019962 16.27636719 -0.04003906 C19.72376627 -0.04218534 23.17082334 -0.06023242 26.61816406 -0.0793457 C45.73683948 -0.12898898 64.61818388 0.97956108 83.54638672 3.70336914 C90.25149323 4.54768824 96.99765243 4.84845187 103.74316406 5.20776367 C105.88394184 5.32399735 108.02456936 5.44197539 110.16499329 5.56455994 C112.07712854 5.67383344 113.98960703 5.77705251 115.90209961 5.87988281 C119.05566406 6.14526367 119.05566406 6.14526367 121.29711914 6.73681641 C123.28359282 7.35965427 123.28359282 7.35965427 126.05566406 6.14526367 C128.83300781 7.40307617 128.83300781 7.40307617 131.99316406 9.27026367 C133.0334375 9.8709668 134.07371094 10.47166992 135.14550781 11.09057617 C139.10636686 13.88710215 141.39149637 17.14901214 144.05566406 21.14526367 C144.35864258 23.19824219 144.35864258 23.19824219 144.43457031 25.52416992 C144.46873047 26.36270508 144.50289062 27.20124023 144.53808594 28.06518555 C144.57772461 29.37326172 144.57772461 29.37326172 144.61816406 30.70776367 C144.67801591 32.43837355 144.74163661 34.16885844 144.80957031 35.89916992 C144.83349854 36.66559814 144.85742676 37.43202637 144.88208008 38.22167969 C144.94520031 40.22851733 144.94520031 40.22851733 146.05566406 42.14526367 C146.1256242 43.85229103 146.1400656 45.5619437 146.11816406 47.27026367 C146.10914063 48.1803418 146.10011719 49.09041992 146.09082031 50.02807617 C146.07341797 51.07608398 146.07341797 51.07608398 146.05566406 52.14526367 C141.2518882 51.758519 136.46440869 51.35078899 131.69406128 50.65483093 C120.13007732 48.97157572 108.73286657 48.87002922 97.06347656 48.91479492 C94.98037749 48.91599057 92.89727787 48.91643907 90.81417847 48.91618347 C86.47927403 48.91773585 82.14445363 48.92593181 77.80957031 48.93945312 C72.27548045 48.95650497 66.74148192 48.96026483 61.20736885 48.95950794 C56.91780743 48.95978071 52.62826565 48.96527794 48.33871078 48.97250938 C46.29831973 48.97567169 44.25792648 48.9776577 42.21753311 48.97840309 C39.36422228 48.98058917 36.51100523 48.98937983 33.65771484 49 C32.41686882 48.99932022 32.41686882 48.99932022 31.1509552 48.99862671 C26.1500781 49.02562608 21.25044141 49.35578378 16.28007603 49.9115696 C13.05876524 50.24999668 9.84301406 50.36220091 6.60644531 50.46166992 C5.94589645 50.48245102 5.2853476 50.50323212 4.6047821 50.52464294 C3.22102793 50.56739994 1.8372214 50.60849409 0.45336914 50.64794922 C-1.61099735 50.70716591 -3.67510336 50.77246583 -5.73925781 50.83862305 C-34.46657862 51.72626979 -34.46657862 51.72626979 -42.94433594 49.14526367 C-44.5917919 47.49780771 -44.11529754 45.59190917 -44.13183594 43.33276367 C-44.14601563 42.46006836 -44.16019531 41.58737305 -44.17480469 40.68823242 C-43.92831272 37.96846513 -43.20745782 36.53421159 -41.94433594 34.14526367 C-41.42516961 32.21809651 -40.94905541 30.27902904 -40.50683594 28.33276367 C-38.17399354 18.90991008 -35.46472054 14.15858708 -27.94433594 8.14526367 C-27.16058594 7.36151367 -26.37683594 6.57776367 -25.56933594 5.77026367 C-22.14092112 3.64791164 -19.22711224 3.57589009 -15.24902344 3.41870117 C-12.66944025 3.28902684 -12.66944025 3.28902684 -9.94433594 1.14526367 C-6.5956058 0.27809046 -3.45021091 0.01570768 0 0 Z " fill="#555251" transform="translate(129.9443359375,265.854736328125)"/>
<path d="M0 0 C2 1 2 1 3.125 3.875 C5.11383539 11.6235027 4.99550428 19.95416449 1 27 C-0.97515413 30.2187697 -2.91067861 32.79254953 -6 35 C-8.96582209 35.64634468 -11.61297491 35.81552728 -14.64453125 35.76953125 C-15.42183594 35.84558594 -16.19914062 35.92164063 -17 36 C-19.32229404 39.48344106 -19.49994207 42.27670559 -19.875 46.3125 C-21.13015088 57.57459191 -24.47483895 67.9207364 -28.4375 78.5 C-28.71360107 79.25394043 -28.98970215 80.00788086 -29.27416992 80.78466797 C-31.52856598 86.59839733 -34.41423952 90.64930865 -39.0625 94.875 C-43.81308247 100.08531626 -45.70512664 106.79382416 -47.375 113.5 C-48.98490667 119.65563836 -50.8608225 125.57806532 -53.1875 131.5 C-55.45095981 137.26926975 -57.06683307 142.87173954 -58 149 C-66.95443499 149.13076713 -75.81806524 148.74230755 -84.75 148.125 C-85.7387915 148.05830612 -85.7387915 148.05830612 -86.74755859 147.99026489 C-95.40015083 147.40385512 -103.97470967 146.63729372 -112.5625 145.44140625 C-118.35525018 144.69756447 -124.17084506 144.34610607 -130 144 C-130 143.01 -130 142.02 -130 141 C-129.3709375 140.86464844 -128.741875 140.72929687 -128.09375 140.58984375 C-119.99069057 138.55187549 -115.61240915 134.70554677 -109.87890625 128.82421875 C-103.00511852 122.11271268 -95.58342846 118.73179093 -86.93701172 114.88916016 C-76.80058929 110.23616665 -67.56413873 103.16130758 -60 95 C-59.42209717 94.41202637 -58.84419434 93.82405273 -58.2487793 93.21826172 C-52.59578985 87.24091473 -49.02030788 80.92740667 -45.4375 73.5625 C-41.89809274 66.36642905 -38.28260593 59.60128204 -33.53076172 53.12426758 C-31.42318779 50.19954657 -29.7123772 47.17106889 -28 44 C-27.443125 43.0409375 -27.443125 43.0409375 -26.875 42.0625 C-25.73749686 39.3812426 -25.1637236 36.64976345 -24.5625 33.8046875 C-24 32 -24 32 -22 30 C-19.91577908 29.98560621 -17.8304663 30.06162704 -15.75 30.1875 C-10.17005689 30.35422534 -10.17005689 30.35422534 -5.3125 28 C-0.22446896 21.39931108 -0.81312139 14.3153315 -0.98486328 6.37182617 C-1.021863 4.58159264 -1.01476312 2.79055497 -1 1 C-0.67 0.67 -0.34 0.34 0 0 Z " fill="#444141" transform="translate(309,116)"/>
<path d="M0 0 C0.96000916 -0.00637985 1.92001831 -0.0127597 2.90911865 -0.01933289 C3.94232239 -0.02044571 4.97552612 -0.02155853 6.04003906 -0.02270508 C7.12786682 -0.02603348 8.21569458 -0.02936188 9.33648682 -0.03279114 C11.64977599 -0.03785536 13.96307247 -0.04019962 16.27636719 -0.04003906 C19.72376627 -0.04218534 23.17082334 -0.06023242 26.61816406 -0.0793457 C45.73683948 -0.12898898 64.61818388 0.97956108 83.54638672 3.70336914 C90.25149323 4.54768824 96.99765243 4.84845187 103.74316406 5.20776367 C105.88394184 5.32399735 108.02456936 5.44197539 110.16499329 5.56455994 C112.07712854 5.67383344 113.98960703 5.77705251 115.90209961 5.87988281 C119.05566406 6.14526367 119.05566406 6.14526367 121.29711914 6.73681641 C123.28359282 7.35965427 123.28359282 7.35965427 126.05566406 6.14526367 C128.83300781 7.40307617 128.83300781 7.40307617 131.99316406 9.27026367 C133.0334375 9.8709668 134.07371094 10.47166992 135.14550781 11.09057617 C139.10636686 13.88710215 141.39149637 17.14901214 144.05566406 21.14526367 C144.25097656 24.06323242 144.25097656 24.06323242 144.18066406 27.33276367 C144.16261719 28.41944336 144.14457031 29.50612305 144.12597656 30.62573242 C144.10277344 31.45717773 144.07957031 32.28862305 144.05566406 33.14526367 C143.72566406 32.48526367 143.39566406 31.82526367 143.05566406 31.14526367 C142.12753906 30.74307617 142.12753906 30.74307617 141.18066406 30.33276367 C138.38415358 28.77000781 137.47041809 26.97477172 136.05566406 24.14526367 C136.05566406 23.48526367 136.05566406 22.82526367 136.05566406 22.14526367 C133.22334859 21.49467839 130.38994206 20.84969654 127.55566406 20.20776367 C126.76417969 20.02536133 125.97269531 19.84295898 125.15722656 19.6550293 C115.79746563 17.54524712 106.69074856 16.90316836 97.11816406 16.58276367 C95.90064453 16.54103027 94.683125 16.49929688 93.42871094 16.45629883 C84.97102596 16.18830441 76.51752728 16.04090694 68.05566406 16.02026367 C66.4818396 16.01337524 66.4818396 16.01337524 64.8762207 16.00634766 C63.41817017 16.0093689 63.41817017 16.0093689 61.93066406 16.01245117 C61.08246094 16.0135791 60.23425781 16.01470703 59.36035156 16.01586914 C57.13187724 16.05225299 57.13187724 16.05225299 55.36987305 16.64547729 C52.15861876 17.33899338 48.99224555 17.28123379 45.72363281 17.27124023 C44.62513252 17.27404243 44.62513252 17.27404243 43.50444031 17.27690125 C41.91611075 17.28089899 40.32777546 17.28297951 38.73944092 17.28336334 C35.347449 17.28679481 31.95564601 17.30818481 28.5637207 17.32859421 C22.25550924 17.36649013 15.94749859 17.39788974 9.63916016 17.39575195 C5.24463284 17.39495947 0.85079761 17.41855835 -3.54354858 17.45763397 C-5.20825072 17.46801762 -6.8730335 17.46967498 -8.53775024 17.46198273 C-17.83091968 17.42335093 -25.22672146 17.87307199 -33.75244141 22.07513428 C-35.94433594 23.14526367 -35.94433594 23.14526367 -37.94433594 23.14526367 C-38.0286272 19.09928285 -37.80665973 17.10359877 -35.04980469 14.03979492 C-32.73708569 11.99555076 -30.36073852 10.06503083 -27.94433594 8.14526367 C-27.13996094 7.34088867 -26.33558594 6.53651367 -25.50683594 5.70776367 C-22.11818087 3.64151058 -19.16732973 3.57352786 -15.24902344 3.41870117 C-12.66944025 3.28902684 -12.66944025 3.28902684 -9.94433594 1.14526367 C-6.5956058 0.27809046 -3.45021091 0.01570768 0 0 Z " fill="#6A6867" transform="translate(129.9443359375,265.854736328125)"/>
<path d="M0 0 C3.60322531 0.45998621 6.32702739 1.78945106 9.55859375 3.40234375 C14.71331857 5.5099406 20.07816168 5.52421584 25.57421875 5.5078125 C26.6543499 5.50924759 26.6543499 5.50924759 27.75630188 5.51071167 C29.2749541 5.51138919 30.79360928 5.50956491 32.31225586 5.50537109 C34.60081741 5.50005616 36.88917917 5.5053103 39.17773438 5.51171875 C46.48988676 5.51311054 53.68342188 5.38537007 60.94458008 4.39404297 C61.60224365 4.38775879 62.25990723 4.38147461 62.9375 4.375 C64.9375 6.375 64.9375 6.375 65.375 8.8125 C64.9375 11.375 64.9375 11.375 62.8125 13.125 C57.22233567 15.55550623 51.47553196 15.544606 45.4609375 15.578125 C44.25118759 15.58667511 44.25118759 15.58667511 43.01699829 15.59539795 C41.3142425 15.60480964 39.61146881 15.61136662 37.90869141 15.61523438 C35.34113572 15.62489229 32.77439792 15.65593199 30.20703125 15.6875 C18.25391553 15.76480636 7.18148105 15.2043207 -3.0625 8.375 C-4.0625 7.375 -4.0625 7.375 -4.25 4.9375 C-4.01241501 1.69050517 -3.25888165 0.59252394 0 0 Z " fill="#000000" transform="translate(151.0625,296.625)"/>
<path d="M0 0 C1.33333333 0.66666667 2.66666667 1.33333333 4 2 C5.03125 2.45375 6.0625 2.9075 7.125 3.375 C10.25679509 5.14514505 10.72091183 5.78483747 12 9 C14.28434413 19.92606107 14.0060292 32.98519978 11.45703125 43.8046875 C10.19749975 49.85474481 10.65101714 54.78029054 13.0625 60.484375 C14.38398263 64.03035338 15.31528432 67.64826773 16.25 71.3125 C16.43723633 72.01898682 16.62447266 72.72547363 16.81738281 73.45336914 C18.11952895 78.64141315 18.11952895 78.64141315 17 82 C13.25132047 78.81597513 12.11963971 76.09207992 10.875 71.375 C10.54371094 70.12976563 10.21242187 68.88453125 9.87109375 67.6015625 C8.96881025 63.87104505 8.1949929 60.14000592 7.49609375 56.3671875 C6.80065182 53.04877955 5.80908565 49.8459321 4.78125 46.6171875 C4.5234375 45.75351563 4.265625 44.88984375 4 44 C3.6390625 42.86433594 3.278125 41.72867188 2.90625 40.55859375 C1.4194611 34.52946689 1.86838197 28.35051412 2 22.1875 C2.05093011 19.76449991 2.09302651 17.34129312 2.125 14.91796875 C2.15980469 13.32118286 2.15980469 13.32118286 2.1953125 11.69213867 C2.20606009 8.77496369 2.20606009 8.77496369 0 6 C-0.125 2.8125 -0.125 2.8125 0 0 Z " fill="#434040" transform="translate(149,47)"/>
<path d="M0 0 C5.5840727 2.46356149 7.97592599 6.96856652 11 12 C11.61875 12.99 12.2375 13.98 12.875 15 C15.53188203 22.08501875 14.06143584 27.84286824 11.0703125 34.578125 C9.83825113 37.36600108 8.90620932 40.20445807 8.00390625 43.11328125 C7 45 7 45 4.453125 46.8671875 C0.47524348 51.9472209 1.21668599 57.54399728 1.1875 63.8125 C1.16236328 65.07771484 1.13722656 66.34292969 1.11132812 67.64648438 C1.05249509 70.76463543 1.01618494 73.88138367 1 77 C0.67 77 0.34 77 0 77 C-0.18175781 75.70964844 -0.36351562 74.41929688 -0.55078125 73.08984375 C-0.80418613 71.37232179 -1.05812052 69.65487789 -1.3125 67.9375 C-1.43044922 67.08994141 -1.54839844 66.24238281 -1.66992188 65.36914062 C-2.46311407 60.1015309 -3.7701213 55.82931594 -6 51 C-5.88570056 47.11381901 -3.37063503 44.92843151 -1 42 C0.01559401 40.00787329 1.01789629 38.0088485 2 36 C2.66 35.34 3.32 34.68 4 34 C5.08409289 30.8380624 5.19570412 27.76312275 5.25 24.4375 C5.27578125 23.48746094 5.3015625 22.53742188 5.328125 21.55859375 C4.93830674 18.51893945 4.28071617 17.93645712 2 16 C1.04155779 14.71768859 0.12492161 13.4031887 -0.75 12.0625 C-1.19859375 11.39347656 -1.6471875 10.72445312 -2.109375 10.03515625 C-3.20500481 7.53154603 -2.94381269 6.51857198 -2 4 C-1.36345658 2.6520257 -0.70394612 1.31403276 0 0 Z " fill="#434040" transform="translate(235,49)"/>
<path d="M0 0 C5.06586703 0.47492503 9.18589514 2.72586954 13 6 C16.35108821 12.70217641 16.12597378 22.19983849 14.03125 29.26953125 C13.6909375 30.17058594 13.350625 31.07164062 13 32 C12.03061934 34.74657855 11.79978436 35.51948246 12.9375 38.25 C13.288125 38.8275 13.63875 39.405 14 40 C12.125 40.625 12.125 40.625 10 41 C8 39 8 39 7.91015625 36.09375 C7.96042969 34.9078125 8.01070312 33.721875 8.0625 32.5 C8.15449963 26.88227246 7.59248491 22.45310282 5.71484375 17.18359375 C5 15 5 15 4.625 11.125 C4.26924882 7.78808118 4.26924882 7.78808118 1.4375 5.5625 C0.633125 5.046875 -0.17125 4.53125 -1 4 C-0.67 2.68 -0.34 1.36 0 0 Z " fill="#434040" transform="translate(80,105)"/>
<path d="M0 0 C-0.33 1.65 -0.66 3.3 -1 5 C-4.71599191 5.20086443 -5.77208445 5.1519437 -9 3 C-9.2475 3.556875 -9.495 4.11375 -9.75 4.6875 C-12.31070003 9.42479505 -15.15859135 12.57929568 -20 15 C-20.66 15 -21.32 15 -22 15 C-21.77943068 18.08617723 -21.51841986 21.16764532 -21.25 24.25 C-21.188125 25.12269531 -21.12625 25.99539062 -21.0625 26.89453125 C-20.65103415 32.10500036 -20.65103415 32.10500036 -17.9375 36.4375 C-17.298125 36.953125 -16.65875 37.46875 -16 38 C-15.75 40.75 -15.75 40.75 -16 43 C-17.98 43.495 -17.98 43.495 -20 44 C-25.53647167 37.16082911 -26.70071598 28.8838151 -26.4765625 20.25390625 C-25.45924308 13.30778269 -22.06089993 7.20977723 -16.5 2.875 C-10.93761748 -0.10484778 -6.22843564 -0.12456871 0 0 Z " fill="#666463" transform="translate(220,44)"/>
<path d="M0 0 C2.33984375 0.2734375 2.33984375 0.2734375 4.0625 0.625 C3.7325 2.275 3.4025 3.925 3.0625 5.625 C1.0825 5.625 -0.8975 5.625 -2.9375 5.625 C-3.2675 6.615 -3.5975 7.605 -3.9375 8.625 C-4.5975 8.625 -5.2575 8.625 -5.9375 8.625 C-6.246875 9.594375 -6.55625 10.56375 -6.875 11.5625 C-7.9375 14.625 -7.9375 14.625 -8.9375 15.625 C-9.0358721 16.95543625 -9.06828592 18.29093344 -9.0703125 19.625 C-9.07160156 20.429375 -9.07289062 21.23375 -9.07421875 22.0625 C-9.07035156 22.908125 -9.06648438 23.75375 -9.0625 24.625 C-9.06636719 25.470625 -9.07023437 26.31625 -9.07421875 27.1875 C-9.07292969 27.991875 -9.07164063 28.79625 -9.0703125 29.625 C-9.06918457 30.3675 -9.06805664 31.11 -9.06689453 31.875 C-9.12692216 33.65325811 -9.12692216 33.65325811 -7.9375 34.625 C-7.89686168 36.29117115 -7.894779 37.95888095 -7.9375 39.625 C-9.9175 40.12 -9.9175 40.12 -11.9375 40.625 C-15.19180547 28.09204977 -16.62861287 19.48599097 -10.49609375 7.90234375 C-5.69491107 -0.01793673 -5.69491107 -0.01793673 0 0 Z " fill="#666463" transform="translate(129.9375,44.375)"/>
<path d="M0 0 C-0.3359375 1.8984375 -0.3359375 1.8984375 -1 4 C-4.18422254 5.97118538 -7.14521519 7.04114431 -10.75 8.0625 C-14.05430339 8.73202159 -14.05430339 8.73202159 -16 11 C-16.3063859 13.73434962 -16.5113336 16.38279821 -16.625 19.125 C-16.66367187 19.87910156 -16.70234375 20.63320312 -16.7421875 21.41015625 C-16.83651031 23.27303184 -16.91934662 25.13648255 -17 27 C-18.32 27.33 -19.64 27.66 -21 28 C-22.59674802 22.39829383 -23.16449226 16.23228227 -21.1640625 10.6796875 C-16.35556712 2.19220908 -9.53186805 -0.99290292 0 0 Z " fill="#666463" transform="translate(292,109)"/>
<path d="M0 0 C-0.33 1.32 -0.66 2.64 -1 4 C-7.435 4.495 -7.435 4.495 -14 5 C-14.2475 6.11375 -14.495 7.2275 -14.75 8.375 C-15.55707294 11.6845797 -16.67884552 14.64055101 -18.0625 17.75 C-20.42744625 23.39422117 -20.79153421 28.93364555 -21 35 C-22.98 35.495 -22.98 35.495 -25 36 C-25.39732841 28.67542252 -24.41586833 22.58930954 -22.1875 15.625 C-21.92646484 14.74972656 -21.66542969 13.87445313 -21.39648438 12.97265625 C-20.09284607 8.75594963 -18.9717146 5.35790558 -16 2 C-10.63995234 -0.14401907 -5.67014316 -0.23143441 0 0 Z " fill="#666463" transform="translate(69,103)"/>
<path d="M0 0 C2.5 0.25 2.5 0.25 4.5 2.25 C4.75 4.75 4.75 4.75 4.5 7.25 C2.5 9.25 2.5 9.25 0 9.5 C-2.5 9.25 -2.5 9.25 -4.5 7.25 C-4.75 4.75 -4.75 4.75 -4.5 2.25 C-2.5 0.25 -2.5 0.25 0 0 Z " fill="#020202" transform="translate(167.5,286.75)"/>
<path d="M0 0 C2.5 0.25 2.5 0.25 4.5 2.25 C4.75 4.75 4.75 4.75 4.5 7.25 C2.5 9.25 2.5 9.25 0 9.5 C-2.5 9.25 -2.5 9.25 -4.5 7.25 C-4.75 4.75 -4.75 4.75 -4.5 2.25 C-2.5 0.25 -2.5 0.25 0 0 Z " fill="#020202" transform="translate(202.5,285.75)"/>
</svg>
