<?xml version="1.0" encoding="UTF-8"?>
<svg version="1.1" xmlns="http://www.w3.org/2000/svg" width="360" height="360">
<path d="M0 0 C1.72283203 0.23783203 1.72283203 0.23783203 3.48046875 0.48046875 C7.89916775 0.97451166 12.29632936 1.11229197 16.73828125 1.17578125 C17.43082001 1.18769501 18.12335876 1.19960876 18.83688354 1.21188354 C21.73152771 1.2609411 24.62572175 1.3083239 27.52075195 1.32592773 C29.65644372 1.34138825 31.79051776 1.38151591 33.92578125 1.42578125 C35.81937378 1.44765503 35.81937378 1.44765503 37.7512207 1.4699707 C41.54363469 2.08869249 42.67818594 3.00917106 45 6 C50.41459694 15.89333761 49.38717322 27.11613049 49 38 C50.79323253 37.71812064 52.58457126 37.4241719 54.375 37.125 C55.37273437 36.96257812 56.37046875 36.80015625 57.3984375 36.6328125 C60.1425115 36.2041198 60.1425115 36.2041198 62 34 C62.10022387 31.93951522 62.12966196 29.87541556 62.125 27.8125 C62.57716868 18.90754543 66.40621011 12.4714487 71 5 C81.65805755 4.17874557 90.13404711 6.39849065 100 10 C101.37671875 10.32871094 101.37671875 10.32871094 102.78125 10.6640625 C105.58805174 12.3540734 106.48975511 14.16329218 107.47265625 17.24804688 C108.70301549 23.66869933 108.53654856 30.23650075 108.5 36.75 C108.49885193 37.91819275 108.49885193 37.91819275 108.49768066 39.10998535 C108.44440658 54.10934098 107.44281683 69.12273172 99 82 C93.85437919 86.76191295 87.65074891 89.12919715 81 91 C81.13929932 91.73323486 81.27859863 92.46646973 81.42211914 93.22192383 C82.94139647 101.97713842 83.29971008 110.47582849 83.40646362 119.34094238 C83.59741882 133.77843227 84.11763252 147.66768391 88.02514648 161.67480469 C89.11107393 166.02400068 89.34489839 170.18850152 89.4140625 174.65625 C89.44311172 175.83785706 89.44311172 175.83785706 89.4727478 177.04333496 C89.53193546 179.52878412 89.57868226 182.01428115 89.625 184.5 C89.66323595 186.19793548 89.70229084 187.89585273 89.7421875 189.59375 C89.8375858 193.7290164 89.92183742 197.86437338 90 202 C90.59167969 202.12117187 91.18335938 202.24234375 91.79296875 202.3671875 C98.11114101 203.70709353 103.31460429 205.35342196 108.75 208.9375 C109.52859375 209.44152344 110.3071875 209.94554687 111.109375 210.46484375 C113 212 113 212 114 215 C114.99 215.33 115.98 215.66 117 216 C123.08412805 226.66959221 124.46403209 239.23858045 124.1875 251.25 C124.17396484 252.38824219 124.16042969 253.52648437 124.14648438 254.69921875 C124.11160054 257.46666987 124.06259317 260.23306105 124 263 C110.39651191 267.8583886 94.28699463 266.15583409 80.06884766 266.13037109 C76.50809471 266.12501218 72.94746787 266.13034187 69.38671875 266.13671875 C67.08072889 266.13605784 64.77473911 266.1347764 62.46875 266.1328125 C61.42561646 266.13483673 60.38248291 266.13686096 59.30773926 266.13894653 C53.99147998 266.12243412 48.7412974 265.93439869 43.44140625 265.50927734 C35.34308497 264.88636698 27.26470068 264.8025246 19.14671326 264.73963928 C16.40508622 264.71825339 13.66356085 264.69127516 10.92199707 264.66296387 C4.12643692 264.59385314 -2.66919569 264.53367411 -9.46484375 264.47393799 C-15.2408069 264.42289382 -21.01670968 264.36809129 -26.79258728 264.30812073 C-29.48577044 264.28169623 -32.17896003 264.26080728 -34.87219238 264.2401123 C-36.52482381 264.22350698 -38.17745259 264.20663494 -39.83007812 264.18945312 C-40.57197388 264.18526871 -41.31386963 264.18108429 -42.07824707 264.17677307 C-46.15433009 264.12782486 -49.99622857 263.75033287 -54 263 C-55.86144314 262.88348569 -57.72537536 262.80190375 -59.58984375 262.75390625 C-60.62173828 262.72103516 -61.65363281 262.68816406 -62.71679688 262.65429688 C-64.85992132 262.59321328 -67.00315684 262.53590722 -69.14648438 262.48242188 C-74.74223015 262.29740969 -79.75145243 262.03664085 -85 260 C-87.06386948 255.87226103 -86.2293147 250.53525144 -86.25 246 C-86.270625 244.90042969 -86.29125 243.80085937 -86.3125 242.66796875 C-86.35095982 234.56256135 -85.54489932 227.24149887 -81.3125 220.1875 C-78.10339458 217.15185973 -73.61767905 213 -69 213 C-68.67 212.01 -68.34 211.02 -68 210 C-65.78515625 208.83203125 -65.78515625 208.83203125 -63.0625 207.8125 C-61.71865234 207.29623047 -61.71865234 207.29623047 -60.34765625 206.76953125 C-58 206 -58 206 -56 206 C-55.98541748 205.43716309 -55.97083496 204.87432617 -55.95581055 204.29443359 C-55.87967166 201.65405531 -55.78358889 199.01472486 -55.6875 196.375 C-55.66494141 195.49070312 -55.64238281 194.60640625 -55.61914062 193.6953125 C-55.40986236 188.36822931 -54.71919752 183.46491698 -53.48828125 178.2734375 C-51.88848326 171.2431634 -51.57322149 164.4873488 -51.51837158 157.2947998 C-51.37838349 141.71379941 -49.78523512 127.18598636 -45.7578125 112.09375 C-44.63693365 107.51779099 -43.817631 102.89231897 -43.00195312 98.25341797 C-42.09951872 93.19903745 -42.09951872 93.19903745 -41 91 C-43.64 89.68 -46.28 88.36 -49 87 C-49 86.34 -49 85.68 -49 85 C-49.721875 84.773125 -50.44375 84.54625 -51.1875 84.3125 C-54.56432417 82.73664872 -56.55767039 80.79123384 -59 78 C-59 77.34 -59 76.68 -59 76 C-59.7425 75.835 -60.485 75.67 -61.25 75.5 C-65.28702594 73.29798585 -66.53044282 70.27706859 -68 66 C-68.49286239 62.46239933 -68.44569617 59.00304021 -68.35546875 55.4375 C-68.34743729 54.4467749 -68.33940582 53.4560498 -68.33113098 52.43530273 C-68.30231019 49.28963959 -68.24612936 46.14523592 -68.1875 43 C-68.14479691 39.85492978 -68.10788648 36.70989538 -68.07600403 33.56469727 C-68.0545454 31.61456863 -68.02604705 29.66450014 -67.98930359 27.71459961 C-67.91161447 22.36317775 -68.20313792 17.29435319 -69 12 C-63.91271798 9.51259032 -59.74727719 8.5933159 -54.0625 8.5 C-47.36132692 8.24036614 -40.99176664 7.99176664 -36 3 C-32.5625 2.625 -32.5625 2.625 -29 3 C-22.4956172 10.05294521 -22.57550924 20.21619406 -22.2109375 29.265625 C-22.04531098 33.39727423 -22.04531098 33.39727423 -21 39 C-16.05 39.33 -11.1 39.66 -6 40 C-5.86464844 38.4634375 -5.72929687 36.926875 -5.58984375 35.34375 C-4.98593147 28.7208807 -4.2948364 22.10980548 -3.5625 15.5 C-3.44068359 14.3346875 -3.31886719 13.169375 -3.19335938 11.96875 C-3.06896484 10.855 -2.94457031 9.74125 -2.81640625 8.59375 C-2.70756104 7.59021484 -2.59871582 6.58667969 -2.48657227 5.55273438 C-2 3 -2 3 0 0 Z M-79 249 C-79 250.65 -79 252.3 -79 254 C-78.67 254 -78.34 254 -78 254 C-78 252.35 -78 250.7 -78 249 C-78.33 249 -78.66 249 -79 249 Z " fill="#000000" transform="translate(161,61)"/>
<path d="M0 0 C1.64923462 0.08350708 1.64923462 0.08350708 3.33178711 0.16870117 C15.66343765 0.88962287 27.20459816 3.39051617 39.12329102 6.52563477 C45.02549214 8.02864314 50.81164184 8.58952873 56.875 8.875 C58.49877959 19.08818856 59.15573043 29.03820482 59.28146362 39.36682129 C59.47192216 53.6079509 59.70796786 67.65876729 63.96484375 81.390625 C65.57403634 87.74128473 65.08276196 94.37500332 65 100.875 C64.98994978 102.23567049 64.98082754 103.59634817 64.97265625 104.95703125 C64.9492082 108.26320647 64.91638856 111.5690088 64.875 114.875 C58.7552113 114.8998244 52.63545229 114.91791879 46.515625 114.92993164 C44.43619272 114.93494271 42.35676393 114.94175335 40.27734375 114.95043945 C37.27863703 114.96264683 34.27997714 114.96826071 31.28125 114.97265625 C30.36009399 114.97781754 29.43893799 114.98297882 28.48986816 114.98829651 C23.18005529 114.98875209 18.13416766 114.58985164 12.875 113.875 C-3.92120778 112.94087522 -20.61972207 113.8163837 -37.3125 115.6875 C-38.06809204 115.77027191 -38.82368408 115.85304382 -39.60217285 115.93832397 C-48.62412446 116.9454776 -57.37286056 118.38204275 -66.125 120.875 C-66.03572096 118.33208672 -65.9286307 115.79172852 -65.8125 113.25 C-65.78994141 112.55648437 -65.76738281 111.86296875 -65.74414062 111.1484375 C-65.5090157 106.36043899 -64.71977872 101.9401716 -63.61328125 97.2734375 C-62.02798279 90.20027457 -61.69851784 83.40121019 -61.64337158 76.1697998 C-61.50334993 60.58506402 -59.91130997 46.05215512 -55.87890625 30.95703125 C-54.78225344 26.47382365 -53.98805274 21.94120848 -53.21484375 17.39208984 C-52.5584705 13.66735812 -51.67520611 10.32803421 -50.125 6.875 C-49.52550537 6.86041748 -48.92601074 6.84583496 -48.30834961 6.83081055 C-45.55912545 6.75576179 -42.81104111 6.65929248 -40.0625 6.5625 C-39.11955078 6.53994141 -38.17660156 6.51738281 -37.20507812 6.49414062 C-31.45329455 6.27368899 -27.38163444 5.38696719 -22.125 2.875 C-14.6114015 -0.06259168 -8.00412358 -0.47039562 0 0 Z " fill="#555251" transform="translate(178.125,144.125)"/>
<path d="M0 0 C1.15000488 -0.00080566 2.30000977 -0.00161133 3.48486328 -0.00244141 C8.16898615 0.02823616 12.75589138 0.12694134 17.40869141 0.68261719 C21.86262109 1.20356016 26.26515681 1.36993265 30.74609375 1.43359375 C32.34831402 1.46647076 33.95052743 1.49968323 35.55273438 1.53320312 C38.04349949 1.58091704 40.5342253 1.62553275 43.02514648 1.66430664 C45.45321451 1.70383939 47.88079325 1.75534801 50.30859375 1.80859375 C51.05749374 1.8170079 51.80639374 1.82542206 52.57798767 1.83409119 C57.83561543 1.96061543 57.83561543 1.96061543 60.0625 4.1875 C61.98993088 4.64317145 61.98993088 4.64317145 64.2109375 4.828125 C65.04608887 4.92569092 65.88124023 5.02325684 66.74169922 5.1237793 C67.63131348 5.22730713 68.52092773 5.33083496 69.4375 5.4375 C79.31001135 6.77255079 88.62432099 8.82113278 95.5625 16.5625 C102.68072708 27.66103748 102.62731227 41.51060248 102.0625 54.1875 C92.40352162 59.01698919 75.43116973 56.33850981 64.84033203 56.31787109 C61.5692888 56.31251112 58.29838283 56.31784437 55.02734375 56.32421875 C52.90364554 56.32355782 50.77994741 56.32227636 48.65625 56.3203125 C47.70061157 56.32233673 46.74497314 56.32436096 45.76037598 56.32644653 C40.66609532 56.30926802 35.63713569 56.10426217 30.55859375 55.69677734 C22.44185289 55.07662357 14.34538078 54.99016543 6.20921326 54.92713928 C3.46758622 54.90575339 0.72606085 54.87877516 -2.01550293 54.85046387 C-8.81106308 54.78135314 -15.60669569 54.72117411 -22.40234375 54.66143799 C-28.1783069 54.61039382 -33.95420968 54.55559129 -39.73008728 54.49562073 C-42.42327044 54.46919623 -45.11646003 54.44830728 -47.80969238 54.4276123 C-49.46232381 54.41100698 -51.11495259 54.39413494 -52.76757812 54.37695312 C-53.50947388 54.37276871 -54.25136963 54.36858429 -55.01574707 54.36427307 C-59.09191877 54.3153238 -62.93367966 53.93793577 -66.9375 53.1875 C-68.85743045 53.05998665 -70.77991941 52.96685386 -72.703125 52.90625 C-73.75757812 52.86886719 -74.81203125 52.83148438 -75.8984375 52.79296875 C-78.10675484 52.72215572 -80.31508851 52.65185025 -82.5234375 52.58203125 C-83.57273437 52.54464844 -84.62203125 52.50726563 -85.703125 52.46875 C-86.65993164 52.43845703 -87.61673828 52.40816406 -88.60253906 52.37695312 C-90.9375 52.1875 -90.9375 52.1875 -92.9375 51.1875 C-95.40459323 42.52104431 -95.25911678 31.24384733 -90.9375 23.1875 C-89.06031457 21.01876261 -87.82792212 20.13520147 -85.1875 18.875 C-82.35635976 17.40498488 -81.0954283 16.41882693 -78.9375 14.25 C-74.77762758 10.52363979 -70.0550146 9.48639033 -64.73046875 8.14453125 C-61.79997367 7.40511694 -58.99214972 6.56627367 -56.12109375 5.640625 C-51.02788839 4.09680587 -46.10475128 3.5103436 -40.8125 3.125 C-38.94772251 2.9724065 -37.0831377 2.81744065 -35.21875 2.66015625 C-34.31382812 2.5842627 -33.40890625 2.50836914 -32.4765625 2.43017578 C-30.29115694 2.22130144 -28.13806145 1.95357899 -25.96875 1.62109375 C-17.27070228 0.29222535 -8.79341062 0.00589608 0 0 Z " fill="#555251" transform="translate(175.9375,263.8125)"/>
<path d="M0 0 C16.335 0.495 16.335 0.495 33 1 C36.10659881 9.54314672 37.55663358 14.93298991 37.5625 23.5625 C37.57139991 25.50140801 37.59288283 27.44031248 37.62890625 29.37890625 C37.62963135 30.2201001 37.63035645 31.06129395 37.63110352 31.92797852 C37.75283936 32.61174561 37.8745752 33.2955127 38 34 C43.29941843 37.53294562 50.13000432 36.40667751 56.3046875 35.7578125 C58.36509716 35.39945094 58.36509716 35.39945094 61 34 C63.70741352 29.64515089 64.3175859 26.32540652 64.375 21.25 C64.69867233 14.47445916 66.43075417 9.71606158 70 4 C75.8183026 3.66862647 80.34541457 4.74817828 85.8125 6.6875 C86.57498047 6.93177734 87.33746094 7.17605469 88.12304688 7.42773438 C88.85201172 7.68232422 89.58097656 7.93691406 90.33203125 8.19921875 C90.98921143 8.42440186 91.6463916 8.64958496 92.32348633 8.8815918 C94.79598102 10.53100176 95.1903592 12.17472209 96 15 C97.68208251 30.98849586 98.26638508 53.851326 89 68 C81.46913978 74.51188548 72.97390301 77.58349925 63.08203125 77.29296875 C53.79533984 76.41020341 44.68508946 74.0233002 35.68359375 71.6484375 C27.58152809 69.69073313 19.41169642 69.46839053 11.12060547 69.10400391 C9.39251674 69.01925076 7.66634542 68.89610098 5.94140625 68.76171875 C-0.59427838 68.41354681 -6.06224403 69.98852545 -12.16845703 72.13330078 C-22.45630797 75.71991481 -38.71762878 78.12646303 -48.984375 73.71875 C-51.23526244 71.96273852 -53.07838743 70.10821545 -55 68 C-56.63758216 66.59449556 -58.28349446 65.19863986 -59.9375 63.8125 C-63.3395668 60.86644215 -65.72621589 58.4442455 -66.24291992 53.83129883 C-66.23881104 53.04779053 -66.23470215 52.26428223 -66.23046875 51.45703125 C-66.22917969 50.55927979 -66.22789063 49.66152832 -66.2265625 48.73657227 C-66.21367188 47.77162842 -66.20078125 46.80668457 -66.1875 45.8125 C-66.18105469 44.81468506 -66.17460938 43.81687012 -66.16796875 42.78881836 C-66.05277882 31.18433326 -65.55131308 19.590771 -65 8 C-63.97261719 7.97421875 -62.94523437 7.9484375 -61.88671875 7.921875 C-53.25453591 7.60359456 -45.97718688 6.63367623 -38 3 C-35.13007152 8.98941596 -34.67549823 14.50386063 -34.41650391 21.046875 C-34.15065757 26.55572984 -33.08488174 30.92376619 -31 36 C-22.72220459 38.18144256 -14.51625723 38.47251492 -6 38 C-4.07467609 36.07467609 -4.37041822 32.6515324 -4.0625 30.078125 C-3.97750244 29.38112488 -3.89250488 28.68412476 -3.80493164 27.96600342 C-3.53255864 25.72780519 -3.26594967 23.48896983 -3 21.25 C-2.73324324 19.02542196 -2.46523565 16.80100974 -2.19506836 14.57684326 C-1.94900281 12.54796863 -1.70682771 10.5186233 -1.46484375 8.48925781 C-1.08563938 5.64283507 -0.56316135 2.81580675 0 0 Z " fill="#555251" transform="translate(166,69)"/>
<path d="M0 0 C5.90220112 1.50300838 11.68835082 2.06389396 17.75170898 2.34936523 C19.37548857 12.5625538 20.03243941 22.51257005 20.15817261 32.84118652 C20.34863114 47.08231613 20.58467685 61.13313253 24.84155273 74.86499023 C26.45074533 81.21564997 25.95947094 87.84936855 25.87670898 94.34936523 C25.86665876 95.71003573 25.85753652 97.07071341 25.84936523 98.43139648 C25.82591718 101.73757171 25.79309755 105.04337404 25.75170898 108.34936523 C22.12170898 108.34936523 18.49170898 108.34936523 14.75170898 108.34936523 C12.11082462 102.98715451 11.26326932 98.67925278 11.09155273 92.73999023 C11.05614883 91.93253357 11.02074493 91.1250769 10.98426819 90.29315186 C10.87326064 87.7288882 10.77985134 85.16442304 10.68920898 82.59936523 C10.27286703 63.47505855 10.27286703 63.47505855 4.75170898 45.34936523 C4.12226908 43.7052248 3.49760785 42.05925012 2.87670898 40.41186523 C-2.71739707 26.69594595 -12.69304342 19.5472598 -25.76000977 12.78686523 C-34.00499394 9.38915619 -42.76264144 8.41222009 -51.62329102 8.03686523 C-57.68868833 7.64635335 -62.69011527 5.403318 -67.24829102 1.34936523 C-67.24829102 0.35936523 -67.24829102 -0.63063477 -67.24829102 -1.65063477 C-45.56819088 -10.98826359 -22.00470411 -5.78816469 0 0 Z " fill="#444242" transform="translate(217.248291015625,150.650634765625)"/>
<path d="M0 0 C1.15000488 -0.00080566 2.30000977 -0.00161133 3.48486328 -0.00244141 C8.16898615 0.02823616 12.75589138 0.12694134 17.40869141 0.68261719 C21.86262109 1.20356016 26.26515681 1.36993265 30.74609375 1.43359375 C32.34831402 1.46647076 33.95052743 1.49968323 35.55273438 1.53320312 C38.04349949 1.58091704 40.5342253 1.62553275 43.02514648 1.66430664 C45.45321451 1.70383939 47.88079325 1.75534801 50.30859375 1.80859375 C51.05749374 1.8170079 51.80639374 1.82542206 52.57798767 1.83409119 C57.83561543 1.96061543 57.83561543 1.96061543 60.0625 4.1875 C61.98993088 4.64317145 61.98993088 4.64317145 64.2109375 4.828125 C65.04608887 4.92569092 65.88124023 5.02325684 66.74169922 5.1237793 C67.63131348 5.22730713 68.52092773 5.33083496 69.4375 5.4375 C79.6920614 6.82421507 88.96395454 8.9442084 95.875 17.25 C97.67879831 19.98988022 98.07749859 20.82753377 97.9375 24.1875 C97.64875 24.8475 97.36 25.5075 97.0625 26.1875 C95.4125 26.1875 93.7625 26.1875 92.0625 26.1875 C91.7325 25.1975 91.4025 24.2075 91.0625 23.1875 C89.94101562 23.09662109 89.94101562 23.09662109 88.796875 23.00390625 C87.81203125 22.92011719 86.8271875 22.83632813 85.8125 22.75 C84.83796875 22.66878906 83.8634375 22.58757812 82.859375 22.50390625 C80.0625 22.1875 80.0625 22.1875 78.109375 21.66796875 C75.26468179 21.00022588 72.48079784 21.0295184 69.5625 20.9375 C61.50370401 20.43171783 55.19564066 17.75407033 48.0625 14.1875 C45.70996865 14.08923064 43.35458202 14.05671731 41 14.0546875 C40.29407715 14.05373077 39.5881543 14.05277405 38.86083984 14.05178833 C37.36116446 14.05110688 35.86148614 14.0529587 34.36181641 14.05712891 C32.0992135 14.06241424 29.83681494 14.05721611 27.57421875 14.05078125 C20.79809798 14.04773507 14.11005712 14.15246978 7.37207031 14.95117188 C3.90901023 15.30553151 0.45027211 15.34892751 -3.02832031 15.42626953 C-45.92061275 16.09155894 -45.92061275 16.09155894 -86.2421875 28.90234375 C-88.9375 30.1875 -88.9375 30.1875 -92.9375 30.1875 C-91.02573529 22.39338235 -91.02573529 22.39338235 -87.9375 20.1875 C-87.03 19.754375 -86.1225 19.32125 -85.1875 18.875 C-82.35635976 17.40498488 -81.0954283 16.41882693 -78.9375 14.25 C-74.77762758 10.52363979 -70.0550146 9.48639033 -64.73046875 8.14453125 C-61.79997367 7.40511694 -58.99214972 6.56627367 -56.12109375 5.640625 C-51.02788839 4.09680587 -46.10475128 3.5103436 -40.8125 3.125 C-38.94772251 2.9724065 -37.0831377 2.81744065 -35.21875 2.66015625 C-34.31382812 2.5842627 -33.40890625 2.50836914 -32.4765625 2.43017578 C-30.29115694 2.22130144 -28.13806145 1.95357899 -25.96875 1.62109375 C-17.27070228 0.29222535 -8.79341062 0.00589608 0 0 Z " fill="#767373" transform="translate(175.9375,263.8125)"/>
<path d="M0 0 C3.4375 1.25 3.4375 1.25 7 3 C13.32346832 18.52641219 7.97775262 43.22448041 2.08984375 58.3359375 C-1.37842289 63.63157044 -8.72356324 66.81184337 -14.62890625 68.53125 C-23.46409065 70.27790919 -31.48681678 68.49601183 -40 66 C-37.76659562 62.64989343 -37.01813997 62.39953503 -33.375 61.125 C-24.48302216 57.76324215 -16.43262441 52.89998568 -11.4375 44.625 C-8.02441009 39.02847844 -8.02441009 39.02847844 -5.8203125 36.45703125 C-3.03146887 31.16062222 -3.44078174 25.95978953 -3.4375 20.0625 C-3.38318301 6.16511069 -3.38318301 6.16511069 0 0 Z " fill="#434141" transform="translate(254,77)"/>
<path d="M0 0 C2.18834385 1.71400868 4.05683185 3.35700211 6 5.3125 C13.54585703 12.73386954 19.78726337 16.04101957 30.375 16.3125 C38.30303569 16.18492241 44.36517238 14.30367197 51 10 C57.6013986 6.28671329 57.6013986 6.28671329 62 7 C63.8125 8.1875 63.8125 8.1875 65 10 C65.5 12.4375 65.5 12.4375 65 15 C62.00844294 17.906084 58.60836448 19.93807744 55 22 C53.9275 22.680625 52.855 23.36125 51.75 24.0625 C41.67677534 29.65635455 27.71818395 29.35158015 16.625 27.1875 C13.00037553 26.00012302 12.47688172 25.51958658 10 23 C9.25363281 22.56429687 8.50726563 22.12859375 7.73828125 21.6796875 C4.20015687 19.50936869 1.2540675 16.90781599 -1.8125 14.125 C-2.7087207 13.34962891 -2.7087207 13.34962891 -3.62304688 12.55859375 C-7.88496057 8.69121149 -7.88496057 8.69121149 -8.4609375 5.23046875 C-8 3 -8 3 -6.8125 1.1875 C-4.26659018 -0.48050988 -3.02007117 -0.44425375 0 0 Z " fill="#030303" transform="translate(149,206)"/>
<path d="M0 0 C3.96 0 7.92 0 12 0 C11.54961229 4.84166786 10.40027839 7.49668287 7 11 C6.34 11 5.68 11 5 11 C4.98018066 11.95366455 4.96036133 12.9073291 4.93994141 13.88989258 C4.86384986 17.42922299 4.77513839 20.96814417 4.68261719 24.50708008 C4.64434202 26.03857339 4.60948651 27.57015615 4.578125 29.10180664 C4.53244193 31.3038733 4.47445463 33.50532496 4.4140625 35.70703125 C4.40251129 36.39150833 4.39096008 37.07598541 4.37905884 37.78120422 C4.26726256 41.38460837 4.05605447 42.9159183 2 46 C1.01 46 0.02 46 -1 46 C-1.14538223 30.63794469 -0.70961582 15.34544206 0 0 Z " fill="#777373" transform="translate(101,77)"/>
<path d="M0 0 C4.95 0.33 9.9 0.66 15 1 C14 6 14 6 12.0625 7.8125 C10 9 10 9 8 9 C7.67 9.99 7.34 10.98 7 12 C4.6875 14.6875 4.6875 14.6875 2 17 C0.68 17 -0.64 17 -2 17 C-1.85786703 15.10388566 -1.71113093 13.20811606 -1.5625 11.3125 C-1.48128906 10.25675781 -1.40007812 9.20101562 -1.31640625 8.11328125 C-1 5 -1 5 0 0 Z " fill="#767272" transform="translate(166,69)"/>
<path d="M0 0 C5.8022175 -0.36263859 9.63999211 0.74315457 15 3 C14.92578125 4.828125 14.92578125 4.828125 14 7 C10.98046875 8.484375 10.98046875 8.484375 7.1875 9.75 C5.94355469 10.17796875 4.69960937 10.6059375 3.41796875 11.046875 C0 12 0 12 -4 12 C-3.45660208 7.43545749 -2.20536179 4.0271824 0 0 Z " fill="#737070" transform="translate(236,73)"/>
<path d="M0 0 C1.8125 1.1875 1.8125 1.1875 3 3 C3.4334014 5.88934264 3.42525784 7.35092224 1.8125 9.8125 C-0.64907776 11.42525784 -2.11065736 11.4334014 -5 11 C-6.8125 9.8125 -6.8125 9.8125 -8 8 C-8.4334014 5.11065736 -8.42525784 3.64907776 -6.8125 1.1875 C-4.35092224 -0.42525784 -2.88934264 -0.4334014 0 0 Z " fill="#070606" transform="translate(200,185)"/>
<path d="M0 0 C1.8125 1.1875 1.8125 1.1875 3 3 C3.4334014 5.88934264 3.42525784 7.35092224 1.8125 9.8125 C-0.64907776 11.42525784 -2.11065736 11.4334014 -5 11 C-6.8125 9.8125 -6.8125 9.8125 -8 8 C-8.4334014 5.11065736 -8.42525784 3.64907776 -6.8125 1.1875 C-4.35092224 -0.42525784 -2.88934264 -0.4334014 0 0 Z " fill="#070606" transform="translate(167,183)"/>
</svg>
