<?xml version="1.0" standalone="no"?>
<!DOCTYPE svg PUBLIC "-//W3C//DTD SVG 20010904//EN"
 "http://www.w3.org/TR/2001/REC-SVG-20010904/DTD/svg10.dtd">
<svg version="1.0" xmlns="http://www.w3.org/2000/svg"
 width="360.000000pt" height="360.000000pt" viewBox="0 0 360.000000 360.000000"
 preserveAspectRatio="xMidYMid meet">

<g transform="translate(0.000000,360.000000) scale(0.100000,-0.100000)"
fill="#000000" stroke="none">
<path d="M1610 2975 c-13 -16 -39 -162 -40 -224 0 -19 -5 -63 -11 -99 l-12
-65 -71 7 c-39 4 -75 11 -80 16 -5 5 -12 57 -17 117 -8 110 -20 157 -52 206
-18 27 -60 37 -72 17 -16 -27 -76 -43 -177 -50 -128 -9 -165 -25 -151 -68 4
-15 6 -129 5 -253 -4 -225 -4 -227 22 -276 13 -27 35 -57 48 -65 13 -9 50 -41
83 -72 33 -31 75 -62 93 -68 24 -9 31 -16 26 -28 -4 -8 -13 -45 -21 -82 -21
-109 -41 -198 -58 -268 -10 -40 -19 -143 -24 -270 -6 -121 -16 -234 -25 -275
-9 -38 -16 -92 -16 -120 0 -77 -11 -126 -29 -132 -53 -16 -79 -31 -117 -64
-24 -21 -52 -40 -63 -44 -30 -9 -72 -71 -87 -128 -8 -29 -14 -100 -14 -158 0
-154 -6 -149 201 -161 90 -6 369 -14 619 -18 250 -5 572 -12 715 -15 270 -8
526 5 551 26 24 20 18 207 -10 314 -28 111 -44 142 -94 186 -50 44 -93 68
-167 93 l-60 21 -6 185 c-3 102 -8 192 -12 200 -24 52 -39 177 -47 405 -5 138
-12 264 -15 282 -7 29 -4 34 21 44 38 15 43 18 106 61 63 43 76 68 114 218 23
96 25 119 22 270 -3 144 -6 169 -23 199 -14 24 -31 37 -55 43 -19 5 -71 20
-115 34 -51 16 -97 24 -125 22 l-45 -3 -42 -80 c-37 -70 -42 -88 -43 -146 0
-80 -10 -91 -86 -97 l-54 -4 0 89 c0 96 -26 204 -60 246 -17 21 -28 22 -197
28 -98 4 -187 9 -199 13 -13 5 -25 2 -34 -9z m-778 -2495 c3 -16 1 -30 -4 -30
-4 0 -8 14 -8 30 0 17 2 30 4 30 2 0 6 -13 8 -30z"/>
</g>
</svg>
