<?xml version="1.0" encoding="UTF-8"?>
<svg version="1.1" xmlns="http://www.w3.org/2000/svg" width="360" height="360">
<path d="M0 0 C2.17908402 -0.002149 4.35762916 -0.02021008 6.53662109 -0.03930664 C36.12755371 -0.16552757 36.12755371 -0.16552757 46.47802734 9.18530273 C46.80802734 10.17530273 47.13802734 11.16530273 47.47802734 12.18530273 C48.46802734 12.51530273 49.45802734 12.84530273 50.47802734 13.18530273 C50.47802734 13.84530273 50.47802734 14.50530273 50.47802734 15.18530273 C51.46802734 15.51530273 52.45802734 15.84530273 53.47802734 16.18530273 C55.39001707 21.89577873 55.80010321 27.19927781 55.72802734 33.18530273 C55.72125977 34.00401855 55.71449219 34.82273438 55.70751953 35.66625977 C55.35099509 57.1199108 55.35099509 57.1199108 49.47802734 64.18530273 C48.19537818 67.4764976 48.19537818 67.4764976 47.29052734 70.93530273 C45.55291034 77.11041974 45.55291034 77.11041974 44.47802734 78.18530273 C45.30302734 78.63905273 46.12802734 79.09280273 46.97802734 79.56030273 C47.80302734 80.09655273 48.62802734 80.63280273 49.47802734 81.18530273 C49.47802734 81.84530273 49.47802734 82.50530273 49.47802734 83.18530273 C50.31140625 83.54108398 50.31140625 83.54108398 51.16162109 83.90405273 C54.02173856 85.48604013 56.14751403 87.46192989 58.54052734 89.68530273 C61.13723069 92.09067004 63.5290904 94.21934477 66.47802734 96.18530273 C67.66537903 102.9951139 66.49146204 110.00389822 63.47802734 116.18530273 C60.87917315 119.56381319 58.49778049 120.89323922 54.47802734 122.18530273 C50.81396484 122.41577148 50.81396484 122.41577148 46.85302734 122.37280273 C45.54076172 122.36635742 44.22849609 122.35991211 42.87646484 122.35327148 C39.47802734 122.18530273 39.47802734 122.18530273 36.47802734 121.18530273 C38.91453289 131.09721465 41.31470266 140.71930121 45.56005859 150.03295898 C46.47802734 152.18530273 46.47802734 152.18530273 46.47802734 154.18530273 C47.46802734 154.51530273 48.45802734 154.84530273 49.47802734 155.18530273 C49.80802734 155.84530273 50.13802734 156.50530273 50.47802734 157.18530273 C51.30302734 157.65967773 52.12802734 158.13405273 52.97802734 158.62280273 C55.47802734 160.18530273 55.47802734 160.18530273 56.47802734 163.18530273 C59.29822114 164.89756325 62.40758606 165.99124223 65.47802734 167.18530273 C65.47802734 167.84530273 65.47802734 168.50530273 65.47802734 169.18530273 C66.30302734 169.24717773 67.12802734 169.30905273 67.97802734 169.37280273 C75.89333137 171.21028403 80.18165143 175.4476866 84.44677734 182.19702148 C85.47802734 184.18530273 85.47802734 184.18530273 85.47802734 186.18530273 C86.46802734 186.51530273 87.45802734 186.84530273 88.47802734 187.18530273 C89.14469401 189.18530273 89.81136068 191.18530273 90.47802734 193.18530273 C91.46802734 193.51530273 92.45802734 193.84530273 93.47802734 194.18530273 C96.47802734 199.40752496 96.47802734 199.40752496 96.47802734 202.18530273 C97.03490234 202.45342773 97.59177734 202.72155273 98.16552734 202.99780273 C98.92865234 203.38967773 99.69177734 203.78155273 100.47802734 204.18530273 C101.30302734 204.51530273 102.12802734 204.84530273 102.97802734 205.18530273 C107.04454131 208.43851391 108.35487178 212.16449379 109.47802734 217.18530273 C110.18595269 224.44629743 110.75198174 232.51953159 107.47802734 239.18530273 C102.05217156 239.95319371 96.82540669 240.33002584 91.34985352 240.27807617 C90.60887767 240.27443935 89.86790182 240.27080254 89.10447216 240.26705551 C83.48108587 240.22639796 77.86620945 240.05906635 72.24687195 239.84246826 C55.35203819 239.19930986 38.46130937 239.09405486 21.55572128 239.05500793 C17.32091781 239.04514007 13.08613656 239.03082752 8.85134888 239.01574707 C5.97886177 239.00577811 3.10637429 238.99591735 0.23388672 238.98608398 C-0.48324438 238.9836094 -1.20037549 238.98113482 -1.93923783 238.97858524 C-10.06783721 238.95104567 -18.19630195 238.93273396 -26.32495117 238.93481445 C-32.88280147 238.93640217 -39.44035001 238.92044059 -45.99810332 238.88410783 C-49.44137873 238.86573238 -52.88414956 238.8562371 -56.32746315 238.86858368 C-60.13342279 238.8781522 -63.93805702 238.85714033 -67.74389648 238.82885742 C-68.86939911 238.83905411 -69.99490173 238.84925079 -71.1545105 238.85975647 C-79.62158552 238.74648856 -79.62158552 238.74648856 -82.73857117 235.80523682 C-84.74986641 232.85051182 -84.96880293 231.67057883 -84.52197266 228.18530273 C-84.43269406 224.45704447 -84.43269406 224.45704447 -84.83447266 221.87280273 C-84.44346695 218.5101537 -82.84189149 216.81852605 -80.81884766 214.19311523 C-78.91533872 211.24611646 -78.17524215 208.16921036 -77.26416016 204.80639648 C-75.36698352 198.1063674 -72.85772942 191.6772613 -68.52197266 186.18530273 C-67.86197266 186.18530273 -67.20197266 186.18530273 -66.52197266 186.18530273 C-66.25384766 185.54592773 -65.98572266 184.90655273 -65.70947266 184.24780273 C-64.52197266 182.18530273 -64.52197266 182.18530273 -61.52197266 181.18530273 C-60.83414057 179.8627638 -60.1700583 178.52776585 -59.52197266 177.18530273 C-55.03396484 172.47605509 -49.47234744 167.89797359 -43.52197266 165.18530273 C-42.20197266 165.18530273 -40.88197266 165.18530273 -39.52197266 165.18530273 C-39.19197266 164.19530273 -38.86197266 163.20530273 -38.52197266 162.18530273 C-37.86197266 162.18530273 -37.20197266 162.18530273 -36.52197266 162.18530273 C-36.25384766 161.21592773 -35.98572266 160.24655273 -35.70947266 159.24780273 C-34.45569011 154.84603378 -32.99552196 150.51753768 -31.52197266 146.18530273 C-30.86197266 146.18530273 -30.20197266 146.18530273 -29.52197266 146.18530273 C-29.27447266 145.13342773 -29.02697266 144.08155273 -28.77197266 142.99780273 C-27.74809079 139.35897079 -26.03813381 137.02612984 -23.52197266 134.18530273 C-22.17105738 131.48347218 -22.18339208 129.06722067 -21.95947266 126.06030273 C-21.87568359 124.96459961 -21.79189453 123.86889648 -21.70556641 122.73999023 C-21.6146875 121.47541992 -21.6146875 121.47541992 -21.52197266 120.18530273 C-22.33988281 120.40186523 -22.33988281 120.40186523 -23.17431641 120.62280273 C-29.74199443 122.23946194 -35.98089309 123.36566259 -42.52197266 121.18530273 C-45.07334992 118.63392547 -44.94485169 116.67111467 -45.14306641 113.17358398 C-45.75657264 109.95425748 -48.21320166 108.37567521 -50.52197266 106.18530273 C-51.27197266 103.74780273 -51.27197266 103.74780273 -50.52197266 101.18530273 C-47.57038348 97.95186419 -44.69060649 95.57484735 -40.52197266 94.18530273 C-39.86197266 93.48405273 -39.20197266 92.78280273 -38.52197266 92.06030273 C-35.16164735 88.49190775 -30.9327847 86.22661876 -26.75244141 83.73608398 C-26.01638672 83.22432617 -25.28033203 82.71256836 -24.52197266 82.18530273 C-24.52197266 79.23326115 -26.152375 77.98326192 -27.95947266 75.68530273 C-31.2166707 71.17231749 -32.30897771 67.94108167 -32.35400391 62.41186523 C-32.54768895 59.84441236 -33.10171926 58.32747895 -34.52197266 56.18530273 C-35.51197266 55.85530273 -36.50197266 55.52530273 -37.52197266 55.18530273 C-40.24379691 40.82987482 -39.10208093 26.69215873 -31.05712891 14.29858398 C-29.09865809 11.602572 -27.02681482 9.38467634 -24.52197266 7.18530273 C-23.95220703 6.65936523 -23.38244141 6.13342773 -22.79541016 5.59155273 C-15.75443963 -0.76030152 -9.18430242 -0.00100949 0 0 Z " fill="#FCFCFC" transform="translate(169.52197265625,85.814697265625)"/>
<path d="M0 0 C3.00849705 1.50424852 3.49825131 3.99650263 5 7 C8.34819953 12.78325373 11.98184844 17.20889758 17.13671875 21.4609375 C19.58667805 23.48459361 21.75338744 25.75338744 24 28 C26.35604225 30.1471102 28.73261109 32.27038746 31.109375 34.39453125 C34.89540325 37.80707293 38.63125047 41.27252189 42.35742188 44.75024414 C43.89504139 46.17820508 45.44294921 47.59326288 47 49 C47.50168701 49.45487793 48.00337402 49.90975586 48.52026367 50.37841797 C55.6406875 56.60028191 63.98946675 58.83069013 73.2265625 59.62890625 C74.3302417 59.72671387 75.4339209 59.82452148 76.57104492 59.92529297 C78.77915527 60.09727865 80.99107993 60.22671103 83.2043457 60.30908203 C90.86722496 60.88068044 90.86722496 60.88068044 94.19921875 64.1730957 C95.98939935 66.71427774 97.51439269 69.27172133 99 72 C102.94645671 78.18293749 106.64790041 83.58337007 112.6875 87.9375 C115.57017315 90.50853281 116.02752192 92.28170148 117 96 C117.1953125 99.4296875 117.1953125 99.4296875 117.125 102.875 C117.10695313 104.02742188 117.08890625 105.17984375 117.0703125 106.3671875 C117.04710937 107.23601562 117.02390625 108.10484375 117 109 C112.49331852 110.15830459 108.13863749 110.04414732 103.52880859 109.89648438 C101.74468237 109.8501194 99.96055339 109.80386056 98.17642212 109.75769043 C97.22076984 109.73093735 96.26511757 109.70418427 95.28050613 109.67662048 C75.24488157 109.12446751 55.20930966 108.86540369 35.16714954 108.73250961 C33.10151966 108.71874971 31.03589375 108.70449473 28.97026825 108.69009399 C17.73833425 108.61204416 6.50635751 108.54104126 -4.72564697 108.47393799 C-12.54655925 108.42716861 -20.36744437 108.37828758 -28.18829787 108.32245111 C-32.80352106 108.28977725 -37.41875323 108.26436866 -42.0340271 108.2401123 C-44.40859188 108.22353869 -46.78315463 108.20666955 -49.15771484 108.18945312 C-50.24912277 108.18526871 -51.3405307 108.18108429 -52.4650116 108.17677307 C-53.450233 108.16842941 -54.43545441 108.16008575 -55.45053101 108.15148926 C-56.31035772 108.14633553 -57.17018444 108.14118179 -58.05606651 108.13587189 C-60 108 -60 108 -61 107 C-61.87814921 99.97480633 -61.08002388 95.28420381 -57.28125 89.375 C-55.79238549 86.6151536 -55.28324245 84.13527685 -54.6875 81.0625 C-53.13915409 74.20802484 -49.66666259 70.09999555 -45 65 C-44.29875 64.16984375 -43.5975 63.3396875 -42.875 62.484375 C-38.25108462 57.0547774 -33.83338462 53.95605814 -27.5625 50.625 C-18.22531256 45.41354654 -13.94921113 39.33150305 -10.7734375 29.2578125 C-9.00881703 24.10654668 -6.43817631 19.61929465 -3.3125 15.1875 C-0.22786211 10.44699821 -0.11191098 5.53450685 0 0 Z " fill="#FEFEFE" transform="translate(155,209)"/>
<path d="M0 0 C2.17908402 -0.002149 4.35762916 -0.02021008 6.53662109 -0.03930664 C36.12755371 -0.16552757 36.12755371 -0.16552757 46.47802734 9.18530273 C46.80802734 10.17530273 47.13802734 11.16530273 47.47802734 12.18530273 C48.46802734 12.51530273 49.45802734 12.84530273 50.47802734 13.18530273 C50.47802734 13.84530273 50.47802734 14.50530273 50.47802734 15.18530273 C51.46802734 15.51530273 52.45802734 15.84530273 53.47802734 16.18530273 C55.39001707 21.89577873 55.80010321 27.19927781 55.72802734 33.18530273 C55.72125977 34.00401855 55.71449219 34.82273438 55.70751953 35.66625977 C55.35099509 57.1199108 55.35099509 57.1199108 49.47802734 64.18530273 C48.19537818 67.4764976 48.19537818 67.4764976 47.29052734 70.93530273 C45.55291034 77.11041974 45.55291034 77.11041974 44.47802734 78.18530273 C45.30302734 78.63905273 46.12802734 79.09280273 46.97802734 79.56030273 C47.80302734 80.09655273 48.62802734 80.63280273 49.47802734 81.18530273 C49.47802734 81.84530273 49.47802734 82.50530273 49.47802734 83.18530273 C50.31140625 83.54108398 50.31140625 83.54108398 51.16162109 83.90405273 C54.02173856 85.48604013 56.14751403 87.46192989 58.54052734 89.68530273 C61.13723069 92.09067004 63.5290904 94.21934477 66.47802734 96.18530273 C67.66537903 102.9951139 66.49146204 110.00389822 63.47802734 116.18530273 C60.87917315 119.56381319 58.49778049 120.89323922 54.47802734 122.18530273 C50.81396484 122.41577148 50.81396484 122.41577148 46.85302734 122.37280273 C45.54076172 122.36635742 44.22849609 122.35991211 42.87646484 122.35327148 C39.47802734 122.18530273 39.47802734 122.18530273 36.47802734 121.18530273 C38.91453289 131.09721465 41.31470266 140.71930121 45.56005859 150.03295898 C46.47802734 152.18530273 46.47802734 152.18530273 46.47802734 154.18530273 C47.46802734 154.51530273 48.45802734 154.84530273 49.47802734 155.18530273 C49.80802734 155.84530273 50.13802734 156.50530273 50.47802734 157.18530273 C51.30302734 157.65967773 52.12802734 158.13405273 52.97802734 158.62280273 C55.47802734 160.18530273 55.47802734 160.18530273 56.47802734 163.18530273 C59.29822114 164.89756325 62.40758606 165.99124223 65.47802734 167.18530273 C65.47802734 167.84530273 65.47802734 168.50530273 65.47802734 169.18530273 C66.30302734 169.24717773 67.12802734 169.30905273 67.97802734 169.37280273 C75.89333137 171.21028403 80.18165143 175.4476866 84.44677734 182.19702148 C85.47802734 184.18530273 85.47802734 184.18530273 85.47802734 186.18530273 C86.46802734 186.51530273 87.45802734 186.84530273 88.47802734 187.18530273 C89.14469401 189.18530273 89.81136068 191.18530273 90.47802734 193.18530273 C91.46802734 193.51530273 92.45802734 193.84530273 93.47802734 194.18530273 C96.47802734 199.40752496 96.47802734 199.40752496 96.47802734 202.18530273 C97.03490234 202.45342773 97.59177734 202.72155273 98.16552734 202.99780273 C98.92865234 203.38967773 99.69177734 203.78155273 100.47802734 204.18530273 C101.30302734 204.51530273 102.12802734 204.84530273 102.97802734 205.18530273 C107.04454131 208.43851391 108.35487178 212.16449379 109.47802734 217.18530273 C110.18595269 224.44629743 110.75198174 232.51953159 107.47802734 239.18530273 C102.05217156 239.95319371 96.82540669 240.33002584 91.34985352 240.27807617 C90.60887767 240.27443935 89.86790182 240.27080254 89.10447216 240.26705551 C83.48108587 240.22639796 77.86620945 240.05906635 72.24687195 239.84246826 C55.35203819 239.19930986 38.46130937 239.09405486 21.55572128 239.05500793 C17.32091781 239.04514007 13.08613656 239.03082752 8.85134888 239.01574707 C5.97886177 239.00577811 3.10637429 238.99591735 0.23388672 238.98608398 C-0.48324438 238.9836094 -1.20037549 238.98113482 -1.93923783 238.97858524 C-10.06783721 238.95104567 -18.19630195 238.93273396 -26.32495117 238.93481445 C-32.88280147 238.93640217 -39.44035001 238.92044059 -45.99810332 238.88410783 C-49.44137873 238.86573238 -52.88414956 238.8562371 -56.32746315 238.86858368 C-60.13342279 238.8781522 -63.93805702 238.85714033 -67.74389648 238.82885742 C-68.86939911 238.83905411 -69.99490173 238.84925079 -71.1545105 238.85975647 C-79.62158552 238.74648856 -79.62158552 238.74648856 -82.73857117 235.80523682 C-84.74986641 232.85051182 -84.96880293 231.67057883 -84.52197266 228.18530273 C-84.43269406 224.45704447 -84.43269406 224.45704447 -84.83447266 221.87280273 C-84.44346695 218.5101537 -82.84189149 216.81852605 -80.81884766 214.19311523 C-78.91533872 211.24611646 -78.17524215 208.16921036 -77.26416016 204.80639648 C-75.36698352 198.1063674 -72.85772942 191.6772613 -68.52197266 186.18530273 C-67.86197266 186.18530273 -67.20197266 186.18530273 -66.52197266 186.18530273 C-66.25384766 185.54592773 -65.98572266 184.90655273 -65.70947266 184.24780273 C-64.52197266 182.18530273 -64.52197266 182.18530273 -61.52197266 181.18530273 C-60.83414057 179.8627638 -60.1700583 178.52776585 -59.52197266 177.18530273 C-55.03396484 172.47605509 -49.47234744 167.89797359 -43.52197266 165.18530273 C-42.20197266 165.18530273 -40.88197266 165.18530273 -39.52197266 165.18530273 C-39.19197266 164.19530273 -38.86197266 163.20530273 -38.52197266 162.18530273 C-37.86197266 162.18530273 -37.20197266 162.18530273 -36.52197266 162.18530273 C-36.25384766 161.21592773 -35.98572266 160.24655273 -35.70947266 159.24780273 C-34.45569011 154.84603378 -32.99552196 150.51753768 -31.52197266 146.18530273 C-30.86197266 146.18530273 -30.20197266 146.18530273 -29.52197266 146.18530273 C-29.27447266 145.13342773 -29.02697266 144.08155273 -28.77197266 142.99780273 C-27.74809079 139.35897079 -26.03813381 137.02612984 -23.52197266 134.18530273 C-22.17105738 131.48347218 -22.18339208 129.06722067 -21.95947266 126.06030273 C-21.87568359 124.96459961 -21.79189453 123.86889648 -21.70556641 122.73999023 C-21.6146875 121.47541992 -21.6146875 121.47541992 -21.52197266 120.18530273 C-22.33988281 120.40186523 -22.33988281 120.40186523 -23.17431641 120.62280273 C-29.74199443 122.23946194 -35.98089309 123.36566259 -42.52197266 121.18530273 C-45.07334992 118.63392547 -44.94485169 116.67111467 -45.14306641 113.17358398 C-45.75657264 109.95425748 -48.21320166 108.37567521 -50.52197266 106.18530273 C-51.27197266 103.74780273 -51.27197266 103.74780273 -50.52197266 101.18530273 C-47.57038348 97.95186419 -44.69060649 95.57484735 -40.52197266 94.18530273 C-39.86197266 93.48405273 -39.20197266 92.78280273 -38.52197266 92.06030273 C-35.16164735 88.49190775 -30.9327847 86.22661876 -26.75244141 83.73608398 C-26.01638672 83.22432617 -25.28033203 82.71256836 -24.52197266 82.18530273 C-24.52197266 79.23326115 -26.152375 77.98326192 -27.95947266 75.68530273 C-31.2166707 71.17231749 -32.30897771 67.94108167 -32.35400391 62.41186523 C-32.54768895 59.84441236 -33.10171926 58.32747895 -34.52197266 56.18530273 C-35.51197266 55.85530273 -36.50197266 55.52530273 -37.52197266 55.18530273 C-40.24379691 40.82987482 -39.10208093 26.69215873 -31.05712891 14.29858398 C-29.09865809 11.602572 -27.02681482 9.38467634 -24.52197266 7.18530273 C-23.95220703 6.65936523 -23.38244141 6.13342773 -22.79541016 5.59155273 C-15.75443963 -0.76030152 -9.18430242 -0.00100949 0 0 Z M-22.27197266 15.12280273 C-23.09955078 16.09540039 -23.09955078 16.09540039 -23.94384766 17.08764648 C-30.44672736 25.7313257 -32.79035619 36.46323396 -31.52197266 47.18530273 C-30.58683395 50.60778315 -29.19508064 53.3827509 -26.89697266 56.12280273 C-25.1693786 58.71419381 -25.23443846 60.98210395 -24.95556641 64.02124023 C-24.17693694 67.90737291 -22.10777294 71.21616278 -19.52197266 74.18530273 C-17.5323511 75.31038529 -17.5323511 75.31038529 -15.52197266 76.18530273 C-13.20947266 78.06030273 -13.20947266 78.06030273 -11.52197266 80.18530273 C-11.60400391 82.13842773 -11.60400391 82.13842773 -12.52197266 84.18530273 C-14.70947266 85.67749023 -14.70947266 85.67749023 -17.52197266 87.06030273 C-25.11385043 90.9745566 -31.54826683 95.0409196 -37.52197266 101.18530273 C-39.83447266 102.49780273 -39.83447266 102.49780273 -41.52197266 103.18530273 C-41.25384766 103.68030273 -40.98572266 104.17530273 -40.70947266 104.68530273 C-39.09275659 108.0889155 -37.84503032 111.65714895 -36.52197266 115.18530273 C-26.62197266 114.19530273 -26.62197266 114.19530273 -16.52197266 113.18530273 C-14.74780275 120.28198237 -13.89497455 129.72962326 -16.46337891 136.76342773 C-17.70970652 138.68566343 -19.06903675 140.41565056 -20.52197266 142.18530273 C-23.23653018 146.54600593 -25.51720891 150.82773252 -27.02197266 155.74780273 C-29.31138494 163.1334209 -32.81205448 168.52048061 -39.60009766 172.36108398 C-40.67517578 172.92375977 -40.67517578 172.92375977 -41.77197266 173.49780273 C-49.38471335 177.73122926 -55.08963225 182.52622678 -60.83447266 189.06030273 C-61.6085144 189.92546509 -61.6085144 189.92546509 -62.39819336 190.80810547 C-66.82328537 195.99892511 -68.69305955 201.0906938 -70.45947266 207.68530273 C-71.33216165 210.56004296 -72.16649643 212.35339583 -73.64697266 214.87280273 C-75.57259195 218.49926817 -75.72260179 221.37453802 -75.63916016 225.45483398 C-75.62224121 226.52967041 -75.60532227 227.60450684 -75.58789062 228.71191406 C-75.5661377 229.52813232 -75.54438477 230.34435059 -75.52197266 231.18530273 C-74.91592666 231.18953467 -74.30988066 231.19376661 -73.68546963 231.19812679 C-58.68097189 231.30313521 -43.67650661 231.41196354 -28.67206478 231.52464199 C-21.4149329 231.57905591 -14.15779653 231.63233265 -6.90063477 231.68261719 C0.81377546 231.73619202 8.52815977 231.79268646 16.24252272 231.85269594 C17.63170288 231.86349946 19.02088371 231.87421839 20.41006517 231.88485289 C41.50576848 232.04709998 62.59442181 232.35792971 83.68312073 232.94615173 C84.59121302 232.96953802 85.49930531 232.99292431 86.43491554 233.01701927 C88.09964217 233.06003304 89.7642634 233.10748183 91.4287014 233.16050148 C95.26194347 233.25653293 98.75447434 233.14146889 102.47802734 232.18530273 C103.14958348 221.68129825 103.14958348 221.68129825 99.47802734 212.18530273 C97.53551237 210.60438146 95.51928935 209.18999454 93.45849609 207.76733398 C90.80576588 205.64828914 89.41180685 203.30962066 87.75146484 200.38452148 C85.7933784 197.00291822 83.49407162 193.87772533 81.21240234 190.70874023 C79.47802734 188.18530273 79.47802734 188.18530273 78.11865234 185.72436523 C74.65317698 179.58843532 71.15975569 177.78989828 64.59912109 175.43920898 C59.6462274 173.44937309 52.95532918 170.13990641 50.47802734 165.18530273 C49.73552734 164.77280273 48.99302734 164.36030273 48.22802734 163.93530273 C37.16455767 156.89491294 33.21146735 140.24625452 30.47802734 128.18530273 C28.72510854 118.29211713 28.72510854 118.29211713 30.71630859 115.36499023 C32.98520537 113.84568463 33.94466366 114.02615756 36.60302734 114.49780273 C44.10056918 115.58105147 50.84745488 116.3801547 57.47802734 112.18530273 C59.17253587 108.20689142 59.98400333 104.48947175 59.47802734 100.18530273 C57.73582763 98.23644448 57.73582763 98.23644448 55.35302734 96.68530273 C54.53576172 96.09362305 53.71849609 95.50194336 52.87646484 94.89233398 C51.68923828 94.04735352 51.68923828 94.04735352 50.47802734 93.18530273 C44.72168217 88.67261238 44.72168217 88.67261238 43.47802734 86.18530273 C38.20950304 83.62160117 33.27930284 82.97975661 27.49755859 83.21264648 C24.84414462 83.17672018 22.81897245 82.39353247 20.47802734 81.18530273 C20.17333984 78.96264648 20.17333984 78.96264648 20.47802734 76.18530273 C22.59521484 73.93920898 22.59521484 73.93920898 25.35302734 71.74780273 C29.43585069 68.49666563 31.20066683 66.28740362 32.47802734 61.18530273 C27.1584573 62.48805458 23.17854898 64.38306868 18.47802734 67.18530273 C12.59989629 69.14467975 4.9140763 69.39479197 -0.96337891 67.32592773 C-3.00496454 66.14956524 -4.84894283 64.85833256 -6.52197266 63.18530273 C-6.70947266 60.74780273 -6.70947266 60.74780273 -6.52197266 58.18530273 C-4.52197266 56.18530273 -4.52197266 56.18530273 -2.08447266 55.93530273 C0.47802734 56.18530273 0.47802734 56.18530273 3.47802734 58.18530273 C10.41722411 59.24528661 15.63352803 57.87722414 21.47802734 54.18530273 C22.06970703 53.8153418 22.66138672 53.44538086 23.27099609 53.06420898 C26.01563429 51.30594189 26.01563429 51.30594189 28.47802734 49.18530273 C30.79052734 48.87280273 30.79052734 48.87280273 33.47802734 49.18530273 C35.79052734 51.18530273 35.79052734 51.18530273 37.47802734 53.18530273 C40.04816075 47.94223058 40.92609064 43.80137839 41.04052734 37.99780273 C41.25998868 29.19496462 41.25998868 29.19496462 43.47802734 26.18530273 C44.46802734 25.85530273 45.45802734 25.52530273 46.47802734 25.18530273 C46.15493803 19.85432907 43.2500401 16.66716066 39.47802734 13.18530273 C29.57912411 5.74389984 14.28383504 6.82256729 2.54052734 6.81030273 C1.27917969 6.78581055 0.01783203 6.76131836 -1.28173828 6.73608398 C-10.52923705 6.70683517 -16.14100817 7.75104781 -22.27197266 15.12280273 Z " fill="#000000" transform="translate(169.52197265625,85.814697265625)"/>
<path d="M0 0 C24.255 0.495 24.255 0.495 49 1 C48.01 2.32 47.02 3.64 46 5 C44.98667756 14.05656934 49.0225324 23.57380941 52 32 C52.59167969 33.68802734 52.59167969 33.68802734 53.1953125 35.41015625 C55.67974122 41.91738512 58.66818451 47.38835864 64 52 C65.485 52.495 65.485 52.495 67 53 C68.0828125 54.11375 68.0828125 54.11375 69.1875 55.25 C73.97950207 59.93551313 79.01421378 62.71565559 85.3125 64.9375 C89.08477463 66.34558408 89.81620487 66.71890157 92.125 70.25 C92.41375 71.1575 92.7025 72.065 93 73 C75.34267932 73.38695397 59.33339874 70.61931267 46.27416992 58.15698242 C44.84847496 56.77232136 43.424202 55.38619661 42 54 C40.6148881 52.75876416 39.22048652 51.52772646 37.8125 50.3125 C34.25737821 47.22845025 30.73915868 44.10502295 27.2265625 40.97265625 C25.12405098 39.10990482 23.00160924 37.27262419 20.875 35.4375 C19.57938904 34.29612844 18.28760225 33.15039873 17 32 C16.3915625 31.45859375 15.783125 30.9171875 15.15625 30.359375 C6.10130739 21.86043764 2.2029375 12.11615623 0 0 Z " fill="#DEDCDC" transform="translate(153,198)"/>
<path d="M0 0 C1.32 0 2.64 0 4 0 C7.21490776 6.42981551 5.00978615 16.45589473 4.25 23.5 C4.11078125 24.8096875 3.9715625 26.119375 3.828125 27.46875 C2.91190791 31.37563798 1.54500219 32.97508311 -1 36 C-2.21328253 39.15693911 -2.21328253 39.15693911 -3.0625 42.5 C-4.24090186 46.82923602 -5.62177756 50.2039911 -8 54 C-8.70670728 56.69254991 -8.70670728 56.69254991 -9 59 C-18.53168636 59.37379162 -18.53168636 59.37379162 -23 57 C-24 56 -24 56 -24.36328125 53.71484375 C-23.85233411 49.89647534 -22.14749297 48.93811668 -19.1875 46.5625 C-15.21363742 43.3570322 -13.03754415 40.70462852 -11 36 C-11.96099609 36.48919922 -11.96099609 36.48919922 -12.94140625 36.98828125 C-14.74336279 37.8986587 -16.55102557 38.79780126 -18.36328125 39.6875 C-20.35209473 40.67748715 -22.30974522 41.73043484 -24.25 42.8125 C-30.57983311 44.81694715 -38.02673524 45.38285195 -44.390625 43.16796875 C-46.9256992 41.74598385 -48.94915655 40.05084345 -51 38 C-51.36487512 35.15397406 -51.40199375 33.6135694 -49.8125 31.1875 C-47.37235669 29.58878542 -45.86722793 29.64159651 -43 30 C-42.01 30.66 -41.02 31.32 -40 32 C-33.06080323 33.05998388 -27.84449932 31.69192141 -22 28 C-21.40832031 27.63003906 -20.81664062 27.26007813 -20.20703125 26.87890625 C-17.46239305 25.12063916 -17.46239305 25.12063916 -15 23 C-12.625 22.75 -12.625 22.75 -10 23 C-8.1875 24.5 -8.1875 24.5 -7 26 C-3.89728053 21.77502029 -3.5656433 18.08266664 -3.5 13 C-3.38294394 3.93651659 -3.38294394 3.93651659 0 0 Z " fill="#DDDBDB" transform="translate(213,111)"/>
<path d="M0 0 C2.625 0.25 2.625 0.25 4.4375 1.4375 C5.625 3.25 5.625 3.25 6.1875 5.5625 C5.33575284 9.63195864 2.80445927 11.80633916 -0.375 14.25 C-2.95851418 15.80532773 -5.62204658 17.02827511 -8.375 18.25 C-9.40625 18.8275 -10.4375 19.405 -11.5 20 C-17.49121304 22.49863954 -25.68404422 22.53459736 -31.765625 20.41796875 C-34.3006992 18.99598385 -36.32415655 17.30084345 -38.375 15.25 C-38.73987512 12.40397406 -38.77699375 10.8635694 -37.1875 8.4375 C-34.74735669 6.83878542 -33.24222793 6.89159651 -30.375 7.25 C-29.385 7.91 -28.395 8.57 -27.375 9.25 C-20.43580323 10.30998388 -15.21949932 8.94192141 -9.375 5.25 C-8.78332031 4.88003906 -8.19164062 4.51007813 -7.58203125 4.12890625 C-1.45014384 0.15264672 -1.45014384 0.15264672 0 0 Z " fill="#020202" transform="translate(200.375,133.75)"/>
<path d="M0 0 C5.46502928 0.38128111 7.36972024 2.01554661 11 6 C12.17254429 7.05847324 13.36081366 8.09973144 14.5625 9.125 C15.15160156 9.63675781 15.74070313 10.14851562 16.34765625 10.67578125 C18.05474995 12.13025044 18.05474995 12.13025044 20.5 13.3125 C22 15 22 15 22.0859375 17.0390625 C21.73020838 21.08383435 21.15805329 24.49983582 19 28 C11.29811975 31.75701476 2.94474168 30.10357226 -5 28 C-4.67 27.34 -4.34 26.68 -4 26 C-1.9375 25.375 -1.9375 25.375 0 25 C0.8723255 21.22457523 1.16344601 17.68519302 1.1875 13.8125 C1.20167969 12.76707031 1.21585938 11.72164062 1.23046875 10.64453125 C1.27191489 7.84321779 1.27191489 7.84321779 -1 6 C-0.625 2.875 -0.625 2.875 0 0 Z " fill="#DDDBDB" transform="translate(207,171)"/>
<path d="M0 0 C1.875 1.0625 1.875 1.0625 3 3 C2.6875 6.6875 2.6875 6.6875 2 10 C-4.42548263 11.33359073 -4.42548263 11.33359073 -6.9375 9.875 C-8.36066991 7.36352369 -8.42674516 5.84496772 -8 3 C-5.85607122 -0.27231235 -3.76836426 -0.56525464 0 0 Z " fill="#070707" transform="translate(172,115)"/>
<path d="M0 0 C1.875 1.0625 1.875 1.0625 3 3 C2.6875 6.6875 2.6875 6.6875 2 10 C-4.42548263 11.33359073 -4.42548263 11.33359073 -6.9375 9.875 C-8.36066991 7.36352369 -8.42674516 5.84496772 -8 3 C-5.85607122 -0.27231235 -3.76836426 -0.56525464 0 0 Z " fill="#070707" transform="translate(193,114)"/>
</svg>
