<?xml version="1.0" encoding="UTF-8"?>
<svg version="1.1" xmlns="http://www.w3.org/2000/svg" width="360" height="360">
<path d="M0 0 C1.13115234 0.69609375 1.13115234 0.69609375 2.28515625 1.40625 C3.10306641 1.94765625 3.10306641 1.94765625 3.9375 2.5 C3.9375 3.16 3.9375 3.82 3.9375 4.5 C5.113125 4.7784375 5.113125 4.7784375 6.3125 5.0625 C10.54796709 6.74208178 13.81074451 9.06763382 17.47265625 11.74609375 C19.93803642 13.56293024 19.93803642 13.56293024 22.74609375 15.09765625 C23.46925781 15.56042969 24.19242188 16.02320312 24.9375 16.5 C24.9375 17.16 24.9375 17.82 24.9375 18.5 C25.9275 18.83 26.9175 19.16 27.9375 19.5 C29.83382909 22.13795685 31.17591304 25.09720379 32.625 28 C33.04072266 28.77859375 33.45644531 29.5571875 33.88476562 30.359375 C36.56608401 35.67798356 38.0798582 40.52207078 36.9375 46.5 C35.80416159 48.55436018 34.51180217 50.38438076 33.16015625 52.30078125 C31.70581407 54.91673859 31.37991983 57.03662533 31 60 C30.28622422 65.36018161 28.86572501 70.13860357 27 75.1875 C26.74677979 75.89519531 26.49355957 76.60289062 26.23266602 77.33203125 C25.56081526 79.09313056 24.75783473 80.80297167 23.9375 82.5 C22.9475 82.83 21.9575 83.16 20.9375 83.5 C19.85381958 85.91744093 19.80353878 87.09437441 20.63671875 89.6171875 C21.06597656 90.23851562 21.49523437 90.85984375 21.9375 91.5 C24.09818998 91.94208624 24.09818998 91.94208624 26.5625 91.8125 C32.89189919 92.20410312 35.68563414 95.0815662 39.9375 99.5 C40.61425781 100.1084375 41.29101562 100.716875 41.98828125 101.34375 C46.75577719 105.70041964 46.75577719 105.70041964 47.5625 109.25 C46.80589785 111.97376774 46.29660691 112.92726206 43.9375 114.5 C40.75 115.1875 40.75 115.1875 37.9375 115.5 C37.82792969 116.19867188 37.71835938 116.89734375 37.60546875 117.6171875 C37.44691406 118.52726562 37.28835937 119.43734375 37.125 120.375 C36.89876953 121.73238281 36.89876953 121.73238281 36.66796875 123.1171875 C35.9375 125.5 35.9375 125.5 32.9375 127.5 C30.31739373 127.96287592 27.76351202 128.33316096 25.125 128.625 C24.42568359 128.71136719 23.72636719 128.79773438 23.00585938 128.88671875 C18.96218655 129.363335 15.00742267 129.58944885 10.9375 129.5 C11.51757812 130.51707031 11.51757812 130.51707031 12.109375 131.5546875 C20.04011954 145.72794879 20.04011954 145.72794879 21.35546875 152.72265625 C21.64357422 153.60244141 21.64357422 153.60244141 21.9375 154.5 C22.9275 154.83 23.9175 155.16 24.9375 155.5 C26.69140625 157.390625 26.69140625 157.390625 28.5 159.75 C29.09941406 160.51828125 29.69882813 161.2865625 30.31640625 162.078125 C31.9375 164.5 31.9375 164.5 32.96484375 167.234375 C33.44630859 168.35585938 33.44630859 168.35585938 33.9375 169.5 C34.9275 169.83 35.9175 170.16 36.9375 170.5 C36.9375 171.16 36.9375 171.82 36.9375 172.5 C37.61039063 172.74492187 38.28328125 172.98984375 38.9765625 173.2421875 C48.34129318 177.22034486 58.3208915 182.77592081 63.9375 191.5 C64.60416667 193.16666667 65.27083333 194.83333333 65.9375 196.5 C67.65463423 198.51594926 69.43833345 200.43835994 71.28125 202.33984375 C75.49324622 207.83331996 75.30423697 214.12270528 75.5 220.75 C75.55981556 222.54701212 75.62342938 224.34390309 75.69140625 226.140625 C75.72729858 227.32446777 75.72729858 227.32446777 75.76391602 228.53222656 C75.8230093 230.57675893 75.8230093 230.57675893 76.9375 232.5 C77.30254526 236.36947977 77.34801827 238.75271821 75.45809937 242.19300842 C71.94755124 245.40605571 68.82082272 245.18116535 64.29541016 245.09936523 C63.42308243 245.10330795 62.5507547 245.10725067 61.6519928 245.11131287 C58.75960264 245.11803762 55.86878492 245.08878889 52.9765625 245.05859375 C50.94990341 245.05433823 48.92323943 245.05201447 46.89657593 245.05152893 C42.6342782 245.04535316 38.37250374 245.0226338 34.11035156 244.98706055 C28.71153844 244.94230594 23.31320611 244.92706155 17.91422462 244.92332363 C13.71676084 244.91883325 9.51939315 244.90341537 5.32197189 244.8844471 C3.33616281 244.87570394 1.35034397 244.86890874 -0.63547897 244.86428642 C-13.73277919 244.82100749 -26.61607481 244.06680224 -39.64427567 242.73318672 C-50.34269535 241.70154984 -60.99903048 241.43249123 -71.7421875 241.54296875 C-72.73970032 241.55304962 -73.73721313 241.56313049 -74.76495361 241.57351685 C-78.8756491 241.61942632 -82.98595042 241.66962811 -87.09619141 241.74682617 C-90.144935 241.80107344 -93.19308436 241.83029186 -96.2421875 241.85546875 C-97.63581009 241.89114204 -97.63581009 241.89114204 -99.05758667 241.92753601 C-105.40960137 241.95353026 -105.40960137 241.95353026 -108.61376953 239.7277832 C-110.98400291 236.08296023 -111.18933564 233.07801659 -111.1953125 228.796875 C-111.19724609 227.44916016 -111.19724609 227.44916016 -111.19921875 226.07421875 C-111.19341797 224.67623047 -111.19341797 224.67623047 -111.1875 223.25 C-111.19136719 222.33347656 -111.19523437 221.41695312 -111.19921875 220.47265625 C-111.17889915 206.22861804 -111.17889915 206.22861804 -108.125 201.5 C-106.0625 199.5 -106.0625 199.5 -104.0625 199.5 C-103.835625 198.7575 -103.60875 198.015 -103.375 197.25 C-99.23809483 188.5821987 -84.41406431 181.03141099 -76.08984375 176.64453125 C-69.09417271 172.69514471 -62.94570672 168.0561997 -59.96875 160.484375 C-58.53614776 157.3474701 -56.56354679 154.61066771 -54.6171875 151.7734375 C-53.13424084 149.60490746 -51.70997238 147.41187912 -50.3125 145.1875 C-49.92578125 144.57261719 -49.5390625 143.95773438 -49.140625 143.32421875 C-48.78484375 142.72222656 -48.4290625 142.12023437 -48.0625 141.5 C-47.68867188 140.92378906 -47.31484375 140.34757813 -46.9296875 139.75390625 C-45.66143732 136.45759836 -45.85209486 133.22533243 -45.9375 129.75 C-45.94652344 129.05261719 -45.95554687 128.35523438 -45.96484375 127.63671875 C-45.98830112 125.92433042 -46.02416896 124.21211996 -46.0625 122.5 C-48.72923742 122.47272655 -51.39568869 122.45303052 -54.0625 122.4375 C-54.80628906 122.42912109 -55.55007812 122.42074219 -56.31640625 122.41210938 C-61.33094103 122.39030705 -66.09396815 122.83165734 -71.0625 123.5 C-72.70689413 123.58044518 -74.3536495 123.63078682 -76 123.625 C-77.12728516 123.62886719 -77.12728516 123.62886719 -78.27734375 123.6328125 C-80.0625 123.5 -80.0625 123.5 -81.0625 122.5 C-81.3125 120.1875 -81.3125 120.1875 -81.0625 117.5 C-80.54558594 116.88640625 -80.02867188 116.2728125 -79.49609375 115.640625 C-77.81351394 113.59533408 -77.81351394 113.59533408 -78.20703125 111.09765625 C-78.42746094 110.26105469 -78.64789063 109.42445313 -78.875 108.5625 C-79.75344489 105.11793126 -80.46655823 102.06415541 -80.0625 98.5 C-77.02596762 96.47564508 -76.29777428 96.2825082 -72.875 96.125 C-65.14321562 95.39582359 -60.33214669 92.07962591 -55.0625 86.5 C-54.4025 86.5 -53.7425 86.5 -53.0625 86.5 C-53.0625 85.84 -53.0625 85.18 -53.0625 84.5 C-53.9596875 84.13261719 -53.9596875 84.13261719 -54.875 83.7578125 C-58.85866001 81.46720799 -60.74337258 77.35694453 -63.0625 73.5 C-63.48273438 72.82195312 -63.90296875 72.14390625 -64.3359375 71.4453125 C-69.04324606 63.13240589 -66.97644065 52.83289662 -66.375 43.625 C-66.29475586 41.96404297 -66.29475586 41.96404297 -66.21289062 40.26953125 C-65.6812495 32.40124256 -63.75834281 26.4396081 -60.0625 19.5 C-59.56105469 18.47003906 -59.05960938 17.44007812 -58.54296875 16.37890625 C-55.24148647 10.4641661 -52.44723513 7.70088139 -46.0625 5.5 C-45.24523437 5.17773438 -44.42796875 4.85546875 -43.5859375 4.5234375 C-37.15206316 2.14924725 -30.57719025 0.63444358 -23.875 -0.75 C-23.04387695 -0.9253125 -22.21275391 -1.100625 -21.35644531 -1.28125 C-6.59286364 -4.18594517 -6.59286364 -4.18594517 0 0 Z M-52.0625 74.5 C-51.0625 76.5 -51.0625 76.5 -51.0625 76.5 Z " fill="#FDFDFD" transform="translate(198.0625,81.5)"/>
<path d="M0 0 C0.99 0.495 0.99 0.495 2 1 C2 1.66 2 2.32 2 3 C2.66 3 3.32 3 4 3 C5.72718189 4.62848578 7.3647644 6.28257001 9 8 C15.35815551 14.52874017 22.03882887 20.47182238 29.1875 26.125 C37.14167199 32.47863738 42.86710484 39.54269875 47.9375 48.375 C50.34963313 51.44498761 52.4633111 52.43067669 55.9609375 53.99609375 C59.1336681 55.55814694 61.43978372 57.56779454 64 60 C64 60.66 64 61.32 64 62 C65.04800781 62.19335938 66.09601563 62.38671875 67.17578125 62.5859375 C68.55475593 62.84859934 69.93365849 63.11164 71.3125 63.375 C72.00279297 63.50132812 72.69308594 63.62765625 73.40429688 63.7578125 C76.83703314 64.42114318 79.05246458 65.03497639 82 67 C82.9075 66.7525 83.815 66.505 84.75 66.25 C88.41199493 65.96830808 88.96554572 66.27374698 91.75 68.4375 C94.38235541 70.89705308 95.46063247 72.73144654 96.1875 76.25 C96.5896875 78.10625 96.5896875 78.10625 97 80 C98.84982472 81.25827123 98.84982472 81.25827123 101 82 C105.09215795 86.44291434 106.05545466 89.72549618 106.28125 95.625 C106.33732422 96.93210937 106.33732422 96.93210937 106.39453125 98.265625 C106.46484375 100.08854167 106.53515625 101.91145833 106.60546875 103.734375 C106.66154297 105.04148437 106.66154297 105.04148437 106.71875 106.375 C106.74904297 107.16648437 106.77933594 107.95796875 106.81054688 108.7734375 C106.99546154 110.9466614 107.40906365 112.90420953 108 115 C104.11553436 116.26163372 100.22124481 116.14774777 96.18408203 116.14526367 C95.39953644 116.14862228 94.61499084 116.1519809 93.80667114 116.15544128 C91.20703548 116.16495122 88.6074645 116.1668959 86.0078125 116.16796875 C84.18293228 116.17118657 82.3580523 116.17455103 80.53317261 116.17805481 C76.69479782 116.18404989 72.85644554 116.18589485 69.01806641 116.18530273 C65.12153416 116.1852221 61.22512103 116.19205855 57.32861328 116.20581055 C18.26497144 116.34181197 18.26497144 116.34181197 0.2130127 114.24035645 C-14.33840743 112.65991923 -29.01172998 112.87532086 -43.625 112.9375 C-45.71093641 112.94253144 -47.79687401 112.9470914 -49.8828125 112.95117188 C-54.92190524 112.96203254 -59.96093888 112.97920387 -65 113 C-66.25940976 109.22177072 -66.14517402 105.68393314 -66.125 101.75 C-66.12886719 101.01136719 -66.13273437 100.27273438 -66.13671875 99.51171875 C-66.11549242 87.47638702 -66.11549242 87.47638702 -63.40625 83.890625 C-62.7771875 83.34921875 -62.148125 82.8078125 -61.5 82.25 C-58.532195 79.65684334 -58.532195 79.65684334 -57 76 C-55.25 74.60546875 -55.25 74.60546875 -53 73.1875 C-52.18144531 72.66414063 -51.36289063 72.14078125 -50.51953125 71.6015625 C-49.68808594 71.07304687 -48.85664062 70.54453125 -48 70 C-46.56081209 69.02331593 -45.12328092 68.04418567 -43.6875 67.0625 C-40.14731237 64.6899532 -36.51407926 62.54877114 -32.8125 60.4375 C-28.45569755 57.93206144 -24.73181809 55.34906751 -21 52 C-20.01 51.34 -19.02 50.68 -18 50 C-16.94549199 47.86112391 -16.94549199 47.86112391 -16.125 45.375 C-14.27016084 40.4663762 -11.90204138 36.34867832 -9 32 C-8.11946078 30.62854068 -7.24441784 29.2535364 -6.375 27.875 C-5.99085938 27.27429688 -5.60671875 26.67359375 -5.2109375 26.0546875 C-4.81132812 25.37664062 -4.41171875 24.69859375 -4 24 C-3.47019531 23.1234375 -2.94039062 22.246875 -2.39453125 21.34375 C-0.59995069 17.04077812 -0.44135834 13.24181039 -0.3125 8.625 C-0.27833984 7.79355469 -0.24417969 6.96210938 -0.20898438 6.10546875 C-0.12712854 4.07076649 -0.06187299 2.03540792 0 0 Z " fill="#FEFEFE" transform="translate(160,203)"/>
<path d="M0 0 C1.13115234 0.69609375 1.13115234 0.69609375 2.28515625 1.40625 C3.10306641 1.94765625 3.10306641 1.94765625 3.9375 2.5 C3.9375 3.16 3.9375 3.82 3.9375 4.5 C5.113125 4.7784375 5.113125 4.7784375 6.3125 5.0625 C10.54796709 6.74208178 13.81074451 9.06763382 17.47265625 11.74609375 C19.93803642 13.56293024 19.93803642 13.56293024 22.74609375 15.09765625 C23.46925781 15.56042969 24.19242188 16.02320312 24.9375 16.5 C24.9375 17.16 24.9375 17.82 24.9375 18.5 C25.9275 18.83 26.9175 19.16 27.9375 19.5 C29.83382909 22.13795685 31.17591304 25.09720379 32.625 28 C33.04072266 28.77859375 33.45644531 29.5571875 33.88476562 30.359375 C36.56608401 35.67798356 38.0798582 40.52207078 36.9375 46.5 C35.80416159 48.55436018 34.51180217 50.38438076 33.16015625 52.30078125 C31.70581407 54.91673859 31.37991983 57.03662533 31 60 C30.28622422 65.36018161 28.86572501 70.13860357 27 75.1875 C26.74677979 75.89519531 26.49355957 76.60289062 26.23266602 77.33203125 C25.56081526 79.09313056 24.75783473 80.80297167 23.9375 82.5 C22.9475 82.83 21.9575 83.16 20.9375 83.5 C19.85381958 85.91744093 19.80353878 87.09437441 20.63671875 89.6171875 C21.06597656 90.23851562 21.49523437 90.85984375 21.9375 91.5 C24.09818998 91.94208624 24.09818998 91.94208624 26.5625 91.8125 C32.89189919 92.20410312 35.68563414 95.0815662 39.9375 99.5 C40.61425781 100.1084375 41.29101562 100.716875 41.98828125 101.34375 C46.75577719 105.70041964 46.75577719 105.70041964 47.5625 109.25 C46.80589785 111.97376774 46.29660691 112.92726206 43.9375 114.5 C40.75 115.1875 40.75 115.1875 37.9375 115.5 C37.82792969 116.19867188 37.71835938 116.89734375 37.60546875 117.6171875 C37.44691406 118.52726562 37.28835937 119.43734375 37.125 120.375 C36.89876953 121.73238281 36.89876953 121.73238281 36.66796875 123.1171875 C35.9375 125.5 35.9375 125.5 32.9375 127.5 C30.31739373 127.96287592 27.76351202 128.33316096 25.125 128.625 C24.42568359 128.71136719 23.72636719 128.79773438 23.00585938 128.88671875 C18.96218655 129.363335 15.00742267 129.58944885 10.9375 129.5 C11.51757812 130.51707031 11.51757812 130.51707031 12.109375 131.5546875 C20.04011954 145.72794879 20.04011954 145.72794879 21.35546875 152.72265625 C21.64357422 153.60244141 21.64357422 153.60244141 21.9375 154.5 C22.9275 154.83 23.9175 155.16 24.9375 155.5 C26.69140625 157.390625 26.69140625 157.390625 28.5 159.75 C29.09941406 160.51828125 29.69882813 161.2865625 30.31640625 162.078125 C31.9375 164.5 31.9375 164.5 32.96484375 167.234375 C33.44630859 168.35585938 33.44630859 168.35585938 33.9375 169.5 C34.9275 169.83 35.9175 170.16 36.9375 170.5 C36.9375 171.16 36.9375 171.82 36.9375 172.5 C37.61039063 172.74492187 38.28328125 172.98984375 38.9765625 173.2421875 C48.34129318 177.22034486 58.3208915 182.77592081 63.9375 191.5 C64.60416667 193.16666667 65.27083333 194.83333333 65.9375 196.5 C67.65463423 198.51594926 69.43833345 200.43835994 71.28125 202.33984375 C75.49324622 207.83331996 75.30423697 214.12270528 75.5 220.75 C75.55981556 222.54701212 75.62342938 224.34390309 75.69140625 226.140625 C75.72729858 227.32446777 75.72729858 227.32446777 75.76391602 228.53222656 C75.8230093 230.57675893 75.8230093 230.57675893 76.9375 232.5 C77.30254526 236.36947977 77.34801827 238.75271821 75.45809937 242.19300842 C71.94755124 245.40605571 68.82082272 245.18116535 64.29541016 245.09936523 C63.42308243 245.10330795 62.5507547 245.10725067 61.6519928 245.11131287 C58.75960264 245.11803762 55.86878492 245.08878889 52.9765625 245.05859375 C50.94990341 245.05433823 48.92323943 245.05201447 46.89657593 245.05152893 C42.6342782 245.04535316 38.37250374 245.0226338 34.11035156 244.98706055 C28.71153844 244.94230594 23.31320611 244.92706155 17.91422462 244.92332363 C13.71676084 244.91883325 9.51939315 244.90341537 5.32197189 244.8844471 C3.33616281 244.87570394 1.35034397 244.86890874 -0.63547897 244.86428642 C-13.73277919 244.82100749 -26.61607481 244.06680224 -39.64427567 242.73318672 C-50.34269535 241.70154984 -60.99903048 241.43249123 -71.7421875 241.54296875 C-72.73970032 241.55304962 -73.73721313 241.56313049 -74.76495361 241.57351685 C-78.8756491 241.61942632 -82.98595042 241.66962811 -87.09619141 241.74682617 C-90.144935 241.80107344 -93.19308436 241.83029186 -96.2421875 241.85546875 C-97.63581009 241.89114204 -97.63581009 241.89114204 -99.05758667 241.92753601 C-105.40960137 241.95353026 -105.40960137 241.95353026 -108.61376953 239.7277832 C-110.98400291 236.08296023 -111.18933564 233.07801659 -111.1953125 228.796875 C-111.19724609 227.44916016 -111.19724609 227.44916016 -111.19921875 226.07421875 C-111.19341797 224.67623047 -111.19341797 224.67623047 -111.1875 223.25 C-111.19136719 222.33347656 -111.19523437 221.41695312 -111.19921875 220.47265625 C-111.17889915 206.22861804 -111.17889915 206.22861804 -108.125 201.5 C-106.0625 199.5 -106.0625 199.5 -104.0625 199.5 C-103.835625 198.7575 -103.60875 198.015 -103.375 197.25 C-99.23809483 188.5821987 -84.41406431 181.03141099 -76.08984375 176.64453125 C-69.09417271 172.69514471 -62.94570672 168.0561997 -59.96875 160.484375 C-58.53614776 157.3474701 -56.56354679 154.61066771 -54.6171875 151.7734375 C-53.13424084 149.60490746 -51.70997238 147.41187912 -50.3125 145.1875 C-49.92578125 144.57261719 -49.5390625 143.95773438 -49.140625 143.32421875 C-48.78484375 142.72222656 -48.4290625 142.12023437 -48.0625 141.5 C-47.68867188 140.92378906 -47.31484375 140.34757813 -46.9296875 139.75390625 C-45.66143732 136.45759836 -45.85209486 133.22533243 -45.9375 129.75 C-45.94652344 129.05261719 -45.95554687 128.35523438 -45.96484375 127.63671875 C-45.98830112 125.92433042 -46.02416896 124.21211996 -46.0625 122.5 C-48.72923742 122.47272655 -51.39568869 122.45303052 -54.0625 122.4375 C-54.80628906 122.42912109 -55.55007812 122.42074219 -56.31640625 122.41210938 C-61.33094103 122.39030705 -66.09396815 122.83165734 -71.0625 123.5 C-72.70689413 123.58044518 -74.3536495 123.63078682 -76 123.625 C-77.12728516 123.62886719 -77.12728516 123.62886719 -78.27734375 123.6328125 C-80.0625 123.5 -80.0625 123.5 -81.0625 122.5 C-81.3125 120.1875 -81.3125 120.1875 -81.0625 117.5 C-80.54558594 116.88640625 -80.02867188 116.2728125 -79.49609375 115.640625 C-77.81351394 113.59533408 -77.81351394 113.59533408 -78.20703125 111.09765625 C-78.42746094 110.26105469 -78.64789063 109.42445313 -78.875 108.5625 C-79.75344489 105.11793126 -80.46655823 102.06415541 -80.0625 98.5 C-77.02596762 96.47564508 -76.29777428 96.2825082 -72.875 96.125 C-65.14321562 95.39582359 -60.33214669 92.07962591 -55.0625 86.5 C-54.4025 86.5 -53.7425 86.5 -53.0625 86.5 C-53.0625 85.84 -53.0625 85.18 -53.0625 84.5 C-53.9596875 84.13261719 -53.9596875 84.13261719 -54.875 83.7578125 C-58.85866001 81.46720799 -60.74337258 77.35694453 -63.0625 73.5 C-63.48273438 72.82195312 -63.90296875 72.14390625 -64.3359375 71.4453125 C-69.04324606 63.13240589 -66.97644065 52.83289662 -66.375 43.625 C-66.29475586 41.96404297 -66.29475586 41.96404297 -66.21289062 40.26953125 C-65.6812495 32.40124256 -63.75834281 26.4396081 -60.0625 19.5 C-59.56105469 18.47003906 -59.05960938 17.44007812 -58.54296875 16.37890625 C-55.24148647 10.4641661 -52.44723513 7.70088139 -46.0625 5.5 C-45.24523437 5.17773438 -44.42796875 4.85546875 -43.5859375 4.5234375 C-37.15206316 2.14924725 -30.57719025 0.63444358 -23.875 -0.75 C-23.04387695 -0.9253125 -22.21275391 -1.100625 -21.35644531 -1.28125 C-6.59286364 -4.18594517 -6.59286364 -4.18594517 0 0 Z M-50.2421875 16.5703125 C-51.84018148 18.8520253 -52.95597206 20.94210151 -54.0625 23.5 C-54.38202637 24.07935303 -54.70155273 24.65870605 -55.03076172 25.25561523 C-58.43514149 31.84471234 -59.08463512 38.57569417 -59.54833984 45.87426758 C-59.68729864 47.93451457 -59.87942626 49.98539062 -60.07421875 52.04101562 C-60.76446914 60.86626476 -59.62823232 66.51556857 -54.0625 73.5 C-53.63598145 74.09014893 -53.20946289 74.68029785 -52.77001953 75.28833008 C-50.693635 78.01668088 -48.691985 79.74225981 -45.8125 81.625 C-43.0625 83.5 -43.0625 83.5 -42.1875 85.75 C-42.14625 86.3275 -42.105 86.905 -42.0625 87.5 C-43.37734375 88.10328125 -43.37734375 88.10328125 -44.71875 88.71875 C-48.09217996 90.51581082 -50.67385957 92.50979274 -53.5625 95 C-59.4374216 100.06458759 -64.27647646 102.72139765 -72.0625 103.5 C-72.2765723 107.99551832 -71.56371825 111.28004004 -70.0625 115.5 C-69.30630371 115.48952637 -68.55010742 115.47905273 -67.77099609 115.46826172 C-64.32653155 115.42654584 -60.8821203 115.40062417 -57.4375 115.375 C-56.24769531 115.35824219 -55.05789062 115.34148437 -53.83203125 115.32421875 C-52.67832031 115.31777344 -51.52460938 115.31132812 -50.3359375 115.3046875 C-48.74918213 115.28897705 -48.74918213 115.28897705 -47.13037109 115.27294922 C-43.82886112 115.51729143 -41.14837237 116.33117023 -38.0625 117.5 C-37.90495585 132.3111439 -38.43182147 143.16720414 -48.12890625 155.02734375 C-50.01843945 157.4436559 -51.35335935 159.74564512 -52.6875 162.5 C-53.09226563 163.325 -53.49703125 164.15 -53.9140625 165 C-55.1039225 167.50468864 -55.1039225 167.50468864 -56.0546875 170.1953125 C-57.24010964 172.90616159 -58.67227693 173.83999976 -61.16796875 175.33984375 C-63.48956705 176.76152353 -65.66592943 178.34683176 -67.875 179.9375 C-71.00559007 182.14293061 -74.11800984 184.14346938 -77.5 185.9375 C-82.24787479 188.472526 -86.47395746 191.60815101 -90.77734375 194.828125 C-93.0625 196.5 -93.0625 196.5 -95.0625 197.5 C-95.495625 198.2425 -95.92875 198.985 -96.375 199.75 C-98.0625 202.5 -98.0625 202.5 -100.6875 204.875 C-105.12900847 209.78403568 -104.22067847 216.91291259 -104.1875 223.25 C-104.19136719 224.00410156 -104.19523437 224.75820313 -104.19921875 225.53515625 C-104.19345167 228.78202205 -104.09620978 231.39887065 -103.0625 234.5 C-101.8564209 234.48952637 -100.6503418 234.47905273 -99.40771484 234.46826172 C-46.41312083 234.04899807 -46.41312083 234.04899807 -26.17053223 236.75270081 C-16.83972631 237.9019397 -7.43832984 237.62434732 1.9453125 237.59765625 C3.88158125 237.5957884 5.81785048 237.59436623 7.75411987 237.59336853 C12.82077364 237.58957228 17.8873982 237.57976705 22.95404053 237.56866455 C28.136023 237.55838789 33.31801025 237.55385757 38.5 237.54882812 C48.64584608 237.53814188 58.7916706 237.52110066 68.9375 237.5 C69.2675 236.51 69.5975 235.52 69.9375 234.5 C69.6075 233.84 69.2775 233.18 68.9375 232.5 C68.82127395 231.06156775 68.75893062 229.61853838 68.7265625 228.17578125 C68.69820312 227.31146484 68.66984375 226.44714844 68.640625 225.55664062 C68.58910318 223.74693669 68.54467194 221.93701506 68.5078125 220.12695312 C68.26864938 213.39550782 67.35176656 208.35322411 62.875 203.0625 C61.09286873 201.29074918 61.09286873 201.29074918 58.9375 201.5 C58.79054688 200.90832031 58.64359375 200.31664062 58.4921875 199.70703125 C56.88369113 194.04031702 54.99424994 190.70260829 49.9375 187.5 C48.7309375 186.7265625 48.7309375 186.7265625 47.5 185.9375 C42.59260794 182.88758125 42.59260794 182.88758125 37.33203125 180.5390625 C34.67038561 179.38409066 33.5184953 178.28651197 31.6875 176.0625 C30.79998047 174.99708984 30.79998047 174.99708984 29.89453125 173.91015625 C29.24871094 173.11480469 28.60289062 172.31945312 27.9375 171.5 C27.19886719 170.61183594 26.46023437 169.72367188 25.69921875 168.80859375 C24.14701811 166.93290928 22.60663473 165.04738387 21.078125 163.15234375 C19.79696183 161.56491712 18.49992579 159.98981945 17.171875 158.44140625 C13.29488821 153.73223795 11.61625503 149.06875641 9.87890625 143.24609375 C9.01530841 140.30035356 9.01530841 140.30035356 6.75 137.4375 C4.07341192 133.09958139 3.89454203 128.54326559 3.9375 123.5 C4.9375 122.5 4.9375 122.5 6.73046875 122.47265625 C7.52066406 122.50230469 8.31085938 122.53195313 9.125 122.5625 C19.19267696 122.65905494 19.19267696 122.65905494 28.9375 120.5 C31.00574523 118.04449075 31.99688394 115.93267363 33.04296875 112.91015625 C33.97430581 110.40083326 34.92509007 109.21763439 36.9375 107.5 C32.30580347 102.0732166 29.07442277 99.05598981 21.96875 97.9609375 C16.34144771 96.68397275 13.10761057 90.13338374 9.9765625 85.68359375 C8.9375 83.5 8.9375 83.5 9.2734375 81.22265625 C9.49257812 80.65417969 9.71171875 80.08570313 9.9375 79.5 C11.9175 79.5 13.8975 79.5 15.9375 79.5 C19.9869467 72.54484345 22.64481006 66.65269783 23.75 58.625 C24.50920823 53.59680125 25.81876426 50.35353874 29.01171875 46.4140625 C30.44386764 43.45307956 29.78699966 41.64126096 28.9375 38.5 C27.83943483 35.86985738 26.54460195 33.3796514 25.1875 30.875 C24.85234375 30.22015625 24.5171875 29.5653125 24.171875 28.890625 C21.97559524 24.7809197 19.83705107 22.19784041 15.9375 19.5 C14.75220703 18.63568359 14.75220703 18.63568359 13.54296875 17.75390625 C8.992052 14.57047014 4.42523699 11.45375865 -0.3203125 8.56640625 C-1.82227932 7.64704091 -3.29000023 6.67215101 -4.75 5.6875 C-14.86869485 0.49141346 -42.27300497 9.00101726 -50.2421875 16.5703125 Z " fill="#000000" transform="translate(198.0625,81.5)"/>
<path d="M0 0 C6.1818233 0.39882731 10.92968294 1.6174122 16.62109375 4.015625 C25.12808819 7.53576063 33.92934085 7.5816929 43 8 C42.82082031 9.0828125 42.64164063 10.165625 42.45703125 11.28125 C41.6837806 17.57299886 43.77008187 21.77660253 47.0078125 27.05859375 C48.15003994 29.29358208 48.70335534 31.44218153 49.3125 33.875 C50.94645569 39.69047671 54.12235714 43.47221343 58 48 C59.33742348 49.68426021 60.67069227 51.37182706 62 53.0625 C63.33192342 54.70947454 64.66520989 56.35534791 66 58 C66.88171875 59.12341797 66.88171875 59.12341797 67.78125 60.26953125 C71.70977146 65.08197004 75.34480629 67.55099352 81 70 C82.67888441 70.97934924 84.35178756 71.96986723 86 73 C85.505 74.485 85.505 74.485 85 76 C80.125 75.125 80.125 75.125 79 74 C76.26368199 73.46178208 73.5157942 73.03521964 70.76171875 72.59765625 C68.1926906 72.04169966 66.27288871 71.29030975 64 70 C64 69.34 64 68.68 64 68 C63.443125 67.7525 62.88625 67.505 62.3125 67.25 C60 66 60 66 57.5625 64 C55.15028454 61.90633537 55.15028454 61.90633537 52.4375 61.0625 C47.20444815 58.78142612 44.49543105 52.82191966 41.46484375 48.18359375 C40.01628407 45.9669672 40.01628407 45.9669672 38.31640625 43.84765625 C37 42 37 42 37 40 C36.43925781 39.74734375 35.87851563 39.4946875 35.30078125 39.234375 C26.56062033 34.54525641 19.18139866 26.49028181 12.03979492 19.69824219 C11.4285376 19.11848633 10.81728027 18.53873047 10.1875 17.94140625 C9.64480469 17.42263916 9.10210937 16.90387207 8.54296875 16.36938477 C6.83663963 14.79184023 6.83663963 14.79184023 4 13 C4 12.34 4 11.68 4 11 C3.34 11 2.68 11 2 11 C0 8 0 8 0 4 C-0.66 4 -1.32 4 -2 4 C-1.34 2.68 -0.68 1.36 0 0 Z " fill="#DDDBDB" transform="translate(160,195)"/>
<path d="M0 0 C2.4071187 1.57707777 2.8996214 2.57617923 3.5625 5.375 C2.8723164 8.59585682 1.44978395 9.84392837 -1.13671875 11.80078125 C-3.77556894 13.49916072 -6.51968472 14.88152966 -9.36328125 16.203125 C-10.99738321 16.88864172 -10.99738321 16.88864172 -12 18 C-15.74237002 18.28106102 -19.49833779 18.23185411 -23.25 18.25 C-24.30058594 18.270625 -25.35117188 18.29125 -26.43359375 18.3125 C-27.95919922 18.32023437 -27.95919922 18.32023437 -29.515625 18.328125 C-30.44665039 18.3374707 -31.37767578 18.34681641 -32.33691406 18.35644531 C-37.20408037 17.70499108 -40.98878818 14.79189637 -44 11 C-44.50188668 8.06037803 -44.4519739 6.68985491 -42.8125 4.1875 C-40.35092224 2.57474216 -38.88934264 2.5665986 -36 3 C-35.53561523 3.4937915 -35.07123047 3.98758301 -34.59277344 4.49633789 C-31.71794204 7.21033031 -28.018641 6.470824 -24.25 6.4375 C-23.46367187 6.45748047 -22.67734375 6.47746094 -21.8671875 6.49804688 C-16.07262085 6.49323411 -12.79826995 5.23702382 -8 2 C-4.76746204 -0.15502531 -3.74849077 -0.46856135 0 0 Z " fill="#0A0A0A" transform="translate(201,132)"/>
<path d="M0 0 C2.49527243 3.1341223 4.40392194 6.38424782 6.25 9.9375 C7.06210938 11.46697266 7.06210938 11.46697266 7.890625 13.02734375 C9.12206402 16.32708 9.12776843 17.71113836 8 21 C7.360625 22.010625 6.72125 23.02125 6.0625 24.0625 C4.13271555 27.24664435 3.56208831 30.00783994 3.0625 33.6875 C1.98680541 41.38210816 -0.68357557 48.52536336 -5 55 C-5.969375 54.979375 -6.93875 54.95875 -7.9375 54.9375 C-8.948125 54.958125 -9.95875 54.97875 -11 55 C-11.433125 55.66 -11.86625 56.32 -12.3125 57 C-14 59 -14 59 -16.109375 59.3359375 C-18.47239709 59.37356524 -20.66608913 59.38086591 -23 59 C-23.66 58.34 -24.32 57.68 -25 57 C-24.8375698 54.16907361 -24.18115844 53.1706782 -22.109375 51.21875 C-21.33078125 50.6515625 -20.5521875 50.084375 -19.75 49.5 C-18.98171875 48.9328125 -18.2134375 48.365625 -17.421875 47.78125 C-16.22304687 46.89953125 -16.22304687 46.89953125 -15 46 C-6.25077174 39.52105707 -1.23681012 29.5411351 1 19 C1.37118799 14.96391794 1.56340632 11.02245908 1 7 C0.34 6.34 -0.32 5.68 -1 5 C-0.625 2.375 -0.625 2.375 0 0 Z " fill="#DBDADA" transform="translate(219,106)"/>
<path d="M0 0 C5.45620329 0.09572286 8.10615178 0.61291162 12 4.5625 C13.01826258 5.69213505 14.02488839 6.83291329 15 8 C14.70738281 8.55300781 14.41476563 9.10601562 14.11328125 9.67578125 C12.94092371 11.99396115 12.94092371 11.99396115 12.16796875 14.54296875 C11.06536587 17.51692153 10.11233649 19.61496434 8 22 C3.6300011 23.18265747 -0.49652257 23.22418482 -5 23 C-3.87548273 20.0280615 -2.77706209 17.66559313 -1 15 C-0.70008931 12.41114829 -0.49134775 9.90850918 -0.375 7.3125 C-0.33632812 6.61060547 -0.29765625 5.90871094 -0.2578125 5.18554688 C-0.1637666 3.45745345 -0.0808032 1.72876325 0 0 Z " fill="#DDDBDB" transform="translate(219,180)"/>
<path d="M0 0 C1.8125 1.1875 1.8125 1.1875 3 3 C3.4334014 5.88934264 3.42525784 7.35092224 1.8125 9.8125 C-0.64907776 11.42525784 -2.11065736 11.4334014 -5 11 C-6.8125 9.8125 -6.8125 9.8125 -8 8 C-8.4334014 5.11065736 -8.42525784 3.64907776 -6.8125 1.1875 C-4.35092224 -0.42525784 -2.88934264 -0.4334014 0 0 Z " fill="#151515" transform="translate(172,115)"/>
<path d="M0 0 C1.8125 1.1875 1.8125 1.1875 3 3 C3.4334014 5.88934264 3.42525784 7.35092224 1.8125 9.8125 C-0.64907776 11.42525784 -2.11065736 11.4334014 -5 11 C-6.8125 9.8125 -6.8125 9.8125 -8 8 C-8.4334014 5.11065736 -8.42525784 3.64907776 -6.8125 1.1875 C-4.35092224 -0.42525784 -2.88934264 -0.4334014 0 0 Z " fill="#151515" transform="translate(196,114)"/>
</svg>
