<?xml version="1.0" standalone="no"?>
<!DOCTYPE svg PUBLIC "-//W3C//DTD SVG 20010904//EN"
 "http://www.w3.org/TR/2001/REC-SVG-20010904/DTD/svg10.dtd">
<svg version="1.0" xmlns="http://www.w3.org/2000/svg"
 width="360.000000pt" height="360.000000pt" viewBox="0 0 360.000000 360.000000"
 preserveAspectRatio="xMidYMid meet">

<g transform="translate(0.000000,360.000000) scale(0.100000,-0.100000)"
fill="#000000" stroke="none">
<path d="M1845 2805 c-5 -1 -48 -11 -95 -20 -100 -21 -216 -57 -271 -85 -26
-14 -47 -35 -64 -68 -14 -26 -29 -54 -34 -62 -36 -62 -51 -116 -51 -177 0 -37
-5 -105 -11 -153 l-11 -86 32 -65 c18 -35 50 -86 73 -113 l41 -49 -47 -43
c-25 -24 -55 -44 -66 -44 -11 0 -23 -4 -26 -10 -3 -5 -25 -10 -48 -10 -24 0
-52 -7 -65 -15 -19 -14 -21 -22 -16 -63 3 -26 10 -60 16 -75 9 -24 7 -31 -13
-53 -18 -20 -21 -28 -12 -42 12 -19 11 -19 221 -7 l132 8 0 -82 c0 -68 -4 -90
-26 -134 -15 -29 -38 -66 -53 -83 -31 -37 -60 -87 -77 -131 -16 -44 -91 -105
-187 -155 -23 -11 -67 -40 -97 -63 -30 -23 -64 -47 -76 -53 -12 -6 -47 -42
-78 -81 l-57 -69 -6 -119 c-6 -133 5 -195 40 -217 18 -12 75 -15 312 -14 204
1 338 -4 450 -15 131 -14 240 -16 595 -12 l435 5 23 26 c19 21 22 34 17 58 -4
17 -10 83 -14 146 -8 125 -14 144 -72 207 -22 24 -39 50 -39 58 0 24 -79 104
-130 131 -102 56 -131 77 -177 132 -94 110 -141 177 -157 225 -9 27 -28 69
-41 93 -14 25 -25 48 -25 53 0 9 121 31 172 31 45 0 78 24 78 58 0 35 26 72
49 72 18 0 61 39 61 56 0 6 -35 45 -79 87 -71 70 -83 77 -118 77 -28 0 -46 7
-61 23 -27 29 -27 35 0 64 12 13 27 38 34 56 34 88 54 156 59 199 4 27 18 64
35 90 16 24 30 55 30 71 0 39 -93 220 -127 246 -48 38 -127 90 -165 111 -20
11 -40 24 -43 30 -20 32 -129 68 -170 55z m96 -90 c19 -13 54 -36 79 -50 25
-14 72 -44 105 -68 52 -37 66 -55 109 -137 39 -74 46 -97 37 -109 -29 -41 -51
-93 -56 -133 -9 -63 -32 -137 -58 -183 -20 -35 -26 -40 -55 -37 -36 4 -53 -19
-34 -47 7 -9 21 -33 32 -53 35 -65 86 -108 128 -108 29 0 46 -9 80 -42 34 -31
41 -43 30 -49 -7 -5 -16 -9 -20 -9 -10 0 -48 -75 -48 -93 0 -15 -83 -28 -195
-31 l-60 -1 2 -59 c2 -56 25 -126 42 -126 4 0 16 -29 26 -64 13 -45 32 -81 64
-120 25 -30 60 -74 76 -96 49 -67 111 -130 127 -130 8 0 27 -9 41 -20 14 -11
45 -28 68 -39 51 -22 84 -55 93 -93 3 -15 22 -42 42 -60 53 -48 57 -62 65
-188 4 -63 8 -123 10 -132 4 -15 -30 -17 -408 -22 -344 -5 -439 -3 -575 11
-115 11 -249 16 -450 15 l-287 0 -7 35 c-4 20 -4 79 -1 132 7 94 7 95 47 136
22 22 40 46 40 53 0 7 4 12 9 12 4 0 37 22 72 49 36 27 87 60 114 75 28 14 68
39 90 56 22 16 57 41 78 55 20 14 37 33 37 41 0 23 58 134 85 164 13 14 37 53
54 87 29 58 31 70 31 168 l0 105 -37 16 c-30 13 -63 15 -159 12 l-120 -5 -12
38 c-20 63 -16 79 16 79 41 0 110 36 171 91 30 26 63 49 74 51 11 2 25 11 31
20 12 20 -12 52 -59 75 -37 19 -56 42 -95 116 -30 57 -31 59 -20 133 5 42 10
107 10 145 0 62 5 80 40 152 23 45 49 89 60 98 29 25 158 63 345 102 44 10 63
6 96 -18z"/>
<path d="M1897 2442 c-33 -36 -8 -92 40 -92 25 0 53 30 53 57 0 46 -62 69 -93
35z"/>
<path d="M1657 2432 c-33 -36 -8 -92 40 -92 25 0 53 30 53 57 0 46 -62 69 -93
35z"/>
<path d="M1933 2260 c-17 -9 -43 -24 -57 -33 -18 -13 -48 -17 -109 -17 -71 0
-87 3 -102 20 -23 25 -57 26 -78 2 -26 -28 -20 -55 19 -93 l35 -34 119 -3
c114 -4 120 -3 157 22 21 14 42 26 47 26 5 0 24 11 43 26 37 28 43 62 15 87
-23 21 -47 20 -89 -3z"/>
</g>
</svg>
