<?xml version="1.0" encoding="UTF-8"?>
<svg version="1.1" xmlns="http://www.w3.org/2000/svg" width="360" height="360">
<path d="M0 0 C2.8024419 -0.29178152 5.38050365 -0.39597613 8.18359375 -0.36328125 C8.9949025 -0.36377975 9.80621124 -0.36427826 10.6421051 -0.36479187 C12.35949143 -0.36244948 14.07688107 -0.3527112 15.79418945 -0.33618164 C18.42365234 -0.31262406 21.0520993 -0.31561479 23.68164062 -0.32226562 C25.34896438 -0.31668775 27.01628386 -0.30957718 28.68359375 -0.30078125 C29.47116562 -0.30169266 30.25873749 -0.30260406 31.07017517 -0.30354309 C34.89987338 -0.25381494 36.73913054 -0.17391297 40 2 C39.3900874 6.98844309 38.36525565 11.60155346 36.9375 16.4375 C36.57527344 17.67371094 36.21304688 18.90992188 35.83984375 20.18359375 C35.56269531 21.11300781 35.28554687 22.04242188 35 23 C35.76666992 22.97905273 36.53333984 22.95810547 37.32324219 22.93652344 C40.7986946 22.85334842 44.27393763 22.80133425 47.75 22.75 C48.9565625 22.71648438 50.163125 22.68296875 51.40625 22.6484375 C53.14648438 22.62910156 53.14648438 22.62910156 54.921875 22.609375 C55.99018555 22.58842773 57.05849609 22.56748047 58.15917969 22.54589844 C61.71131424 23.11370269 62.81631008 24.19697504 65 27 C67.6731912 34.02450559 67.2716246 41.37331915 67.20581055 48.79321289 C67.18733638 50.95666053 67.18530277 53.11968414 67.18554688 55.28320312 C67.14776543 65.85223457 67.14776543 65.85223457 66 67 C64.43827255 67.08685603 62.87270656 67.10702219 61.30859375 67.09765625 C60.36435547 67.09443359 59.42011719 67.09121094 58.44726562 67.08789062 C57.45404297 67.07951172 56.46082031 67.07113281 55.4375 67.0625 C54.44041016 67.05798828 53.44332031 67.05347656 52.41601562 67.04882812 C49.94395151 67.03700007 47.47200482 67.02051849 45 67 C45.20858643 67.53109375 45.41717285 68.0621875 45.63208008 68.609375 C45.90431396 69.31578125 46.17654785 70.0221875 46.45703125 70.75 C46.72749268 71.44609375 46.9979541 72.1421875 47.27661133 72.859375 C48.30376165 75.89888024 48.66815627 78.81430023 49 82 C49.51175781 81.67773438 50.02351562 81.35546875 50.55078125 81.0234375 C53.81344658 79.6600909 56.65926881 79.71851071 60.1875 79.625 C66.40011957 79.35967094 73.35302205 78.64697795 78 74 C84.35287401 72.94854053 90.5727195 72.87987611 97 72.9375 C97.96550781 72.94201172 98.93101562 72.94652344 99.92578125 72.95117188 C102.28392089 72.96284583 104.64192602 72.97921979 107 73 C107.33 73.66 107.66 74.32 108 75 C110.62533069 75.65782773 113.22332824 76.22326915 115.875 76.75 C124.90244662 78.69479534 132.86145986 81.97226245 140 88 C140 88.66 140 89.32 140 90 C140.99 90.33 141.98 90.66 143 91 C145.61541084 93.7800614 147.78505946 96.89626166 150 100 C150.55558594 100.76828125 151.11117188 101.5365625 151.68359375 102.328125 C161.16209063 116.60496319 161.01784167 137.00742583 158.64257812 153.47851562 C157.8177748 157.47789529 156.55930157 161.2330851 155 165 C154.69191406 165.78632813 154.38382812 166.57265625 154.06640625 167.3828125 C153.42701489 168.94304978 152.72494014 170.47762571 152 172 C151.34 172 150.68 172 150 172 C149.79375 173.093125 149.5875 174.18625 149.375 175.3125 C147.97477192 181.04725765 144.95697313 185.94153025 142 191 C141.34 191 140.68 191 140 191 C139.6596875 192.30324219 139.6596875 192.30324219 139.3125 193.6328125 C137.79088046 197.53649121 135.84866681 199.81930799 133 202.875 C131.6696875 204.32519531 131.6696875 204.32519531 130.3125 205.8046875 C128 208 128 208 126 208 C125.7628125 208.57234375 125.525625 209.1446875 125.28125 209.734375 C123.72406762 212.4879292 121.87507203 214.16795634 119.5 216.25 C118.7059375 216.95640625 117.911875 217.6628125 117.09375 218.390625 C115 220 115 220 113 220 C112.67 220.99 112.34 221.98 112 223 C111.34 223 110.68 223 110 223 C109.67 223.99 109.34 224.98 109 226 C108.401875 226.53625 107.80375 227.0725 107.1875 227.625 C104.10516134 230.97153912 102.68168307 234.81368257 101 239 C101.80824219 239.10957031 102.61648438 239.21914063 103.44921875 239.33203125 C104.51785156 239.49058594 105.58648437 239.64914062 106.6875 239.8125 C107.74324219 239.96332031 108.79898438 240.11414063 109.88671875 240.26953125 C113.13058932 241.03064015 115.32389595 242.02891779 118 244 C118 244.66 118 245.32 118 246 C118.99 246.33 119.98 246.66 121 247 C127.84114796 257.29824052 128.63748483 276.47448209 126.3125 288.375 C125 292 125 292 122.625 293.9375 C118.96231616 295.42001489 115.80150216 296.1232763 111.85235596 296.14476013 C111.03383148 296.15165863 110.21530701 296.15855713 109.37197876 296.16566467 C108.03784439 296.16958473 108.03784439 296.16958473 106.67675781 296.17358398 C105.73317413 296.180271 104.78959045 296.18695801 103.81741333 296.19384766 C101.76908911 296.2078898 99.72074932 296.21978652 97.67240143 296.22979546 C94.4269497 296.24622627 91.18161282 296.26946631 87.93621826 296.29469299 C78.70883933 296.36540303 69.48141312 296.42550866 60.25390625 296.47680664 C54.60822476 296.50867008 48.96267499 296.54996594 43.31710052 296.59700203 C41.16901782 296.61297961 39.0209048 296.62532068 36.87277985 296.63390923 C33.86199133 296.64611848 30.85151009 296.67029269 27.84082031 296.69702148 C26.95949432 296.69761063 26.07816833 296.69819977 25.1701355 296.69880676 C19.78360195 296.76189164 15.18796889 297.55050656 10 299 C7.05078125 299.25878906 7.05078125 299.25878906 4.3125 299.265625 C3.28253906 299.26820313 2.25257813 299.27078125 1.19140625 299.2734375 C0.13824219 299.26570313 -0.91492188 299.25796875 -2 299.25 C-3.53333984 299.26160156 -3.53333984 299.26160156 -5.09765625 299.2734375 C-10.89896376 299.25906003 -16.45831051 298.84197583 -22.19921875 298.00390625 C-29.26833412 297.00103724 -36.25974742 296.81051593 -43.39453125 296.76171875 C-45.02852371 296.74853104 -45.02852371 296.74853104 -46.69552612 296.7350769 C-51.22721615 296.70495376 -55.75848941 296.68535424 -60.2902832 296.69458008 C-63.63805132 296.69718314 -66.9844464 296.66925974 -70.33203125 296.63671875 C-71.36004349 296.64692551 -72.38805573 296.65713226 -73.44721985 296.66764832 C-80.41674105 296.57081398 -80.41674105 296.57081398 -83.15112305 293.89477539 C-84.70017842 288.612305 -84.27661033 283.31251117 -84.07373047 277.87255859 C-84.00069878 275.7701166 -83.96951817 273.66986809 -83.94140625 271.56640625 C-83.74110002 263.50618896 -82.75281036 257.60397951 -78 251 C-77.35675781 249.95070313 -76.71351562 248.90140625 -76.05078125 247.8203125 C-75.47714844 246.93085938 -74.90351562 246.04140625 -74.3125 245.125 C-73.73113281 244.22007812 -73.14976563 243.31515625 -72.55078125 242.3828125 C-71.37829701 240.58126242 -70.19232184 238.78848277 -69 237 C-65.9609375 236.70703125 -65.9609375 236.70703125 -62.375 236.8125 C-61.18648437 236.83957031 -59.99796875 236.86664063 -58.7734375 236.89453125 C-57.85820313 236.92933594 -56.94296875 236.96414063 -56 237 C-56 236.34 -56 235.68 -56 235 C-56.598125 234.71125 -57.19625 234.4225 -57.8125 234.125 C-60 233 -60 233 -63 231 C-63 230.34 -63 229.68 -63 229 C-63.73347656 228.76667969 -64.46695313 228.53335938 -65.22265625 228.29296875 C-68.49519377 226.76946675 -70.09263701 225.0419038 -72.4375 222.3125 C-73.20835938 221.42175781 -73.97921875 220.53101563 -74.7734375 219.61328125 C-75.50820312 218.75089844 -76.24296875 217.88851562 -77 217 C-77.63164063 216.29230469 -78.26328125 215.58460938 -78.9140625 214.85546875 C-83 210.25636848 -83 210.25636848 -83 208 C-83.99 207.67 -84.98 207.34 -86 207 C-86.309375 206.030625 -86.61875 205.06125 -86.9375 204.0625 C-87.66351301 200.92450088 -87.66351301 200.92450088 -89.9375 199.8125 C-90.618125 199.544375 -91.29875 199.27625 -92 199 C-93.75 197.5 -93.75 197.5 -95 196 C-95 195.34 -95 194.68 -95 194 C-95.99 193.67 -96.98 193.34 -98 193 C-99.37535339 191.02866014 -100.70211044 189.02318078 -102 187 C-102.90214204 185.90454181 -103.81867633 184.82075913 -104.75 183.75 C-107 181 -107 181 -107 179 C-107.99 178.67 -108.98 178.34 -110 178 C-112.3563122 174.18591598 -114.13785006 170.07436461 -116 166 C-116.42152344 165.08476562 -116.84304687 164.16953125 -117.27734375 163.2265625 C-119.6417941 157.75719337 -121.07035837 153.0419911 -119.48706055 147.06298828 C-118.98099749 144.91951317 -118.889739 143.06607389 -118.89453125 140.8671875 C-118.70462122 126.72959951 -116.75782029 108.7762967 -106.1484375 98.14453125 C-105.56320313 97.70496094 -104.97796875 97.26539063 -104.375 96.8125 C-102.36883914 95.29254843 -101.17019001 94.3562452 -100.078125 92.0703125 C-96.72123575 85.62411213 -87.41720273 80.2646468 -81 77 C-70.2284472 73.61790295 -56.74385994 74.76489731 -45.49853516 74.70483398 C-43.99225541 74.69322206 -42.48601965 74.67262794 -40.97998047 74.64331055 C-32.23629786 74.47461911 -24.80016757 74.7519409 -16.53125 78.01391602 C-12.76783266 79.48000809 -8.9537814 80.20924372 -5 81 C-4.35309078 79.3962669 -3.70751236 77.79199694 -3.0625 76.1875 C-2.70285156 75.29417969 -2.34320313 74.40085937 -1.97265625 73.48046875 C-1.26386514 71.6729091 -0.6139753 69.84192591 0 68 C-0.59538574 68.01571045 -1.19077148 68.0314209 -1.80419922 68.04760742 C-4.49437003 68.10985801 -7.18438957 68.14895783 -9.875 68.1875 C-10.81214844 68.21263672 -11.74929687 68.23777344 -12.71484375 68.26367188 C-13.61074219 68.27333984 -14.50664062 68.28300781 -15.4296875 68.29296875 C-16.25710449 68.3086792 -17.08452148 68.32438965 -17.93701172 68.34057617 C-18.61779785 68.22818604 -19.29858398 68.1157959 -20 68 C-22.23849078 64.64226382 -22.45844813 62.77722453 -22.9375 58.8125 C-23.4584517 54.76252065 -24.01600257 50.76744097 -24.828125 46.765625 C-24.97000244 46.0646167 -25.11187988 45.3636084 -25.25805664 44.64135742 C-25.6681016 42.65640414 -26.08962789 40.67383297 -26.51171875 38.69140625 C-27.0210783 34.84064803 -26.79071094 31.79062033 -26 28 C-24.19857074 26.19857074 -21.43804514 26.50732576 -18.99609375 26.24609375 C-17.17368164 26.04790039 -17.17368164 26.04790039 -15.31445312 25.84570312 C-14.03505859 25.71099609 -12.75566406 25.57628906 -11.4375 25.4375 C-10.15423828 25.29892578 -8.87097656 25.16035156 -7.54882812 25.01757812 C-4.36628384 24.67447856 -1.18335586 24.33547212 2 24 C1.71560059 23.50153564 1.43120117 23.00307129 1.13818359 22.48950195 C-1.33874287 17.9039874 -2.51385091 14.50801459 -2.375 9.1875 C-2.36210937 8.08792969 -2.34921875 6.98835938 -2.3359375 5.85546875 C-2 3 -2 3 0 0 Z M149 117 C149.33 119.64 149.66 122.28 150 125 C150.93065133 122.39417629 151.14917407 121.35801776 150.0625 118.75 C149.711875 118.1725 149.36125 117.595 149 117 Z M79 125 C79 125.33 79 125.66 79 126 C80.65 126 82.3 126 84 126 C84 125.67 84 125.34 84 125 C82.35 125 80.7 125 79 125 Z M59 126 C59 126.33 59 126.66 59 127 C62.96 127 66.92 127 71 127 C71 126.67 71 126.34 71 126 C67.04 126 63.08 126 59 126 Z M50.25 128.4375 C49.45078125 128.72496094 48.6515625 129.01242188 47.828125 129.30859375 C47.22484375 129.53675781 46.6215625 129.76492187 46 130 C46 130.66 46 131.32 46 132 C50.60853797 131.27991594 54.67237409 129.68704061 59 128 C55.57056481 126.81228277 53.62215325 127.19773777 50.25 128.4375 Z M-50.99829102 139.92626953 C-52.70970176 143.4692193 -53.27958653 145.66579663 -52.46875 149.53515625 C-50.35052786 155.23342565 -50.35052786 155.23342565 -45.6875 158.9375 C-45.08550781 159.205625 -44.48351562 159.47375 -43.86328125 159.75 C-40.40951063 162.06699496 -38.71273694 165.86907666 -36.625 169.3828125 C-34.75938237 172.3875332 -32.59523245 174.60965432 -30 177 C-29.13318497 178.03116528 -28.27933679 179.07334371 -27.4375 180.125 C-23.67544741 184.60692482 -23.67544741 184.60692482 -18.30859375 186.3984375 C-16.88740234 186.38683594 -16.88740234 186.38683594 -15.4375 186.375 C-14.48746094 186.38273437 -13.53742188 186.39046875 -12.55859375 186.3984375 C-10.03886653 186.18893317 -10.03886653 186.18893317 -8.37866211 184.92260742 C-6.27955764 181.99531015 -6.50674804 179.40684974 -6.3828125 175.83984375 C-6.35774628 175.13533585 -6.33268005 174.43082794 -6.30685425 173.70497131 C-6.25789246 172.21149253 -6.21634088 170.71775513 -6.18164062 169.22387695 C-6.12577566 166.96881064 -6.03727598 164.71673753 -5.9453125 162.46289062 C-5.52694056 150.89903098 -5.52694056 150.89903098 -9 140 C-10.94212118 137.87169618 -10.94212118 137.87169618 -13.375 136.9375 C-14.12523437 136.57527344 -14.87546875 136.21304688 -15.6484375 135.83984375 C-21.75999418 133.65714493 -28.01621719 133.61061295 -34.4375 133.4375 C-35.46166016 133.37498047 -36.48582031 133.31246094 -37.54101562 133.24804688 C-44.2982368 133.10371788 -47.41363747 134.02313453 -50.99829102 139.92626953 Z M67.9375 133.25 C67.03902344 133.29640625 66.14054688 133.3428125 65.21484375 133.390625 C62.15061571 133.97145073 59.67585294 134.86202604 56.79907227 136.03808594 C55.89995621 136.40383728 55.00084015 136.76958862 54.07447815 137.14642334 C53.38990036 137.42810364 52.70532257 137.70978394 52 138 C51.97470175 144.37206172 51.95715504 150.74411054 51.94506836 157.11621094 C51.94003109 159.28516117 51.93320109 161.454108 51.92456055 163.62304688 C51.91246849 166.73568563 51.90676572 169.8482796 51.90234375 172.9609375 C51.89718246 173.934935 51.89202118 174.9089325 51.88670349 175.91244507 C51.88662796 176.81322784 51.88655243 177.71401062 51.88647461 178.64208984 C51.884254 179.43706879 51.88203339 180.23204773 51.87974548 181.05111694 C51.87741475 183.08089567 51.87741475 183.08089567 53 185 C56.28832956 186.3606881 59.44194198 187.0052634 63 187 C67.77472878 184.62161066 70.76134903 180.10229122 74 176 C74.78375 175.38125 75.5675 174.7625 76.375 174.125 C79.71430065 171.42175662 82.28865381 168.3155459 85 165 C85.66 164.21625 86.32 163.4325 87 162.625 C87.66 161.75875 88.32 160.8925 89 160 C89.52078125 159.35417969 90.0415625 158.70835937 90.578125 158.04296875 C94.16562896 153.25683613 96.0235963 149.4358612 95.6640625 143.37109375 C94.47082343 139.11052837 91.55107215 136.4865109 88 134 C81.71400056 131.90466685 74.48793423 132.89455008 67.9375 133.25 Z M105 288 C105 288.33 105 288.66 105 289 C107.64 289 110.28 289 113 289 C113 288.67 113 288.34 113 288 C110.36 288 107.72 288 105 288 Z " fill="#FDFDFD" transform="translate(161,31)"/>
<path d="M0 0 C2.8024419 -0.29178152 5.38050365 -0.39597613 8.18359375 -0.36328125 C8.9949025 -0.36377975 9.80621124 -0.36427826 10.6421051 -0.36479187 C12.35949143 -0.36244948 14.07688107 -0.3527112 15.79418945 -0.33618164 C18.42365234 -0.31262406 21.0520993 -0.31561479 23.68164062 -0.32226562 C25.34896438 -0.31668775 27.01628386 -0.30957718 28.68359375 -0.30078125 C29.47116562 -0.30169266 30.25873749 -0.30260406 31.07017517 -0.30354309 C34.89987338 -0.25381494 36.73913054 -0.17391297 40 2 C39.3900874 6.98844309 38.36525565 11.60155346 36.9375 16.4375 C36.57527344 17.67371094 36.21304688 18.90992188 35.83984375 20.18359375 C35.56269531 21.11300781 35.28554687 22.04242188 35 23 C35.76666992 22.97905273 36.53333984 22.95810547 37.32324219 22.93652344 C40.7986946 22.85334842 44.27393763 22.80133425 47.75 22.75 C48.9565625 22.71648438 50.163125 22.68296875 51.40625 22.6484375 C53.14648438 22.62910156 53.14648438 22.62910156 54.921875 22.609375 C55.99018555 22.58842773 57.05849609 22.56748047 58.15917969 22.54589844 C61.71131424 23.11370269 62.81631008 24.19697504 65 27 C67.6731912 34.02450559 67.2716246 41.37331915 67.20581055 48.79321289 C67.18733638 50.95666053 67.18530277 53.11968414 67.18554688 55.28320312 C67.14776543 65.85223457 67.14776543 65.85223457 66 67 C64.43827255 67.08685603 62.87270656 67.10702219 61.30859375 67.09765625 C60.36435547 67.09443359 59.42011719 67.09121094 58.44726562 67.08789062 C57.45404297 67.07951172 56.46082031 67.07113281 55.4375 67.0625 C54.44041016 67.05798828 53.44332031 67.05347656 52.41601562 67.04882812 C49.94395151 67.03700007 47.47200482 67.02051849 45 67 C45.20858643 67.53109375 45.41717285 68.0621875 45.63208008 68.609375 C45.90431396 69.31578125 46.17654785 70.0221875 46.45703125 70.75 C46.72749268 71.44609375 46.9979541 72.1421875 47.27661133 72.859375 C48.30376165 75.89888024 48.66815627 78.81430023 49 82 C49.51175781 81.67773438 50.02351562 81.35546875 50.55078125 81.0234375 C53.81344658 79.6600909 56.65926881 79.71851071 60.1875 79.625 C66.40011957 79.35967094 73.35302205 78.64697795 78 74 C84.35287401 72.94854053 90.5727195 72.87987611 97 72.9375 C97.96550781 72.94201172 98.93101562 72.94652344 99.92578125 72.95117188 C102.28392089 72.96284583 104.64192602 72.97921979 107 73 C107.33 73.66 107.66 74.32 108 75 C110.62533069 75.65782773 113.22332824 76.22326915 115.875 76.75 C124.90244662 78.69479534 132.86145986 81.97226245 140 88 C140 88.66 140 89.32 140 90 C140.99 90.33 141.98 90.66 143 91 C145.61541084 93.7800614 147.78505946 96.89626166 150 100 C150.55558594 100.76828125 151.11117188 101.5365625 151.68359375 102.328125 C161.16209063 116.60496319 161.01784167 137.00742583 158.64257812 153.47851562 C157.8177748 157.47789529 156.55930157 161.2330851 155 165 C154.69191406 165.78632813 154.38382812 166.57265625 154.06640625 167.3828125 C153.42701489 168.94304978 152.72494014 170.47762571 152 172 C151.34 172 150.68 172 150 172 C149.79375 173.093125 149.5875 174.18625 149.375 175.3125 C147.97477192 181.04725765 144.95697313 185.94153025 142 191 C141.34 191 140.68 191 140 191 C139.6596875 192.30324219 139.6596875 192.30324219 139.3125 193.6328125 C137.79088046 197.53649121 135.84866681 199.81930799 133 202.875 C131.6696875 204.32519531 131.6696875 204.32519531 130.3125 205.8046875 C128 208 128 208 126 208 C125.7628125 208.57234375 125.525625 209.1446875 125.28125 209.734375 C123.72406762 212.4879292 121.87507203 214.16795634 119.5 216.25 C118.7059375 216.95640625 117.911875 217.6628125 117.09375 218.390625 C115 220 115 220 113 220 C112.67 220.99 112.34 221.98 112 223 C111.34 223 110.68 223 110 223 C109.67 223.99 109.34 224.98 109 226 C108.401875 226.53625 107.80375 227.0725 107.1875 227.625 C104.10516134 230.97153912 102.68168307 234.81368257 101 239 C101.80824219 239.10957031 102.61648438 239.21914063 103.44921875 239.33203125 C104.51785156 239.49058594 105.58648437 239.64914062 106.6875 239.8125 C107.74324219 239.96332031 108.79898438 240.11414063 109.88671875 240.26953125 C113.13058932 241.03064015 115.32389595 242.02891779 118 244 C118 244.66 118 245.32 118 246 C118.99 246.33 119.98 246.66 121 247 C127.84114796 257.29824052 128.63748483 276.47448209 126.3125 288.375 C125 292 125 292 122.625 293.9375 C118.96231616 295.42001489 115.80150216 296.1232763 111.85235596 296.14476013 C111.03383148 296.15165863 110.21530701 296.15855713 109.37197876 296.16566467 C108.03784439 296.16958473 108.03784439 296.16958473 106.67675781 296.17358398 C105.73317413 296.180271 104.78959045 296.18695801 103.81741333 296.19384766 C101.76908911 296.2078898 99.72074932 296.21978652 97.67240143 296.22979546 C94.4269497 296.24622627 91.18161282 296.26946631 87.93621826 296.29469299 C78.70883933 296.36540303 69.48141312 296.42550866 60.25390625 296.47680664 C54.60822476 296.50867008 48.96267499 296.54996594 43.31710052 296.59700203 C41.16901782 296.61297961 39.0209048 296.62532068 36.87277985 296.63390923 C33.86199133 296.64611848 30.85151009 296.67029269 27.84082031 296.69702148 C26.95949432 296.69761063 26.07816833 296.69819977 25.1701355 296.69880676 C19.78360195 296.76189164 15.18796889 297.55050656 10 299 C7.05078125 299.25878906 7.05078125 299.25878906 4.3125 299.265625 C3.28253906 299.26820313 2.25257813 299.27078125 1.19140625 299.2734375 C0.13824219 299.26570313 -0.91492188 299.25796875 -2 299.25 C-3.53333984 299.26160156 -3.53333984 299.26160156 -5.09765625 299.2734375 C-10.89896376 299.25906003 -16.45831051 298.84197583 -22.19921875 298.00390625 C-29.26833412 297.00103724 -36.25974742 296.81051593 -43.39453125 296.76171875 C-45.02852371 296.74853104 -45.02852371 296.74853104 -46.69552612 296.7350769 C-51.22721615 296.70495376 -55.75848941 296.68535424 -60.2902832 296.69458008 C-63.63805132 296.69718314 -66.9844464 296.66925974 -70.33203125 296.63671875 C-71.36004349 296.64692551 -72.38805573 296.65713226 -73.44721985 296.66764832 C-80.41674105 296.57081398 -80.41674105 296.57081398 -83.15112305 293.89477539 C-84.70017842 288.612305 -84.27661033 283.31251117 -84.07373047 277.87255859 C-84.00069878 275.7701166 -83.96951817 273.66986809 -83.94140625 271.56640625 C-83.74110002 263.50618896 -82.75281036 257.60397951 -78 251 C-77.35675781 249.95070313 -76.71351562 248.90140625 -76.05078125 247.8203125 C-75.47714844 246.93085938 -74.90351562 246.04140625 -74.3125 245.125 C-73.73113281 244.22007812 -73.14976563 243.31515625 -72.55078125 242.3828125 C-71.37829701 240.58126242 -70.19232184 238.78848277 -69 237 C-65.9609375 236.70703125 -65.9609375 236.70703125 -62.375 236.8125 C-61.18648437 236.83957031 -59.99796875 236.86664063 -58.7734375 236.89453125 C-57.85820313 236.92933594 -56.94296875 236.96414063 -56 237 C-56 236.34 -56 235.68 -56 235 C-56.598125 234.71125 -57.19625 234.4225 -57.8125 234.125 C-60 233 -60 233 -63 231 C-63 230.34 -63 229.68 -63 229 C-63.73347656 228.76667969 -64.46695313 228.53335938 -65.22265625 228.29296875 C-68.49519377 226.76946675 -70.09263701 225.0419038 -72.4375 222.3125 C-73.20835938 221.42175781 -73.97921875 220.53101563 -74.7734375 219.61328125 C-75.50820312 218.75089844 -76.24296875 217.88851562 -77 217 C-77.63164063 216.29230469 -78.26328125 215.58460938 -78.9140625 214.85546875 C-83 210.25636848 -83 210.25636848 -83 208 C-83.99 207.67 -84.98 207.34 -86 207 C-86.309375 206.030625 -86.61875 205.06125 -86.9375 204.0625 C-87.66351301 200.92450088 -87.66351301 200.92450088 -89.9375 199.8125 C-90.618125 199.544375 -91.29875 199.27625 -92 199 C-93.75 197.5 -93.75 197.5 -95 196 C-95 195.34 -95 194.68 -95 194 C-95.99 193.67 -96.98 193.34 -98 193 C-99.37535339 191.02866014 -100.70211044 189.02318078 -102 187 C-102.90214204 185.90454181 -103.81867633 184.82075913 -104.75 183.75 C-107 181 -107 181 -107 179 C-107.99 178.67 -108.98 178.34 -110 178 C-112.3563122 174.18591598 -114.13785006 170.07436461 -116 166 C-116.42152344 165.08476562 -116.84304687 164.16953125 -117.27734375 163.2265625 C-119.6417941 157.75719337 -121.07035837 153.0419911 -119.48706055 147.06298828 C-118.98099749 144.91951317 -118.889739 143.06607389 -118.89453125 140.8671875 C-118.70462122 126.72959951 -116.75782029 108.7762967 -106.1484375 98.14453125 C-105.56320313 97.70496094 -104.97796875 97.26539063 -104.375 96.8125 C-102.36883914 95.29254843 -101.17019001 94.3562452 -100.078125 92.0703125 C-96.72123575 85.62411213 -87.41720273 80.2646468 -81 77 C-70.2284472 73.61790295 -56.74385994 74.76489731 -45.49853516 74.70483398 C-43.99225541 74.69322206 -42.48601965 74.67262794 -40.97998047 74.64331055 C-32.23629786 74.47461911 -24.80016757 74.7519409 -16.53125 78.01391602 C-12.76783266 79.48000809 -8.9537814 80.20924372 -5 81 C-4.35309078 79.3962669 -3.70751236 77.79199694 -3.0625 76.1875 C-2.70285156 75.29417969 -2.34320313 74.40085937 -1.97265625 73.48046875 C-1.26386514 71.6729091 -0.6139753 69.84192591 0 68 C-0.59538574 68.01571045 -1.19077148 68.0314209 -1.80419922 68.04760742 C-4.49437003 68.10985801 -7.18438957 68.14895783 -9.875 68.1875 C-10.81214844 68.21263672 -11.74929687 68.23777344 -12.71484375 68.26367188 C-13.61074219 68.27333984 -14.50664062 68.28300781 -15.4296875 68.29296875 C-16.25710449 68.3086792 -17.08452148 68.32438965 -17.93701172 68.34057617 C-18.61779785 68.22818604 -19.29858398 68.1157959 -20 68 C-22.23849078 64.64226382 -22.45844813 62.77722453 -22.9375 58.8125 C-23.4584517 54.76252065 -24.01600257 50.76744097 -24.828125 46.765625 C-24.97000244 46.0646167 -25.11187988 45.3636084 -25.25805664 44.64135742 C-25.6681016 42.65640414 -26.08962789 40.67383297 -26.51171875 38.69140625 C-27.0210783 34.84064803 -26.79071094 31.79062033 -26 28 C-24.19857074 26.19857074 -21.43804514 26.50732576 -18.99609375 26.24609375 C-17.17368164 26.04790039 -17.17368164 26.04790039 -15.31445312 25.84570312 C-14.03505859 25.71099609 -12.75566406 25.57628906 -11.4375 25.4375 C-10.15423828 25.29892578 -8.87097656 25.16035156 -7.54882812 25.01757812 C-4.36628384 24.67447856 -1.18335586 24.33547212 2 24 C1.71560059 23.50153564 1.43120117 23.00307129 1.13818359 22.48950195 C-1.33874287 17.9039874 -2.51385091 14.50801459 -2.375 9.1875 C-2.36210937 8.08792969 -2.34921875 6.98835938 -2.3359375 5.85546875 C-2 3 -2 3 0 0 Z M5 7 C4.7208481 13.25875221 4.7208481 13.25875221 6.9375 18 C9.00524734 21.74094218 9.64629636 24.75555626 10 29 C6.67697982 31.21534678 4.93695065 31.43115652 1.01953125 31.8515625 C-0.14384766 31.98046875 -1.30722656 32.109375 -2.50585938 32.2421875 C-3.72080078 32.36851563 -4.93574219 32.49484375 -6.1875 32.625 C-7.41404297 32.7590625 -8.64058594 32.893125 -9.90429688 33.03125 C-12.93548419 33.36149609 -15.96728964 33.68409927 -19 34 C-17.83977413 43.03495036 -16.57094028 52.02558585 -15 61 C-14.43490723 60.98428955 -13.86981445 60.9685791 -13.28759766 60.95239258 C-10.73349977 60.89012955 -8.17956129 60.85103864 -5.625 60.8125 C-4.29082031 60.77479492 -4.29082031 60.77479492 -2.9296875 60.73632812 C-2.07890625 60.72666016 -1.228125 60.71699219 -0.3515625 60.70703125 C0.43395996 60.6913208 1.21948242 60.67561035 2.02880859 60.65942383 C2.67930176 60.77181396 3.32979492 60.8842041 4 61 C6.73693644 65.10540466 6.48256326 68.18179141 6 73 C4.68774868 79.29305925 2.41664344 84.58049662 -1 90 C-3.45672035 89.59054661 -5.58718743 89.21623515 -7.8046875 88.0546875 C-10.44702434 86.78523742 -13.02201879 86.16787346 -15.875 85.5 C-18.92386177 84.78262076 -21.83806858 84.06022573 -24.77539062 82.96777344 C-28.23741419 81.92874698 -31.05590736 81.74151481 -34.6640625 81.734375 C-35.94192627 81.72994385 -37.21979004 81.7255127 -38.53637695 81.72094727 C-39.89926178 81.72902286 -41.26213777 81.73873867 -42.625 81.75 C-43.31508148 81.75409882 -44.00516296 81.75819763 -44.71615601 81.76242065 C-68.69311295 80.67968937 -68.69311295 80.67968937 -89 91 C-89.56477051 91.5657373 -90.12954102 92.13147461 -90.71142578 92.71435547 C-106.35062837 108.5235934 -111.55829867 122.70761839 -111.89477539 144.83154297 C-112 147 -112 147 -112.66796875 150.66796875 C-113.6797007 160.82099639 -104.9468046 171.51557983 -99 179 C-98.07098567 180.21597504 -97.14401309 181.43351187 -96.21875 182.65234375 C-95.25099027 183.91482221 -94.28224872 185.1765487 -93.3125 186.4375 C-92.63537964 187.32501953 -92.63537964 187.32501953 -91.94458008 188.23046875 C-89.2489838 191.67893375 -86.48967761 194.31425836 -83 197 C-81.61558 198.96498322 -80.28796166 200.97048465 -79 203 C-73.15234351 211.53685654 -65.87321712 218.65119751 -57.9609375 225.28125 C-56 227 -56 227 -54.0390625 229.09375 C-52.08706597 231.09975434 -50.47118501 232.6789553 -48 234 C-44.6167857 233.72847397 -41.97540983 232.58030066 -39 231 C-32.09684016 227.54842008 -20.37084052 230.11714636 -12.875 231 C-4.2433143 231.98603893 4.31513567 232.19191697 13 232.1875 C14.20414551 232.18814453 15.40829102 232.18878906 16.64892578 232.18945312 C23.14768832 232.14999603 29.5419865 231.82652284 36.01171875 231.23364258 C74.45570157 228.22785078 74.45570157 228.22785078 88 235 C90.94167502 235.54188114 90.94167502 235.54188114 94 235 C95.97935694 232.64152838 95.97935694 232.64152838 97.375 229.5 C102.33153329 220.2687273 109.24759539 214.61876313 117.38671875 208.17578125 C126.02642807 200.98248066 132.49977508 192.7373168 138 183 C138.3815625 182.36964844 138.763125 181.73929688 139.15625 181.08984375 C141.31298039 177.50346253 142.8382574 173.94343142 144.21875 170.01953125 C145.00479299 167.98761011 145.95587663 166.16027116 147 164.25 C154.07251135 150.07777533 153.72609378 132.75257089 150.3125 117.5625 C150.16417725 116.88356689 150.01585449 116.20463379 149.86303711 115.50512695 C148.57059391 110.49130603 146.40917678 107.73130372 143 104 C142.34 103.01 141.68 102.02 141 101 C140.34 101 139.68 101 139 101 C139 100.34 139 99.68 139 99 C138.34 98.67 137.68 98.34 137 98 C136.566875 97.236875 136.13375 96.47375 135.6875 95.6875 C131.79522376 89.48868969 125.77042277 87.06093372 119 85 C114.80838514 84.05161499 110.58103127 83.32351758 106.34375 82.61328125 C103 82 103 82 101 81 C97.75687697 80.70827988 94.50472351 80.72207567 91.25 80.6875 C90.35539063 80.65849609 89.46078125 80.62949219 88.5390625 80.59960938 C82.72443489 80.54386442 79.71058605 81.3119214 75 85 C71.37442631 86.37343525 67.53050788 86.21278258 63.6875 86.375 C58.13176519 86.66204408 53.96930979 87.51534511 49 90 C46.0625 90.1875 46.0625 90.1875 44 90 C42.48342492 86.75019625 41.69836097 83.63025041 41.0625 80.125 C40.47061593 76.90782366 39.74842378 74.18711683 38.3125 71.25 C36.83787185 67.59853981 36.993979 65.74971462 38 62 C43.15946865 60.2958322 47.4425333 59.77774395 52.9375 59.875 C53.62134766 59.88402344 54.30519531 59.89304688 55.00976562 59.90234375 C56.67333287 59.92561042 58.33671631 59.96146833 60 60 C60.05850924 56.31256766 60.09376673 52.6252563 60.125 48.9375 C60.15013672 47.37999023 60.15013672 47.37999023 60.17578125 45.79101562 C60.21183286 40.11288716 59.92971166 35.35608946 58 30 C57.19256348 29.98541748 56.38512695 29.97083496 55.55322266 29.95581055 C51.9099873 29.88153914 48.26768967 29.78480975 44.625 29.6875 C43.35398438 29.66494141 42.08296875 29.64238281 40.7734375 29.61914062 C39.56171875 29.58369141 38.35 29.54824219 37.1015625 29.51171875 C35.98088379 29.48553467 34.86020508 29.45935059 33.70556641 29.43237305 C32.81272949 29.28968994 31.91989258 29.14700684 31 29 C28.55613287 25.33419931 28.90059048 23.99021753 29.3125 19.6875 C29.41175781 18.57761719 29.51101562 17.46773437 29.61328125 16.32421875 C29.97638301 13.20301068 30.48341604 10.09950378 31 7 C22.42 7 13.84 7 5 7 Z M105 288 C105 288.33 105 288.66 105 289 C107.64 289 110.28 289 113 289 C113 288.67 113 288.34 113 288 C110.36 288 107.72 288 105 288 Z " fill="#000000" transform="translate(161,31)"/>
<path d="M0 0 C9.85194373 1.15083407 19.6096212 1.47766764 29.51806641 1.46704102 C30.81728027 1.46768555 32.11649414 1.46833008 33.45507812 1.46899414 C40.22407598 1.43085406 46.88874564 1.13649043 53.62744141 0.51318359 C74.31913928 -1.15927881 94.80029053 -0.02936052 114.08447266 7.93579102 C116.99693196 9.07559306 119.57930011 9.81187181 122.64306641 10.34204102 C127.44749507 11.50440279 129.17141804 12.68801594 132.51806641 16.27954102 C134.52190481 21.11614378 135.14689498 25.93407455 135.70556641 31.09204102 C135.8003125 31.84807617 135.89505859 32.60411133 135.99267578 33.38305664 C136.586751 38.7025241 136.77882205 44.03554856 135.51806641 49.27954102 C129.57055629 55.22705113 112.27914392 52.46387039 104.04195595 52.50933647 C101.13583639 52.52596673 98.22983496 52.54920512 95.32377625 52.57423401 C87.07016018 52.64444239 78.81650017 52.70518003 70.56274414 52.75634766 C65.49137395 52.7882457 60.42014944 52.82952985 55.34889793 52.87654305 C53.42772227 52.89247545 51.50651333 52.90483702 49.58529091 52.91345024 C46.89647307 52.92569027 44.20799504 52.94987067 41.51928711 52.9765625 C40.7382814 52.97715164 39.9572757 52.97774078 39.15260315 52.97834778 C34.4276071 53.04007606 30.13993855 53.66312583 25.55755901 54.82675266 C22.22934421 55.56565061 18.97887574 55.54290703 15.58056641 55.52954102 C14.29279297 55.53469727 13.00501953 55.53985352 11.67822266 55.54516602 C7.99845777 55.43307234 4.38913631 55.03481769 0.73738098 54.5774231 C-11.69575102 53.03720784 -24.09114832 52.83454332 -36.60693359 52.65454102 C-38.83741566 52.61624669 -41.06788476 52.5771889 -43.29833984 52.53735352 C-48.69275368 52.44263927 -54.08724939 52.35725358 -59.48193359 52.27954102 C-60.86657956 23.75887736 -60.86657956 23.75887736 -54.44287109 15.39282227 C-53.79576172 14.69543945 -53.14865234 13.99805664 -52.48193359 13.27954102 C-51.99982422 12.6337207 -51.51771484 11.98790039 -51.02099609 11.32250977 C-47.22707792 7.03678739 -42.76481447 6.67937461 -37.29443359 6.15454102 C-36.59261963 6.11506348 -35.89080566 6.07558594 -35.16772461 6.03491211 C-30.36381875 5.70971049 -28.66401596 4.77126701 -25.48193359 1.27954102 C-17.35012204 -2.18360245 -8.57383723 -1.00582299 0 0 Z " fill="#FDFDFD" transform="translate(144.48193359375,267.720458984375)"/>
<path d="M0 0 C1.17046875 0.00064453 2.3409375 0.00128906 3.546875 0.00195312 C4.76117188 0.01806641 5.97546875 0.03417969 7.2265625 0.05078125 C9.03640625 0.04594727 9.03640625 0.04594727 10.8828125 0.04101562 C21.37199946 0.10441181 30.30847129 1.78203998 38.8515625 8.36328125 C40.58330261 11.28495974 41.28338352 14.03882976 41.8515625 17.36328125 C42.02237839 17.99013824 42.19319427 18.61699524 42.3691864 19.2628479 C43.15515035 22.68520835 42.93678245 26.14587918 42.87109375 29.63671875 C42.85696945 30.43808258 42.84284515 31.23944641 42.82829285 32.06509399 C42.79523566 33.75798002 42.75888985 35.45080458 42.71948242 37.14355469 C42.66440936 39.72204136 42.63574249 42.30000614 42.60742188 44.87890625 C42.5719522 46.52737985 42.53489455 48.1758202 42.49609375 49.82421875 C42.49172806 50.59003265 42.48736237 51.35584656 42.48286438 52.14486694 C42.320422 57.29432948 41.19667778 60.24691354 37.8515625 64.36328125 C32.70950487 68.18915059 24.89624074 67.16045065 18.8515625 66.36328125 C15.11448078 64.66162325 12.63567938 62.34777017 9.8515625 59.36328125 C9.0471875 58.50992188 8.2428125 57.6565625 7.4140625 56.77734375 C5.85273307 55.07089075 4.31148902 53.3457054 2.796875 51.59765625 C0.95462508 49.40852655 0.95462508 49.40852655 -0.84765625 47.7578125 C-2.1484375 46.36328125 -2.1484375 46.36328125 -3.0859375 43.30078125 C-3.82702651 40.30349564 -3.82702651 40.30349564 -5.9609375 39.23828125 C-6.6828125 38.94953125 -7.4046875 38.66078125 -8.1484375 38.36328125 C-14.00257174 34.558094 -16.69142841 29.05473039 -18.1484375 22.36328125 C-19.24539372 15.78154394 -16.44513516 11.66131558 -13.16796875 6.03515625 C-9.49694378 1.17832631 -5.98054445 -0.01681205 0 0 Z M-9.14672852 13.28955078 C-10.85813926 16.83250055 -11.42802403 19.02907788 -10.6171875 22.8984375 C-8.49896536 28.5967069 -8.49896536 28.5967069 -3.8359375 32.30078125 C-3.23394531 32.56890625 -2.63195312 32.83703125 -2.01171875 33.11328125 C1.44205187 35.43027621 3.13882556 39.23235791 5.2265625 42.74609375 C7.09218013 45.75081445 9.25633005 47.97293557 11.8515625 50.36328125 C12.71837753 51.39444653 13.57222571 52.43662496 14.4140625 53.48828125 C18.17611509 57.97020607 18.17611509 57.97020607 23.54296875 59.76171875 C24.96416016 59.75011719 24.96416016 59.75011719 26.4140625 59.73828125 C27.36410156 59.74601562 28.31414062 59.75375 29.29296875 59.76171875 C31.81269597 59.55221442 31.81269597 59.55221442 33.47290039 58.28588867 C35.57200486 55.3585914 35.34481446 52.77013099 35.46875 49.203125 C35.49381622 48.4986171 35.51888245 47.79410919 35.54470825 47.06825256 C35.59367004 45.57477378 35.63522162 44.08103638 35.66992188 42.5871582 C35.72578684 40.33209189 35.81428652 38.08001878 35.90625 35.82617188 C36.32462194 24.26231223 36.32462194 24.26231223 32.8515625 13.36328125 C30.90944132 11.23497743 30.90944132 11.23497743 28.4765625 10.30078125 C27.72632813 9.93855469 26.97609375 9.57632813 26.203125 9.203125 C20.09156832 7.02042618 13.83534531 6.9738942 7.4140625 6.80078125 C6.38990234 6.73826172 5.36574219 6.67574219 4.31054688 6.61132812 C-2.4466743 6.46699913 -5.56207497 7.38641578 -9.14672852 13.28955078 Z " fill="#000000" transform="translate(119.1484375,157.63671875)"/>
<path d="M0 0 C16.09422683 -0.44982719 16.09422683 -0.44982719 21.41650391 4.15136719 C22.18478516 4.94542969 22.95306641 5.73949219 23.74462891 6.55761719 C24.91251953 7.74871094 24.91251953 7.74871094 26.10400391 8.96386719 C30.07087337 13.35692924 29.61385044 18.48163237 29.46728516 24.15917969 C28.73181691 30.22527318 25.93395811 33.58075768 21.99462891 38.05761719 C20.78019873 39.65717321 19.57167058 41.26123063 18.36962891 42.87011719 C15.80635859 46.2023686 12.99105879 49.10958779 9.99462891 52.05761719 C9.0253041 53.04666663 8.05791947 54.03762055 7.09228516 55.03027344 C6.08061356 56.06026767 5.06889433 57.09021512 4.05712891 58.12011719 C3.55761719 58.63638672 3.05810547 59.15265625 2.54345703 59.68457031 C-5.42949675 67.76040092 -5.42949675 67.76040092 -11.25537109 68.43261719 C-23.89425998 67.1687283 -23.89425998 67.1687283 -27.00537109 64.05761719 C-27.90017018 60.69825791 -28.13504481 57.52085992 -28.15063477 54.05541992 C-28.15701462 53.0876915 -28.16339447 52.11996307 -28.16996765 51.12290955 C-28.17108047 50.08944901 -28.1721933 49.05598846 -28.17333984 47.99121094 C-28.17666824 46.92016617 -28.17999664 45.8491214 -28.1834259 44.74562073 C-28.18848047 42.48544748 -28.19083468 40.22526679 -28.19067383 37.96508789 C-28.1928653 34.50427038 -28.2110504 31.04376917 -28.22998047 27.58300781 C-28.23291367 25.38574328 -28.23489895 23.18847723 -28.23583984 20.99121094 C-28.24302536 19.95572617 -28.25021088 18.92024139 -28.25761414 17.8533783 C-28.25453751 16.88880203 -28.25146088 15.92422577 -28.24829102 14.93041992 C-28.24971603 14.08390366 -28.25114105 13.23738739 -28.25260925 12.36521912 C-27.97857341 9.80750055 -27.38095466 8.22275779 -26.00537109 6.05761719 C-17.74139122 1.06423521 -9.40091625 0.27010181 0 0 Z M-5.06787109 7.30761719 C-5.96634766 7.35402344 -6.86482422 7.40042969 -7.79052734 7.44824219 C-10.85475538 8.02906792 -13.32951816 8.91964322 -16.20629883 10.09570312 C-17.10541489 10.46145447 -18.00453094 10.82720581 -18.93089294 11.20404053 C-19.61547073 11.48572083 -20.30004852 11.76740112 -21.00537109 12.05761719 C-21.03066935 18.4296789 -21.04821605 24.80172773 -21.06030273 31.17382812 C-21.06534 33.34277836 -21.07217001 35.51172519 -21.08081055 37.68066406 C-21.09290261 40.79330282 -21.09860537 43.90589678 -21.10302734 47.01855469 C-21.10818863 47.99255219 -21.11334991 48.96654968 -21.1186676 49.97006226 C-21.11874313 50.87084503 -21.11881866 51.77162781 -21.11889648 52.69970703 C-21.1211171 53.49468597 -21.12333771 54.28966492 -21.12562561 55.10873413 C-21.12795634 57.13851285 -21.12795634 57.13851285 -20.00537109 59.05761719 C-16.71704153 60.41830528 -13.56342912 61.06288059 -10.00537109 61.05761719 C-5.23064231 58.67922785 -2.24402206 54.15990841 0.99462891 50.05761719 C1.77837891 49.43886719 2.56212891 48.82011719 3.36962891 48.18261719 C6.70892955 45.47937381 9.28328272 42.37316308 11.99462891 39.05761719 C12.65462891 38.27386719 13.31462891 37.49011719 13.99462891 36.68261719 C14.65462891 35.81636719 15.31462891 34.95011719 15.99462891 34.05761719 C16.51541016 33.41179687 17.03619141 32.76597656 17.57275391 32.10058594 C21.16025786 27.31445332 23.0182252 23.49347839 22.65869141 17.42871094 C21.46545234 13.16814555 18.54570105 10.54412809 14.99462891 8.05761719 C8.70862947 5.96228404 1.48256314 6.95216727 -5.06787109 7.30761719 Z " fill="#000000" transform="translate(234.00537109375,156.9423828125)"/>
<path d="M0 0 C0.99 0 1.98 0 3 0 C7.58638364 9.17276727 4.07726433 25.51919287 1.20703125 34.83984375 C-0.16151437 38.42286448 -1.77339268 41.63535197 -3.78515625 44.89453125 C-5.11621694 47.20141779 -6.01591939 49.50293719 -6.9375 52 C-8.9497821 57.20778607 -11.70567312 61.51344053 -15 66 C-15.58265625 66.79921875 -16.1653125 67.5984375 -16.765625 68.421875 C-19.86856902 72.55013965 -22.8174679 75.91813424 -27 79 C-28.16026023 80.16657743 -29.31974679 81.33393826 -30.47460938 82.50585938 C-32.19415762 84.19018 -33.97665595 85.78557209 -35.77734375 87.3828125 C-43.46076026 94.25961677 -50.10348859 100.23842716 -54 110 C-58.17809205 110.08250111 -61.65485961 109.67756244 -65.69921875 108.578125 C-70.08223697 107.47678935 -74.5487256 106.76915403 -79 106 C-76.77893507 102.66840261 -76.11203516 102.43913877 -72.5 101.1875 C-65.95215135 98.71661372 -58.59329921 95.48047849 -54 90 C-53.79375 89.05125 -53.5875 88.1025 -53.375 87.125 C-51.56955452 83.02171481 -49.53614084 82.4832494 -45.64453125 80.546875 C-39.4799108 76.9409818 -34.39016715 71.47828392 -29.45703125 66.36328125 C-27.19808381 64.19052576 -25.10041242 62.79450976 -22.4375 61.1875 C-17.343694 57.37763521 -16.60990343 52.82882643 -15.45678711 46.91918945 C-14.35101794 41.57349634 -12.74625598 38.46810216 -8.78125 34.7734375 C-2.34472834 28.36514619 -2.41534336 23.11545329 -2.375 14.25 C-2.34957087 11.98426478 -2.31613198 9.71860065 -2.2734375 7.453125 C-2.26747559 6.45442383 -2.26151367 5.45572266 -2.25537109 4.42675781 C-2 2 -2 2 0 0 Z " fill="#DBD9D9" transform="translate(309,156)"/>
<path d="M0 0 C1.00876419 0.99115832 2.00773764 1.99232178 3 3 C11.29888972 8.46633455 21.38404515 7.54034388 30.88696289 7.41162109 C33.69128625 7.37495049 36.49428903 7.37060375 39.29882812 7.37109375 C41.09896965 7.36126583 42.89910232 7.34961024 44.69921875 7.3359375 C45.52854416 7.33371185 46.35786957 7.33148621 47.21232605 7.32919312 C53.37667749 7.22938247 58.58450084 6.25605956 64.125 3.375 C67.1244245 1.94049263 68.73466879 1.47048683 72 2 C74.4071187 3.57707777 74.8996214 4.57617923 75.5625 7.375 C74.88739641 10.52548343 73.6015315 11.92629323 71.0625 13.8671875 C67.66547854 15.7329758 64.04897423 16.55003567 60.29296875 17.421875 C58.05013595 17.77893838 58.05013595 17.77893838 57 19 C55.59102891 19.11889465 54.17624551 19.17004475 52.76245117 19.19287109 C51.40919991 19.21696548 51.40919991 19.21696548 50.02861023 19.24154663 C45.85347174 19.28614301 41.67849581 19.32715462 37.50317383 19.35009766 C35.31230977 19.36655212 33.12149701 19.3937004 30.9309082 19.43212891 C4.31328496 19.89658937 4.31328496 19.89658937 -5.75 11 C-8 8 -8 8 -8.5625 5.3125 C-7.3841896 0.46833503 -4.8309256 -0.72463884 0 0 Z " fill="#010101" transform="translate(147,288)"/>
<path d="M0 0 C1.32 6.36 1.32 6.36 0 9 C-3.11708365 10.55854182 -5.6858308 9.68784644 -9 9 C-10.32 2.64 -10.32 2.64 -9 0 C-5.88291635 -1.55854182 -3.3141692 -0.68784644 0 0 Z " fill="#030303" transform="translate(206,274)"/>
<path d="M0 0 C1.875 1.0625 1.875 1.0625 3 3 C2.6875 6.6875 2.6875 6.6875 2 10 C-4.42548263 11.33359073 -4.42548263 11.33359073 -6.9375 9.875 C-8.36066991 7.36352369 -8.42674516 5.84496772 -8 3 C-5.85607122 -0.27231235 -3.76836426 -0.56525464 0 0 Z " fill="#070707" transform="translate(164,276)"/>
</svg>
