<?xml version="1.0" encoding="UTF-8"?>
<svg version="1.1" xmlns="http://www.w3.org/2000/svg" width="360" height="360">
<path d="M0 0 C1.39895508 -0.01836914 1.39895508 -0.01836914 2.82617188 -0.03710938 C12.8978243 -0.05864534 12.8978243 -0.05864534 16.9921875 3.5625 C25.73501161 14.3228989 31.03907694 22.17978308 30.8984375 36.46875 C30.10538038 42.86697353 26.86764272 46.75735728 22.4375 51.1875 C22.66234016 59.69174839 25.40771355 67.74365166 28.21875 75.6796875 C29.42648978 79.15581032 30.45481577 82.64181487 31.4375 86.1875 C33.6409105 94.09668529 36.04059017 101.21371269 40.4375 108.1875 C42.78122379 105.84377621 42.84307897 104.81228353 43.5 101.625 C44.89626516 96.12675376 47.21860139 91.55391826 49.9375 86.625 C55.97914492 75.548852 58.3759488 65.88243439 58.4375 53.1875 C57.71035258 49.95507003 57.71035258 49.95507003 54.6875 48.4375 C50.39077084 45.46284135 47.01677708 42.22985014 46.00537109 36.91796875 C45.87489876 34.44755817 45.90152217 32.03410044 46 29.5625 C46.00870117 28.31339844 46.00870117 28.31339844 46.01757812 27.0390625 C46.13509491 21.13501944 46.73203738 17.072485 50.8125 12.5625 C60.48147851 3.81437659 74.30277157 1.26581521 87.1328125 1.6796875 C91.95060547 2.4200103 95.58028477 4.26061582 99.4375 7.1875 C99.4375 7.8475 99.4375 8.5075 99.4375 9.1875 C100.4275 9.5175 101.4175 9.8475 102.4375 10.1875 C102.4375 10.8475 102.4375 11.5075 102.4375 12.1875 C103.4275 12.5175 104.4175 12.8475 105.4375 13.1875 C108.98329357 18.37626175 109.01389678 23.43085061 109 29.5 C109.0007251 30.90415161 109.0007251 30.90415161 109.00146484 32.33666992 C108.84914924 38.59421147 108.03747037 43.00492716 103.9453125 47.95703125 C102.4375 49.1875 102.4375 49.1875 100.4375 49.1875 C100.14875 50.425 99.86 51.6625 99.5625 52.9375 C99.04664895 55.14829023 98.59442466 56.92840577 97.41455078 58.87646484 C96.05923365 62.08221996 96.178035 64.83000802 96.171875 68.3046875 C96.16900482 69.34509689 96.16900482 69.34509689 96.16607666 70.40652466 C96.16471725 71.87746543 96.16839667 73.3484183 96.17675781 74.81933594 C96.18729874 77.020474 96.17694028 79.22076502 96.1640625 81.421875 C95.76036337 96.22234267 95.76036337 96.22234267 99.4375 110.1875 C99.52092159 111.63598582 99.54482861 113.08820869 99.53515625 114.5390625 C99.53193359 115.38984375 99.52871094 116.240625 99.52539062 117.1171875 C99.51701172 118.00664062 99.50863281 118.89609375 99.5 119.8125 C99.49548828 120.7096875 99.49097656 121.606875 99.48632812 122.53125 C99.47452591 124.75006648 99.45806155 126.96875018 99.4375 129.1875 C100.0975 129.1875 100.7575 129.1875 101.4375 129.1875 C101.7675 128.1975 102.0975 127.2075 102.4375 126.1875 C103.0975 126.1875 103.7575 126.1875 104.4375 126.1875 C104.7675 125.1975 105.0975 124.2075 105.4375 123.1875 C106.0975 123.1875 106.7575 123.1875 107.4375 123.1875 C107.64375 122.33929688 107.85 121.49109375 108.0625 120.6171875 C109.79182325 116.30370507 112.25497494 113.63013226 115.4375 110.3125 C115.9840625 109.71953125 116.530625 109.1265625 117.09375 108.515625 C118.49376787 107.02639031 119.96106951 105.60101442 121.4375 104.1875 C122.0975 104.1875 122.7575 104.1875 123.4375 104.1875 C123.7675 103.1975 124.0975 102.2075 124.4375 101.1875 C125.0975 100.8575 125.7575 100.5275 126.4375 100.1875 C126.04949932 95.96681904 126.04949932 95.96681904 123.91796875 92.44921875 C121.79175994 89.20100001 122.03963611 86.59494398 122.0625 82.75 C122.05476562 81.45191406 122.04703125 80.15382813 122.0390625 78.81640625 C122.45821018 74.99887492 123.05984347 73.16487794 125.4375 70.1875 C127.5234375 68.7109375 127.5234375 68.7109375 129.8125 67.5625 C130.61558594 67.15 131.41867187 66.7375 132.24609375 66.3125 C132.96925781 65.94125 133.69242188 65.57 134.4375 65.1875 C135.6440625 64.383125 135.6440625 64.383125 136.875 63.5625 C146.23858675 58.53813638 157.18826309 57.44748868 167.4375 60.3125 C171.60629862 61.96630128 174.17892976 64.33464488 176.4375 68.1875 C176.829375 68.80625 177.22125 69.425 177.625 70.0625 C181.9343394 78.44177105 182.87342717 90.12318797 180.4375 99.1875 C176.53712911 106.38062386 169.9567604 112.51076047 162.66015625 116.15234375 C158.59696427 118.71831105 157.99209064 120.70166317 156.4375 125.1875 C152.03027861 135.04100295 147.15728047 143.88580638 139.86328125 151.921875 C137.85128227 155.11902407 137.21707027 158.54069672 136.4375 162.1875 C135.45192286 166.79799645 134.5830267 170.54135897 131.4375 174.1875 C128.00463836 181.46516668 126.24804933 188.09830906 126.0625 196.125 C125.79987547 202.47236567 124.80580812 206.77779301 121.4375 212.1875 C121.1075 213.115625 120.7775 214.04375 120.4375 215 C119.22331201 217.65603623 117.928257 218.70861303 115.4375 220.1875 C114.7775 220.1875 114.1175 220.1875 113.4375 220.1875 C113.1075 221.1775 112.7775 222.1675 112.4375 223.1875 C111.7775 223.5175 111.1175 223.8475 110.4375 224.1875 C111.29472656 224.20167969 112.15195313 224.21585938 113.03515625 224.23046875 C120.30186936 224.53358982 125.17276358 225.01026613 130.4375 230.1875 C131.283125 230.991875 132.12875 231.79625 133 232.625 C133.804375 233.470625 134.60875 234.31625 135.4375 235.1875 C135.92089844 235.61546875 136.40429688 236.0434375 136.90234375 236.484375 C142.58282842 241.63005577 146.07969998 247.23950202 146.78125 254.98046875 C146.8781558 259.39228742 146.67626923 263.78302798 146.4375 268.1875 C146.35675678 269.88671808 146.27602784 271.58593684 146.1953125 273.28515625 C145.97880219 277.58861209 145.71911523 281.88783883 145.4375 286.1875 C140.66408977 287.7193356 136.70660438 288.43118211 131.64599609 288.39599609 C130.96997471 288.39421986 130.29395332 288.39244362 129.59744644 288.39061356 C127.2601249 288.38200171 124.92316116 288.35872753 122.5859375 288.3359375 C120.8284045 288.3264021 119.07086595 288.31785346 117.31332397 288.31015015 C113.16419704 288.29029564 109.01515941 288.26405771 104.86608887 288.23474121 C97.15770806 288.18257526 89.44931074 288.15394567 81.74081087 288.12673998 C65.30293366 288.06857037 48.86522155 287.99085702 32.42749405 287.89993668 C22.32965088 287.84429955 12.23181899 287.79524807 2.13390505 287.75435698 C-5.05760986 287.72467461 -12.24906257 287.68749348 -19.44051135 287.64470994 C-23.7061811 287.61954598 -27.97180603 287.59772677 -32.23752975 287.58415604 C-36.21236187 287.57138067 -40.18703357 287.54937688 -44.1617775 287.52011681 C-45.61828639 287.51102935 -47.07482103 287.50534808 -48.53135681 287.50328636 C-50.51405399 287.49997491 -52.49671573 287.48334152 -54.4793396 287.4659729 C-55.58846899 287.46044214 -56.69759838 287.45491138 -57.84033775 287.44921303 C-60.5625 287.1875 -60.5625 287.1875 -63.5625 285.1875 C-63.67515974 282.17918051 -63.60812532 279.42317546 -63.375 276.4375 C-63.31820068 275.58148193 -63.26140137 274.72546387 -63.20288086 273.84350586 C-62.75918746 267.65204502 -62.08189116 261.51708734 -61.0703125 255.390625 C-60.52448633 252.20748947 -60.52448633 252.20748947 -60.3046875 249.046875 C-59.44669453 240.46694531 -55.92105289 234.98380143 -49.5625 229.1875 C-46.95304991 227.60496278 -44.51652962 226.87565463 -41.5625 226.1875 C-39.8919201 225.63673069 -38.22519013 225.07414769 -36.5625 224.5 C-35.22966774 224.06097586 -33.89651777 223.62290858 -32.5625 223.1875 C-36.13135889 215.77642281 -39.93696665 208.76114262 -44.8125 202.125 C-46.85994069 198.68822456 -47.09336232 196.14166047 -47.5625 192.1875 C-47.97206899 190.84404531 -48.41663588 189.51099513 -48.88671875 188.1875 C-50.09329051 184.66812333 -51.15906536 181.13950425 -52.140625 177.55078125 C-54.99454533 167.17768227 -57.92149682 157.53811116 -63.07421875 148.078125 C-64.8188391 144.68962354 -65.78071719 141.37644008 -66.7421875 137.70703125 C-68.11654465 133.48579142 -70.26355349 129.65779677 -72.35546875 125.75390625 C-73.5625 123.1875 -73.5625 123.1875 -73.5625 120.1875 C-74.67625 120.249375 -75.79 120.31125 -76.9375 120.375 C-78.13375 120.313125 -79.33 120.25125 -80.5625 120.1875 C-81.2225 119.1975 -81.8825 118.2075 -82.5625 117.1875 C-84.61253955 115.99517387 -84.61253955 115.99517387 -86.5625 115.1875 C-86.5625 114.5275 -86.5625 113.8675 -86.5625 113.1875 C-87.5525 112.8575 -88.5425 112.5275 -89.5625 112.1875 C-89.5625 111.5275 -89.5625 110.8675 -89.5625 110.1875 C-90.5525 109.8575 -91.5425 109.5275 -92.5625 109.1875 C-95.5625 103.96527778 -95.5625 103.96527778 -95.5625 101.1875 C-96.490625 100.9090625 -96.490625 100.9090625 -97.4375 100.625 C-100.00749098 98.88647669 -100.56205294 97.35518379 -101.23828125 94.37109375 C-102.55660492 85.49226324 -101.68801503 79.60194366 -96.5625 72.1875 C-96.14355469 71.548125 -95.72460938 70.90875 -95.29296875 70.25 C-92.73094313 66.47609559 -90.05235633 63.16314972 -86.5625 60.1875 C-83.24438477 59.55639648 -83.24438477 59.55639648 -79.50390625 59.55859375 C-78.83713364 59.55618179 -78.17036102 59.55376984 -77.48338318 59.55128479 C-76.07894928 59.55226033 -74.67447553 59.56558446 -73.27026367 59.59057617 C-71.13390802 59.62485706 -69.00170259 59.61123497 -66.86523438 59.59179688 C-65.49477425 59.5986976 -64.12432471 59.60837206 -62.75390625 59.62109375 C-61.51842041 59.63197021 -60.28293457 59.64284668 -59.01000977 59.65405273 C-52.16263548 60.71357492 -46.78162867 65.89571149 -42.5625 71.1875 C-37.70195836 79.02708328 -38.13514451 87.28426072 -38.5625 96.1875 C-39.5525 96.5175 -40.5425 96.8475 -41.5625 97.1875 C-43.62229325 100.62048874 -44.77161269 103.25599802 -43.875 107.25 C-42.37487291 110.6074273 -41.83837403 110.87715039 -38.5625 112.1875 C-37.840625 112.785625 -37.11875 113.38375 -36.375 114 C-33.23928027 116.43889312 -29.99017212 118.15531458 -26.453125 119.94140625 C-24.5625 121.1875 -24.5625 121.1875 -23.5625 124.1875 C-21.17181266 125.29386395 -21.17181266 125.29386395 -18.5625 126.1875 C-17.0775 127.1775 -17.0775 127.1775 -15.5625 128.1875 C-15.4226142 120.18070303 -15.31643689 112.17442839 -15.25162697 104.16670609 C-15.22049893 100.44711974 -15.17837546 96.72837783 -15.10986328 93.00927734 C-15.04399501 89.41060007 -15.0086552 85.81272756 -14.99323654 82.21349335 C-14.97698268 80.19286004 -14.93025419 78.17254432 -14.88272095 76.15240479 C-14.87980983 68.05600508 -16.20816426 62.52022933 -20.27059937 55.4821167 C-21.5625 53.1875 -21.5625 53.1875 -21.5625 51.1875 C-22.2225 50.98125 -22.8825 50.775 -23.5625 50.5625 C-27.81824415 48.6119506 -31.49657581 46.81525179 -34.5625 43.1875 C-35.70743249 39.05643953 -35.5920594 35.13535512 -35.4375 30.875 C-35.45167969 29.78509766 -35.46585937 28.69519531 -35.48046875 27.57226562 C-35.36145391 19.9598936 -33.70893806 14.8649908 -28.5625 9.1875 C-19.52886527 1.26324093 -11.79085831 0.00818241 0 0 Z M32.4375 111.1875 C33.4375 113.1875 33.4375 113.1875 33.4375 113.1875 Z " fill="#FDFDFD" transform="translate(140.5625,38.8125)"/>
<path d="M0 0 C1.39895508 -0.01836914 1.39895508 -0.01836914 2.82617188 -0.03710938 C12.8978243 -0.05864534 12.8978243 -0.05864534 16.9921875 3.5625 C25.73501161 14.3228989 31.03907694 22.17978308 30.8984375 36.46875 C30.10538038 42.86697353 26.86764272 46.75735728 22.4375 51.1875 C22.66234016 59.69174839 25.40771355 67.74365166 28.21875 75.6796875 C29.42648978 79.15581032 30.45481577 82.64181487 31.4375 86.1875 C33.6409105 94.09668529 36.04059017 101.21371269 40.4375 108.1875 C42.78122379 105.84377621 42.84307897 104.81228353 43.5 101.625 C44.89626516 96.12675376 47.21860139 91.55391826 49.9375 86.625 C55.97914492 75.548852 58.3759488 65.88243439 58.4375 53.1875 C57.71035258 49.95507003 57.71035258 49.95507003 54.6875 48.4375 C50.39077084 45.46284135 47.01677708 42.22985014 46.00537109 36.91796875 C45.87489876 34.44755817 45.90152217 32.03410044 46 29.5625 C46.00870117 28.31339844 46.00870117 28.31339844 46.01757812 27.0390625 C46.13509491 21.13501944 46.73203738 17.072485 50.8125 12.5625 C60.48147851 3.81437659 74.30277157 1.26581521 87.1328125 1.6796875 C91.95060547 2.4200103 95.58028477 4.26061582 99.4375 7.1875 C99.4375 7.8475 99.4375 8.5075 99.4375 9.1875 C100.4275 9.5175 101.4175 9.8475 102.4375 10.1875 C102.4375 10.8475 102.4375 11.5075 102.4375 12.1875 C103.4275 12.5175 104.4175 12.8475 105.4375 13.1875 C108.98329357 18.37626175 109.01389678 23.43085061 109 29.5 C109.0007251 30.90415161 109.0007251 30.90415161 109.00146484 32.33666992 C108.84914924 38.59421147 108.03747037 43.00492716 103.9453125 47.95703125 C102.4375 49.1875 102.4375 49.1875 100.4375 49.1875 C100.14875 50.425 99.86 51.6625 99.5625 52.9375 C99.04664895 55.14829023 98.59442466 56.92840577 97.41455078 58.87646484 C96.05923365 62.08221996 96.178035 64.83000802 96.171875 68.3046875 C96.16900482 69.34509689 96.16900482 69.34509689 96.16607666 70.40652466 C96.16471725 71.87746543 96.16839667 73.3484183 96.17675781 74.81933594 C96.18729874 77.020474 96.17694028 79.22076502 96.1640625 81.421875 C95.76036337 96.22234267 95.76036337 96.22234267 99.4375 110.1875 C99.52092159 111.63598582 99.54482861 113.08820869 99.53515625 114.5390625 C99.53193359 115.38984375 99.52871094 116.240625 99.52539062 117.1171875 C99.51701172 118.00664062 99.50863281 118.89609375 99.5 119.8125 C99.49548828 120.7096875 99.49097656 121.606875 99.48632812 122.53125 C99.47452591 124.75006648 99.45806155 126.96875018 99.4375 129.1875 C100.0975 129.1875 100.7575 129.1875 101.4375 129.1875 C101.7675 128.1975 102.0975 127.2075 102.4375 126.1875 C103.0975 126.1875 103.7575 126.1875 104.4375 126.1875 C104.7675 125.1975 105.0975 124.2075 105.4375 123.1875 C106.0975 123.1875 106.7575 123.1875 107.4375 123.1875 C107.64375 122.33929688 107.85 121.49109375 108.0625 120.6171875 C109.79182325 116.30370507 112.25497494 113.63013226 115.4375 110.3125 C115.9840625 109.71953125 116.530625 109.1265625 117.09375 108.515625 C118.49376787 107.02639031 119.96106951 105.60101442 121.4375 104.1875 C122.0975 104.1875 122.7575 104.1875 123.4375 104.1875 C123.7675 103.1975 124.0975 102.2075 124.4375 101.1875 C125.0975 100.8575 125.7575 100.5275 126.4375 100.1875 C126.04949932 95.96681904 126.04949932 95.96681904 123.91796875 92.44921875 C121.79175994 89.20100001 122.03963611 86.59494398 122.0625 82.75 C122.05476562 81.45191406 122.04703125 80.15382813 122.0390625 78.81640625 C122.45821018 74.99887492 123.05984347 73.16487794 125.4375 70.1875 C127.5234375 68.7109375 127.5234375 68.7109375 129.8125 67.5625 C130.61558594 67.15 131.41867187 66.7375 132.24609375 66.3125 C132.96925781 65.94125 133.69242188 65.57 134.4375 65.1875 C135.6440625 64.383125 135.6440625 64.383125 136.875 63.5625 C146.23858675 58.53813638 157.18826309 57.44748868 167.4375 60.3125 C171.60629862 61.96630128 174.17892976 64.33464488 176.4375 68.1875 C176.829375 68.80625 177.22125 69.425 177.625 70.0625 C181.9343394 78.44177105 182.87342717 90.12318797 180.4375 99.1875 C176.53712911 106.38062386 169.9567604 112.51076047 162.66015625 116.15234375 C158.59696427 118.71831105 157.99209064 120.70166317 156.4375 125.1875 C152.03027861 135.04100295 147.15728047 143.88580638 139.86328125 151.921875 C137.85128227 155.11902407 137.21707027 158.54069672 136.4375 162.1875 C135.45192286 166.79799645 134.5830267 170.54135897 131.4375 174.1875 C128.00463836 181.46516668 126.24804933 188.09830906 126.0625 196.125 C125.79987547 202.47236567 124.80580812 206.77779301 121.4375 212.1875 C121.1075 213.115625 120.7775 214.04375 120.4375 215 C119.22331201 217.65603623 117.928257 218.70861303 115.4375 220.1875 C114.7775 220.1875 114.1175 220.1875 113.4375 220.1875 C113.1075 221.1775 112.7775 222.1675 112.4375 223.1875 C111.7775 223.5175 111.1175 223.8475 110.4375 224.1875 C111.29472656 224.20167969 112.15195313 224.21585938 113.03515625 224.23046875 C120.30186936 224.53358982 125.17276358 225.01026613 130.4375 230.1875 C131.283125 230.991875 132.12875 231.79625 133 232.625 C133.804375 233.470625 134.60875 234.31625 135.4375 235.1875 C135.92089844 235.61546875 136.40429688 236.0434375 136.90234375 236.484375 C142.58282842 241.63005577 146.07969998 247.23950202 146.78125 254.98046875 C146.8781558 259.39228742 146.67626923 263.78302798 146.4375 268.1875 C146.35675678 269.88671808 146.27602784 271.58593684 146.1953125 273.28515625 C145.97880219 277.58861209 145.71911523 281.88783883 145.4375 286.1875 C140.66408977 287.7193356 136.70660438 288.43118211 131.64599609 288.39599609 C130.96997471 288.39421986 130.29395332 288.39244362 129.59744644 288.39061356 C127.2601249 288.38200171 124.92316116 288.35872753 122.5859375 288.3359375 C120.8284045 288.3264021 119.07086595 288.31785346 117.31332397 288.31015015 C113.16419704 288.29029564 109.01515941 288.26405771 104.86608887 288.23474121 C97.15770806 288.18257526 89.44931074 288.15394567 81.74081087 288.12673998 C65.30293366 288.06857037 48.86522155 287.99085702 32.42749405 287.89993668 C22.32965088 287.84429955 12.23181899 287.79524807 2.13390505 287.75435698 C-5.05760986 287.72467461 -12.24906257 287.68749348 -19.44051135 287.64470994 C-23.7061811 287.61954598 -27.97180603 287.59772677 -32.23752975 287.58415604 C-36.21236187 287.57138067 -40.18703357 287.54937688 -44.1617775 287.52011681 C-45.61828639 287.51102935 -47.07482103 287.50534808 -48.53135681 287.50328636 C-50.51405399 287.49997491 -52.49671573 287.48334152 -54.4793396 287.4659729 C-55.58846899 287.46044214 -56.69759838 287.45491138 -57.84033775 287.44921303 C-60.5625 287.1875 -60.5625 287.1875 -63.5625 285.1875 C-63.67515974 282.17918051 -63.60812532 279.42317546 -63.375 276.4375 C-63.31820068 275.58148193 -63.26140137 274.72546387 -63.20288086 273.84350586 C-62.75918746 267.65204502 -62.08189116 261.51708734 -61.0703125 255.390625 C-60.52448633 252.20748947 -60.52448633 252.20748947 -60.3046875 249.046875 C-59.44669453 240.46694531 -55.92105289 234.98380143 -49.5625 229.1875 C-46.95304991 227.60496278 -44.51652962 226.87565463 -41.5625 226.1875 C-39.8919201 225.63673069 -38.22519013 225.07414769 -36.5625 224.5 C-35.22966774 224.06097586 -33.89651777 223.62290858 -32.5625 223.1875 C-36.13135889 215.77642281 -39.93696665 208.76114262 -44.8125 202.125 C-46.85994069 198.68822456 -47.09336232 196.14166047 -47.5625 192.1875 C-47.97206899 190.84404531 -48.41663588 189.51099513 -48.88671875 188.1875 C-50.09329051 184.66812333 -51.15906536 181.13950425 -52.140625 177.55078125 C-54.99454533 167.17768227 -57.92149682 157.53811116 -63.07421875 148.078125 C-64.8188391 144.68962354 -65.78071719 141.37644008 -66.7421875 137.70703125 C-68.11654465 133.48579142 -70.26355349 129.65779677 -72.35546875 125.75390625 C-73.5625 123.1875 -73.5625 123.1875 -73.5625 120.1875 C-74.67625 120.249375 -75.79 120.31125 -76.9375 120.375 C-78.13375 120.313125 -79.33 120.25125 -80.5625 120.1875 C-81.2225 119.1975 -81.8825 118.2075 -82.5625 117.1875 C-84.61253955 115.99517387 -84.61253955 115.99517387 -86.5625 115.1875 C-86.5625 114.5275 -86.5625 113.8675 -86.5625 113.1875 C-87.5525 112.8575 -88.5425 112.5275 -89.5625 112.1875 C-89.5625 111.5275 -89.5625 110.8675 -89.5625 110.1875 C-90.5525 109.8575 -91.5425 109.5275 -92.5625 109.1875 C-95.5625 103.96527778 -95.5625 103.96527778 -95.5625 101.1875 C-96.490625 100.9090625 -96.490625 100.9090625 -97.4375 100.625 C-100.00749098 98.88647669 -100.56205294 97.35518379 -101.23828125 94.37109375 C-102.55660492 85.49226324 -101.68801503 79.60194366 -96.5625 72.1875 C-96.14355469 71.548125 -95.72460938 70.90875 -95.29296875 70.25 C-92.73094313 66.47609559 -90.05235633 63.16314972 -86.5625 60.1875 C-83.24438477 59.55639648 -83.24438477 59.55639648 -79.50390625 59.55859375 C-78.83713364 59.55618179 -78.17036102 59.55376984 -77.48338318 59.55128479 C-76.07894928 59.55226033 -74.67447553 59.56558446 -73.27026367 59.59057617 C-71.13390802 59.62485706 -69.00170259 59.61123497 -66.86523438 59.59179688 C-65.49477425 59.5986976 -64.12432471 59.60837206 -62.75390625 59.62109375 C-61.51842041 59.63197021 -60.28293457 59.64284668 -59.01000977 59.65405273 C-52.16263548 60.71357492 -46.78162867 65.89571149 -42.5625 71.1875 C-37.70195836 79.02708328 -38.13514451 87.28426072 -38.5625 96.1875 C-39.5525 96.5175 -40.5425 96.8475 -41.5625 97.1875 C-43.62229325 100.62048874 -44.77161269 103.25599802 -43.875 107.25 C-42.37487291 110.6074273 -41.83837403 110.87715039 -38.5625 112.1875 C-37.840625 112.785625 -37.11875 113.38375 -36.375 114 C-33.23928027 116.43889312 -29.99017212 118.15531458 -26.453125 119.94140625 C-24.5625 121.1875 -24.5625 121.1875 -23.5625 124.1875 C-21.17181266 125.29386395 -21.17181266 125.29386395 -18.5625 126.1875 C-17.0775 127.1775 -17.0775 127.1775 -15.5625 128.1875 C-15.4226142 120.18070303 -15.31643689 112.17442839 -15.25162697 104.16670609 C-15.22049893 100.44711974 -15.17837546 96.72837783 -15.10986328 93.00927734 C-15.04399501 89.41060007 -15.0086552 85.81272756 -14.99323654 82.21349335 C-14.97698268 80.19286004 -14.93025419 78.17254432 -14.88272095 76.15240479 C-14.87980983 68.05600508 -16.20816426 62.52022933 -20.27059937 55.4821167 C-21.5625 53.1875 -21.5625 53.1875 -21.5625 51.1875 C-22.2225 50.98125 -22.8825 50.775 -23.5625 50.5625 C-27.81824415 48.6119506 -31.49657581 46.81525179 -34.5625 43.1875 C-35.70743249 39.05643953 -35.5920594 35.13535512 -35.4375 30.875 C-35.45167969 29.78509766 -35.46585937 28.69519531 -35.48046875 27.57226562 C-35.36145391 19.9598936 -33.70893806 14.8649908 -28.5625 9.1875 C-19.52886527 1.26324093 -11.79085831 0.00818241 0 0 Z M-23.5625 14.1875 C-27.29309657 19.57689178 -28.33753935 23.73503187 -28.3125 30.25 C-28.31145264 31.05203857 -28.31040527 31.85407715 -28.30932617 32.68041992 C-28.16577684 36.27582989 -28.02618497 38.52158135 -25.94140625 41.515625 C-23.88401316 42.99352552 -21.83971201 44.08698862 -19.5625 45.1875 C-13.22271322 50.96375018 -9.01193846 57.76982348 -8.29284668 66.43798828 C-8.19923129 70.40854483 -8.19806487 74.37283621 -8.234375 78.34375 C-8.23743909 79.81530564 -8.23931026 81.2868642 -8.24005127 82.75842285 C-8.24463439 85.83141315 -8.25898136 88.9041385 -8.28125 91.97705078 C-8.30953036 95.89733921 -8.32046447 99.81741983 -8.3249321 103.7378006 C-8.33011124 107.50230992 -8.3446303 111.26676829 -8.359375 115.03125 C-8.36125572 115.73969559 -8.36313644 116.44814117 -8.36507416 117.17805481 C-8.3893578 124.25778233 -8.44511604 131.1876157 -9.5625 138.1875 C-11.30859375 138.87109375 -11.30859375 138.87109375 -13.5625 139.1875 C-15.53515625 138.03515625 -15.53515625 138.03515625 -17.625 136.25 C-23.84974206 131.12253537 -30.1944363 125.90880796 -37.3125 122.0625 C-43.99323029 118.20823252 -49.29821702 113.80372458 -51.5625 106.1875 C-51.85061519 103.15048248 -51.81563651 100.22513809 -51.5625 97.1875 C-50.634375 96.7853125 -50.634375 96.7853125 -49.6875 96.375 C-47.2629767 95.23193152 -47.2629767 95.23193152 -45.5625 92.1875 C-44.41203105 85.52548211 -46.06948745 79.84340242 -49.5625 74.1875 C-52.60467524 70.43355975 -55.6570843 67.67014 -60.41162109 66.46582031 C-63.64052307 66.13766532 -66.75522527 66.06401341 -70 66.125 C-71.67570068 66.14022705 -71.67570068 66.14022705 -73.38525391 66.15576172 C-80.13107587 66.39198443 -80.13107587 66.39198443 -86.08984375 69.23046875 C-88.4263687 71.80025742 -90.01572378 74.08520872 -91.5625 77.1875 C-92.11679688 78.21488281 -92.67109375 79.24226563 -93.2421875 80.30078125 C-95.40612541 85.0319946 -95.15867275 90.26596737 -93.5625 95.1875 C-92.27432656 96.56451298 -90.93445574 97.89394173 -89.5625 99.1875 C-89.02625 100.095 -88.49 101.0025 -87.9375 101.9375 C-83.66646087 108.58133864 -76.92097293 112.85082615 -69.5625 115.1875 C-67.36142285 117.38857715 -66.76981209 118.92335285 -65.6875 121.8125 C-64.44131359 125.04609895 -63.12879042 128.12961759 -61.5 131.1875 C-60.03027808 134.02519386 -59.07425174 136.72658192 -58.25 139.8125 C-57.07359886 144.04498672 -55.34823708 147.58152923 -53.25 151.4375 C-49.07347461 159.24313674 -47.06965114 167.54401277 -44.921875 176.0859375 C-44.09112794 179.36488024 -43.12927466 182.49485326 -41.90625 185.6484375 C-40.5625 189.1875 -40.5625 189.1875 -40.3125 192.4375 C-38.96325995 199.18370024 -34.92540254 205.37731763 -30.51953125 210.6171875 C-28.18066277 213.6889948 -27.03311224 216.62290062 -25.5625 220.1875 C-24.63501953 220.21255615 -23.70753906 220.2376123 -22.75195312 220.26342773 C-19.27789461 220.35913362 -15.8039708 220.4583291 -12.33007812 220.55981445 C-10.83272126 220.60285863 -9.33532487 220.64455201 -7.83789062 220.68481445 C-5.67305644 220.74326498 -3.50841566 220.80673453 -1.34375 220.87109375 C0.6043457 220.92608032 0.6043457 220.92608032 2.59179688 220.98217773 C5.88167857 221.15782467 9.09020564 221.50867743 12.3538208 221.9427948 C16.17527072 222.39158205 20.00904908 222.54829118 23.8515625 222.71484375 C24.78569977 222.75544418 25.71983704 222.79604462 26.68228149 222.83787537 C38.86785739 223.32835374 51.05796135 223.58277213 63.25243759 223.68400002 C66.92628382 223.71504917 70.5984261 223.7622975 74.27148438 223.84594727 C77.89563126 223.92810366 81.5182723 223.97058303 85.1432991 223.98545647 C87.15766501 224.00343089 89.17155594 224.0609436 91.18515015 224.11952209 C97.96631899 224.19544066 97.96631899 224.19544066 103.95489502 221.4213562 C106.08432686 219.3279348 106.08432686 219.3279348 107.79702759 217.10411072 C109.55364957 215.05179914 111.0197923 214.30964422 113.4375 213.1875 C118.54618677 205.9995364 118.98429016 198.34715052 119.265625 189.88671875 C119.49962925 184.85030918 119.73267317 179.89232683 123.4375 176.1875 C123.98519255 174.87303789 124.48124468 173.53642878 124.9375 172.1875 C125.86491645 169.4455731 126.34376198 168.28123802 128.4375 166.1875 C128.87589622 164.39028325 129.30662863 162.59047128 129.6796875 160.77856445 C131.34792697 152.71083398 133.64881863 147.24604997 139.4375 141.1875 C142.24003268 137.85475843 143.85553315 135.21055427 145.4375 131.1875 C146.21344574 129.61713362 147.00560322 128.05468966 147.8125 126.5 C149.63637385 122.96855731 151.00942085 119.52136063 152.25 115.75 C153.234375 113.21484375 153.234375 113.21484375 154.4375 111.1875 C158 109.8125 158 109.8125 160.06640625 109.23828125 C165.7068775 106.73863254 170.57587651 101.6351191 173.4375 96.1875 C175.68853205 88.15209456 173.91130399 79.44507168 170.5078125 72.0078125 C168.79672539 69.09771545 167.57586614 68.23832838 164.375 67.0625 C154.57471365 64.56201542 145.45128393 66.81496309 136.70703125 71.71875 C132.4005411 74.31664158 132.4005411 74.31664158 129.4375 78.1875 C128.6838904 85.05646623 129.5396162 88.46248317 133.4375 94.1875 C134.68646326 97.54282292 134.72211817 99.83207735 133.4375 103.1875 C130.93966007 105.90142872 128.36840342 108.27803667 125.56811523 110.66552734 C121.24345671 114.35325706 118.09073919 118.100193 114.96875 122.875 C109.54281581 131.06926797 102.50189815 137.25139391 93.4375 141.1875 C91.1875 140.8125 91.1875 140.8125 89.4375 140.1875 C90.3125 135.4375 90.3125 135.4375 91.4375 133.1875 C92.95333271 123.62465416 93.13862832 114.02427469 90.97265625 104.57421875 C89.16274045 96.5022585 89.10993455 88.49693626 89.0324707 80.26855469 C89.01100115 78.56196724 88.97703079 76.85548655 88.92993164 75.14941406 C88.61744332 63.68631941 89.22847196 54.15183107 95.4375 44.1875 C97.06891259 42.48630967 98.73040463 40.81273259 100.4375 39.1875 C101.93899828 36.18450345 101.62188425 33.10273309 101.625 29.8125 C101.63724609 29.13960937 101.64949219 28.46671875 101.66210938 27.7734375 C101.67831051 22.28665317 100.80421885 19.7060765 97.1875 15.6875 C91.76532935 10.75825395 88.2393556 8.44944634 80.8515625 8.734375 C76.49367451 9.31276746 72.31213579 10.26116343 68.0625 11.375 C67.28938477 11.57085693 66.51626953 11.76671387 65.71972656 11.96850586 C60.75240728 13.37901261 57.77175168 15.04865091 54.4375 19.1875 C52.27857605 25.66427186 52.27624782 33.59701437 55.0625 39.8125 C57.41155764 42.32040849 57.41155764 42.32040849 60.5625 44.25 C63.8671364 46.47703757 64.58356631 47.34479839 65.4375 51.1875 C66.23962555 63.82097749 64.85672386 79.28253076 56.4375 89.1875 C52.96270257 94.99627281 50.85959334 100.45384074 49.89453125 107.15625 C49.4375 109.1875 49.4375 109.1875 47.4375 111.1875 C46.75809533 113.61465206 46.75809533 113.61465206 46.3125 116.3125 C46.06113281 117.67761719 46.06113281 117.67761719 45.8046875 119.0703125 C45.68351563 119.76898438 45.56234375 120.46765625 45.4375 121.1875 C43.59765625 121.78125 43.59765625 121.78125 41.4375 122.1875 C37.4468612 119.85151631 35.83578686 117.41730003 34.2421875 113.12890625 C33.38029282 111.04948073 32.27528679 109.33200856 31.0625 107.4375 C27.95120718 102.02085165 26.66427348 96.1296112 25.22509766 90.10253906 C24.04237284 85.19738568 22.44973224 80.83152021 20.4375 76.1875 C19.62032672 73.48274331 18.95807245 70.75013865 18.3125 68 C18.05919922 66.95295898 18.05919922 66.95295898 17.80078125 65.88476562 C17.34206885 63.98670762 16.88951037 62.0871652 16.4375 60.1875 C16.2415625 59.45789063 16.045625 58.72828125 15.84375 57.9765625 C15.02528957 54.3721887 14.84201456 50.83893817 15.4375 47.1875 C17.75 44.375 17.75 44.375 20.4375 42.1875 C23.75658573 38.44065621 24.00329875 35.79307779 23.859375 30.9140625 C23.11996428 26.1352784 20.90939055 22.28619031 18.4375 18.1875 C18.05722656 17.54039063 17.67695313 16.89328125 17.28515625 16.2265625 C16.18514369 14.39934813 16.18514369 14.39934813 14.4375 12.1875 C13.7775 12.1875 13.1175 12.1875 12.4375 12.1875 C12.14875 11.548125 11.86 10.90875 11.5625 10.25 C10.60926549 8.03543921 10.60926549 8.03543921 8.4375 7.1875 C-8.94083605 6.09445594 -8.94083605 6.09445594 -23.5625 14.1875 Z " fill="#000000" transform="translate(140.5625,38.8125)"/>
<path d="M0 0 C1.25941406 0.00515625 2.51882812 0.0103125 3.81640625 0.015625 C5.12996094 0.03625 6.44351563 0.056875 7.796875 0.078125 C9.09496094 0.08328125 10.39304688 0.0884375 11.73046875 0.09375 C17.3763128 0.13979154 22.83687288 0.33372306 28.43847656 1.0791626 C32.25288561 1.52957293 36.07840555 1.69108193 39.9140625 1.859375 C40.84644745 1.90090698 41.7788324 1.94243896 42.73947144 1.98522949 C58.13551327 2.61218624 73.55302597 2.67866533 88.95947266 2.85418701 C93.43304568 2.90520687 97.90654061 2.9598898 102.38000107 3.02000427 C104.45172528 3.04636025 106.5234586 3.06726352 108.59524536 3.0880127 C110.47033279 3.11308899 110.47033279 3.11308899 112.38330078 3.13867188 C113.48054474 3.15119995 114.5777887 3.16372803 115.70828247 3.17663574 C118.17008253 3.30801644 120.18339456 3.70051505 122.546875 4.328125 C123.59617188 4.29332031 124.64546875 4.25851562 125.7265625 4.22265625 C135.03766182 4.01596166 140.11317567 6.12141988 146.94726562 12.47998047 C153.17845857 18.66220886 156.74755974 23.49481046 156.921875 32.515625 C156.82529896 34.78784464 156.69866097 37.05892469 156.546875 39.328125 C156.49015625 40.61847656 156.4334375 41.90882813 156.375 43.23828125 C155.99654442 50.39254726 155.99654442 50.39254726 155.546875 53.328125 C152.57201057 54.81555722 149.89570385 54.4432804 146.57685852 54.43347168 C145.86126137 54.43266759 145.14566421 54.4318635 144.4083823 54.43103504 C142.02783062 54.4270286 139.64737244 54.41572844 137.2668457 54.40429688 C135.58723958 54.39973741 133.90763242 54.3955497 132.22802448 54.391716 C127.00093454 54.37786011 121.77391903 54.35363178 116.546875 54.328125 C114.96537165 54.32097077 113.3838681 54.31385873 111.80236435 54.30679321 C101.70024384 54.26034297 91.59827494 54.19566734 81.49628997 54.12619591 C77.25105731 54.09727318 73.00581532 54.06978299 68.76057434 54.04211426 C60.78966567 53.98995901 52.81876565 53.93659179 44.84786826 53.8827424 C35.74440869 53.82130424 26.64093989 53.76128834 17.53747022 53.70136738 C-1.12607189 53.57848941 -19.78960223 53.45390506 -38.453125 53.328125 C-38.46307907 51.40829507 -38.4701791 49.4884502 -38.47607422 47.56860352 C-38.48033417 46.49949234 -38.48459412 45.43038116 -38.48898315 44.32887268 C-38.42019734 38.57261221 -37.37914769 32.99512303 -36.453125 27.328125 C-36.33195312 26.32136719 -36.21078125 25.31460937 -36.0859375 24.27734375 C-35.36719572 18.97478962 -34.32897415 14.25787433 -30.8984375 10.04296875 C-25.58057889 6.31367174 -18.7433009 5.29131557 -12.46435547 4.00073242 C-10.34257237 3.4270171 -10.34257237 3.4270171 -8.59912109 1.77954102 C-5.64862082 -0.21599074 -3.53853338 -0.02893078 0 0 Z " fill="#FDFDFD" transform="translate(123.453125,265.671875)"/>
<path d="M0 0 C3.27152917 5.27752854 3.21954296 11.92977546 2.51367188 17.94335938 C0.98900496 24.04782425 -4.20737335 28.30671297 -9 32 C-11.35127436 33.15439072 -13.66819726 34.02964191 -16.1328125 34.90234375 C-20.03237927 37.19476689 -20.72732311 41.91182565 -22 46 C-23.26176861 49.03309762 -24.63374813 52.01277133 -26 55 C-26.433125 55.99 -26.86625 56.98 -27.3125 58 C-30.31032049 63.32945865 -34.33139642 68.00694572 -38.25 72.6875 C-40.62425164 77.18161917 -41.25921657 81.74871562 -42.21484375 86.71484375 C-43.17199652 90.71964711 -44.47179018 92.81934894 -47 96 C-47.69313908 97.65583225 -48.36474424 99.32110979 -49 101 C-49.66 101.99 -50.32 102.98 -51 104 C-52.02664375 108.56066741 -52.1221873 113.02690134 -52.25 117.6875 C-52.5976181 124.8512403 -53.87126665 130.95118367 -58 137 C-60.9375 139.3125 -60.9375 139.3125 -64 141 C-65.20293701 142.51907959 -65.20293701 142.51907959 -66.43017578 144.06884766 C-69.32785483 147.01146058 -71.45623107 147.47223636 -75.54638672 147.68115234 C-77.75771455 147.6802075 -79.96919183 147.64660524 -82.1796875 147.5859375 C-83.3475882 147.57744781 -84.51548889 147.56895813 -85.71878052 147.56021118 C-89.43846998 147.52670159 -93.15596894 147.45141845 -96.875 147.375 C-99.4010103 147.34489762 -101.92705467 147.31752231 -104.453125 147.29296875 C-110.63616041 147.22691787 -116.8179237 147.12659052 -123 147 C-123.625 145.125 -123.625 145.125 -124 143 C-121.45970366 140.45970366 -120.15214598 140.63881924 -116.625 140.25 C-106.23396439 138.64275349 -97.1630892 133.7112848 -90 126 C-88.95107762 124.36368108 -87.95093297 122.69514137 -87 121 C-86.01878118 119.85858219 -85.01547621 118.73605044 -84 117.625 C-73.70655778 106.02859041 -65.66235444 93.12832665 -58.6484375 79.34375 C-55.84852304 73.93439145 -52.29282907 69.84847267 -48.12890625 65.41015625 C-45.76711867 62.7363527 -44.07775575 59.98551257 -42.3046875 56.91015625 C-40.79103893 54.69406598 -39.05184508 53.11041754 -37.0625 51.3125 C-31.27936943 45.80267428 -28.67488689 38.5221946 -25.9453125 31.15234375 C-25 29 -25 29 -23.25 28.25 C-22.5075 28.1675 -21.765 28.085 -21 28 C-16.72467889 27.46558486 -14.18559592 26.95484853 -11 24 C-9.77222965 21.43024159 -9.77222965 21.43024159 -8.9375 18.5625 C-7.73180244 14.7591193 -6.42119391 12.14755208 -4 9 C-3.31744011 6.67126625 -2.64949225 4.33817209 -2 2 C-1.34 1.34 -0.68 0.68 0 0 Z " fill="#DDDBDB" transform="translate(312,115)"/>
<path d="M0 0 C1.61275784 2.46157776 1.6209014 3.92315736 1.1875 6.8125 C-1.09735399 9.77763414 -3.29609229 10.42092929 -6.875 11.25 C-10.6529312 12.19696176 -14.16666717 13.28755415 -17.75 14.8125 C-22.4798289 16.7908419 -27.25956288 18.03547817 -32.24609375 19.19921875 C-34.90790363 19.79592675 -34.90790363 19.79592675 -37.8125 20.8125 C-49.14680448 22.35808697 -62.51363499 23.44258622 -73.62109375 20.3125 C-77.42580865 19.44440106 -81.32096339 19.40970625 -85.2109375 19.25390625 C-88.14743541 18.75567162 -89.08646791 18.20017772 -90.8125 15.8125 C-91.22869102 13.03789317 -91.29548955 11.52507965 -89.703125 9.17578125 C-85.44515942 6.10547136 -78.82292303 7.47700515 -73.8125 7.8125 C-71.54907919 8.23218341 -69.36655466 8.78206628 -67.140625 9.36328125 C-56.50961003 11.4145677 -43.29683977 10.43344534 -33.16796875 6.6328125 C-30.3562631 5.65361153 -27.52368065 4.98992844 -24.625 4.3125 C-20.3128794 3.27409326 -16.75010586 1.87505545 -12.8125 -0.1875 C-3.4829 -2.2819 -3.4829 -2.2819 0 0 Z " fill="#020202" transform="translate(220.8125,294.1875)"/>
<path d="M0 0 C0.66 0.33 1.32 0.66 2 1 C2 1.66 2 2.32 2 3 C2.66 3 3.32 3 4 3 C5.65625 5.23046875 5.65625 5.23046875 7.5 8.1875 C8.1084375 9.15042969 8.716875 10.11335938 9.34375 11.10546875 C12.75804577 17.07243376 14.06755949 22.14626809 13 29 C11.06496419 33.06357519 8.72900014 35.51399991 5 38 C4.59626388 39.89876947 4.59626388 39.89876947 4.75 42.0625 C4.78867188 43.25359375 4.78867188 43.25359375 4.828125 44.46875 C5.09057659 48.33394609 5.5119423 52.15654565 6 56 C4.02 56.495 4.02 56.495 2 57 C-3.73756136 50.11492637 -4.46797878 40.83990817 -4.26171875 32.09765625 C-3.72598667 27.8038036 -2.08343185 23.89374859 0.0546875 20.15649414 C1.11895279 17.72863894 1.16403905 16.29654667 0.9765625 13.671875 C0.925 12.87265625 0.8734375 12.0734375 0.8203125 11.25 C0.72363281 10.0125 0.72363281 10.0125 0.625 8.75 C0.56828125 7.90953125 0.5115625 7.0690625 0.453125 6.203125 C0.31209668 4.13470958 0.15738212 2.0672354 0 0 Z " fill="#DDDBDB" transform="translate(151,48)"/>
<path d="M0 0 C6.6176775 5.17905196 6.6176775 5.17905196 8 9 C8.3359375 12.4609375 8.3359375 12.4609375 8.375 16.375 C8.40335938 17.66148438 8.43171875 18.94796875 8.4609375 20.2734375 C7.85541954 25.16889629 5.93391115 28.12801212 2.4140625 31.53515625 C-3.29879218 37.45316869 -4.56620916 46.76059878 -4.76171875 54.6015625 C-5 57 -5 57 -7 59 C-10.53571429 58.46428571 -10.53571429 58.46428571 -12 57 C-13.03291672 42.71793991 -10.10964174 32.60671583 -1.3125 21.5 C-0.1678125 20.2625 -0.1678125 20.2625 1 19 C1.66 19 2.32 19 3 19 C2.69964844 18.13117188 2.39929688 17.26234375 2.08984375 16.3671875 C1.51943359 14.63855469 1.51943359 14.63855469 0.9375 12.875 C0.55464844 11.73804688 0.17179688 10.60109375 -0.22265625 9.4296875 C-1.03424784 5.84889646 -0.85479227 3.53744223 0 0 Z " fill="#DFDDDD" transform="translate(234,52)"/>
<path d="M0 0 C5.38127136 3.89220723 8.67890408 7.3705005 10 14 C10.48311226 18.7999541 10.72942553 21.90586171 8 26 C6.9790625 26.4640625 6.9790625 26.4640625 5.9375 26.9375 C3.79326091 27.83330129 3.79326091 27.83330129 3.25 30.125 C3.1675 30.74375 3.085 31.3625 3 32 C1.68 31.67 0.36 31.34 -1 31 C-2.03374058 28.3122745 -2.06862255 27.18756832 -1.0625 24.4375 C0.40630003 19.68549991 0.69328417 14.93499053 0 10 C-1.46900433 7.82548273 -1.46900433 7.82548273 -3 6 C-2.73495121 2.99611368 -2.16695725 2.16695725 0 0 Z " fill="#D8D6D6" transform="translate(85,108)"/>
<path d="M0 0 C1.875 1.0625 1.875 1.0625 3 3 C2.6875 6.6875 2.6875 6.6875 2 10 C-4.42548263 11.33359073 -4.42548263 11.33359073 -6.9375 9.875 C-8.36066991 7.36352369 -8.42674516 5.84496772 -8 3 C-5.85607122 -0.27231235 -3.76836426 -0.56525464 0 0 Z " fill="#070707" transform="translate(166,279)"/>
<path d="M0 0 C1.875 1.0625 1.875 1.0625 3 3 C2.6875 6.6875 2.6875 6.6875 2 10 C-4.42548263 11.33359073 -4.42548263 11.33359073 -6.9375 9.875 C-8.36066991 7.36352369 -8.42674516 5.84496772 -8 3 C-5.85607122 -0.27231235 -3.76836426 -0.56525464 0 0 Z " fill="#070707" transform="translate(206,276)"/>
</svg>
