<?xml version="1.0" encoding="UTF-8"?>
<svg version="1.1" xmlns="http://www.w3.org/2000/svg" width="360" height="360">
<path d="M0 0 C4.06464547 1.95415648 5.66550418 3.35490092 7.75 7.375 C9 11 9 11 9.875 14.3125 C10.71831703 17.20774756 10.71831703 17.20774756 13.375 18 C14.24125 18.33 15.1075 18.66 16 19 C18.04128477 21.68283142 19.66224659 24.21894524 21 27.3125 C21.84729602 29.16487288 21.84729602 29.16487288 23.76708984 29.57861328 C26.09742165 30.01838506 28.36127945 30.25797996 30.7265625 30.4296875 C31.66371094 30.50123047 32.60085937 30.57277344 33.56640625 30.64648438 C34.57574219 30.72189453 35.58507812 30.79730469 36.625 30.875 C45.76830504 31.60039136 54.8860404 32.46850164 64 33.5 C65.61769287 33.67764893 65.61769287 33.67764893 67.26806641 33.85888672 C84.7516152 35.88393394 84.7516152 35.88393394 91 42 C92.67623397 44.25105761 94.18245196 46.55438039 95.6640625 48.9375 C96.97468311 51.1184177 96.97468311 51.1184177 99.0625 53.0625 C107.1906714 61.1906714 110.74146626 72.8097128 113.7109375 83.578125 C115.09730382 88.43786071 116.74231426 92.81372635 119.10302734 97.28417969 C120.17926817 99.34292234 121.00858588 101.44690754 121.8125 103.625 C123.46810196 107.89540188 125.46339956 111.93517945 127.5625 116 C139.13591436 138.79427723 138.89365689 167.79616792 132 192 C131.773125 192.91136719 131.54625 193.82273438 131.3125 194.76171875 C129.68180758 200.92777446 127.0538473 206.67575722 124.42456055 212.46923828 C120.72336213 220.64977924 120.42327344 227.21538061 122 236 C122.85464844 236.25394531 123.70929688 236.50789062 124.58984375 236.76953125 C125.69457031 237.11371094 126.79929687 237.45789063 127.9375 237.8125 C129.03964844 238.14894531 130.14179688 238.48539063 131.27734375 238.83203125 C132.17582031 239.21746094 133.07429687 239.60289062 134 240 C134.33 240.99 134.66 241.98 135 243 C135.99 243.33 136.98 243.66 138 244 C147.79516588 258.06783467 146.33463774 272.67452047 145 289 C131.80526196 294.83613413 117.87292621 294.15071257 103.63818359 294.14526367 C102.04969709 294.14826427 100.4612113 294.15166883 98.87272644 294.15544128 C94.60222083 294.16418892 90.33173531 294.16661531 86.0612216 294.16725707 C83.38525024 294.16797227 80.70928386 294.1701153 78.03331375 294.17275429 C68.67617727 294.18197355 59.31905494 294.18609304 49.96191406 294.18530273 C41.27200127 294.18470124 32.5821504 294.19527601 23.89225328 294.2110464 C16.39884889 294.22415571 8.90546469 294.22948529 1.41204894 294.22884732 C-3.0493955 294.22859356 -7.51078466 294.2313782 -11.97221756 294.24202538 C-16.16663952 294.25176503 -20.36095393 294.25174568 -24.55537987 294.24450874 C-26.08550742 294.24347052 -27.61564189 294.24577994 -29.14575768 294.2518692 C-54.74901753 294.34708663 -54.74901753 294.34708663 -64 288 C-68.52733469 281.74247371 -66.2756285 269.74049052 -65.1875 262.5625 C-64.28003993 257.79513937 -62.93962351 253.44021656 -61 249 C-60.71640625 248.32582031 -60.4328125 247.65164063 -60.140625 246.95703125 C-59.43923203 245.29949408 -58.72140504 243.64892581 -58 242 C-57.34 242 -56.68 242 -56 242 C-55.81050781 241.25105469 -55.62101562 240.50210938 -55.42578125 239.73046875 C-53.5057561 236.05348908 -50.77349567 235.02766085 -47.1875 233.3125 C-40.35700493 229.67885547 -37.41099838 226.50611605 -35 219 C-34.2611952 216.73872959 -33.52059949 214.47807348 -32.77734375 212.21826172 C-32.27193863 210.65410908 -31.78393028 209.08419072 -31.31640625 207.50830078 C-29.23453311 200.76720732 -26.16686355 195.02820281 -20.1875 191 C-17.3297915 188.98247921 -14.67054974 186.89519787 -12.0625 184.5625 C-8.50079463 181.39342357 -4.80236636 178.45464628 -1.01953125 175.5546875 C0.50947618 174.37761795 2.01155806 173.1654646 3.5 171.9375 C6 170 6 170 8.01953125 168.7421875 C16.61708986 163.38152915 24.48642325 155.74219007 28 146 C27.93817369 140.90109167 27.93817369 140.90109167 25 137 C24.505 137.70125 24.01 138.4025 23.5 139.125 C20.41584861 142.6717741 16.97887963 145.49382257 13 148 C12.34 148 11.68 148 11 148 C10.67 148.99 10.34 149.98 10 151 C5.01316167 154.27977481 0.21858298 154.63574898 -5.5625 155.0625 C-7.35041716 155.22484548 -9.13817908 155.38890969 -10.92578125 155.5546875 C-13.92249893 155.82088914 -16.91940612 156.0751658 -19.91796875 156.3203125 C-27.54176418 157.16044939 -32.13362355 158.94904507 -37 165 C-38.96209426 167.86138746 -40.8009874 170.74866221 -42.5546875 173.7421875 C-44 176 -44 176 -46 177 C-48.73456592 177.23997816 -51.4474033 177.42598875 -54.1875 177.5625 C-54.98889404 177.6027832 -55.79028809 177.64306641 -56.6159668 177.68457031 C-59.07699139 177.80036034 -61.53815734 177.90325286 -64 178 C-64.73766602 178.03013184 -65.47533203 178.06026367 -66.23535156 178.09130859 C-68.26042995 178.16466746 -70.28652776 178.20804199 -72.3125 178.25 C-74.07013672 178.28867187 -74.07013672 178.28867187 -75.86328125 178.328125 C-81.65142396 177.72264058 -85.32466982 174.31851296 -89 170 C-94.84826013 159.88053866 -96.95562455 149.71784438 -94.3515625 138.109375 C-92.12081098 132.04630678 -88.52524837 126.61441582 -84 122 C-83.34 122 -82.68 122 -82 122 C-81.67 121.01 -81.34 120.02 -81 119 C-79.35697047 117.31002677 -77.68528688 115.64783606 -76 114 C-68.71873611 106.87920473 -64.66936815 97.36825407 -61 88 C-59.00373407 83.73525005 -56.80032709 79.79399154 -54 76 C-53.34 76 -52.68 76 -52 76 C-51.62294922 74.96552734 -51.62294922 74.96552734 -51.23828125 73.91015625 C-49.81365285 70.5620548 -48.04797146 67.56437268 -46.1875 64.4375 C-42.1418938 57.51538449 -39.01075831 50.38843607 -36.20703125 42.875 C-34.52438315 38.56147117 -32.40690574 36.10406968 -29 33 C-26.9185513 30.8625123 -24.84319824 28.71925478 -22.76953125 26.57421875 C-21 25 -21 25 -19 25 C-17.95708111 21.87124334 -17.93377043 19.59105017 -17.875 16.3125 C-17.45141543 10.48821214 -15.85205569 7.62100936 -11.7890625 3.5234375 C-7.69900371 0.04063635 -5.33365453 -0.54240555 0 0 Z M124 245 C124.33 245.99 124.66 246.98 125 248 C128.50294871 249.71567661 128.50294871 249.71567661 132 251 C132 250.34 132 249.68 132 249 C129.36 247.68 126.72 246.36 124 245 Z M132 251 C133 253 133 253 133 253 Z " fill="#FDFDFD" transform="translate(151,34)"/>
<path d="M0 0 C1.60542736 0.00430884 3.21085548 0.00833937 4.81628418 0.01211548 C10.01300158 0.02709617 15.20960484 0.0551974 20.40625 0.0859375 C21.73967438 0.09354347 21.73967438 0.09354347 23.10003662 0.1013031 C35.14663031 0.17131937 47.19265934 0.27537244 59.23876953 0.40332031 C63.07435255 0.44359173 66.90992713 0.47799677 70.74560547 0.5078125 C75.4762227 0.54461619 80.20665764 0.59084436 84.93711853 0.64400101 C86.71366793 0.66242426 88.4902546 0.67757591 90.26686096 0.68928146 C92.71911802 0.7061225 95.17094699 0.73511367 97.62304688 0.76708984 C98.34175461 0.76925003 99.06046234 0.77141022 99.8009491 0.77363586 C103.79949726 0.84039829 106.76830765 1.46528904 110.40625 3.0859375 C111.251875 3.0240625 112.0975 2.9621875 112.96875 2.8984375 C113.773125 2.9603125 114.5775 3.0221875 115.40625 3.0859375 C116.77698786 4.72197946 118.10680256 6.39271811 119.40625 8.0859375 C121.38147846 9.13401791 123.38106509 10.1379786 125.40625 11.0859375 C126.42644573 12.0653254 127.42774805 13.06489199 128.40625 14.0859375 C129.581875 14.735625 129.581875 14.735625 130.78125 15.3984375 C135.58115129 18.48408833 137.853789 21.5792257 139.78125 26.8359375 C141.19349839 34.40715802 140.01450253 42.46634158 139.40625 50.0859375 C128.09087122 54.26799359 115.33529369 53.23588594 103.41162109 53.23120117 C101.86254293 53.23420207 100.31346551 53.2376067 98.76438904 53.24137878 C94.60131791 53.25012329 90.4382674 53.25255267 86.27518797 53.25319457 C83.66622045 53.25390994 81.05725802 53.25605327 78.44829178 53.25869179 C69.324574 53.26790993 60.20087072 53.27203067 51.07714844 53.27124023 C42.60536128 53.27063873 34.13363763 53.28121391 25.66186655 53.2969839 C18.35529706 53.31009491 11.04874827 53.31542272 3.74216712 53.31478482 C-0.60749519 53.31453111 -4.95710079 53.3173127 -9.30675125 53.32796288 C-13.39611478 53.33770547 -17.48536802 53.33768122 -21.57473564 53.33044624 C-23.06616186 53.32940839 -24.55759518 53.3317152 -26.04900932 53.3378067 C-48.85733131 53.42486003 -48.85733131 53.42486003 -57.59375 48.0859375 C-58.09913646 33.82280841 -56.3394572 19.21307504 -46.59375 8.0859375 C-42.02235879 4.32723806 -39.39336809 3.97651074 -33.59375 4.0859375 C-33.15728149 3.60629547 -32.72081299 3.12665344 -32.27111816 2.63247681 C-26.22785377 -2.93943408 -8.22073568 -0.04013972 0 0 Z " fill="#FEFEFE" transform="translate(149.59375,267.9140625)"/>
<path d="M0 0 C4.06464547 1.95415648 5.66550418 3.35490092 7.75 7.375 C9 11 9 11 9.875 14.3125 C10.71831703 17.20774756 10.71831703 17.20774756 13.375 18 C14.24125 18.33 15.1075 18.66 16 19 C18.04128477 21.68283142 19.66224659 24.21894524 21 27.3125 C21.84729602 29.16487288 21.84729602 29.16487288 23.76708984 29.57861328 C26.09742165 30.01838506 28.36127945 30.25797996 30.7265625 30.4296875 C31.66371094 30.50123047 32.60085937 30.57277344 33.56640625 30.64648438 C34.57574219 30.72189453 35.58507812 30.79730469 36.625 30.875 C45.76830504 31.60039136 54.8860404 32.46850164 64 33.5 C65.61769287 33.67764893 65.61769287 33.67764893 67.26806641 33.85888672 C84.7516152 35.88393394 84.7516152 35.88393394 91 42 C92.67623397 44.25105761 94.18245196 46.55438039 95.6640625 48.9375 C96.97468311 51.1184177 96.97468311 51.1184177 99.0625 53.0625 C107.1906714 61.1906714 110.74146626 72.8097128 113.7109375 83.578125 C115.09730382 88.43786071 116.74231426 92.81372635 119.10302734 97.28417969 C120.17926817 99.34292234 121.00858588 101.44690754 121.8125 103.625 C123.46810196 107.89540188 125.46339956 111.93517945 127.5625 116 C139.13591436 138.79427723 138.89365689 167.79616792 132 192 C131.773125 192.91136719 131.54625 193.82273438 131.3125 194.76171875 C129.68180758 200.92777446 127.0538473 206.67575722 124.42456055 212.46923828 C120.72336213 220.64977924 120.42327344 227.21538061 122 236 C122.85464844 236.25394531 123.70929688 236.50789062 124.58984375 236.76953125 C125.69457031 237.11371094 126.79929687 237.45789063 127.9375 237.8125 C129.03964844 238.14894531 130.14179688 238.48539063 131.27734375 238.83203125 C132.17582031 239.21746094 133.07429687 239.60289062 134 240 C134.33 240.99 134.66 241.98 135 243 C135.99 243.33 136.98 243.66 138 244 C147.79516588 258.06783467 146.33463774 272.67452047 145 289 C131.80526196 294.83613413 117.87292621 294.15071257 103.63818359 294.14526367 C102.04969709 294.14826427 100.4612113 294.15166883 98.87272644 294.15544128 C94.60222083 294.16418892 90.33173531 294.16661531 86.0612216 294.16725707 C83.38525024 294.16797227 80.70928386 294.1701153 78.03331375 294.17275429 C68.67617727 294.18197355 59.31905494 294.18609304 49.96191406 294.18530273 C41.27200127 294.18470124 32.5821504 294.19527601 23.89225328 294.2110464 C16.39884889 294.22415571 8.90546469 294.22948529 1.41204894 294.22884732 C-3.0493955 294.22859356 -7.51078466 294.2313782 -11.97221756 294.24202538 C-16.16663952 294.25176503 -20.36095393 294.25174568 -24.55537987 294.24450874 C-26.08550742 294.24347052 -27.61564189 294.24577994 -29.14575768 294.2518692 C-54.74901753 294.34708663 -54.74901753 294.34708663 -64 288 C-68.52733469 281.74247371 -66.2756285 269.74049052 -65.1875 262.5625 C-64.28003993 257.79513937 -62.93962351 253.44021656 -61 249 C-60.71640625 248.32582031 -60.4328125 247.65164063 -60.140625 246.95703125 C-59.43923203 245.29949408 -58.72140504 243.64892581 -58 242 C-57.34 242 -56.68 242 -56 242 C-55.81050781 241.25105469 -55.62101562 240.50210938 -55.42578125 239.73046875 C-53.5057561 236.05348908 -50.77349567 235.02766085 -47.1875 233.3125 C-40.35700493 229.67885547 -37.41099838 226.50611605 -35 219 C-34.2611952 216.73872959 -33.52059949 214.47807348 -32.77734375 212.21826172 C-32.27193863 210.65410908 -31.78393028 209.08419072 -31.31640625 207.50830078 C-29.23453311 200.76720732 -26.16686355 195.02820281 -20.1875 191 C-17.3297915 188.98247921 -14.67054974 186.89519787 -12.0625 184.5625 C-8.50079463 181.39342357 -4.80236636 178.45464628 -1.01953125 175.5546875 C0.50947618 174.37761795 2.01155806 173.1654646 3.5 171.9375 C6 170 6 170 8.01953125 168.7421875 C16.61708986 163.38152915 24.48642325 155.74219007 28 146 C27.93817369 140.90109167 27.93817369 140.90109167 25 137 C24.505 137.70125 24.01 138.4025 23.5 139.125 C20.41584861 142.6717741 16.97887963 145.49382257 13 148 C12.34 148 11.68 148 11 148 C10.67 148.99 10.34 149.98 10 151 C5.01316167 154.27977481 0.21858298 154.63574898 -5.5625 155.0625 C-7.35041716 155.22484548 -9.13817908 155.38890969 -10.92578125 155.5546875 C-13.92249893 155.82088914 -16.91940612 156.0751658 -19.91796875 156.3203125 C-27.54176418 157.16044939 -32.13362355 158.94904507 -37 165 C-38.96209426 167.86138746 -40.8009874 170.74866221 -42.5546875 173.7421875 C-44 176 -44 176 -46 177 C-48.73456592 177.23997816 -51.4474033 177.42598875 -54.1875 177.5625 C-54.98889404 177.6027832 -55.79028809 177.64306641 -56.6159668 177.68457031 C-59.07699139 177.80036034 -61.53815734 177.90325286 -64 178 C-64.73766602 178.03013184 -65.47533203 178.06026367 -66.23535156 178.09130859 C-68.26042995 178.16466746 -70.28652776 178.20804199 -72.3125 178.25 C-74.07013672 178.28867187 -74.07013672 178.28867187 -75.86328125 178.328125 C-81.65142396 177.72264058 -85.32466982 174.31851296 -89 170 C-94.84826013 159.88053866 -96.95562455 149.71784438 -94.3515625 138.109375 C-92.12081098 132.04630678 -88.52524837 126.61441582 -84 122 C-83.34 122 -82.68 122 -82 122 C-81.67 121.01 -81.34 120.02 -81 119 C-79.35697047 117.31002677 -77.68528688 115.64783606 -76 114 C-68.71873611 106.87920473 -64.66936815 97.36825407 -61 88 C-59.00373407 83.73525005 -56.80032709 79.79399154 -54 76 C-53.34 76 -52.68 76 -52 76 C-51.62294922 74.96552734 -51.62294922 74.96552734 -51.23828125 73.91015625 C-49.81365285 70.5620548 -48.04797146 67.56437268 -46.1875 64.4375 C-42.1418938 57.51538449 -39.01075831 50.38843607 -36.20703125 42.875 C-34.52438315 38.56147117 -32.40690574 36.10406968 -29 33 C-26.9185513 30.8625123 -24.84319824 28.71925478 -22.76953125 26.57421875 C-21 25 -21 25 -19 25 C-17.95708111 21.87124334 -17.93377043 19.59105017 -17.875 16.3125 C-17.45141543 10.48821214 -15.85205569 7.62100936 -11.7890625 3.5234375 C-7.69900371 0.04063635 -5.33365453 -0.54240555 0 0 Z M-7.4375 8.625 C-9.71769498 10.81821206 -9.99360766 11.80183738 -10.09765625 15.02734375 C-10.06542969 16.19394531 -10.03320312 17.36054687 -10 18.5625 C-10.13952564 23.16203497 -10.55810534 25.95621549 -13.73046875 29.265625 C-16.55063217 31.86053706 -19.52766676 34.27205998 -22.49121094 36.70068359 C-31.00096427 44.02898574 -35.17766311 57.53948446 -39.0625 67.80859375 C-40.04910983 70.11479423 -41.20609391 71.84111453 -42.75 73.8125 C-43.21921875 74.41707031 -43.6884375 75.02164063 -44.171875 75.64453125 C-45.21373404 76.98692655 -46.2648563 78.32252585 -47.34326172 79.63574219 C-51.76942628 85.20964317 -54.68680496 91.16761091 -57.625 97.625 C-61.67131846 106.43698243 -65.78404866 113.96975614 -72.4375 121.0625 C-72.90220703 121.56587891 -73.36691406 122.06925781 -73.84570312 122.58789062 C-76.08420263 125.00122412 -78.35292948 127.34529031 -80.70703125 129.6484375 C-85.96017929 135.03582272 -88.12224102 140.7973929 -88.25 148.25 C-88.1419317 156.37673595 -85.88077352 161.52934215 -80.5 167.5546875 C-76.03860142 171.85343093 -72.25346195 171.26101706 -66.3828125 171.16210938 C-65.14273438 171.12923828 -63.90265625 171.09636719 -62.625 171.0625 C-61.39265625 171.06443359 -60.1603125 171.06636719 -58.890625 171.06835938 C-52.56063925 171.087166 -52.56063925 171.087166 -47.03417969 168.47607422 C-44.92672239 165.65499237 -44 163.5288112 -44 160 C-43.443125 159.7525 -42.88625 159.505 -42.3125 159.25 C-38.33951664 157.10244143 -35.50721301 154.76081952 -33 151 C-30.48046875 150.33984375 -30.48046875 150.33984375 -27.1875 149.9375 C-25.93710938 149.77378906 -24.68671875 149.61007813 -23.3984375 149.44140625 C-20.19700329 149.08659667 -17.0056471 148.87878732 -13.7890625 148.71484375 C-2.70294569 148.07621509 4.74205948 147.12030818 13 139 C13.98226562 138.23623047 13.98226562 138.23623047 14.984375 137.45703125 C17.42628435 135.45757795 18.88154244 133.790151 19.35546875 130.62890625 C19.37299147 128.38249401 19.26747806 126.22898384 19 124 C21.33595238 124.31445513 23.66905466 124.6503582 26 125 C26.680625 125.05285156 27.36125 125.10570312 28.0625 125.16015625 C30 126 30 126 31.484375 128.625 C36.87831356 143.00883615 36.87831356 143.00883615 34.03125 150.57421875 C28.56931773 161.70449353 20.08745484 170.27257971 9.49609375 176.4921875 C5.96601944 178.62459546 3.03147384 181.2241071 0 184 C-4.75854508 188.24623795 -9.56921498 192.27348006 -14.7265625 196.03125 C-20.84852342 201.33274193 -23.98690906 206.37134183 -26.25 214.125 C-26.73325855 215.69044925 -27.2176042 217.2555634 -27.703125 218.8203125 C-27.90583008 219.50367676 -28.10853516 220.18704102 -28.31738281 220.89111328 C-29.10047002 223.31039343 -30.04721064 225.64305365 -31 228 C-12.96300676 228.02335953 5.07398256 228.0409942 23.11098766 228.05181217 C31.48586215 228.05696863 39.86072725 228.06399897 48.2355957 228.07543945 C55.53505612 228.08540612 62.83450973 228.09185816 70.13397676 228.09408849 C73.99903189 228.09539222 77.86406755 228.09845678 81.72911644 228.10573006 C85.36763853 228.11252153 89.00613313 228.11461058 92.64466095 228.11310768 C94.61537018 228.1135136 96.58607643 228.11889251 98.55677795 228.12442017 C99.73321869 228.1230455 100.90965942 228.12167084 102.12174988 228.12025452 C103.14217471 228.12117631 104.16259954 228.1220981 105.21394634 228.12304783 C107.91197019 228.00388789 110.3725516 227.60675741 113 227 C113.0515625 226.41476562 113.103125 225.82953125 113.15625 225.2265625 C114.0238055 218.66074477 116.08517512 213.24832458 118.875 207.3125 C122.75570164 199.00518229 125.15608608 190.98223415 127 182 C127.2638147 180.83960205 127.2638147 180.83960205 127.53295898 179.65576172 C128.82474659 173.75684721 129.35187076 168.15856928 129.3125 162.125 C129.30831055 161.2280542 129.30412109 160.3311084 129.29980469 159.40698242 C129.08682211 146.44336765 127.97244797 132.69380204 122 121 C121.36772307 119.73475776 120.73629133 118.46909298 120.10546875 117.203125 C119.0497618 115.09270353 117.99170631 112.98358631 116.92749023 110.87744141 C112.46406372 102.02151921 109.23610545 92.93139414 106.19287109 83.50634766 C104.68651874 78.87817854 102.98306986 74.44556321 101 70 C100.70738281 69.31292969 100.41476563 68.62585938 100.11328125 67.91796875 C97.32029737 61.88239872 93.25517959 57.0645452 89 52 C88.40832031 51.2265625 87.81664062 50.453125 87.20703125 49.65625 C86.36205078 48.58890625 86.36205078 48.58890625 85.5 47.5 C84.77296875 46.55640625 84.77296875 46.55640625 84.03125 45.59375 C78.3053911 41.10115302 68.98196528 41.26812569 62 40.5 C60.30750122 40.30555298 60.30750122 40.30555298 58.58081055 40.10717773 C52.7946178 39.45979127 47.01577106 38.90389663 41.20703125 38.50390625 C40.13130859 38.42785156 39.05558594 38.35179688 37.94726562 38.2734375 C35.90921942 38.13629794 33.87007349 38.01436034 31.83007812 37.91015625 C24.56080703 37.4252014 19.88897199 36.07390619 14.7421875 30.59765625 C14.12601562 29.76105469 13.50984375 28.92445312 12.875 28.0625 C10.73221784 25.21927261 8.82914324 22.84433051 6.1875 20.4375 C3.89944672 17.88795491 3.45217209 16.53372655 2.5625 13.3125 C1.9605721 10.98692145 1.9605721 10.98692145 1 9 C-3.31806217 6.72434561 -3.31806217 6.72434561 -7.4375 8.625 Z M-33.68518066 236.55435181 C-34.33601624 237.26994766 -34.33601624 237.26994766 -35 238 C-36.051875 237.938125 -37.10375 237.87625 -38.1875 237.8125 C-43.52480109 238.07499022 -46.25928741 240.32477034 -50 244 C-58.07604582 255.2167303 -59.22119191 268.63017774 -59 282 C-49.02250324 288.09735913 -36.5668847 287.28908453 -25.26416016 287.24291992 C-23.71862203 287.24399543 -22.1730843 287.2459381 -20.62754822 287.24867249 C-16.46418785 287.25348185 -12.30093621 287.24591346 -8.13758898 287.23571944 C-3.75728532 287.22686842 0.62301563 287.22869778 5.00332642 287.2290802 C12.35835565 287.22814634 19.7133434 287.21950173 27.06835938 287.20581055 C35.53891303 287.1900998 44.00942128 287.18481225 52.47998846 287.1855461 C61.54236754 287.18622486 70.60472943 287.1792645 79.66710329 287.1700995 C82.25820641 287.1679812 84.84930671 287.1672601 87.44041061 287.16686058 C91.53301808 287.16584603 95.62558838 287.15966014 99.71818352 287.14969444 C101.20876398 287.14680687 102.69934872 287.14553633 104.18993187 287.14612198 C121.38241875 287.5464096 121.38241875 287.5464096 138 284 C139.56255871 270.29700175 139.56255871 270.29700175 137 257 C136.76152344 256.33097656 136.52304687 255.66195312 136.27734375 254.97265625 C133.38912921 248.88051141 128.18552935 246.55421576 122.3449707 243.78881836 C118.55912403 241.98112762 116.32964171 240.47913597 114 237 C111.58354218 236.83312552 111.58354218 236.83312552 109 237 C108.28138794 236.67915436 107.56277588 236.35830872 106.8223877 236.02774048 C103.26302938 234.7316405 99.9546371 234.692387 96.21679688 234.68115234 C95.44644608 234.67110672 94.67609528 234.6610611 93.88240051 234.65071106 C91.32785724 234.61978983 88.77342194 234.6027695 86.21875 234.5859375 C84.40880509 234.56716793 82.59886839 234.54759053 80.78894043 234.5272522 C75.99620763 234.47581611 71.20344453 234.43636505 66.4105835 234.39910889 C62.61486331 234.36766825 58.81925533 234.32786344 55.02362061 234.28754807 C43.01591891 234.16007204 31.00817569 234.06849571 19 234 C18.11556213 233.99476822 17.23112427 233.98953644 16.31988525 233.98414612 C11.20190641 233.95470642 6.08397742 233.93246732 0.96592712 233.92042923 C-0.58236722 233.91627373 -2.13065835 233.9105254 -3.67893982 233.90296555 C-19.69992439 232.5624259 -19.69992439 232.5624259 -33.68518066 236.55435181 Z " fill="#000000" transform="translate(151,34)"/>
<path d="M0 0 C3.38657228 3.22118154 6.2789079 6.7426475 9.125 10.4375 C9.56714844 10.99759766 10.00929687 11.55769531 10.46484375 12.13476562 C12.9246532 15.3191413 14.67680346 18.2119108 16 22 C16.48082031 23.08667969 16.96164063 24.17335938 17.45703125 25.29296875 C18.84186671 28.50748663 19.93853112 31.76476925 20.99023438 35.10107422 C24.97843582 47.7499288 30.24057543 59.71775431 36.3125 71.5 C47.08829647 92.87637675 46.20935497 119.43092008 40 142 C39.773125 142.91652344 39.54625 143.83304688 39.3125 144.77734375 C37.70425369 150.81831894 35.07485546 156.34208742 32.49267578 162.01220703 C30.03585843 167.55691437 28.62823296 172.94844983 28 179 C24.33468428 179.84521815 20.9580702 180.12185825 17.19995117 180.11352539 C15.48874336 180.11341209 15.48874336 180.11341209 13.7429657 180.11329651 C12.52196671 180.10813522 11.30096771 180.10297394 10.04296875 180.09765625 C8.78486893 180.0962413 7.5267691 180.09482635 6.23054504 180.09336853 C2.89821471 180.08872573 -0.43404632 180.07975228 -3.76635742 180.06866455 C-7.17170617 180.05840503 -10.5770621 180.05386121 -13.98242188 180.04882812 C-20.65496698 180.0378083 -27.32747949 180.021077 -34 180 C-33.85388125 178.39088446 -33.70358651 176.78214774 -33.55151367 175.17358398 C-33.42663826 173.82972878 -33.42663826 173.82972878 -33.29924011 172.45872498 C-32.6595754 167.20288014 -30.25762831 163.65819264 -27.1875 159.4375 C-26.52105469 158.50808594 -25.85460937 157.57867187 -25.16796875 156.62109375 C-23 154 -23 154 -20.3828125 151.9296875 C-17.9110828 149.92799164 -16.99756051 148.5352377 -15.6875 145.6875 C-13.1085272 140.742422 -9.68838983 137.0503959 -5 134 C-4.01 134 -3.02 134 -2 134 C-1.34 132.68 -0.68 131.36 0 130 C0.66 130 1.32 130 2 130 C2.268125 129.2575 2.53625 128.515 2.8125 127.75 C4 125 4 125 5.53515625 123.15234375 C7.28919594 120.57507476 7.45171745 118.89966549 7.625 115.8125 C7.91575663 111.08424337 7.91575663 111.08424337 9 110 C9.13254289 108.62744469 9.23084203 107.25152013 9.3125 105.875 C9.78676233 100.97688082 11.44246439 98.15599537 14 94 C14.85688804 90.65141081 15.14163763 87.47419104 15.20532227 84.02612305 C15.22526749 83.06550461 15.24521271 82.10488617 15.26576233 81.11515808 C15.28247482 80.0910231 15.29918732 79.06688812 15.31640625 78.01171875 C15.33718735 76.95338333 15.35796844 75.89504791 15.37937927 74.80464172 C15.44463103 71.43232559 15.50364637 68.05993326 15.5625 64.6875 C15.6057084 62.39777866 15.64932343 60.10806495 15.69335938 57.81835938 C15.80028741 52.21231955 15.90209863 46.60620434 16 41 C15.34 41 14.68 41 14 41 C12.2584738 38.36283176 10.62109089 35.71032782 9 33 C7.84128703 31.12007437 6.67432129 29.24521539 5.5 27.375 C4.91089844 26.43140625 4.32179687 25.4878125 3.71484375 24.515625 C2.27153096 22.39832788 0.90874057 20.86140756 -0.9375 19.125 C-4.17884698 14.21386821 -3.91693615 8.72320982 -3 3 C-1.46875 1.10546875 -1.46875 1.10546875 0 0 Z " fill="#DEDCDC" transform="translate(236,82)"/>
<path d="M0 0 C3.42112801 3.05717822 4.80120424 4.98794886 5.6875 9.5 C4.91172963 13.44937642 4.02079354 15.20245816 1.03515625 17.828125 C-3.07136798 20.19272628 -7.35191538 20.41418576 -12 20 C-15.99730341 18.71492184 -19.03574368 16.96425632 -22 14 C-21.66055195 6.87159091 -21.66055195 6.87159091 -19.77734375 4.38671875 C-14.38925306 0.18282382 -6.51374177 -2.34494704 0 0 Z " fill="#020202" transform="translate(152,101)"/>
<path d="M0 0 C2.125 0.375 2.125 0.375 4 1 C6.35618848 6.97517079 3.0878877 15.17549232 1 21 C-1.63586091 26.01965862 -4.79938268 29.55265067 -10 32 C-10.22042969 31.06027344 -10.22042969 31.06027344 -10.4453125 30.1015625 C-11.13383034 27.59282507 -11.83713809 25.3299834 -13 23 C-16.02884844 21.31963489 -16.02884844 21.31963489 -19 21 C-18.46375 20.608125 -17.9275 20.21625 -17.375 19.8125 C-10.70045988 14.71877201 -4.93422084 10.12553464 -2 2 C-1.34 1.34 -0.68 0.68 0 0 Z " fill="#DFDDDD" transform="translate(194,137)"/>
<path d="M0 0 C7.40442392 -0.80775534 11.26625769 1.40824786 17 6 C19 8 19 8 19 11 C18.42032471 11.0501123 17.84064941 11.10022461 17.2434082 11.15185547 C14.59900423 11.38497534 11.95581713 11.62987578 9.3125 11.875 C7.94448242 11.99294922 7.94448242 11.99294922 6.54882812 12.11328125 C-1.44338764 12.76087762 -1.44338764 12.76087762 -8 17 C-7.62551669 10.75861148 -6.0466215 8.44141384 -2 4 C-0.72147713 1.78412652 -0.72147713 1.78412652 0 0 Z " fill="#DFDDDD" transform="translate(123,171)"/>
</svg>
