<?xml version="1.0" encoding="UTF-8"?>
<svg version="1.1" xmlns="http://www.w3.org/2000/svg" width="360" height="360">
<path d="M0 0 C0.495 1.485 0.495 1.485 1 3 C1.80179687 3.29261719 2.60359375 3.58523437 3.4296875 3.88671875 C6 5 6 5 7.2578125 7.20703125 C7.54398438 8.06683594 7.83015625 8.92664063 8.125 9.8125 C10.23405214 15.87272682 10.23405214 15.87272682 14 21 C14.3359375 23.26171875 14.3359375 23.26171875 14 26 C12.1015625 28.45703125 12.1015625 28.45703125 9.625 30.8125 C8.40683594 31.99779297 8.40683594 31.99779297 7.1640625 33.20703125 C5 35 5 35 3 35 C2.814375 35.94875 2.62875 36.8975 2.4375 37.875 C1.48698833 41.26872829 -0.00887516 43.43735251 -2.1875 46.1875 C-7.31242425 53.17313327 -9.48674641 61.31507424 -12.15478516 69.45800781 C-13.44357434 73.3340543 -14.83109462 77.16998528 -16.25 81 C-16.48404541 81.65178223 -16.71809082 82.30356445 -16.95922852 82.97509766 C-17.93694146 85.61152462 -18.87800946 87.84170984 -20.6015625 90.078125 C-26.05192059 97.56856125 -24.26371127 112.38952972 -24.53344727 121.29150391 C-24.77407709 127.74406149 -25.37305075 133.47128508 -27.37890625 139.6328125 C-28.25378613 142.55937509 -28.25378613 142.55937509 -28 148 C-16.615 148.495 -16.615 148.495 -5 149 C-5.02320313 147.14375 -5.04640625 145.2875 -5.0703125 143.375 C-5.08907837 140.91667071 -5.10727769 138.45833704 -5.125 136 C-5.14175781 134.77925781 -5.15851563 133.55851563 -5.17578125 132.30078125 C-5.21112644 125.7619204 -4.77634412 120.27186115 -3 114 C-2.81603452 111.54537488 -2.69206026 109.0855956 -2.625 106.625 C-1.99723451 93.6181938 0.19332929 81.79446195 7.38671875 70.765625 C9.56829221 67.02578478 10.54321764 63.28032195 11.4921875 59.08203125 C12 57 12 57 13 56 C18.5840509 55.33523204 21.44040071 57.08185645 26 60 C26 60.66 26 61.32 26 62 C26.9075 62.22945313 27.815 62.45890625 28.75 62.6953125 C37.02481846 66.01717472 41.24971668 76.96019183 44.96875 84.56640625 C46 87 46 87 46 89 C46.99 89.33 47.98 89.66 49 90 C52 94.33333333 52 94.33333333 52 97 C52.99 97.33 53.98 97.66 55 98 C55.33333333 99.33333333 55.66666667 100.66666667 56 102 C56.99 102.33 57.98 102.66 59 103 C70.07991284 116.57420602 71.45685871 134.46360027 71.5 151.25 C71.50458221 151.92294098 71.50916443 152.59588196 71.5138855 153.28921509 C71.53441055 160.8854559 71.18589474 167.07414186 68 174 C67.524871 175.96386655 67.05013164 177.92786579 66.58984375 179.89526367 C65.94068746 182.21164462 65.06715555 184.33767802 64.125 186.55078125 C61.5237219 192.95428927 59.89031733 199.53914119 58.20117188 206.22851562 C55.79639089 215.44577959 55.79639089 215.44577959 53 219 C52.34 219 51.68 219 51 219 C50.67 219.99 50.34 220.98 50 222 C48.12382302 223.84499398 46.07262391 225.3683599 44 227 C44.63502441 227.0093457 45.27004883 227.01869141 45.92431641 227.02832031 C48.825308 227.08228733 51.72473244 227.16588127 54.625 227.25 C55.62402344 227.26417969 56.62304688 227.27835938 57.65234375 227.29296875 C64.72061689 227.52701753 68.52781761 228.81716614 73.828125 233.67578125 C77.28464064 237.6545726 78.65986922 240.83092415 80 246 C81.32640916 247.67218249 82.66080024 249.33804346 84 251 C85.25528332 253.13980786 86.46260385 255.30834558 87.625 257.5 C88.21539062 258.6034375 88.80578125 259.706875 89.4140625 260.84375 C94.10100327 270.17145478 93.72429387 277.97778022 91 288 C88.81647599 290.18352401 83.67270069 289.23662293 80.62890625 289.28125 C79.20166481 289.30886414 79.20166481 289.30886414 77.74559021 289.33703613 C74.68462518 289.39597816 71.62360067 289.4486175 68.5625 289.5 C65.53354301 289.55164503 62.50465436 289.60481696 59.47581482 289.66296387 C57.5892171 289.69913823 55.70254465 289.73166985 53.81581116 289.7598877 C52.93888107 289.77660522 52.06195099 289.79332275 51.15844727 289.81054688 C50.02379784 289.82933899 50.02379784 289.82933899 48.8662262 289.84851074 C46.34991065 289.9815061 43.88735119 290.22612289 41.3841095 290.50375366 C35.81176375 291.07654709 30.29361655 291.14070854 24.69580078 291.12939453 C23.06859856 291.13202301 23.06859856 291.13202301 21.40852356 291.13470459 C17.83743666 291.13908705 14.26639987 291.13619241 10.6953125 291.1328125 C8.17267853 291.13348783 5.65004463 291.13445976 3.12741089 291.13571167 C-2.16994911 291.13718485 -7.46729167 291.13514873 -12.76464844 291.13037109 C-19.44317584 291.12441512 -26.121669 291.12802453 -32.8001976 291.13377762 C-79.68413832 291.16882734 -79.68413832 291.16882734 -100.24643326 290.72799301 C-101.77534222 290.69621222 -103.30435412 290.6689985 -104.83343124 290.64673233 C-106.87117113 290.61503681 -108.90854502 290.56188977 -110.94580078 290.50732422 C-112.0556131 290.48193573 -113.16542542 290.45654724 -114.30886841 290.4303894 C-117.30464388 289.95127867 -118.2269578 289.41000225 -120 287 C-121.95988981 281.73027823 -121.18452988 275.53035617 -121.1875 270 C-121.19974609 268.83082031 -121.21199219 267.66164063 -121.22460938 266.45703125 C-121.25702004 246.98902654 -121.25702004 246.98902654 -116.6875 240.9375 C-111.63793714 237.29711747 -106.74201123 234.96926621 -100.875 233 C-99.71411865 232.60917236 -99.71411865 232.60917236 -98.52978516 232.21044922 C-89.85497244 229.4301274 -81.01477968 228.13934023 -72 227 C-76.57705994 222.88001565 -76.57705994 222.88001565 -81.69921875 219.50390625 C-84.79532821 217.48013351 -86.02176196 215.14834403 -87.8125 211.9375 C-88.41707031 210.87402344 -89.02164063 209.81054688 -89.64453125 208.71484375 C-91 206 -91 206 -91 204 C-91.99 203.67 -92.98 203.34 -94 203 C-94.77356524 200.5788017 -95.35935401 198.29027573 -95.875 195.8125 C-97.05849329 190.45784248 -98.49792651 185.71331371 -100.75 180.6875 C-103.42022128 173.57515134 -103.47783588 166.67540901 -103.5 159.125 C-103.50612305 157.95928467 -103.51224609 156.79356934 -103.51855469 155.5925293 C-103.43437896 149.85083713 -103.05636262 145.13204413 -100.73974609 139.86474609 C-99.38943923 136.46090325 -99.05903835 132.85898606 -98.5625 129.25 C-97.59241276 122.83067355 -96.24739931 116.87858612 -93.96484375 110.7734375 C-92.8931809 107.86247806 -92.8931809 107.86247806 -92.14453125 104.1875 C-91.031383 99.60648759 -89.01912263 95.73293497 -86.75 91.625 C-86.15046509 90.52007202 -86.15046509 90.52007202 -85.53881836 89.39282227 C-84.37158722 87.25473636 -83.1894678 85.12578055 -82 83 C-81.38769531 81.90300781 -80.77539062 80.80601563 -80.14453125 79.67578125 C-77.2557816 74.67574791 -77.2557816 74.67574791 -76 73 C-75.34 73 -74.68 73 -74 73 C-73.505 71.515 -73.505 71.515 -73 70 C-72.34 70 -71.68 70 -71 70 C-70.505 68.515 -70.505 68.515 -70 67 C-69.0409375 66.7834375 -69.0409375 66.7834375 -68.0625 66.5625 C-67.381875 66.376875 -66.70125 66.19125 -66 66 C-65.32736102 64.66966958 -64.66204909 63.33563214 -64 62 C-62.71215002 60.37945544 -61.37520462 58.79710519 -60 57.25 C-59.29875 56.45078125 -58.5975 55.6515625 -57.875 54.828125 C-56 53 -56 53 -54 53 C-53.67 52.01 -53.34 51.02 -53 50 C-51.2675 49.071875 -51.2675 49.071875 -49.5 48.125 C-46.59279677 46.56999866 -46.59279677 46.56999866 -44.9375 43.75 C-44.894365 40.8242595 -44.894365 40.8242595 -45.96875 37.41796875 C-48.06260996 29.23448938 -49.1035854 18.6682306 -45.57421875 10.8359375 C-43.275111 7.81312774 -41.28517278 5.60791446 -37.828125 3.97265625 C-35.64385103 3.07986074 -35.64385103 3.07986074 -35 0 C-33.29296875 -0.9140625 -33.29296875 -0.9140625 -31.1875 -1.625 C-30.50042969 -1.86476562 -29.81335938 -2.10453125 -29.10546875 -2.3515625 C-19.19472547 -5.40385078 -9.36866743 -4.68433371 0 0 Z M-40 17 C-40 18.65 -40 20.3 -40 22 C-39.67 22 -39.34 22 -39 22 C-39 20.35 -39 18.7 -39 17 C-39.33 17 -39.66 17 -40 17 Z M-68 76 C-67 78 -67 78 -67 78 Z M-71 79 C-70.67 79.66 -70.34 80.32 -70 81 C-69.67 80.34 -69.34 79.68 -69 79 C-69.66 79 -70.32 79 -71 79 Z M-87 196 C-85.5275928 199.90476615 -83.76541726 203.53342141 -81.75 207.1875 C-81.18796875 208.23292969 -80.6259375 209.27835938 -80.046875 210.35546875 C-77.60942546 213.50461634 -75.82114371 214.12027341 -72 215 C-72.35191406 214.53851563 -72.70382813 214.07703125 -73.06640625 213.6015625 C-76.68081934 208.82638489 -80.12392507 203.96132675 -83.484375 199.00390625 C-84.85026569 196.89003614 -84.85026569 196.89003614 -87 196 Z M-71 216 C-69.68 217.32 -68.36 218.64 -67 220 C-67.66 218.68 -68.32 217.36 -69 216 C-69.66 216 -70.32 216 -71 216 Z " fill="#FDFDFD" transform="translate(195,35)"/>
<path d="M0 0 C1.96268028 -0.00988178 3.92530473 -0.02941044 5.88790894 -0.04931641 C16.75710735 -0.06081744 27.45700763 0.92830869 38.07955933 3.28271484 C44.75547947 4.71736016 51.56612418 4.5007012 58.3666687 4.47998047 C66.15407325 4.63228933 66.15407325 4.63228933 69.94284058 7.60302734 C70.57190308 8.45251953 71.20096558 9.30201172 71.84909058 10.17724609 C72.57096558 10.79599609 73.29284058 11.41474609 74.03659058 12.05224609 C76.42720451 14.85503485 76.86011852 17.65403313 77.84909058 21.17724609 C79.18029607 22.84561281 80.51403204 24.51196106 81.84909058 26.17724609 C83.44147125 28.6734957 84.84186734 31.24750391 86.22409058 33.86474609 C86.79450073 34.84991211 86.79450073 34.84991211 87.37643433 35.85498047 C90.43336097 41.69246954 89.69623533 45.98045063 87.84909058 52.17724609 C86.65944702 52.20230225 85.46980347 52.2273584 84.24411011 52.25317383 C79.78975419 52.34803148 75.33552609 52.44805409 70.88131714 52.54956055 C68.96110037 52.59261546 67.04085252 52.63430832 65.12057495 52.67456055 C62.34508942 52.73298423 59.56975616 52.79646253 56.79440308 52.86083984 C55.94919098 52.87755234 55.10397888 52.89426483 54.2331543 52.91148376 C50.19771366 53.00962813 46.22694274 53.21948948 42.21598816 53.68199158 C36.8257983 54.23386331 31.49453945 54.31821482 26.07980347 54.30664062 C25.05191711 54.30839294 24.02403076 54.31014526 22.96499634 54.31195068 C19.58389567 54.31633029 16.20284799 54.31343944 12.82174683 54.31005859 C10.43123871 54.31073403 8.04073066 54.31170604 5.65022278 54.31295776 C0.63113758 54.31443058 -4.38792982 54.31229828 -9.40701294 54.30761719 C-15.73136538 54.30199643 -22.05567501 54.30523865 -28.38002586 54.31106949 C-55.31952205 54.33200352 -82.22914352 54.22516802 -109.15090942 53.17724609 C-110.5965933 48.84019447 -110.33526527 44.65804205 -110.33840942 40.11474609 C-110.35677856 38.75833008 -110.35677856 38.75833008 -110.3755188 37.37451172 C-110.40813322 22.16531775 -110.40813322 22.16531775 -106.72805786 17.29370117 C-95.94509996 6.67585949 -74.58451155 4.62829616 -60.15090942 4.17724609 C-59.82090942 3.18724609 -59.49090942 2.19724609 -59.15090942 1.17724609 C-18.24278885 0.08037286 -18.24278885 0.08037286 0 0 Z " fill="#FFFFFF" transform="translate(191.15090942382813,264.82275390625)"/>
<path d="M0 0 C0.495 1.485 0.495 1.485 1 3 C1.80179687 3.29261719 2.60359375 3.58523437 3.4296875 3.88671875 C6 5 6 5 7.2578125 7.20703125 C7.54398438 8.06683594 7.83015625 8.92664063 8.125 9.8125 C10.23405214 15.87272682 10.23405214 15.87272682 14 21 C14.3359375 23.26171875 14.3359375 23.26171875 14 26 C12.1015625 28.45703125 12.1015625 28.45703125 9.625 30.8125 C8.40683594 31.99779297 8.40683594 31.99779297 7.1640625 33.20703125 C5 35 5 35 3 35 C2.814375 35.94875 2.62875 36.8975 2.4375 37.875 C1.48698833 41.26872829 -0.00887516 43.43735251 -2.1875 46.1875 C-7.31242425 53.17313327 -9.48674641 61.31507424 -12.15478516 69.45800781 C-13.44357434 73.3340543 -14.83109462 77.16998528 -16.25 81 C-16.48404541 81.65178223 -16.71809082 82.30356445 -16.95922852 82.97509766 C-17.93694146 85.61152462 -18.87800946 87.84170984 -20.6015625 90.078125 C-26.05192059 97.56856125 -24.26371127 112.38952972 -24.53344727 121.29150391 C-24.77407709 127.74406149 -25.37305075 133.47128508 -27.37890625 139.6328125 C-28.25378613 142.55937509 -28.25378613 142.55937509 -28 148 C-16.615 148.495 -16.615 148.495 -5 149 C-5.02320313 147.14375 -5.04640625 145.2875 -5.0703125 143.375 C-5.08907837 140.91667071 -5.10727769 138.45833704 -5.125 136 C-5.14175781 134.77925781 -5.15851563 133.55851563 -5.17578125 132.30078125 C-5.21112644 125.7619204 -4.77634412 120.27186115 -3 114 C-2.81603452 111.54537488 -2.69206026 109.0855956 -2.625 106.625 C-1.99723451 93.6181938 0.19332929 81.79446195 7.38671875 70.765625 C9.56829221 67.02578478 10.54321764 63.28032195 11.4921875 59.08203125 C12 57 12 57 13 56 C18.5840509 55.33523204 21.44040071 57.08185645 26 60 C26 60.66 26 61.32 26 62 C26.9075 62.22945313 27.815 62.45890625 28.75 62.6953125 C37.02481846 66.01717472 41.24971668 76.96019183 44.96875 84.56640625 C46 87 46 87 46 89 C46.99 89.33 47.98 89.66 49 90 C52 94.33333333 52 94.33333333 52 97 C52.99 97.33 53.98 97.66 55 98 C55.33333333 99.33333333 55.66666667 100.66666667 56 102 C56.99 102.33 57.98 102.66 59 103 C70.07991284 116.57420602 71.45685871 134.46360027 71.5 151.25 C71.50458221 151.92294098 71.50916443 152.59588196 71.5138855 153.28921509 C71.53441055 160.8854559 71.18589474 167.07414186 68 174 C67.524871 175.96386655 67.05013164 177.92786579 66.58984375 179.89526367 C65.94068746 182.21164462 65.06715555 184.33767802 64.125 186.55078125 C61.5237219 192.95428927 59.89031733 199.53914119 58.20117188 206.22851562 C55.79639089 215.44577959 55.79639089 215.44577959 53 219 C52.34 219 51.68 219 51 219 C50.67 219.99 50.34 220.98 50 222 C48.12382302 223.84499398 46.07262391 225.3683599 44 227 C44.63502441 227.0093457 45.27004883 227.01869141 45.92431641 227.02832031 C48.825308 227.08228733 51.72473244 227.16588127 54.625 227.25 C55.62402344 227.26417969 56.62304688 227.27835938 57.65234375 227.29296875 C64.72061689 227.52701753 68.52781761 228.81716614 73.828125 233.67578125 C77.28464064 237.6545726 78.65986922 240.83092415 80 246 C81.32640916 247.67218249 82.66080024 249.33804346 84 251 C85.25528332 253.13980786 86.46260385 255.30834558 87.625 257.5 C88.21539062 258.6034375 88.80578125 259.706875 89.4140625 260.84375 C94.10100327 270.17145478 93.72429387 277.97778022 91 288 C88.81647599 290.18352401 83.67270069 289.23662293 80.62890625 289.28125 C79.20166481 289.30886414 79.20166481 289.30886414 77.74559021 289.33703613 C74.68462518 289.39597816 71.62360067 289.4486175 68.5625 289.5 C65.53354301 289.55164503 62.50465436 289.60481696 59.47581482 289.66296387 C57.5892171 289.69913823 55.70254465 289.73166985 53.81581116 289.7598877 C52.93888107 289.77660522 52.06195099 289.79332275 51.15844727 289.81054688 C50.02379784 289.82933899 50.02379784 289.82933899 48.8662262 289.84851074 C46.34991065 289.9815061 43.88735119 290.22612289 41.3841095 290.50375366 C35.81176375 291.07654709 30.29361655 291.14070854 24.69580078 291.12939453 C23.06859856 291.13202301 23.06859856 291.13202301 21.40852356 291.13470459 C17.83743666 291.13908705 14.26639987 291.13619241 10.6953125 291.1328125 C8.17267853 291.13348783 5.65004463 291.13445976 3.12741089 291.13571167 C-2.16994911 291.13718485 -7.46729167 291.13514873 -12.76464844 291.13037109 C-19.44317584 291.12441512 -26.121669 291.12802453 -32.8001976 291.13377762 C-79.68413832 291.16882734 -79.68413832 291.16882734 -100.24643326 290.72799301 C-101.77534222 290.69621222 -103.30435412 290.6689985 -104.83343124 290.64673233 C-106.87117113 290.61503681 -108.90854502 290.56188977 -110.94580078 290.50732422 C-112.0556131 290.48193573 -113.16542542 290.45654724 -114.30886841 290.4303894 C-117.30464388 289.95127867 -118.2269578 289.41000225 -120 287 C-121.95988981 281.73027823 -121.18452988 275.53035617 -121.1875 270 C-121.19974609 268.83082031 -121.21199219 267.66164063 -121.22460938 266.45703125 C-121.25702004 246.98902654 -121.25702004 246.98902654 -116.6875 240.9375 C-111.63793714 237.29711747 -106.74201123 234.96926621 -100.875 233 C-99.71411865 232.60917236 -99.71411865 232.60917236 -98.52978516 232.21044922 C-89.85497244 229.4301274 -81.01477968 228.13934023 -72 227 C-76.57705994 222.88001565 -76.57705994 222.88001565 -81.69921875 219.50390625 C-84.79532821 217.48013351 -86.02176196 215.14834403 -87.8125 211.9375 C-88.41707031 210.87402344 -89.02164063 209.81054688 -89.64453125 208.71484375 C-91 206 -91 206 -91 204 C-91.99 203.67 -92.98 203.34 -94 203 C-94.77356524 200.5788017 -95.35935401 198.29027573 -95.875 195.8125 C-97.05849329 190.45784248 -98.49792651 185.71331371 -100.75 180.6875 C-103.42022128 173.57515134 -103.47783588 166.67540901 -103.5 159.125 C-103.50612305 157.95928467 -103.51224609 156.79356934 -103.51855469 155.5925293 C-103.43437896 149.85083713 -103.05636262 145.13204413 -100.73974609 139.86474609 C-99.38943923 136.46090325 -99.05903835 132.85898606 -98.5625 129.25 C-97.59241276 122.83067355 -96.24739931 116.87858612 -93.96484375 110.7734375 C-92.8931809 107.86247806 -92.8931809 107.86247806 -92.14453125 104.1875 C-91.031383 99.60648759 -89.01912263 95.73293497 -86.75 91.625 C-86.15046509 90.52007202 -86.15046509 90.52007202 -85.53881836 89.39282227 C-84.37158722 87.25473636 -83.1894678 85.12578055 -82 83 C-81.38769531 81.90300781 -80.77539062 80.80601563 -80.14453125 79.67578125 C-77.2557816 74.67574791 -77.2557816 74.67574791 -76 73 C-75.34 73 -74.68 73 -74 73 C-73.505 71.515 -73.505 71.515 -73 70 C-72.34 70 -71.68 70 -71 70 C-70.505 68.515 -70.505 68.515 -70 67 C-69.0409375 66.7834375 -69.0409375 66.7834375 -68.0625 66.5625 C-67.381875 66.376875 -66.70125 66.19125 -66 66 C-65.32736102 64.66966958 -64.66204909 63.33563214 -64 62 C-62.71215002 60.37945544 -61.37520462 58.79710519 -60 57.25 C-59.29875 56.45078125 -58.5975 55.6515625 -57.875 54.828125 C-56 53 -56 53 -54 53 C-53.67 52.01 -53.34 51.02 -53 50 C-51.2675 49.071875 -51.2675 49.071875 -49.5 48.125 C-46.59279677 46.56999866 -46.59279677 46.56999866 -44.9375 43.75 C-44.894365 40.8242595 -44.894365 40.8242595 -45.96875 37.41796875 C-48.06260996 29.23448938 -49.1035854 18.6682306 -45.57421875 10.8359375 C-43.275111 7.81312774 -41.28517278 5.60791446 -37.828125 3.97265625 C-35.64385103 3.07986074 -35.64385103 3.07986074 -35 0 C-33.29296875 -0.9140625 -33.29296875 -0.9140625 -31.1875 -1.625 C-30.50042969 -1.86476562 -29.81335938 -2.10453125 -29.10546875 -2.3515625 C-19.19472547 -5.40385078 -9.36866743 -4.68433371 0 0 Z M-37 12 C-41.3047967 17.84366094 -40.60450821 24.02852874 -40 31 C-39.22543446 34.19214889 -38.38974696 37.61025304 -36 40 C-35.92476377 43.76181145 -36.03545922 45.91069275 -38.5703125 48.7734375 C-40.66380439 50.58779714 -42.81025954 52.30323776 -45 54 C-50.7403362 58.72059583 -55.70805817 63.85556887 -60.60546875 69.44921875 C-63 72 -63 72 -65.55078125 74.01953125 C-72.00386361 79.23757393 -75.84138184 86.94446021 -80 94 C-80.49113281 94.82757813 -80.98226562 95.65515625 -81.48828125 96.5078125 C-85.21125807 103.30829647 -86.85672636 110.56947615 -88.5546875 118.06640625 C-89.19545429 120.8486831 -89.91246406 123.61036055 -90.625 126.375 C-91.72176626 130.74427963 -92.66072427 135.11995242 -93.47265625 139.55078125 C-94 142 -94 142 -95.0234375 145.15625 C-98.86475939 160.27569295 -95.78539182 174.78111646 -89.8894043 188.84741211 C-89.03258458 190.92113692 -88.25923516 193.01001866 -87.5 195.12109375 C-84.72649211 202.56018647 -80.87349532 211.89445916 -73.8125 216 C-73.20019531 216.268125 -72.58789062 216.53625 -71.95703125 216.8125 C-70 218 -70 218 -67.86102295 221.03363037 C-65.61929152 223.75485773 -65.14324184 223.97152541 -61.43804932 224.70806885 C-60.04747457 224.71929158 -58.65638634 224.69760482 -57.26660156 224.64941406 C-56.50313919 224.64707764 -55.73967682 224.64474121 -54.95307922 224.64233398 C-52.43115118 224.62797403 -49.91194505 224.57151752 -47.390625 224.515625 C-45.62248145 224.4993282 -43.85430817 224.48601059 -42.08612061 224.4755249 C-37.42319946 224.44128584 -32.76144043 224.37287525 -28.09906006 224.29541016 C-20.68141826 224.177183 -13.26323343 224.10835306 -5.84496307 224.04387665 C-3.27883608 224.01643465 -0.71337751 223.97314487 1.85247803 223.92730713 C10.5358084 223.80798171 18.86651027 224.03644882 27.42805099 225.65027237 C31.24305729 226.2603333 32.82425197 226.10175939 36.21795654 224.13677979 C38.71861831 221.90303209 40.82297025 219.54532426 43 217 C43.88042969 216.30648437 44.76085937 215.61296875 45.66796875 214.8984375 C51.22217932 210.37691935 51.84605734 201.66283093 53.45166016 194.98730469 C54.38262826 191.19837878 55.42164274 187.60627333 56.9375 184 C57.62643645 182.33392659 58.3137969 180.66720105 59 179 C59.44988281 177.91589844 59.89976562 176.83179688 60.36328125 175.71484375 C67.30010793 157.52956669 65.80552337 136.05208699 59 118 C56.31253312 112.23538355 53.15915747 107.89589434 48.5 103.625 C47 102 47 102 45.61328125 99.68359375 C44.09006165 97.149812 42.43884066 94.81690766 40.6875 92.4375 C38.01738438 88.67685295 35.87291939 84.90587883 33.875 80.75 C30.09040055 72.94050907 25.9559966 67.9779983 18 64 C17.52820313 65.19496094 17.52820313 65.19496094 17.046875 66.4140625 C16.61890625 67.47367187 16.1909375 68.53328125 15.75 69.625 C15.33234375 70.66914062 14.9146875 71.71328125 14.484375 72.7890625 C13 76 13 76 10.96484375 78.875 C8.58796735 82.65532032 7.70302007 86.04225935 6.8125 90.375 C6.64379395 91.15794434 6.47508789 91.94088867 6.30126953 92.74755859 C4.97317033 99.28275435 4.45487347 105.69425809 4.2734375 112.3515625 C4 116 4 116 2.99511719 119.74169922 C1.95007502 123.80315689 1.77077001 127.57548143 1.8046875 131.78125 C1.80893234 132.82968079 1.80893234 132.82968079 1.81326294 133.89929199 C1.8243273 136.09971316 1.84940394 138.29970493 1.875 140.5 C1.88504765 142.00520239 1.89417035 143.51041126 1.90234375 145.015625 C1.92422107 148.67721938 1.95865304 152.33856768 2 156 C-1.75 157.125 -1.75 157.125 -4 156 C-6.05899483 155.93840299 -8.12002857 155.94011381 -10.1796875 155.97265625 C-11.41847656 155.98490234 -12.65726562 155.99714844 -13.93359375 156.00976562 C-16.55344214 156.04481811 -19.17324033 156.08385689 -21.79296875 156.12695312 C-23.03433594 156.13791016 -24.27570313 156.14886719 -25.5546875 156.16015625 C-27.26374268 156.18541382 -27.26374268 156.18541382 -29.00732422 156.21118164 C-31.92152541 156.00553765 -33.54508308 155.52165822 -36 154 C-35.44130571 139.89778546 -35.44130571 139.89778546 -33.5 133.5625 C-31.78114185 127.44270068 -31.63286778 121.43915123 -31.4375 115.125 C-30.66632056 91.16518915 -30.66632056 91.16518915 -25.41796875 81.73046875 C-23.68658459 78.39648107 -22.36166361 74.9552744 -21.0625 71.4375 C-20.81072998 70.76283691 -20.55895996 70.08817383 -20.29956055 69.39306641 C-18.96616364 65.77548052 -17.71044252 62.14344473 -16.53125 58.47265625 C-12.20077401 45.17118755 -12.20077401 45.17118755 -6.58984375 39.6953125 C-4.84669481 37.83652469 -3.96899528 36.13229436 -2.9375 33.8125 C-1.06914494 29.67601085 1.35319913 27.65221882 5 25 C4.85949219 24.44183594 4.71898437 23.88367188 4.57421875 23.30859375 C4.18466987 21.74244827 3.81281679 20.17181528 3.45703125 18.59765625 C1.93756744 12.62109858 0.4761989 9.346566 -5 6 C-16.5489122 0.82507759 -28.39900047 2.32944612 -37 12 Z M-63 231 C-63.33 231.99 -63.66 232.98 -64 234 C-65.8871875 234.12955078 -65.8871875 234.12955078 -67.8125 234.26171875 C-81.73853446 235.35250943 -100.65385976 237.03306031 -110.9375 247.75 C-115.02030795 254.18351556 -114.15613005 262.39835921 -114.125 269.8125 C-114.12886719 270.75287109 -114.13273437 271.69324219 -114.13671875 272.66210938 C-114.13542969 273.56380859 -114.13414063 274.46550781 -114.1328125 275.39453125 C-114.13168457 276.20768799 -114.13055664 277.02084473 -114.12939453 277.85864258 C-114.08127578 280.18689078 -114.08127578 280.18689078 -113 283 C-84.83075859 284.09647955 -56.67197006 284.15635889 -28.48461914 284.13037109 C-22.13163056 284.12459659 -15.77868354 284.12801839 -9.42569637 284.13394356 C-4.47650336 284.13755922 0.47267978 284.13640728 5.42187309 284.13381577 C7.76649417 284.1331533 10.11111616 284.13395087 12.45573616 284.13629532 C15.71408605 284.13884708 18.97236804 284.13494929 22.23071289 284.12939453 C23.17770554 284.13141876 24.12469818 284.13344299 25.10038757 284.13552856 C30.35387291 284.11901614 35.49274326 283.83616345 40.71269703 283.23425198 C44.78085808 282.8176151 48.8590205 282.76439256 52.9453125 282.68359375 C53.84120087 282.66281265 54.73708923 282.64203156 55.66012573 282.62062073 C58.48168342 282.55598643 61.30332251 282.49664707 64.125 282.4375 C66.05469543 282.39423256 67.98438307 282.35061587 69.9140625 282.30664062 C74.60929467 282.20039536 79.30460748 282.09889388 84 282 C85.8258738 275.84351792 86.59946813 271.53581212 83.57617188 265.7265625 C83.0125293 264.74816406 83.0125293 264.74816406 82.4375 263.75 C82.08880859 263.08226562 81.74011719 262.41453125 81.38085938 261.7265625 C79.61517955 258.44606446 77.71753117 255.55140284 75.28125 252.73046875 C73 250 73 250 72.0625 246.5625 C70.71548445 242.0460361 68.36580856 239.2377615 65 236 C62.56318006 234.78159003 60.91107969 234.84339453 58.1875 234.7890625 C57.20265625 234.76263672 56.2178125 234.73621094 55.203125 234.70898438 C54.14609375 234.68126953 53.0890625 234.65355469 52 234.625 C42.78018269 234.32171654 33.92936099 233.45270408 24.875 231.71875 C16.07104199 230.08575779 7.6288304 229.84210747 -1.3125 229.875 C-2.00455536 229.87588623 -2.69661072 229.87677246 -3.40963745 229.87768555 C-23.27775606 229.90695262 -43.14024338 230.4674985 -63 231 Z " fill="#010101" transform="translate(195,35)"/>
<path d="M0 0 C2.7064107 2.52598332 4.39884942 4.69095547 6 8 C6.46253174 8.46011475 6.92506348 8.92022949 7.40161133 9.39428711 C12.5205678 14.53669992 15.09359981 21.01383788 16.8125 27.9375 C17.02261719 28.7821582 17.23273438 29.62681641 17.44921875 30.49707031 C19.06155169 37.7394814 19.47105009 44.84373839 19.5 52.25 C19.50620361 53.29663818 19.51240723 54.34327637 19.51879883 55.42163086 C19.41586133 61.65663024 18.48633539 66.28969519 16 72 C15.52487545 73.96384815 15.05014605 75.9278315 14.59008789 77.89526367 C13.94046994 80.2123329 13.06491075 82.337543 12.12109375 84.55078125 C9.52146485 90.94733707 7.92158409 97.53248612 6.2890625 104.22851562 C4.17844201 112.42702799 1.00200478 116.42696112 -5.625 121.75 C-7.06746094 122.91789062 -7.06746094 122.91789062 -8.5390625 124.109375 C-12.38172078 127.06151247 -12.38172078 127.06151247 -16.0625 126.6953125 C-18.0115625 126.41300781 -18.0115625 126.41300781 -20 126.125 C-28.97836527 124.88839645 -37.95107445 124.39798515 -47 124 C-46.41982416 120.23738901 -44.80015593 118.32836461 -42.25 115.5625 C-41.52039063 114.77101563 -40.79078125 113.97953125 -40.0390625 113.1640625 C-39.36617187 112.44992188 -38.69328125 111.73578125 -38 111 C-37.21625 110.154375 -36.4325 109.30875 -35.625 108.4375 C-30.70676661 103.87056899 -25.4778313 99.63536866 -19.875 95.9375 C-18.92625 95.298125 -17.9775 94.65875 -17 94 C-16.38640625 93.59394531 -15.7728125 93.18789062 -15.140625 92.76953125 C-6.36035107 86.15029373 -1.2987853 74.78707788 0.4375 64.125 C0.59025391 62.70574219 0.59025391 62.70574219 0.74609375 61.2578125 C1 59 1 59 2 57 C4.09141916 41.27562633 5.27055394 22.74868804 0.65625 7.453125 C-0.03531237 4.86799901 -0.11496955 2.66346123 0 0 Z " fill="#DFDDDD" transform="translate(240,134)"/>
<path d="M0 0 C0.99 0 1.98 0 3 0 C2.41036258 5.80327351 0.81872422 10.811354 -1.25 16.25 C-1.56283936 17.08539307 -1.87567871 17.92078613 -2.19799805 18.78149414 C-4.79670441 25.6415737 -7.50066947 32.50302938 -11.0703125 38.92578125 C-14.82775149 47.30897497 -14.16468797 58.10623693 -14.4375 67.125 C-14.66510267 74.51726227 -15.12966435 81.25797291 -17.30078125 88.375 C-18.57386767 93.15440823 -18.74684409 98.07655412 -19 103 C-23.796875 101.3515625 -23.796875 101.3515625 -25.625 98.1875 C-26.07875 97.135625 -26.5325 96.08375 -27 95 C-27.556875 94.21625 -28.11375 93.4325 -28.6875 92.625 C-30.17566023 89.64867953 -30.17385096 87.4529594 -29.91015625 84.16015625 C-29.89867371 81.85491106 -29.89867371 81.85491106 -30.98046875 79.26171875 C-32.19530859 75.37516216 -32.30173809 71.77792266 -32.25 67.75 C-32.24395752 66.99710693 -32.23791504 66.24421387 -32.23168945 65.46850586 C-32.13076697 59.78320591 -31.51647092 54.49363049 -30 49 C-29.70802734 47.7934375 -29.70802734 47.7934375 -29.41015625 46.5625 C-26.92188632 37.13946595 -21.9117299 29.1651313 -16.44140625 21.1953125 C-14.9575809 18.93539421 -13.65854108 16.62867246 -12.375 14.25 C-10.52466693 10.86856064 -8.70217259 7.78933944 -6 5 C-4.67139075 4.64830932 -3.33841672 4.31229724 -2 4 C-0.71563266 2.0162233 -0.71563266 2.0162233 0 0 Z " fill="#E0DEDE" transform="translate(178,83)"/>
<path d="M0 0 C3.69914811 1.92071152 7.04871449 4.04871449 10 7 C19.7389586 8.02390029 27.35071463 7.5194283 35.1875 1.25 C37.62705599 -0.43245241 39.09856437 -0.44637471 42 0 C43.8125 1.1875 43.8125 1.1875 45 3 C45.3203125 5.390625 45.3203125 5.390625 45 8 C43.34765625 9.87890625 43.34765625 9.87890625 41.0625 11.5625 C40.33160156 12.12066406 39.60070312 12.67882812 38.84765625 13.25390625 C31.51013047 17.75304757 25.44100291 19.67354054 16.8125 19.5625 C15.51795898 19.59827148 15.51795898 19.59827148 14.19726562 19.63476562 C7.95983688 19.62044865 5.40687712 18.37403899 1 14 C-0.96071667 12.72342842 -0.96071667 12.72342842 -2.75 11.8125 C-6 10 -6 10 -8 8 C-8.36487512 5.15397406 -8.40199375 3.6135694 -6.8125 1.1875 C-4.20459486 -0.52112751 -3.09957967 -0.55103639 0 0 Z " fill="#020202" transform="translate(160,230)"/>
<path d="M0 0 C1.875 1.0625 1.875 1.0625 3 3 C2.6875 6.6875 2.6875 6.6875 2 10 C-4.42548263 11.33359073 -4.42548263 11.33359073 -6.9375 9.875 C-8.36066991 7.36352369 -8.42674516 5.84496772 -8 3 C-5.85607122 -0.27231235 -3.76836426 -0.56525464 0 0 Z " fill="#070707" transform="translate(162,209)"/>
<path d="M0 0 C1.875 1.0625 1.875 1.0625 3 3 C2.6875 6.6875 2.6875 6.6875 2 10 C-4.42548263 11.33359073 -4.42548263 11.33359073 -6.9375 9.875 C-8.36066991 7.36352369 -8.42674516 5.84496772 -8 3 C-5.85607122 -0.27231235 -3.76836426 -0.56525464 0 0 Z " fill="#070707" transform="translate(201,208)"/>
</svg>
