<?xml version="1.0" encoding="UTF-8"?>
<svg version="1.1" xmlns="http://www.w3.org/2000/svg" width="360" height="360">
<path d="M0 0 C1.46518066 -0.03891357 1.46518066 -0.03891357 2.95996094 -0.07861328 C9.58245297 -0.09614547 9.58245297 -0.09614547 12.91796875 1.88671875 C14.92048242 5.30656113 15.5245027 8.69664624 16.0625 12.5625 C16.18278564 13.34608887 16.30307129 14.12967773 16.42700195 14.93701172 C17.60388166 23.049452 18.07451659 31.18941751 18.375 39.375 C22.83 38.88 22.83 38.88 27.375 38.375 C27.32859375 37.64796875 27.2821875 36.9209375 27.234375 36.171875 C26.82118094 24.66146893 30.72896517 15.67466065 35.375 5.375 C39.35391352 5.25764123 43.3323746 5.18736346 47.3125 5.125 C48.42947266 5.09148438 49.54644531 5.05796875 50.69726562 5.0234375 C57.88787892 4.93909013 63.11916995 5.79119777 69.375 9.375 C70.44995728 9.96643799 70.44995728 9.96643799 71.54663086 10.56982422 C73.90853828 11.9659265 75.00213287 12.97786209 76.375 15.375 C77.09425829 20.9175198 77.31595757 26.79870811 75.88256836 32.24658203 C75.27263688 34.80424563 75.08883675 37.26706162 74.91015625 39.890625 C74.83361816 40.96981201 74.75708008 42.04899902 74.67822266 43.16088867 C74.55906494 44.87562378 74.55906494 44.87562378 74.4375 46.625 C73.21261625 63.02281983 73.21261625 63.02281983 72.5 69.5625 C72.37882813 70.73167969 72.25765625 71.90085937 72.1328125 73.10546875 C71.18393535 77.19933561 69.69328329 79.87123094 67.375 83.375 C65.25 84.0625 65.25 84.0625 63.375 84.375 C63.08882812 84.97441406 62.80265625 85.57382813 62.5078125 86.19140625 C61.1625028 88.78460666 59.72466449 89.91458247 57.375 91.625 C56.67375 92.14578125 55.9725 92.6665625 55.25 93.203125 C53.375 94.375 53.375 94.375 51.375 94.375 C51.84022153 110.59882256 51.84022153 110.59882256 55.41796875 126.31640625 C56.43037173 129.55196351 56.64383407 132.24402356 56.75 135.625 C57.12771082 142.22794462 58.32578529 148.39212476 59.91552734 154.80566406 C62.56958888 165.72480591 62.63341047 176.82191711 62.9375 188 C62.98079715 189.49610312 63.02441456 190.99219701 63.06835938 192.48828125 C63.17426182 196.11708861 63.2758418 199.74600135 63.375 203.375 C64.365 203.705 65.355 204.035 66.375 204.375 C66.375 205.695 66.375 207.015 66.375 208.375 C68.045625 208.74625 68.045625 208.74625 69.75 209.125 C84.27911945 212.86695794 84.27911945 212.86695794 88.4375 219.59375 C88.746875 220.1815625 89.05625 220.769375 89.375 221.375 C89.70677246 221.93340576 90.03854492 222.49181152 90.38037109 223.06713867 C91.6786794 226.07963459 91.91088312 228.81772981 92.2265625 232.08203125 C92.35546875 233.39107422 92.484375 234.70011719 92.6171875 236.04882812 C92.6800293 236.72888916 92.74287109 237.4089502 92.80761719 238.10961914 C92.99847445 240.17102291 93.20130463 242.23096977 93.40625 244.29101562 C93.76173615 247.98553245 94.11614349 251.67241821 94.375 255.375 C94.46958496 256.59405029 94.56416992 257.81310059 94.66162109 259.0690918 C94.375 262.375 94.375 262.375 92.82263184 264.54275513 C89.58443445 266.96680047 86.82225238 266.98150489 82.92626953 266.99682617 C81.80797256 267.0245536 81.80797256 267.0245536 80.66708374 267.05284119 C78.19732775 267.10956983 75.72803404 267.13870414 73.2578125 267.16796875 C71.52257675 267.20291626 69.78737663 267.23967488 68.05221558 267.27815247 C63.46758253 267.37531158 58.88286257 267.44953603 54.29772949 267.51849365 C49.71517644 267.59057404 45.13300316 267.68105045 40.55078125 267.77148438 C38.75944048 267.80673578 36.96809933 267.84196845 35.17675781 267.87718201 C34.30061829 267.89444273 33.42447876 267.91170345 32.52178955 267.92948723 C29.89346683 267.98026292 27.2651049 268.02820945 24.63671875 268.07557678 C13.96741143 268.27210866 3.31936197 268.62187708 -7.33837891 269.16772461 C-13.18316702 269.46474109 -19.02315531 269.5585831 -24.875 269.5625 C-25.88433594 269.57474609 -26.89367187 269.58699219 -27.93359375 269.59960938 C-29.42826172 269.60250977 -29.42826172 269.60250977 -30.953125 269.60546875 C-31.8080957 269.60957764 -32.66306641 269.61368652 -33.54394531 269.61791992 C-36.18010466 269.41007693 -38.44219668 268.97701884 -41.00463867 268.38427734 C-48.02125055 266.92301591 -55.08954294 267.03836048 -62.22265625 266.99609375 C-63.70813559 266.97988826 -65.19360455 266.96270515 -66.67906189 266.94459534 C-70.55666321 266.8992686 -74.4342789 266.864261 -78.31201172 266.83239746 C-84.54922633 266.78015358 -90.78629058 266.71550156 -97.02331352 266.64418221 C-99.19985938 266.62133307 -101.37638559 266.60508551 -103.55299377 266.58946228 C-105.51655067 266.56922752 -105.51655067 266.56922752 -107.51977539 266.54858398 C-108.67764053 266.53907211 -109.83550568 266.52956024 -111.02845764 266.51976013 C-113.625 266.375 -113.625 266.375 -114.625 265.375 C-115.16679352 261.85561858 -115.59154933 258.32693194 -116.02734375 254.79296875 C-116.54872465 251.81121524 -117.16282775 249.95875819 -118.625 247.375 C-119.86396247 242.0474614 -121.22083294 234.986363 -118.25 230.125 C-117.71375 229.5475 -117.1775 228.97 -116.625 228.375 C-115.91337557 226.72702764 -115.23468047 225.06334592 -114.625 223.375 C-113.965 223.375 -113.305 223.375 -112.625 223.375 C-112.398125 222.694375 -112.17125 222.01375 -111.9375 221.3125 C-108.7624996 214.20654673 -104.65462145 209.79935604 -97.625 206.375 C-96.19226091 205.92215211 -94.75476005 205.48404292 -93.3125 205.0625 C-89.85105013 203.82933308 -89.69219638 203.51234133 -87.93359375 199.91796875 C-86.27553248 194.99145905 -86.10608819 190.16043253 -86 185 C-85.94910562 183.22124159 -85.8945993 181.44258169 -85.8359375 179.6640625 C-85.81837402 178.88756348 -85.80081055 178.11106445 -85.78271484 177.31103516 C-85.625 175.375 -85.625 175.375 -84.625 173.375 C-84.41354929 171.29573471 -84.25595228 169.2108828 -84.125 167.125 C-84.0425 165.8771875 -83.96 164.629375 -83.875 163.34375 C-83.7925 162.0340625 -83.71 160.724375 -83.625 159.375 C-83.46225459 156.79141667 -83.29578113 154.20806459 -83.125 151.625 C-83.0528125 150.47515625 -82.980625 149.3253125 -82.90625 148.140625 C-82.625 145.375 -82.625 145.375 -81.625 143.375 C-81.3925741 140.05094067 -81.23095829 136.73375381 -81.10742188 133.40429688 C-80.85821884 128.32149536 -79.75269558 124.69672619 -77.5625 120.1875 C-75.19965641 113.09896922 -75.11575163 104.78905722 -75.625 97.375 C-75.955 97.045 -76.285 96.715 -76.625 96.375 C-76.66563832 94.70882885 -76.667721 93.04111905 -76.625 91.375 C-78.275 90.715 -79.925 90.055 -81.625 89.375 C-81.625 88.715 -81.625 88.055 -81.625 87.375 C-82.594375 87.106875 -83.56375 86.83875 -84.5625 86.5625 C-86.0784375 85.9746875 -86.0784375 85.9746875 -87.625 85.375 C-87.955 84.385 -88.285 83.395 -88.625 82.375 C-90.11 81.88 -90.11 81.88 -91.625 81.375 C-92.46875 79.07421875 -92.46875 79.07421875 -93.125 76.0625 C-93.49625 74.43248047 -93.49625 74.43248047 -93.875 72.76953125 C-94.1225 71.64933594 -94.37 70.52914062 -94.625 69.375 C-95.11729526 67.33146185 -95.61705783 65.28970526 -96.125 63.25 C-96.3415625 62.36054687 -96.558125 61.47109375 -96.78125 60.5546875 C-97.53131602 57.54269491 -97.53131602 57.54269491 -98.3581543 55.3425293 C-100.84522723 48.16023456 -101.21961305 41.07909858 -101.38842773 33.54077148 C-101.43799693 31.41620106 -101.51353905 29.29361001 -101.59179688 27.16992188 C-101.63173298 25.812544 -101.67019914 24.4551219 -101.70703125 23.09765625 C-101.74030518 21.87828369 -101.7735791 20.65891113 -101.80786133 19.40258789 C-101.625 16.375 -101.625 16.375 -99.625 13.375 C-97.32177734 12.42358398 -97.32177734 12.42358398 -94.4609375 11.62109375 C-93.42066406 11.32396484 -92.38039063 11.02683594 -91.30859375 10.72070312 C-89.67083984 10.27114258 -89.67083984 10.27114258 -88 9.8125 C-86.93136719 9.50892578 -85.86273438 9.20535156 -84.76171875 8.89257812 C-81.72102962 8.03422861 -78.67508509 7.19926283 -75.625 6.375 C-74.83899414 6.15875977 -74.05298828 5.94251953 -73.24316406 5.71972656 C-69.64051492 4.76364541 -66.35545808 4.13342318 -62.625 4.25 C-61.861875 4.26804688 -61.09875 4.28609375 -60.3125 4.3046875 C-59.755625 4.32789063 -59.19875 4.35109375 -58.625 4.375 C-56.381952 9.22551277 -54.87743565 13.84952271 -53.9375 19.125 C-53.81012451 19.81658203 -53.68274902 20.50816406 -53.55151367 21.22070312 C-52.5602137 26.95973827 -52.29200389 32.55373466 -52.625 38.375 C-51.635 38.045 -50.645 37.715 -49.625 37.375 C-48.06381572 37.30759135 -46.4999748 37.28985544 -44.9375 37.3125 C-43.72513672 37.32603516 -43.72513672 37.32603516 -42.48828125 37.33984375 C-41.87339844 37.35144531 -41.25851563 37.36304688 -40.625 37.375 C-40.64071045 36.80168945 -40.6564209 36.22837891 -40.67260742 35.63769531 C-41.22780006 12.27743799 -41.22780006 12.27743799 -37.625 4.375 C-34.66138618 2.39925745 -33.69956474 2.06760224 -30.328125 1.7421875 C-29.4623584 1.65791504 -28.5965918 1.57364258 -27.70458984 1.48681641 C-26.30394287 1.36959229 -26.30394287 1.36959229 -24.875 1.25 C-23.91158691 1.1679834 -22.94817383 1.0859668 -21.95556641 1.00146484 C-14.64169609 0.43141492 -7.33502414 0.10438394 0 0 Z M-73.625 130.375 C-72.625 132.375 -72.625 132.375 -72.625 132.375 Z " fill="#F6F5F5" transform="translate(191.625,58.625)"/>
<path d="M0 0 C1.29237579 -0.0033284 2.58475159 -0.0066568 3.91629028 -0.01008606 C6.64439732 -0.01603856 9.37247288 -0.01793029 12.10058594 -0.01733398 C14.85423417 -0.0172532 17.60771437 -0.02412506 20.36132812 -0.0378418 C46.46088033 -0.1649791 46.46088033 -0.1649791 58.890625 0.8046875 C60.05414993 0.87101128 60.05414993 0.87101128 61.24118042 0.93867493 C66.39224391 1.44129079 69.13730832 3.11519029 72.82281494 6.73173523 C75.23758129 8.95492356 78.00311991 10.03802554 81.0078125 11.29296875 C90.55592529 15.30725845 90.55592529 15.30725845 93.46655273 19.86499023 C94.68742625 22.93360199 94.94464668 25.80027587 95.26953125 29.0859375 C95.33566116 29.74378738 95.40179108 30.40163727 95.46992493 31.079422 C95.60721457 32.46330115 95.74061988 33.84757053 95.87036133 35.23217773 C96.0707101 37.35969087 96.2854129 39.48540834 96.50195312 41.61132812 C97.24537981 49.20659071 97.24537981 49.20659071 97.3828125 52.16796875 C95.46677273 54.08400852 91.99948968 53.39077023 89.45825195 53.44921875 C88.73266586 53.46726562 88.00707977 53.4853125 87.25950623 53.50390625 C84.83845316 53.56306439 82.41729838 53.61541252 79.99609375 53.66796875 C78.30143575 53.70849387 76.6067896 53.74951727 74.91215515 53.79101562 C70.42107998 53.89995613 65.92989727 54.00346987 61.43865967 54.10546875 C53.47849241 54.28682037 45.51851274 54.47606285 37.55859375 54.66796875 C36.70620998 54.68832373 35.85382622 54.7086787 34.97561264 54.7296505 C23.49978442 55.00586979 12.0383498 55.39429855 0.57299805 55.96728516 C-4.57362531 56.22325046 -9.7142026 56.35116743 -14.8671875 56.35546875 C-15.68574219 56.36771484 -16.50429687 56.37996094 -17.34765625 56.39257812 C-21.39505163 56.40216911 -25.05695952 56.13397055 -28.99462891 55.17944336 C-35.75047922 53.78472202 -42.50240042 53.81274428 -49.375 53.75390625 C-50.77319429 53.73515492 -52.17137774 53.7155787 -53.56954956 53.69522095 C-57.215714 53.6443117 -60.86191497 53.60446813 -64.50823975 53.56707764 C-68.2425611 53.52677664 -71.97673597 53.47580462 -75.7109375 53.42578125 C-83.01291964 53.32951127 -90.31497383 53.24495324 -97.6171875 53.16796875 C-97.81924805 52.35320068 -98.02130859 51.53843262 -98.22949219 50.69897461 C-98.49665039 49.62526611 -98.76380859 48.55155762 -99.0390625 47.4453125 C-99.30299805 46.38304443 -99.56693359 45.32077637 -99.83886719 44.22631836 C-100.30234789 42.40510672 -100.78162796 40.58762208 -101.29394531 38.77954102 C-102.7971017 33.40646112 -102.67221856 30.30128225 -100.19921875 25.30078125 C-93.98394321 14.73618485 -89.57585725 8.23257279 -77.6171875 4.16796875 C-72.07309984 2.99880005 -66.52589123 2.87052251 -60.8828125 2.66796875 C-59.3330069 2.60706055 -59.3330069 2.60706055 -57.75189209 2.54492188 C-54.45711795 2.41567362 -51.16218708 2.29132644 -47.8671875 2.16796875 C-44.58648304 2.0443508 -41.30584552 1.91954457 -38.02532959 1.79101562 C-35.98853623 1.71126393 -33.95163234 1.6342685 -31.91461182 1.56054688 C-27.50712587 1.38844801 -23.14762219 1.14376545 -18.76416016 0.6472168 C-12.51546413 -0.01682847 -6.27842104 0.00572711 0 0 Z " fill="#FEFEFE" transform="translate(181.6171875,264.83203125)"/>
<path d="M0 0 C2.09739585 10.18358236 3.38819207 20.07709061 3.62084961 30.48535156 C3.65577515 31.69529785 3.65577515 31.69529785 3.69140625 32.9296875 C3.70989624 34.00065674 3.70989624 34.00065674 3.72875977 35.09326172 C3.90657904 37.32785678 3.90657904 37.32785678 6 40 C8.20994837 39.74267724 10.41794024 39.46852314 12.625 39.1875 C13.85476562 39.03667969 15.08453125 38.88585937 16.3515625 38.73046875 C20.15706029 37.96855431 22.82642288 37.25035468 26 35 C26.79859033 31.99806832 26.79859033 31.99806832 26.625 28.5625 C26.86502455 19.98384492 29.02602362 12.59154232 33 5 C44.13696259 4.33839826 52.61660184 4.05545863 62 11 C62.027193 12.58323688 62.04648306 14.16661062 62.0625 15.75 C62.07410156 16.63171875 62.08570313 17.5134375 62.09765625 18.421875 C62 21 62 21 61.52294922 22.81640625 C60.90530353 25.3954086 60.71537253 27.86951179 60.53515625 30.515625 C60.45869873 31.59497314 60.38224121 32.67432129 60.3034668 33.78637695 C60.22394775 34.92937256 60.14442871 36.07236816 60.0625 37.25 C59.71680649 41.83400365 59.35963598 46.41707126 59 51 C58.89800293 52.33828857 58.89800293 52.33828857 58.79394531 53.70361328 C58.61665513 55.90984115 58.40926108 58.11036714 58.1875 60.3125 C58.07792969 61.50488281 57.96835937 62.69726562 57.85546875 63.92578125 C56.77584939 67.80550926 55.00679378 69.38895669 52 72 C51.175 72.845625 50.35 73.69125 49.5 74.5625 C48.675 75.366875 47.85 76.17125 47 77 C46.36449219 77.71414062 45.72898438 78.42828125 45.07421875 79.1640625 C40.28295602 82.02542652 35.74747224 81.21099766 30.3125 80.8125 C29.25482422 80.75513672 28.19714844 80.69777344 27.10742188 80.63867188 C19.35610044 80.17805022 19.35610044 80.17805022 17 79 C9.88604186 77.88387098 2.69914921 77.84001423 -4.484375 77.83203125 C-5.54360168 77.82870285 -6.60282837 77.82537445 -7.69415283 77.82194519 C-9.91605194 77.81691563 -12.13795849 77.81453563 -14.35986328 77.81469727 C-17.75435682 77.81249718 -21.14853194 77.79426222 -24.54296875 77.77539062 C-26.7109364 77.77245856 -28.87890557 77.77047251 -31.046875 77.76953125 C-32.05635193 77.76234573 -33.06582886 77.75516022 -34.105896 77.74775696 C-39.20519521 77.76430117 -43.18573274 78.15925075 -48 80 C-50.60546875 80.30297852 -50.60546875 80.30297852 -53.1875 80.37890625 C-54.13367188 80.41306641 -55.07984375 80.44722656 -56.0546875 80.48242188 C-57.51261719 80.52206055 -57.51261719 80.52206055 -59 80.5625 C-60.93760936 80.62288968 -62.87511859 80.6865994 -64.8125 80.75390625 C-66.1749585 80.79523682 -66.1749585 80.79523682 -67.56494141 80.83740234 C-70.16691555 80.93816849 -70.16691555 80.93816849 -73.2734375 81.82421875 C-77.39933805 82.0902152 -79.64756249 79.79612647 -82.625 77.25 C-83.18445313 76.79367188 -83.74390625 76.33734375 -84.3203125 75.8671875 C-85.88813872 74.58778214 -87.44443943 73.29429071 -89 72 C-89.76054688 71.53980469 -90.52109375 71.07960938 -91.3046875 70.60546875 C-93.92160869 68.12723232 -93.9503659 65.56641738 -94.5 62.0625 C-95.53379605 56.00530808 -97.03873579 50.38117303 -99.1328125 44.5859375 C-100.62037683 40.15004748 -101.14178222 35.92667492 -101.31640625 31.26171875 C-101.35830078 30.19501953 -101.40019531 29.12832031 -101.44335938 28.02929688 C-101.48267578 26.92650391 -101.52199219 25.82371094 -101.5625 24.6875 C-101.60568359 23.56537109 -101.64886719 22.44324219 -101.69335938 21.28710938 C-101.79914787 18.52485431 -101.90123672 15.7625137 -102 13 C-96.05893734 10.23304354 -90.01227444 8.49439997 -83.6875 6.8125 C-82.68654297 6.53986328 -81.68558594 6.26722656 -80.65429688 5.98632812 C-73.28148496 4 -73.28148496 4 -71 4 C-67.39598191 13.26747508 -66.7824974 23.22749574 -66.34375 33.06640625 C-66.20313024 36.1872421 -66.20313024 36.1872421 -64 39 C-63.43152344 38.855625 -62.86304688 38.71125 -62.27734375 38.5625 C-55.54424959 36.94385967 -49.82571439 36.59470586 -43 38 C-41.26750878 36.26750878 -41.82943633 33.89145204 -41.7890625 31.53125 C-41.74652344 29.83742188 -41.74652344 29.83742188 -41.703125 28.109375 C-41.65172118 25.73451868 -41.60725889 23.35950023 -41.5703125 20.984375 C-41.38185562 14.04287986 -40.5809805 8.45935227 -38 2 C-25.27214397 0.51198343 -12.8143625 -0.2785731 0 0 Z " fill="#FDFDFD" transform="translate(199,66)"/>
<path d="M0 0 C1.46518066 -0.03891357 1.46518066 -0.03891357 2.95996094 -0.07861328 C9.58245297 -0.09614547 9.58245297 -0.09614547 12.91796875 1.88671875 C14.92048242 5.30656113 15.5245027 8.69664624 16.0625 12.5625 C16.18278564 13.34608887 16.30307129 14.12967773 16.42700195 14.93701172 C17.60388166 23.049452 18.07451659 31.18941751 18.375 39.375 C22.83 38.88 22.83 38.88 27.375 38.375 C27.32859375 37.64796875 27.2821875 36.9209375 27.234375 36.171875 C26.82118094 24.66146893 30.72896517 15.67466065 35.375 5.375 C39.35391352 5.25764123 43.3323746 5.18736346 47.3125 5.125 C48.42947266 5.09148438 49.54644531 5.05796875 50.69726562 5.0234375 C57.88787892 4.93909013 63.11916995 5.79119777 69.375 9.375 C70.44995728 9.96643799 70.44995728 9.96643799 71.54663086 10.56982422 C73.90853828 11.9659265 75.00213287 12.97786209 76.375 15.375 C77.09425829 20.9175198 77.31595757 26.79870811 75.88256836 32.24658203 C75.27263688 34.80424563 75.08883675 37.26706162 74.91015625 39.890625 C74.83361816 40.96981201 74.75708008 42.04899902 74.67822266 43.16088867 C74.55906494 44.87562378 74.55906494 44.87562378 74.4375 46.625 C73.21261625 63.02281983 73.21261625 63.02281983 72.5 69.5625 C72.37882813 70.73167969 72.25765625 71.90085937 72.1328125 73.10546875 C71.18393535 77.19933561 69.69328329 79.87123094 67.375 83.375 C65.25 84.0625 65.25 84.0625 63.375 84.375 C63.08882812 84.97441406 62.80265625 85.57382813 62.5078125 86.19140625 C61.1625028 88.78460666 59.72466449 89.91458247 57.375 91.625 C56.67375 92.14578125 55.9725 92.6665625 55.25 93.203125 C53.375 94.375 53.375 94.375 51.375 94.375 C51.84022153 110.59882256 51.84022153 110.59882256 55.41796875 126.31640625 C56.43037173 129.55196351 56.64383407 132.24402356 56.75 135.625 C57.12771082 142.22794462 58.32578529 148.39212476 59.91552734 154.80566406 C62.56958888 165.72480591 62.63341047 176.82191711 62.9375 188 C62.98079715 189.49610312 63.02441456 190.99219701 63.06835938 192.48828125 C63.17426182 196.11708861 63.2758418 199.74600135 63.375 203.375 C64.365 203.705 65.355 204.035 66.375 204.375 C66.375 205.695 66.375 207.015 66.375 208.375 C68.045625 208.74625 68.045625 208.74625 69.75 209.125 C84.27911945 212.86695794 84.27911945 212.86695794 88.4375 219.59375 C88.746875 220.1815625 89.05625 220.769375 89.375 221.375 C89.70677246 221.93340576 90.03854492 222.49181152 90.38037109 223.06713867 C91.6786794 226.07963459 91.91088312 228.81772981 92.2265625 232.08203125 C92.35546875 233.39107422 92.484375 234.70011719 92.6171875 236.04882812 C92.6800293 236.72888916 92.74287109 237.4089502 92.80761719 238.10961914 C92.99847445 240.17102291 93.20130463 242.23096977 93.40625 244.29101562 C93.76173615 247.98553245 94.11614349 251.67241821 94.375 255.375 C94.46958496 256.59405029 94.56416992 257.81310059 94.66162109 259.0690918 C94.375 262.375 94.375 262.375 92.82263184 264.54275513 C89.58443445 266.96680047 86.82225238 266.98150489 82.92626953 266.99682617 C81.80797256 267.0245536 81.80797256 267.0245536 80.66708374 267.05284119 C78.19732775 267.10956983 75.72803404 267.13870414 73.2578125 267.16796875 C71.52257675 267.20291626 69.78737663 267.23967488 68.05221558 267.27815247 C63.46758253 267.37531158 58.88286257 267.44953603 54.29772949 267.51849365 C49.71517644 267.59057404 45.13300316 267.68105045 40.55078125 267.77148438 C38.75944048 267.80673578 36.96809933 267.84196845 35.17675781 267.87718201 C34.30061829 267.89444273 33.42447876 267.91170345 32.52178955 267.92948723 C29.89346683 267.98026292 27.2651049 268.02820945 24.63671875 268.07557678 C13.96741143 268.27210866 3.31936197 268.62187708 -7.33837891 269.16772461 C-13.18316702 269.46474109 -19.02315531 269.5585831 -24.875 269.5625 C-25.88433594 269.57474609 -26.89367187 269.58699219 -27.93359375 269.59960938 C-29.42826172 269.60250977 -29.42826172 269.60250977 -30.953125 269.60546875 C-31.8080957 269.60957764 -32.66306641 269.61368652 -33.54394531 269.61791992 C-36.18010466 269.41007693 -38.44219668 268.97701884 -41.00463867 268.38427734 C-48.02125055 266.92301591 -55.08954294 267.03836048 -62.22265625 266.99609375 C-63.70813559 266.97988826 -65.19360455 266.96270515 -66.67906189 266.94459534 C-70.55666321 266.8992686 -74.4342789 266.864261 -78.31201172 266.83239746 C-84.54922633 266.78015358 -90.78629058 266.71550156 -97.02331352 266.64418221 C-99.19985938 266.62133307 -101.37638559 266.60508551 -103.55299377 266.58946228 C-105.51655067 266.56922752 -105.51655067 266.56922752 -107.51977539 266.54858398 C-108.67764053 266.53907211 -109.83550568 266.52956024 -111.02845764 266.51976013 C-113.625 266.375 -113.625 266.375 -114.625 265.375 C-115.16679352 261.85561858 -115.59154933 258.32693194 -116.02734375 254.79296875 C-116.54872465 251.81121524 -117.16282775 249.95875819 -118.625 247.375 C-119.86396247 242.0474614 -121.22083294 234.986363 -118.25 230.125 C-117.71375 229.5475 -117.1775 228.97 -116.625 228.375 C-115.91337557 226.72702764 -115.23468047 225.06334592 -114.625 223.375 C-113.965 223.375 -113.305 223.375 -112.625 223.375 C-112.398125 222.694375 -112.17125 222.01375 -111.9375 221.3125 C-108.7624996 214.20654673 -104.65462145 209.79935604 -97.625 206.375 C-96.19226091 205.92215211 -94.75476005 205.48404292 -93.3125 205.0625 C-89.85105013 203.82933308 -89.69219638 203.51234133 -87.93359375 199.91796875 C-86.27553248 194.99145905 -86.10608819 190.16043253 -86 185 C-85.94910562 183.22124159 -85.8945993 181.44258169 -85.8359375 179.6640625 C-85.81837402 178.88756348 -85.80081055 178.11106445 -85.78271484 177.31103516 C-85.625 175.375 -85.625 175.375 -84.625 173.375 C-84.41354929 171.29573471 -84.25595228 169.2108828 -84.125 167.125 C-84.0425 165.8771875 -83.96 164.629375 -83.875 163.34375 C-83.7925 162.0340625 -83.71 160.724375 -83.625 159.375 C-83.46225459 156.79141667 -83.29578113 154.20806459 -83.125 151.625 C-83.0528125 150.47515625 -82.980625 149.3253125 -82.90625 148.140625 C-82.625 145.375 -82.625 145.375 -81.625 143.375 C-81.3925741 140.05094067 -81.23095829 136.73375381 -81.10742188 133.40429688 C-80.85821884 128.32149536 -79.75269558 124.69672619 -77.5625 120.1875 C-75.19965641 113.09896922 -75.11575163 104.78905722 -75.625 97.375 C-75.955 97.045 -76.285 96.715 -76.625 96.375 C-76.66563832 94.70882885 -76.667721 93.04111905 -76.625 91.375 C-78.275 90.715 -79.925 90.055 -81.625 89.375 C-81.625 88.715 -81.625 88.055 -81.625 87.375 C-82.594375 87.106875 -83.56375 86.83875 -84.5625 86.5625 C-86.0784375 85.9746875 -86.0784375 85.9746875 -87.625 85.375 C-87.955 84.385 -88.285 83.395 -88.625 82.375 C-90.11 81.88 -90.11 81.88 -91.625 81.375 C-92.46875 79.07421875 -92.46875 79.07421875 -93.125 76.0625 C-93.49625 74.43248047 -93.49625 74.43248047 -93.875 72.76953125 C-94.1225 71.64933594 -94.37 70.52914062 -94.625 69.375 C-95.11729526 67.33146185 -95.61705783 65.28970526 -96.125 63.25 C-96.3415625 62.36054687 -96.558125 61.47109375 -96.78125 60.5546875 C-97.53131602 57.54269491 -97.53131602 57.54269491 -98.3581543 55.3425293 C-100.84522723 48.16023456 -101.21961305 41.07909858 -101.38842773 33.54077148 C-101.43799693 31.41620106 -101.51353905 29.29361001 -101.59179688 27.16992188 C-101.63173298 25.812544 -101.67019914 24.4551219 -101.70703125 23.09765625 C-101.74030518 21.87828369 -101.7735791 20.65891113 -101.80786133 19.40258789 C-101.625 16.375 -101.625 16.375 -99.625 13.375 C-97.32177734 12.42358398 -97.32177734 12.42358398 -94.4609375 11.62109375 C-93.42066406 11.32396484 -92.38039063 11.02683594 -91.30859375 10.72070312 C-89.67083984 10.27114258 -89.67083984 10.27114258 -88 9.8125 C-86.93136719 9.50892578 -85.86273438 9.20535156 -84.76171875 8.89257812 C-81.72102962 8.03422861 -78.67508509 7.19926283 -75.625 6.375 C-74.83899414 6.15875977 -74.05298828 5.94251953 -73.24316406 5.71972656 C-69.64051492 4.76364541 -66.35545808 4.13342318 -62.625 4.25 C-61.861875 4.26804688 -61.09875 4.28609375 -60.3125 4.3046875 C-59.755625 4.32789063 -59.19875 4.35109375 -58.625 4.375 C-56.381952 9.22551277 -54.87743565 13.84952271 -53.9375 19.125 C-53.81012451 19.81658203 -53.68274902 20.50816406 -53.55151367 21.22070312 C-52.5602137 26.95973827 -52.29200389 32.55373466 -52.625 38.375 C-51.635 38.045 -50.645 37.715 -49.625 37.375 C-48.06381572 37.30759135 -46.4999748 37.28985544 -44.9375 37.3125 C-43.72513672 37.32603516 -43.72513672 37.32603516 -42.48828125 37.33984375 C-41.87339844 37.35144531 -41.25851563 37.36304688 -40.625 37.375 C-40.64071045 36.80168945 -40.6564209 36.22837891 -40.67260742 35.63769531 C-41.22780006 12.27743799 -41.22780006 12.27743799 -37.625 4.375 C-34.66138618 2.39925745 -33.69956474 2.06760224 -30.328125 1.7421875 C-29.4623584 1.65791504 -28.5965918 1.57364258 -27.70458984 1.48681641 C-26.30394287 1.36959229 -26.30394287 1.36959229 -24.875 1.25 C-23.91158691 1.1679834 -22.94817383 1.0859668 -21.95556641 1.00146484 C-14.64169609 0.43141492 -7.33502414 0.10438394 0 0 Z M-30.625 9.375 C-33.65362784 16.96686872 -34.1550559 23.80888596 -34.3125 31.9375 C-34.34666016 33.13697266 -34.38082031 34.33644531 -34.41601562 35.57226562 C-34.49784454 38.50641684 -34.5672063 41.44029364 -34.625 44.375 C-38.375 45.5 -38.375 45.5 -40.625 44.375 C-46.25806277 44.03011861 -51.21081238 44.99996822 -56.625 46.375 C-58.94677961 42.89233059 -58.90590421 41.3111892 -59.0625 37.1875 C-59.38511352 31.5622934 -60.06859581 26.15869556 -61.125 20.625 C-61.32113892 19.5882312 -61.32113892 19.5882312 -61.52124023 18.53051758 C-62.24222248 14.84639483 -62.24222248 14.84639483 -63.625 11.375 C-80.27143695 13.61717306 -80.27143695 13.61717306 -94.625 20.375 C-95.17389901 33.76561949 -93.79219541 46.65758294 -89.625 59.375 C-87.6593521 66.6828689 -87.6593521 66.6828689 -87.51953125 69.5 C-87.10376921 74.01847049 -86.13736748 75.89669766 -82.74609375 79.0625 C-79.47749031 81.65556409 -76.06791383 84.02021696 -72.625 86.375 C-71.95210937 86.98601562 -71.27921875 87.59703125 -70.5859375 88.2265625 C-67.67872326 89.92919395 -65.90674641 89.05745408 -62.625 88.375 C-60.89738995 88.26495455 -59.16767285 88.1859009 -57.4375 88.12890625 C-56.49132812 88.09603516 -55.54515625 88.06316406 -54.5703125 88.02929688 C-52.60688858 87.96810263 -50.64333917 87.91081028 -48.6796875 87.85742188 C-47.73351562 87.82326172 -46.78734375 87.78910156 -45.8125 87.75390625 C-44.96042969 87.7288501 -44.10835937 87.70379395 -43.23046875 87.67797852 C-40.56548971 87.47672583 -40.56548971 87.47672583 -37.98535156 86.36572266 C-33.19907521 84.95459875 -28.635455 85.10920019 -23.671875 85.14453125 C-22.61647522 85.14498947 -21.56107544 85.14544769 -20.47369385 85.1459198 C-18.24465814 85.14893446 -16.01562439 85.15679716 -13.78662109 85.16918945 C-10.40063885 85.18736239 -7.01493205 85.18969945 -3.62890625 85.18945312 C-1.45572684 85.1943724 0.71745075 85.2002025 2.890625 85.20703125 C3.892005 85.20814407 4.89338501 85.2092569 5.92510986 85.21040344 C22.26275403 85.31887702 22.26275403 85.31887702 26.375 87.375 C30.13262851 87.82211434 33.9099645 87.98262452 37.6875 88.1875 C38.73357422 88.26419922 39.77964844 88.34089844 40.85742188 88.41992188 C46.88464694 88.81833615 46.88464694 88.81833615 52.34375 86.609375 C53.34921875 85.50335938 53.34921875 85.50335938 54.375 84.375 C55.44814453 83.47587891 55.44814453 83.47587891 56.54296875 82.55859375 C57.20941406 81.98238281 57.87585938 81.40617187 58.5625 80.8125 C59.23667969 80.23371094 59.91085938 79.65492188 60.60546875 79.05859375 C64.28419247 75.55852769 64.79398913 72.70440403 65.375 67.8125 C65.45548584 67.13864258 65.53597168 66.46478516 65.61889648 65.77050781 C66.545048 57.59024993 67.10811399 49.37331356 67.67773438 41.16186523 C67.75443359 40.08235596 67.83113281 39.00284668 67.91015625 37.890625 C67.975979 36.92415039 68.04180176 35.95767578 68.10961914 34.96191406 C68.34540572 32.66348294 68.79003623 30.60229295 69.375 28.375 C69.44124507 26.62613019 69.46052595 24.87497252 69.4375 23.125 C69.42847656 22.23296875 69.41945313 21.3409375 69.41015625 20.421875 C69.39855469 19.74640625 69.38695312 19.0709375 69.375 18.375 C59.99160184 11.43045863 51.51196259 11.71339826 40.375 12.375 C39.55895001 14.2901579 38.74729368 16.20718834 37.9375 18.125 C37.25880859 19.72601563 37.25880859 19.72601563 36.56640625 21.359375 C34.20472054 27.33714999 34.10465537 32.85056668 33.8515625 39.2578125 C33.69429687 40.28648438 33.53703125 41.31515625 33.375 42.375 C29.99739627 44.62673582 27.39277776 45.2116795 23.4375 46.0625 C22.21160156 46.33449219 20.98570312 46.60648438 19.72265625 46.88671875 C16.76189427 47.31856851 15.08517771 47.55702931 12.375 46.375 C10.67449688 42.97399377 11.11914827 39.062718 11 35.3125 C10.62726805 25.79616046 9.29374844 16.69118741 7.375 7.375 C-5.4393625 7.0964269 -17.89714397 7.88698343 -30.625 9.375 Z M-38.625 93.375 C-41.32226562 93.66210938 -41.32226562 93.66210938 -44.03125 93.71875 C-45.02253906 93.74839844 -46.01382813 93.77804688 -47.03515625 93.80859375 C-50.125 93.875 -50.125 93.875 -53.21484375 93.94140625 C-58.37922626 94.09586763 -62.79261303 94.32289047 -67.625 96.375 C-67.66463867 97.0141333 -67.70427734 97.6532666 -67.74511719 98.31176758 C-69.13753502 119.64230095 -69.13753502 119.64230095 -72.7421875 127.74609375 C-74.32092511 132.44737874 -74.27448038 137.3675194 -74.44921875 142.28515625 C-74.625 145.375 -74.625 145.375 -75.625 147.375 C-75.83645071 149.45426529 -75.99404772 151.5391172 -76.125 153.625 C-76.2075 154.8728125 -76.29 156.120625 -76.375 157.40625 C-76.4575 158.7159375 -76.54 160.025625 -76.625 161.375 C-76.78774541 163.95858333 -76.95421887 166.54193541 -77.125 169.125 C-77.1971875 170.27484375 -77.269375 171.4246875 -77.34375 172.609375 C-77.625 175.375 -77.625 175.375 -78.625 177.375 C-78.75289717 178.83655351 -78.8269881 180.30305553 -78.87109375 181.76953125 C-78.90396484 182.64287109 -78.93683594 183.51621094 -78.97070312 184.41601562 C-79.03150915 186.25184009 -79.08884661 188.08778298 -79.14257812 189.92382812 C-79.17673828 190.80103516 -79.21089844 191.67824219 -79.24609375 192.58203125 C-79.2711499 193.3810083 -79.29620605 194.17998535 -79.32202148 195.00317383 C-79.66745043 197.70731741 -80.52315943 199.8916569 -81.625 202.375 C-77.75007608 202.43641674 -73.87528154 202.46965663 -70 202.5 C-68.44539063 202.52513672 -68.44539063 202.52513672 -66.859375 202.55078125 C-59.366166 202.59384567 -51.9794786 202.21299931 -44.50921631 201.65959167 C-27.58995794 200.40671437 -10.79003655 200.09575746 6.17028809 200.17938232 C8.97455169 200.19032812 11.77876849 200.18980691 14.58304977 200.18936348 C41.94375033 200.19053116 41.94375033 200.19053116 55.375 201.375 C55.62972783 183.52053886 55.74591878 166.69210477 51.02734375 149.3671875 C50.05085254 144.8881919 49.93004921 140.41176007 49.6875 135.84375 C49.29039285 131.43586062 48.28817726 127.34591105 47.09375 123.09375 C45.42061696 116.76494243 45.09568259 110.50855722 44.8125 104 C44.76931641 103.07316406 44.72613281 102.14632812 44.68164062 101.19140625 C44.57623814 98.91939706 44.47411394 96.64729075 44.375 94.375 C43.77961426 94.34994385 43.18422852 94.3248877 42.57080078 94.29907227 C39.88030864 94.18322506 37.1901766 94.06044804 34.5 93.9375 C33.56285156 93.89818359 32.62570313 93.85886719 31.66015625 93.81835938 C30.76425781 93.77646484 29.86835938 93.73457031 28.9453125 93.69140625 C28.11789551 93.65474854 27.29047852 93.61809082 26.43798828 93.58032227 C24.375 93.375 24.375 93.375 22.375 92.375 C15.54614114 91.31999948 8.66069771 91.21542727 1.765625 91.20703125 C0.7951825 91.20370285 -0.17526001 91.20037445 -1.17510986 91.19694519 C-3.20869477 91.19192008 -5.2422878 91.18953548 -7.27587891 91.18969727 C-10.38067035 91.18749598 -13.48511425 91.16925319 -16.58984375 91.15039062 C-18.57551963 91.14745868 -20.56119718 91.14547256 -22.546875 91.14453125 C-23.46885681 91.13734573 -24.39083862 91.13016022 -25.34075928 91.12275696 C-30.23358999 91.14009555 -33.99289724 91.65236893 -38.625 93.375 Z M-47.06787109 207.90722656 C-55.52012388 208.53109866 -63.96069206 208.77753898 -72.43359375 208.94140625 C-82.84254237 209.22141305 -93.86746261 210.6288187 -101.60546875 218.3515625 C-103.42081237 220.61974018 -105.03168039 222.94634778 -106.625 225.375 C-107.51445313 226.58929688 -107.51445313 226.58929688 -108.421875 227.828125 C-112.07149694 233.15188544 -113.25316538 236.73235892 -112.25 243.1484375 C-111.71428897 245.36470395 -111.71428897 245.36470395 -110.65625 247.18603516 C-109.49039472 249.66071756 -108.99491519 251.93831753 -108.5 254.625 C-108.33242187 255.51703125 -108.16484375 256.4090625 -107.9921875 257.328125 C-107.87101562 258.00359375 -107.74984375 258.6790625 -107.625 259.375 C-106.85793732 259.38308685 -106.09087463 259.39117371 -105.30056763 259.39950562 C-98.03376458 259.47779358 -90.76715252 259.56518409 -83.50058174 259.66252708 C-79.76572429 259.71224548 -76.03089182 259.75857527 -72.29589844 259.796875 C-68.68420683 259.83403982 -65.0727377 259.88047914 -61.46123886 259.93306351 C-60.09074728 259.95144331 -58.72020831 259.96661022 -57.34964371 259.97834396 C-50.31025132 260.04070695 -43.62280086 260.26645708 -36.76211548 261.92955017 C-32.82883738 262.74938329 -28.87581889 262.62235477 -24.875 262.5625 C-23.71677734 262.5615332 -23.71677734 262.5615332 -22.53515625 262.56054688 C-17.37150845 262.52452143 -12.22268979 262.31425191 -7.06637573 262.05767822 C10.78104956 261.17564363 28.64430572 260.81171973 46.50701904 260.37921143 C51.12711654 260.26684707 55.74714862 260.15185398 60.3671875 260.03710938 C69.36973095 259.81389358 78.37234098 259.59350179 87.375 259.375 C87.06404855 255.89569315 86.75095088 252.41658249 86.4375 248.9375 C86.35048828 247.96361328 86.26347656 246.98972656 86.17382812 245.98632812 C85.91456088 243.11518345 85.6468242 240.24498118 85.375 237.375 C85.25777588 236.09496094 85.25777588 236.09496094 85.13818359 234.7890625 C85.06035645 234.00402344 84.9825293 233.21898437 84.90234375 232.41015625 C84.836521 231.72703369 84.77069824 231.04391113 84.70288086 230.34008789 C83.99447488 226.09439934 82.63264991 223.21962644 79.375 220.375 C75.90967299 218.57448004 72.29113979 217.18180719 68.60742188 215.89599609 C67.5178418 215.50855225 67.5178418 215.50855225 66.40625 215.11328125 C65.42495117 214.78904175 65.42495117 214.78904175 64.42382812 214.45825195 C62.375 213.375 62.375 213.375 60.15087891 210.84741211 C56.57766206 207.66482926 53.52161576 207.37958683 48.9296875 207.078125 C48.06729462 207.00756897 47.20490173 206.93701294 46.31637573 206.86431885 C34.7169894 206.02715465 23.07508773 206.07686652 11.45214844 206.11425781 C7.54085443 206.12488896 3.63002933 206.11435089 -0.28125 206.1015625 C-15.95535506 206.09368897 -31.44227155 206.75224545 -47.06787109 207.90722656 Z " fill="#000000" transform="translate(191.625,58.625)"/>
<path d="M0 0 C2.475 0.99 2.475 0.99 5 2 C5.027193 3.58323688 5.04648306 5.16661062 5.0625 6.75 C5.07410156 7.63171875 5.08570313 8.5134375 5.09765625 9.421875 C5 12 5 12 4.52294922 13.81640625 C3.90530353 16.3954086 3.71537253 18.86951179 3.53515625 21.515625 C3.45869873 22.59497314 3.38224121 23.67432129 3.3034668 24.78637695 C3.22394775 25.92937256 3.14442871 27.07236816 3.0625 28.25 C2.71680649 32.83400365 2.35963598 37.41707126 2 42 C1.93200195 42.89219238 1.86400391 43.78438477 1.79394531 44.70361328 C1.61665513 46.90984115 1.40926108 49.11036714 1.1875 51.3125 C1.07792969 52.50488281 0.96835937 53.69726562 0.85546875 54.92578125 C-0.22415061 58.80550926 -1.99320622 60.38895669 -5 63 C-5.825 63.845625 -6.65 64.69125 -7.5 65.5625 C-8.325 66.366875 -9.15 67.17125 -10 68 C-10.64195312 68.71285156 -11.28390625 69.42570312 -11.9453125 70.16015625 C-16.65487781 72.99673587 -21.01751262 72.25285805 -26.375 71.875 C-27.89867187 71.80152344 -27.89867187 71.80152344 -29.453125 71.7265625 C-34.92278704 71.41401038 -39.81110287 70.76861001 -45 69 C-44.67 68.01 -44.34 67.02 -44 66 C-43.29617187 66.020625 -42.59234375 66.04125 -41.8671875 66.0625 C-35.15667927 65.92233273 -30.15913266 64.55390802 -24.375 61.3125 C-23.77155762 60.98572266 -23.16811523 60.65894531 -22.54638672 60.32226562 C-19.5770613 58.54897736 -18.11624614 57.25921153 -16.69140625 54.08203125 C-16.46324219 53.06496094 -16.23507813 52.04789063 -16 51 C-15.75378906 50.07960937 -15.50757813 49.15921875 -15.25390625 48.2109375 C-15.02574219 47.27507812 -14.79757813 46.33921875 -14.5625 45.375 C-14.3046875 44.32570312 -14.046875 43.27640625 -13.78125 42.1953125 C-13.5234375 41.14085937 -13.265625 40.08640625 -13 39 C-12.27482626 36.09142271 -11.54581764 33.18387875 -10.8125 30.27734375 C-10.21215398 27.85575571 -9.63040039 25.43306556 -9.0625 23.00390625 C-4.73821072 4.73821072 -4.73821072 4.73821072 0 0 Z " fill="#DDDBDB" transform="translate(256,75)"/>
<path d="M0 0 C2.32157516 1.47836154 4.00403518 3.05045297 6 5 C6 5.66 6 6.32 6 7 C8.82208874 8.43354394 11.6706742 9.77561305 14.5625 11.0625 C15.70912109 11.57490234 15.70912109 11.57490234 16.87890625 12.09765625 C22.5637417 14.51606691 27.84103704 14.18396991 33.9375 14.1875 C35.55495117 14.20586914 35.55495117 14.20586914 37.20507812 14.22460938 C45.42084516 14.23937708 53.15861814 13.22695097 61.1875 11.54052734 C65.52456286 10.72393973 65.52456286 10.72393973 67.9375 12.125 C69.4037285 14.71246205 69.57165519 16.07026717 69 19 C58.76168336 28.73752942 39.95228676 26.67785472 26.9140625 26.42578125 C18.64386423 26.07364385 9.73963734 24.91664592 3.1328125 19.45703125 C2 18 2 18 2 16 C1.360625 15.731875 0.72125 15.46375 0.0625 15.1875 C-2 14 -2 14 -3 11 C-4.96672915 9.8499169 -4.96672915 9.8499169 -7 9 C-8 8 -8 8 -8.25 5.625 C-8 3 -8 3 -6.8125 1.1875 C-4.24493261 -0.49469933 -3.02924147 -0.56357981 0 0 Z " fill="#020202" transform="translate(148,199)"/>
<path d="M0 0 C1.875 1.0625 1.875 1.0625 3 3 C2.6875 6.6875 2.6875 6.6875 2 10 C-4.42548263 11.33359073 -4.42548263 11.33359073 -6.9375 9.875 C-8.36066991 7.36352369 -8.42674516 5.84496772 -8 3 C-5.85607122 -0.27231235 -3.76836426 -0.56525464 0 0 Z " fill="#070707" transform="translate(200,181)"/>
<path d="M0 0 C1.875 1.0625 1.875 1.0625 3 3 C2.6875 6.6875 2.6875 6.6875 2 10 C-4.42548263 11.33359073 -4.42548263 11.33359073 -6.9375 9.875 C-8.36066991 7.36352369 -8.42674516 5.84496772 -8 3 C-5.85607122 -0.27231235 -3.76836426 -0.56525464 0 0 Z " fill="#070707" transform="translate(167,180)"/>
</svg>
